{
	"asset": {
		"generator": "Unity 2018.3.6f1",
		"extras": {
			"exporterVersion" : "2.2.1"
		},
		"version": "2.0"
	},
	"accessors": [
		{
			"bufferView": 2,
			"byteOffset": 0,
			"componentType": 5126,
			"count": 160,
			"max": [ 1.5, 1.5, 0.0431025 ],
			"min": [ -1.5, 0, -0.0431025 ],
			"type": "VEC3"
		},
		{
			"bufferView": 2,
			"byteOffset": 1920,
			"componentType": 5126,
			"count": 160,
			"max": [ 1, 1, 1 ],
			"min": [ -1, -1, -1 ],
			"type": "VEC3"
		},
		{
			"bufferView": 1,
			"byteOffset": 0,
			"componentType": 5126,
			"count": 160,
			"max": [ 1, 1 ],
			"min": [ 0, 0.3485372 ],
			"type": "VEC2"
		},
		{
			"bufferView": 3,
			"byteOffset": 0,
			"componentType": 5126,
			"count": 160,
			"max": [ 1, 1, 0.7864218, 1 ],
			"min": [ -1, -0.9999686, -0.7866551, -1 ],
			"type": "VEC4"
		},
		{
			"bufferView": 0,
			"byteOffset": 0,
			"componentType": 5123,
			"count": 276,
			"max": [ 159 ],
			"min": [ 0 ],
			"type": "SCALAR"
		}
	],
	"buffers": [
		{
			"byteLength": 8232,
			"uri": "entity264912n.bin"
		}
	],
	"bufferViews": [
		{
			"buffer": 0,
			"byteLength": 552,
			"target": 34963,
			"byteOffset": 7680
		},
		{
			"buffer": 0,
			"byteLength": 1280,
			"target": 34962,
			"byteStride": 8,
			"byteOffset": 0
		},
		{
			"buffer": 0,
			"byteLength": 3840,
			"target": 34962,
			"byteStride": 12,
			"byteOffset": 1280
		},
		{
			"buffer": 0,
			"byteLength": 2560,
			"target": 34962,
			"byteStride": 16,
			"byteOffset": 5120
		}
	],
	"images": [
		{
			"uri": "Assets/Visuals/Textures/Banner_02_Albedo.jpg"
		}
	],
	"materials": [
		{
			"pbrMetallicRoughness": {
				"baseColorTexture" : {
					"index" : 0,
					"texCoord" : 0
				},
				"baseColorFactor": [1, 1, 1, 1],
				"metallicFactor": 0,
				"roughnessFactor": 0.5
			},
			"emissiveFactor": [0, 0, 0],
			"doubleSided": false,
			"name": "Banner_02_Mat"
		}
	],
	"meshes": [
		{
			"name": "mesh_Banner_02_15136Banner_02 (1)",
			"primitives": [
				{
					"attributes": {
						"POSITION": 0,
						"NORMAL": 1,
						"TEXCOORD_0": 2,
						"TANGENT": 3
					},
					"indices": 4,
					"material": 0,
					"mode": 4
				}
			]
		}
	],
	"nodes": [
		{
			"name": "UnityGlTF_root",
			"children": [
				1
			]
		},
		{
			"name": "node_Banner_02 (1)",
			"mesh": 0,
			"matrix": [1, 0, 0, 0, 0, 1, 0, 0, 0, 0, 1, 0, 0, 0, 0, 1]
		}
	],
	"samplers": [
		{
			"magFilter": 9729,
			"minFilter": 9985,
			"wrapS": 10497,
			"wrapT": 10497
		}
	],
	"scenes": [
		{
			"name":"defaultScene",
			"nodes": [
				0
			]
		}
	],
	"scene": 0,
	"textures": [
		{
			"sampler": 0,
			"source": 0
		}
	]
}