{
	"asset": {
		"generator": "Unity 2018.3.6f1",
		"extras": {
			"exporterVersion" : "2.2.1"
		},
		"version": "2.0"
	},
	"accessors": [
		{
			"bufferView": 2,
			"byteOffset": 0,
			"componentType": 5126,
			"count": 66,
			"max": [ 324.2511, 374.655, 285.3777 ],
			"min": [ -324.2511, -374.655, -285.3777 ],
			"type": "VEC3"
		},
		{
			"bufferView": 2,
			"byteOffset": 792,
			"componentType": 5126,
			"count": 66,
			"max": [ 0.9553359, 0.962022, 0.9668605 ],
			"min": [ -0.9538628, -0.962022, -0.9671535 ],
			"type": "VEC3"
		},
		{
			"bufferView": 1,
			"byteOffset": 0,
			"componentType": 5126,
			"count": 66,
			"max": [ 0.984666, 0.9570365 ],
			"min": [ 0.1567612, 0.1416295 ],
			"type": "VEC2"
		},
		{
			"bufferView": 3,
			"byteOffset": 0,
			"componentType": 5126,
			"count": 66,
			"max": [ 0.6478207, 0.9780194, 0.9617662, 1 ],
			"min": [ -0.6551974, -0.968163, 0.1713262, -1 ],
			"type": "VEC4"
		},
		{
			"bufferView": 0,
			"byteOffset": 0,
			"componentType": 5123,
			"count": 120,
			"max": [ 32 ],
			"min": [ 0 ],
			"type": "SCALAR"
		},
		{
			"bufferView": 0,
			"byteOffset": 240,
			"componentType": 5123,
			"count": 120,
			"max": [ 65 ],
			"min": [ 33 ],
			"type": "SCALAR"
		}
	],
	"buffers": [
		{
			"byteLength": 3648,
			"uri": "entity42352.bin"
		}
	],
	"bufferViews": [
		{
			"buffer": 0,
			"byteLength": 480,
			"target": 34963,
			"byteOffset": 3168
		},
		{
			"buffer": 0,
			"byteLength": 528,
			"target": 34962,
			"byteStride": 8,
			"byteOffset": 0
		},
		{
			"buffer": 0,
			"byteLength": 1584,
			"target": 34962,
			"byteStride": 12,
			"byteOffset": 528
		},
		{
			"buffer": 0,
			"byteLength": 1056,
			"target": 34962,
			"byteStride": 16,
			"byteOffset": 2112
		}
	],
	"images": [
		{
			"uri": "Assets/Visuals/Textures/texture_rock_simple_01.jpg"
		}
	],
	"materials": [
		{
			"pbrMetallicRoughness": {
				"baseColorFactor": [0.1708239, 0.1518166, 0.1985294, 1],
				"metallicFactor": 1,
				"roughnessFactor": 1
			},
			"emissiveFactor": [0, 0, 0],
			"doubleSided": false,
			"name": "outline"
		},
		{
			"pbrMetallicRoughness": {
				"baseColorTexture" : {
					"index" : 0,
					"texCoord" : 0
				},
				"baseColorFactor": [1, 1, 1, 1],
				"metallicFactor": 0,
				"roughnessFactor": 1
			},
			"emissiveFactor": [0, 0, 0],
			"doubleSided": false,
			"name": "mat09"
		}
	],
	"meshes": [
		{
			"name": "mesh_rock9_10914rock9",
			"primitives": [
				{
					"attributes": {
						"POSITION": 0,
						"NORMAL": 1,
						"TEXCOORD_0": 2,
						"TANGENT": 3
					},
					"indices": 4,
					"material": 0,
					"mode": 4
				},
				{
					"attributes": {
						"POSITION": 0,
						"NORMAL": 1,
						"TEXCOORD_0": 2,
						"TANGENT": 3
					},
					"indices": 5,
					"material": 1,
					"mode": 4
				}
			]
		}
	],
	"nodes": [
		{
			"name": "UnityGlTF_root",
			"children": [
				1
			]
		},
		{
			"name": "node_rock9",
			"mesh": 0,
			"matrix": [1, 0, 0, 0, 0, 1, 0, 0, 0, 0, 1, 0, 0, 0, 0, 1]
		}
	],
	"samplers": [
		{
			"magFilter": 9729,
			"minFilter": 9985,
			"wrapS": 10497,
			"wrapT": 10497
		}
	],
	"scenes": [
		{
			"name":"defaultScene",
			"nodes": [
				0
			]
		}
	],
	"scene": 0,
	"textures": [
		{
			"sampler": 0,
			"source": 0
		}
	]
}