{
	"asset": {
		"generator": "Unity 2018.3.6f1",
		"extras": {
			"exporterVersion" : "2.2.1"
		},
		"version": "2.0"
	},
	"accessors": [
		{
			"bufferView": 2,
			"byteOffset": 0,
			"componentType": 5126,
			"count": 115,
			"max": [ 40.06703, 52.18438, 40.88396 ],
			"min": [ -37.95654, -3.420946, -40.88396 ],
			"type": "VEC3"
		},
		{
			"bufferView": 2,
			"byteOffset": 1380,
			"componentType": 5126,
			"count": 115,
			"max": [ 0.9639222, 0.9861752, 0.9631889 ],
			"min": [ -0.9873911, -0.994987, -0.9631889 ],
			"type": "VEC3"
		},
		{
			"bufferView": 1,
			"byteOffset": 0,
			"componentType": 5126,
			"count": 115,
			"max": [ 1.45336, 2.906025 ],
			"min": [ -0.4541348, -0.6597348 ],
			"type": "VEC2"
		},
		{
			"bufferView": 3,
			"byteOffset": 0,
			"componentType": 5126,
			"count": 115,
			"max": [ 0.9897643, 0.7532561, 1, 1 ],
			"min": [ -0.9949712, -0.9504138, -1, -1 ],
			"type": "VEC4"
		},
		{
			"bufferView": 0,
			"byteOffset": 0,
			"componentType": 5123,
			"count": 108,
			"max": [ 24 ],
			"min": [ 0 ],
			"type": "SCALAR"
		},
		{
			"bufferView": 0,
			"byteOffset": 216,
			"componentType": 5123,
			"count": 288,
			"max": [ 86 ],
			"min": [ 25 ],
			"type": "SCALAR"
		},
		{
			"bufferView": 0,
			"byteOffset": 792,
			"componentType": 5123,
			"count": 108,
			"max": [ 114 ],
			"min": [ 87 ],
			"type": "SCALAR"
		}
	],
	"buffers": [
		{
			"byteLength": 6528,
			"uri": "entity43002.bin"
		}
	],
	"bufferViews": [
		{
			"buffer": 0,
			"byteLength": 1008,
			"target": 34963,
			"byteOffset": 5520
		},
		{
			"buffer": 0,
			"byteLength": 920,
			"target": 34962,
			"byteStride": 8,
			"byteOffset": 0
		},
		{
			"buffer": 0,
			"byteLength": 2760,
			"target": 34962,
			"byteStride": 12,
			"byteOffset": 920
		},
		{
			"buffer": 0,
			"byteLength": 1840,
			"target": 34962,
			"byteStride": 16,
			"byteOffset": 3680
		}
	],
	"images": [
		{
			"uri": "Assets/Visuals/Textures/texture_mushroom_top_01.jpg"
		},
		{
			"uri": "Assets/Visuals/Textures/texture_mushroom_bottom_01.jpg"
		}
	],
	"materials": [
		{
			"pbrMetallicRoughness": {
				"baseColorFactor": [0.1708239, 0.1518166, 0.1985294, 1],
				"metallicFactor": 1,
				"roughnessFactor": 1
			},
			"emissiveFactor": [0, 0, 0],
			"doubleSided": false,
			"name": "outline"
		},
		{
			"pbrMetallicRoughness": {
				"baseColorTexture" : {
					"index" : 0,
					"texCoord" : 0
				},
				"baseColorFactor": [1, 1, 1, 1],
				"metallicFactor": 0,
				"roughnessFactor": 1
			},
			"emissiveFactor": [0, 0, 0],
			"doubleSided": false,
			"name": "mat07"
		},
		{
			"pbrMetallicRoughness": {
				"baseColorTexture" : {
					"index" : 1,
					"texCoord" : 0
				},
				"baseColorFactor": [1, 1, 1, 1],
				"metallicFactor": 0,
				"roughnessFactor": 1
			},
			"emissiveFactor": [0, 0, 0],
			"doubleSided": false,
			"name": "mat06"
		}
	],
	"meshes": [
		{
			"name": "mesh_mesh_mushroom_01_10456mesh_mushroom_01",
			"primitives": [
				{
					"attributes": {
						"POSITION": 0,
						"NORMAL": 1,
						"TEXCOORD_0": 2,
						"TANGENT": 3
					},
					"indices": 4,
					"material": 0,
					"mode": 4
				},
				{
					"attributes": {
						"POSITION": 0,
						"NORMAL": 1,
						"TEXCOORD_0": 2,
						"TANGENT": 3
					},
					"indices": 5,
					"material": 1,
					"mode": 4
				},
				{
					"attributes": {
						"POSITION": 0,
						"NORMAL": 1,
						"TEXCOORD_0": 2,
						"TANGENT": 3
					},
					"indices": 6,
					"material": 2,
					"mode": 4
				}
			]
		}
	],
	"nodes": [
		{
			"name": "UnityGlTF_root",
			"children": [
				1
			]
		},
		{
			"name": "node_mesh_mushroom_01",
			"mesh": 0,
			"matrix": [1, 0, 0, 0, 0, 1, 0, 0, 0, 0, 1, 0, 0, 0, 0, 1]
		}
	],
	"samplers": [
		{
			"magFilter": 9729,
			"minFilter": 9985,
			"wrapS": 10497,
			"wrapT": 10497
		}
	],
	"scenes": [
		{
			"name":"defaultScene",
			"nodes": [
				0
			]
		}
	],
	"scene": 0,
	"textures": [
		{
			"sampler": 0,
			"source": 0
		},
		{
			"sampler": 0,
			"source": 1
		}
	]
}