{
	"asset": {
		"generator": "Unity 2018.3.6f1",
		"extras": {
			"exporterVersion" : "2.2.1"
		},
		"version": "2.0"
	},
	"accessors": [
		{
			"bufferView": 2,
			"byteOffset": 0,
			"componentType": 5126,
			"count": 1106,
			"max": [ 1261.026, 460.1544, 1364.149 ],
			"min": [ -1261.026, -460.1544, -1364.149 ],
			"type": "VEC3"
		},
		{
			"bufferView": 2,
			"byteOffset": 13272,
			"componentType": 5126,
			"count": 1106,
			"max": [ 0.9975473, 0.9999363, 0.9947272 ],
			"min": [ -0.9988393, -0.9999814, -0.9927032 ],
			"type": "VEC3"
		},
		{
			"bufferView": 1,
			"byteOffset": 0,
			"componentType": 5126,
			"count": 1106,
			"max": [ 4.705274, 3.907429 ],
			"min": [ -3.57431, -3.116737 ],
			"type": "VEC2"
		},
		{
			"bufferView": 3,
			"byteOffset": 0,
			"componentType": 5126,
			"count": 1106,
			"max": [ 0.99879, 0.9994128, 0.9810147, 1 ],
			"min": [ -0.9955885, -0.9984657, -0.994547, 1 ],
			"type": "VEC4"
		},
		{
			"bufferView": 0,
			"byteOffset": 0,
			"componentType": 5123,
			"count": 1653,
			"max": [ 338 ],
			"min": [ 0 ],
			"type": "SCALAR"
		},
		{
			"bufferView": 0,
			"byteOffset": 3306,
			"componentType": 5123,
			"count": 2535,
			"max": [ 1105 ],
			"min": [ 339 ],
			"type": "SCALAR"
		}
	],
	"buffers": [
		{
			"byteLength": 61464,
			"uri": "entity42370.bin"
		}
	],
	"bufferViews": [
		{
			"buffer": 0,
			"byteLength": 8376,
			"target": 34963,
			"byteOffset": 53088
		},
		{
			"buffer": 0,
			"byteLength": 8848,
			"target": 34962,
			"byteStride": 8,
			"byteOffset": 0
		},
		{
			"buffer": 0,
			"byteLength": 26544,
			"target": 34962,
			"byteStride": 12,
			"byteOffset": 8848
		},
		{
			"buffer": 0,
			"byteLength": 17696,
			"target": 34962,
			"byteStride": 16,
			"byteOffset": 35392
		}
	],
	"images": [
		{
			"uri": "Assets/Visuals/Textures/texture_grass_base_01.jpg"
		},
		{
			"uri": "Assets/Visuals/Textures/texture_rock_mounts_01.jpg"
		}
	],
	"materials": [
		{
			"pbrMetallicRoughness": {
				"baseColorTexture" : {
					"index" : 0,
					"texCoord" : 0
				},
				"baseColorFactor": [1, 1, 1, 1],
				"metallicFactor": 0,
				"roughnessFactor": 1
			},
			"emissiveFactor": [0, 0, 0],
			"doubleSided": false,
			"name": "mat04"
		},
		{
			"pbrMetallicRoughness": {
				"baseColorTexture" : {
					"index" : 1,
					"texCoord" : 0
				},
				"baseColorFactor": [1, 1, 1, 1],
				"metallicFactor": 0,
				"roughnessFactor": 1
			},
			"emissiveFactor": [0, 0, 0],
			"doubleSided": false,
			"name": "mat08"
		}
	],
	"meshes": [
		{
			"name": "mesh_Floating_island_01_water2_10896Floating_island_01_water2",
			"primitives": [
				{
					"attributes": {
						"POSITION": 0,
						"NORMAL": 1,
						"TEXCOORD_0": 2,
						"TANGENT": 3
					},
					"indices": 4,
					"material": 0,
					"mode": 4
				},
				{
					"attributes": {
						"POSITION": 0,
						"NORMAL": 1,
						"TEXCOORD_0": 2,
						"TANGENT": 3
					},
					"indices": 5,
					"material": 1,
					"mode": 4
				}
			]
		}
	],
	"nodes": [
		{
			"name": "UnityGlTF_root",
			"children": [
				1
			]
		},
		{
			"name": "node_Floating_island_01_water2",
			"mesh": 0,
			"matrix": [1, 0, 0, 0, 0, 1, 0, 0, 0, 0, 1, 0, 0, 0, 0, 1]
		}
	],
	"samplers": [
		{
			"magFilter": 9729,
			"minFilter": 9985,
			"wrapS": 10497,
			"wrapT": 10497
		}
	],
	"scenes": [
		{
			"name":"defaultScene",
			"nodes": [
				0
			]
		}
	],
	"scene": 0,
	"textures": [
		{
			"sampler": 0,
			"source": 0
		},
		{
			"sampler": 0,
			"source": 1
		}
	]
}