{
	"asset": {
		"generator": "Unity 2018.3.6f1",
		"extras": {
			"exporterVersion" : "2.2.1"
		},
		"version": "2.0"
	},
	"accessors": [
		{
			"bufferView": 2,
			"byteOffset": 0,
			"componentType": 5126,
			"count": 40,
			"max": [ 210.0751, 743.5638, 202.1868 ],
			"min": [ -210.0748, -743.5638, -202.1866 ],
			"type": "VEC3"
		},
		{
			"bufferView": 2,
			"byteOffset": 480,
			"componentType": 5126,
			"count": 40,
			"max": [ 0.8280467, 1, 0.5606591 ],
			"min": [ -0.8280467, -1, -0.5606591 ],
			"type": "VEC3"
		},
		{
			"bufferView": 1,
			"byteOffset": 0,
			"componentType": 5126,
			"count": 40,
			"max": [ 1.196267, 1.645563 ],
			"min": [ 0.4408927, -3.327675 ],
			"type": "VEC2"
		},
		{
			"bufferView": 3,
			"byteOffset": 0,
			"componentType": 5126,
			"count": 40,
			"max": [ -0.5606416, 0, 0.8280209, 1 ],
			"min": [ -0.5671867, -0.007905546, 0.8235892, -1 ],
			"type": "VEC4"
		},
		{
			"bufferView": 0,
			"byteOffset": 0,
			"componentType": 5123,
			"count": 60,
			"max": [ 39 ],
			"min": [ 0 ],
			"type": "SCALAR"
		}
	],
	"buffers": [
		{
			"byteLength": 2040,
			"uri": "entity42360.bin"
		}
	],
	"bufferViews": [
		{
			"buffer": 0,
			"byteLength": 120,
			"target": 34963,
			"byteOffset": 1920
		},
		{
			"buffer": 0,
			"byteLength": 320,
			"target": 34962,
			"byteStride": 8,
			"byteOffset": 0
		},
		{
			"buffer": 0,
			"byteLength": 960,
			"target": 34962,
			"byteStride": 12,
			"byteOffset": 320
		},
		{
			"buffer": 0,
			"byteLength": 640,
			"target": 34962,
			"byteStride": 16,
			"byteOffset": 1280
		}
	],
	"images": [
		{
			"uri": "Assets/Visuals/Textures/texture_water_01.jpg"
		}
	],
	"materials": [
		{
			"pbrMetallicRoughness": {
				"baseColorTexture" : {
					"index" : 0,
					"texCoord" : 0
				},
				"baseColorFactor": [1, 1, 1, 1],
				"metallicFactor": 0,
				"roughnessFactor": 1
			},
			"emissiveFactor": [0, 0, 0],
			"doubleSided": false,
			"name": "mat12"
		}
	],
	"meshes": [
		{
			"name": "mesh_pCube35_10906pCube35",
			"primitives": [
				{
					"attributes": {
						"POSITION": 0,
						"NORMAL": 1,
						"TEXCOORD_0": 2,
						"TANGENT": 3
					},
					"indices": 4,
					"material": 0,
					"mode": 4
				}
			]
		}
	],
	"nodes": [
		{
			"name": "UnityGlTF_root",
			"children": [
				1
			]
		},
		{
			"name": "node_pCube35",
			"mesh": 0,
			"matrix": [1, 0, 0, 0, 0, 1, 0, 0, 0, 0, 1, 0, 0, 0, 0, 1]
		}
	],
	"samplers": [
		{
			"magFilter": 9729,
			"minFilter": 9985,
			"wrapS": 10497,
			"wrapT": 10497
		}
	],
	"scenes": [
		{
			"name":"defaultScene",
			"nodes": [
				0
			]
		}
	],
	"scene": 0,
	"textures": [
		{
			"sampler": 0,
			"source": 0
		}
	]
}