{
	"asset": {
		"generator": "Unity 2018.3.6f1",
		"extras": {
			"exporterVersion" : "2.2.1"
		},
		"version": "2.0"
	},
	"accessors": [
		{
			"bufferView": 2,
			"byteOffset": 0,
			"componentType": 5126,
			"count": 118,
			"max": [ 18.6349, 69.95013, 22.1406 ],
			"min": [ -17.4602, -2.535999, -18.64583 ],
			"type": "VEC3"
		},
		{
			"bufferView": 2,
			"byteOffset": 1416,
			"componentType": 5126,
			"count": 118,
			"max": [ 0.9985465, 0.9903604, 0.9775899 ],
			"min": [ -0.9963763, -0.9892453, -0.9658113 ],
			"type": "VEC3"
		},
		{
			"bufferView": 1,
			"byteOffset": 0,
			"componentType": 5126,
			"count": 118,
			"max": [ 2.549931, 1.622366 ],
			"min": [ -1.575969, -1.336714 ],
			"type": "VEC2"
		},
		{
			"bufferView": 3,
			"byteOffset": 0,
			"componentType": 5126,
			"count": 118,
			"max": [ 0.9247105, 0.9887399, 0.9979215, 1 ],
			"min": [ -0.9718233, -0.9588224, -0.8450656, -1 ],
			"type": "VEC4"
		},
		{
			"bufferView": 0,
			"byteOffset": 0,
			"componentType": 5123,
			"count": 135,
			"max": [ 34 ],
			"min": [ 0 ],
			"type": "SCALAR"
		},
		{
			"bufferView": 0,
			"byteOffset": 270,
			"componentType": 5123,
			"count": 120,
			"max": [ 70 ],
			"min": [ 35 ],
			"type": "SCALAR"
		},
		{
			"bufferView": 0,
			"byteOffset": 510,
			"componentType": 5123,
			"count": 165,
			"max": [ 117 ],
			"min": [ 71 ],
			"type": "SCALAR"
		}
	],
	"buffers": [
		{
			"byteLength": 6504,
			"uri": "entity42674.bin"
		}
	],
	"bufferViews": [
		{
			"buffer": 0,
			"byteLength": 840,
			"target": 34963,
			"byteOffset": 5664
		},
		{
			"buffer": 0,
			"byteLength": 944,
			"target": 34962,
			"byteStride": 8,
			"byteOffset": 0
		},
		{
			"buffer": 0,
			"byteLength": 2832,
			"target": 34962,
			"byteStride": 12,
			"byteOffset": 944
		},
		{
			"buffer": 0,
			"byteLength": 1888,
			"target": 34962,
			"byteStride": 16,
			"byteOffset": 3776
		}
	],
	"images": [
		{
			"uri": "Assets/Visuals/Textures/texture_mushroom_top_01.jpg"
		},
		{
			"uri": "Assets/Visuals/Textures/texture_mushroom_bottom_01.jpg"
		}
	],
	"materials": [
		{
			"pbrMetallicRoughness": {
				"baseColorTexture" : {
					"index" : 0,
					"texCoord" : 0
				},
				"baseColorFactor": [1, 1, 1, 1],
				"metallicFactor": 0,
				"roughnessFactor": 1
			},
			"emissiveFactor": [0, 0, 0],
			"doubleSided": false,
			"name": "mat07"
		},
		{
			"pbrMetallicRoughness": {
				"baseColorTexture" : {
					"index" : 1,
					"texCoord" : 0
				},
				"baseColorFactor": [1, 1, 1, 1],
				"metallicFactor": 0,
				"roughnessFactor": 1
			},
			"emissiveFactor": [0, 0, 0],
			"doubleSided": false,
			"name": "mat06"
		},
		{
			"pbrMetallicRoughness": {
				"baseColorFactor": [0.1708239, 0.1518166, 0.1985294, 1],
				"metallicFactor": 1,
				"roughnessFactor": 1
			},
			"emissiveFactor": [0, 0, 0],
			"doubleSided": false,
			"name": "outline"
		}
	],
	"meshes": [
		{
			"name": "mesh_mesh_mushroom_02_10322mesh_mushroom_022",
			"primitives": [
				{
					"attributes": {
						"POSITION": 0,
						"NORMAL": 1,
						"TEXCOORD_0": 2,
						"TANGENT": 3
					},
					"indices": 4,
					"material": 0,
					"mode": 4
				},
				{
					"attributes": {
						"POSITION": 0,
						"NORMAL": 1,
						"TEXCOORD_0": 2,
						"TANGENT": 3
					},
					"indices": 5,
					"material": 1,
					"mode": 4
				},
				{
					"attributes": {
						"POSITION": 0,
						"NORMAL": 1,
						"TEXCOORD_0": 2,
						"TANGENT": 3
					},
					"indices": 6,
					"material": 2,
					"mode": 4
				}
			]
		}
	],
	"nodes": [
		{
			"name": "UnityGlTF_root",
			"children": [
				1
			]
		},
		{
			"name": "node_mesh_mushroom_022",
			"mesh": 0,
			"matrix": [1, 0, 0, 0, 0, 1, 0, 0, 0, 0, 1, 0, 0, 0, 0, 1]
		}
	],
	"samplers": [
		{
			"magFilter": 9729,
			"minFilter": 9985,
			"wrapS": 10497,
			"wrapT": 10497
		}
	],
	"scenes": [
		{
			"name":"defaultScene",
			"nodes": [
				0
			]
		}
	],
	"scene": 0,
	"textures": [
		{
			"sampler": 0,
			"source": 0
		},
		{
			"sampler": 0,
			"source": 1
		}
	]
}