{
	"asset": {
		"generator": "Unity 2018.3.6f1",
		"extras": {
			"exporterVersion" : "2.2.1"
		},
		"version": "2.0"
	},
	"accessors": [
		{
			"bufferView": 2,
			"byteOffset": 0,
			"componentType": 5126,
			"count": 358,
			"max": [ 3.800445, 14.51153, 3.11923 ],
			"min": [ -4.771373, -0.01049416, -2.950546 ],
			"type": "VEC3"
		},
		{
			"bufferView": 2,
			"byteOffset": 4296,
			"componentType": 5126,
			"count": 358,
			"max": [ 0.9996037, 0.9912409, 0.9801529 ],
			"min": [ -0.9995346, -0.9974354, -0.976762 ],
			"type": "VEC3"
		},
		{
			"bufferView": 1,
			"byteOffset": 0,
			"componentType": 5126,
			"count": 358,
			"max": [ 0.9657381, 1.677294 ],
			"min": [ -0.385682, -0.6772937 ],
			"type": "VEC2"
		},
		{
			"bufferView": 3,
			"byteOffset": 0,
			"componentType": 5126,
			"count": 358,
			"max": [ 0.9903223, 0.9832852, 0.9979801, 1 ],
			"min": [ -0.9680865, -0.9662635, -0.9997216, -1 ],
			"type": "VEC4"
		},
		{
			"bufferView": 0,
			"byteOffset": 0,
			"componentType": 5123,
			"count": 468,
			"max": [ 94 ],
			"min": [ 0 ],
			"type": "SCALAR"
		},
		{
			"bufferView": 0,
			"byteOffset": 936,
			"componentType": 5123,
			"count": 810,
			"max": [ 262 ],
			"min": [ 95 ],
			"type": "SCALAR"
		},
		{
			"bufferView": 0,
			"byteOffset": 2556,
			"componentType": 5123,
			"count": 468,
			"max": [ 357 ],
			"min": [ 263 ],
			"type": "SCALAR"
		},
		{
			"bufferView": 2,
			"byteOffset": 8592,
			"componentType": 5126,
			"count": 68,
			"max": [ 3.385533, 6.843125, 3.319689 ],
			"min": [ -3.16073, 0, -3.319689 ],
			"type": "VEC3"
		},
		{
			"bufferView": 2,
			"byteOffset": 9408,
			"componentType": 5126,
			"count": 68,
			"max": [ 0.5095941, 1, 0.860415 ],
			"min": [ -0.9591073, -0.9088949, -0.9125603 ],
			"type": "VEC3"
		},
		{
			"bufferView": 1,
			"byteOffset": 2864,
			"componentType": 5126,
			"count": 68,
			"max": [ 0.875, 0.75 ],
			"min": [ 0.125, 0 ],
			"type": "VEC2"
		},
		{
			"bufferView": 3,
			"byteOffset": 5728,
			"componentType": 5126,
			"count": 68,
			"max": [ 1, 0.04599526, 0.999396, 1 ],
			"min": [ -0.9125603, -0.1230745, -0.9193691, 1 ],
			"type": "VEC4"
		},
		{
			"bufferView": 0,
			"byteOffset": 3492,
			"componentType": 5123,
			"count": 102,
			"max": [ 67 ],
			"min": [ 0 ],
			"type": "SCALAR"
		}
	],
	"buffers": [
		{
			"byteLength": 24144,
			"uri": "entity29954.bin"
		}
	],
	"bufferViews": [
		{
			"buffer": 0,
			"byteLength": 3696,
			"target": 34963,
			"byteOffset": 20448
		},
		{
			"buffer": 0,
			"byteLength": 3408,
			"target": 34962,
			"byteStride": 8,
			"byteOffset": 0
		},
		{
			"buffer": 0,
			"byteLength": 10224,
			"target": 34962,
			"byteStride": 12,
			"byteOffset": 3408
		},
		{
			"buffer": 0,
			"byteLength": 6816,
			"target": 34962,
			"byteStride": 16,
			"byteOffset": 13632
		}
	],
	"images": [
		{
			"uri": "Assets/Visuals/Materials/Tree_Leaves_Albedo.jpg"
		},
		{
			"uri": "Assets/Visuals/Materials/Tree_Wood_Albedo.jpg"
		}
	],
	"materials": [
		{
			"pbrMetallicRoughness": {
				"baseColorTexture" : {
					"index" : 0,
					"texCoord" : 0
				},
				"baseColorFactor": [1, 1, 1, 1],
				"metallicFactor": 0,
				"roughnessFactor": 1
			},
			"emissiveFactor": [0, 0, 0],
			"doubleSided": false,
			"name": "Tree_Leaves_Mat"
		},
		{
			"pbrMetallicRoughness": {
				"baseColorTexture" : {
					"index" : 1,
					"texCoord" : 0
				},
				"baseColorFactor": [1, 1, 1, 1],
				"metallicFactor": 0,
				"roughnessFactor": 1
			},
			"emissiveFactor": [0, 0, 0],
			"doubleSided": false,
			"name": "Tree_Wood_Mat"
		},
		{
			"pbrMetallicRoughness": {
				"baseColorFactor": [0, 0, 0, 1],
				"metallicFactor": 0,
				"roughnessFactor": 1
			},
			"emissiveFactor": [0, 0, 0],
			"doubleSided": false,
			"name": "Black_Outline_Mat"
		},
		{
			"pbrMetallicRoughness": {
				"baseColorFactor": [1, 1, 1, 1],
				"metallicFactor": 0,
				"roughnessFactor": 0.5
			},
			"emissiveFactor": [0, 0, 0],
			"doubleSided": false,
			"name": "DefaultMaterial"
		}
	],
	"meshes": [
		{
			"name": "mesh_Tree_04_12652Tree_04",
			"primitives": [
				{
					"attributes": {
						"POSITION": 0,
						"NORMAL": 1,
						"TEXCOORD_0": 2,
						"TANGENT": 3
					},
					"indices": 4,
					"material": 0,
					"mode": 4
				},
				{
					"attributes": {
						"POSITION": 0,
						"NORMAL": 1,
						"TEXCOORD_0": 2,
						"TANGENT": 3
					},
					"indices": 5,
					"material": 1,
					"mode": 4
				},
				{
					"attributes": {
						"POSITION": 0,
						"NORMAL": 1,
						"TEXCOORD_0": 2,
						"TANGENT": 3
					},
					"indices": 6,
					"material": 2,
					"mode": 4
				}
			]
		},
		{
			"name": "mesh_Tree_04_collider_12654Tree_04_collider",
			"primitives": [
				{
					"attributes": {
						"POSITION": 7,
						"NORMAL": 8,
						"TEXCOORD_0": 9,
						"TANGENT": 10
					},
					"indices": 11,
					"material": 3,
					"mode": 4
				}
			]
		}
	],
	"nodes": [
		{
			"name": "UnityGlTF_root",
			"children": [
				1
			]
		},
		{
			"name": "node_Tree_04",
			"mesh": 0,
			"children": [
				2
			],
			"matrix": [1, 0, 0, 0, 0, 1, 0, 0, 0, 0, 1, 0, 0, 0, 0, 1]
		},
		{
			"name": "node_Tree_04_collider",
			"mesh": 1
		}
	],
	"samplers": [
		{
			"magFilter": 9729,
			"minFilter": 9985,
			"wrapS": 10497,
			"wrapT": 10497
		}
	],
	"scenes": [
		{
			"name":"defaultScene",
			"nodes": [
				0
			]
		}
	],
	"scene": 0,
	"textures": [
		{
			"sampler": 0,
			"source": 0
		},
		{
			"sampler": 0,
			"source": 1
		}
	]
}