{
	"asset": {
		"generator": "Unity 2018.3.6f1",
		"extras": {
			"exporterVersion" : "2.2.1"
		},
		"version": "2.0"
	},
	"accessors": [
		{
			"bufferView": 2,
			"byteOffset": 0,
			"componentType": 5126,
			"count": 112,
			"max": [ 4.373869, 2.328987, 2.267242 ],
			"min": [ -4.37387, -0.1088143, -2.267242 ],
			"type": "VEC3"
		},
		{
			"bufferView": 2,
			"byteOffset": 1344,
			"componentType": 5126,
			"count": 112,
			"max": [ 0.8426003, 0.9888058, 0.8499303 ],
			"min": [ -0.8567445, 0.1277238, -0.9875156 ],
			"type": "VEC3"
		},
		{
			"bufferView": 1,
			"byteOffset": 0,
			"componentType": 5126,
			"count": 112,
			"max": [ 0.9587439, 1.19473 ],
			"min": [ -0.865445, -0.2715263 ],
			"type": "VEC2"
		},
		{
			"bufferView": 3,
			"byteOffset": 0,
			"componentType": 5126,
			"count": 112,
			"max": [ 0.9994649, 0.2500851, 0.9998423, 1 ],
			"min": [ -0.9978712, -0.9915167, -0.9863569, -1 ],
			"type": "VEC4"
		},
		{
			"bufferView": 0,
			"byteOffset": 0,
			"componentType": 5123,
			"count": 96,
			"max": [ 47 ],
			"min": [ 0 ],
			"type": "SCALAR"
		},
		{
			"bufferView": 0,
			"byteOffset": 192,
			"componentType": 5123,
			"count": 120,
			"max": [ 83 ],
			"min": [ 48 ],
			"type": "SCALAR"
		},
		{
			"bufferView": 0,
			"byteOffset": 432,
			"componentType": 5123,
			"count": 96,
			"max": [ 111 ],
			"min": [ 84 ],
			"type": "SCALAR"
		},
		{
			"bufferView": 2,
			"byteOffset": 2688,
			"componentType": 5126,
			"count": 44,
			"max": [ 4.391797, 2.268673, 2.552219 ],
			"min": [ -4.471613, 0, -2.468438 ],
			"type": "VEC3"
		},
		{
			"bufferView": 2,
			"byteOffset": 3216,
			"componentType": 5126,
			"count": 44,
			"max": [ 0.7223401, 0.9750474, 0.5349417 ],
			"min": [ -0.6942731, 0.5873472, -0.8014615 ],
			"type": "VEC3"
		},
		{
			"bufferView": 1,
			"byteOffset": 896,
			"componentType": 5126,
			"count": 44,
			"max": [ 0.875, 0.75 ],
			"min": [ 0.125, 0 ],
			"type": "VEC2"
		},
		{
			"bufferView": 3,
			"byteOffset": 1792,
			"componentType": 5126,
			"count": 44,
			"max": [ 1, 1, 0.9981845, 1 ],
			"min": [ -1, -0.1725087, -0.998324, -1 ],
			"type": "VEC4"
		},
		{
			"bufferView": 0,
			"byteOffset": 624,
			"componentType": 5123,
			"count": 132,
			"max": [ 43 ],
			"min": [ 0 ],
			"type": "SCALAR"
		}
	],
	"buffers": [
		{
			"byteLength": 8376,
			"uri": "entity7064.bin"
		}
	],
	"bufferViews": [
		{
			"buffer": 0,
			"byteLength": 888,
			"target": 34963,
			"byteOffset": 7488
		},
		{
			"buffer": 0,
			"byteLength": 1248,
			"target": 34962,
			"byteStride": 8,
			"byteOffset": 0
		},
		{
			"buffer": 0,
			"byteLength": 3744,
			"target": 34962,
			"byteStride": 12,
			"byteOffset": 1248
		},
		{
			"buffer": 0,
			"byteLength": 2496,
			"target": 34962,
			"byteStride": 16,
			"byteOffset": 4992
		}
	],
	"images": [
		{
			"uri": "Assets/Visuals/Materials/Bush_01_Albedo.png"
		},
		{
			"uri": "Assets/Visuals/Materials/Rock_03_Albedo.jpg"
		},
		{
			"uri": "Assets/Visuals/Materials/Grass_Albedo.jpg"
		}
	],
	"materials": [
		{
			"pbrMetallicRoughness": {
				"baseColorTexture" : {
					"index" : 0,
					"texCoord" : 0
				},
				"baseColorFactor": [1, 1, 1, 1],
				"metallicFactor": 0,
				"roughnessFactor": 1
			},
			"alphaMode": "BLEND",
			"alphaCutoff": 0.5,
			"emissiveFactor": [0, 0, 0],
			"doubleSided": false,
			"name": "Bush_01_Mat"
		},
		{
			"pbrMetallicRoughness": {
				"baseColorTexture" : {
					"index" : 1,
					"texCoord" : 0
				},
				"baseColorFactor": [1, 1, 1, 1],
				"metallicFactor": 0,
				"roughnessFactor": 1
			},
			"emissiveFactor": [0, 0, 0],
			"doubleSided": false,
			"name": "Rock_03_Mat"
		},
		{
			"pbrMetallicRoughness": {
				"baseColorTexture" : {
					"index" : 2,
					"texCoord" : 0
				},
				"baseColorFactor": [1, 1, 1, 1],
				"metallicFactor": 0,
				"roughnessFactor": 1
			},
			"emissiveFactor": [0, 0, 0],
			"doubleSided": false,
			"name": "Grass_Mat"
		},
		{
			"pbrMetallicRoughness": {
				"baseColorFactor": [0.05724907, 1, 0, 1],
				"metallicFactor": 0,
				"roughnessFactor": 0.5
			},
			"emissiveFactor": [0, 0, 0],
			"doubleSided": false,
			"name": "_collider_Mat"
		}
	],
	"meshes": [
		{
			"name": "mesh_Terrain_Amount_02_4998Terrain_Amount_02",
			"primitives": [
				{
					"attributes": {
						"POSITION": 0,
						"NORMAL": 1,
						"TEXCOORD_0": 2,
						"TANGENT": 3
					},
					"indices": 4,
					"material": 0,
					"mode": 4
				},
				{
					"attributes": {
						"POSITION": 0,
						"NORMAL": 1,
						"TEXCOORD_0": 2,
						"TANGENT": 3
					},
					"indices": 5,
					"material": 1,
					"mode": 4
				},
				{
					"attributes": {
						"POSITION": 0,
						"NORMAL": 1,
						"TEXCOORD_0": 2,
						"TANGENT": 3
					},
					"indices": 6,
					"material": 2,
					"mode": 4
				}
			]
		},
		{
			"name": "mesh_Terrain_Amount_02_collider_5000Terrain_Amount_02_collider",
			"primitives": [
				{
					"attributes": {
						"POSITION": 7,
						"NORMAL": 8,
						"TEXCOORD_0": 9,
						"TANGENT": 10
					},
					"indices": 11,
					"material": 3,
					"mode": 4
				}
			]
		}
	],
	"nodes": [
		{
			"name": "UnityGlTF_root",
			"children": [
				1
			]
		},
		{
			"name": "node_Terrain_Amount_02",
			"mesh": 0,
			"children": [
				2
			],
			"matrix": [1, 0, 0, 0, 0, 1, 0, 0, 0, 0, 1, 0, 0, 0, 0, 1]
		},
		{
			"name": "node_Terrain_Amount_02_collider",
			"mesh": 1
		}
	],
	"samplers": [
		{
			"magFilter": 9729,
			"minFilter": 9985,
			"wrapS": 10497,
			"wrapT": 10497
		}
	],
	"scenes": [
		{
			"name":"defaultScene",
			"nodes": [
				0
			]
		}
	],
	"scene": 0,
	"textures": [
		{
			"sampler": 0,
			"source": 0
		},
		{
			"sampler": 0,
			"source": 1
		},
		{
			"sampler": 0,
			"source": 2
		}
	]
}