{
	"asset": {
		"generator": "Unity 2018.3.6f1",
		"extras": {
			"exporterVersion" : "2.2.1"
		},
		"version": "2.0"
	},
	"accessors": [
		{
			"bufferView": 2,
			"byteOffset": 0,
			"componentType": 5126,
			"count": 372,
			"max": [ 1.505758, 1.349037, 0.8166458 ],
			"min": [ -1.34696, -0.006771912, -0.6571634 ],
			"type": "VEC3"
		},
		{
			"bufferView": 2,
			"byteOffset": 4464,
			"componentType": 5126,
			"count": 372,
			"max": [ 0.9617565, 0.9996046, 0.9970003 ],
			"min": [ -0.9608869, -0.9995158, -0.9966582 ],
			"type": "VEC3"
		},
		{
			"bufferView": 1,
			"byteOffset": 0,
			"componentType": 5126,
			"count": 372,
			"max": [ 0.8791715, 0.9614585 ],
			"min": [ -0.4223871, -0.01951221 ],
			"type": "VEC2"
		},
		{
			"bufferView": 3,
			"byteOffset": 0,
			"componentType": 5126,
			"count": 372,
			"max": [ 0.9945261, 0.9955336, 0.8915973, 1 ],
			"min": [ -0.7009591, -0.9963481, -0.9999267, -1 ],
			"type": "VEC4"
		},
		{
			"bufferView": 0,
			"byteOffset": 0,
			"componentType": 5123,
			"count": 1014,
			"max": [ 185 ],
			"min": [ 0 ],
			"type": "SCALAR"
		},
		{
			"bufferView": 0,
			"byteOffset": 2028,
			"componentType": 5123,
			"count": 1014,
			"max": [ 371 ],
			"min": [ 186 ],
			"type": "SCALAR"
		},
		{
			"bufferView": 2,
			"byteOffset": 8928,
			"componentType": 5126,
			"count": 32,
			"max": [ 1.424657, 1.335413, 0.7930996 ],
			"min": [ -1.334078, 0, -0.75 ],
			"type": "VEC3"
		},
		{
			"bufferView": 2,
			"byteOffset": 9312,
			"componentType": 5126,
			"count": 32,
			"max": [ 1, 0.9995871, 0.9994786 ],
			"min": [ -1, -0.999969, -0.995154 ],
			"type": "VEC3"
		},
		{
			"bufferView": 1,
			"byteOffset": 2976,
			"componentType": 5126,
			"count": 32,
			"max": [ 0.875, 1 ],
			"min": [ 0.125, 0 ],
			"type": "VEC2"
		},
		{
			"bufferView": 3,
			"byteOffset": 5952,
			"componentType": 5126,
			"count": 32,
			"max": [ 0, 0.274924, 1, 1 ],
			"min": [ -0.9970275, -0.249638, -1, 1 ],
			"type": "VEC4"
		},
		{
			"bufferView": 0,
			"byteOffset": 4056,
			"componentType": 5123,
			"count": 60,
			"max": [ 31 ],
			"min": [ 0 ],
			"type": "SCALAR"
		}
	],
	"buffers": [
		{
			"byteLength": 23568,
			"uri": "entity162176.bin"
		}
	],
	"bufferViews": [
		{
			"buffer": 0,
			"byteLength": 4176,
			"target": 34963,
			"byteOffset": 19392
		},
		{
			"buffer": 0,
			"byteLength": 3232,
			"target": 34962,
			"byteStride": 8,
			"byteOffset": 0
		},
		{
			"buffer": 0,
			"byteLength": 9696,
			"target": 34962,
			"byteStride": 12,
			"byteOffset": 3232
		},
		{
			"buffer": 0,
			"byteLength": 6464,
			"target": 34962,
			"byteStride": 16,
			"byteOffset": 12928
		}
	],
	"images": [
		{
			"uri": "Assets/Visuals/Materials/Tree_Leaves_Albedo.jpg"
		}
	],
	"materials": [
		{
			"pbrMetallicRoughness": {
				"baseColorTexture" : {
					"index" : 0,
					"texCoord" : 0
				},
				"baseColorFactor": [1, 1, 1, 1],
				"metallicFactor": 0,
				"roughnessFactor": 1
			},
			"emissiveFactor": [0, 0, 0],
			"doubleSided": false,
			"name": "Tree_Leaves_Mat"
		},
		{
			"pbrMetallicRoughness": {
				"baseColorFactor": [0, 0, 0, 1],
				"metallicFactor": 0,
				"roughnessFactor": 1
			},
			"emissiveFactor": [0, 0, 0],
			"doubleSided": false,
			"name": "Black_Outline_Mat"
		},
		{
			"pbrMetallicRoughness": {
				"baseColorFactor": [0.05724907, 1, 0, 1],
				"metallicFactor": 0,
				"roughnessFactor": 0.5
			},
			"emissiveFactor": [0, 0, 0],
			"doubleSided": false,
			"name": "_collider_Mat"
		}
	],
	"meshes": [
		{
			"name": "mesh_Bush_02_12640Bush_02",
			"primitives": [
				{
					"attributes": {
						"POSITION": 0,
						"NORMAL": 1,
						"TEXCOORD_0": 2,
						"TANGENT": 3
					},
					"indices": 4,
					"material": 0,
					"mode": 4
				},
				{
					"attributes": {
						"POSITION": 0,
						"NORMAL": 1,
						"TEXCOORD_0": 2,
						"TANGENT": 3
					},
					"indices": 5,
					"material": 1,
					"mode": 4
				}
			]
		},
		{
			"name": "mesh_Bush_02_collider_12642Bush_02_collider",
			"primitives": [
				{
					"attributes": {
						"POSITION": 6,
						"NORMAL": 7,
						"TEXCOORD_0": 8,
						"TANGENT": 9
					},
					"indices": 10,
					"material": 2,
					"mode": 4
				}
			]
		}
	],
	"nodes": [
		{
			"name": "UnityGlTF_root",
			"children": [
				1
			]
		},
		{
			"name": "node_Bush_02",
			"mesh": 0,
			"children": [
				2
			],
			"matrix": [1, 0, 0, 0, 0, 1, 0, 0, 0, 0, 1, 0, 0, 0, 0, 1]
		},
		{
			"name": "node_Bush_02_collider",
			"mesh": 1
		}
	],
	"samplers": [
		{
			"magFilter": 9729,
			"minFilter": 9985,
			"wrapS": 10497,
			"wrapT": 10497
		}
	],
	"scenes": [
		{
			"name":"defaultScene",
			"nodes": [
				0
			]
		}
	],
	"scene": 0,
	"textures": [
		{
			"sampler": 0,
			"source": 0
		}
	]
}