{
	"asset": {
		"generator": "Unity 2018.3.6f1",
		"extras": {
			"exporterVersion" : "2.2.1"
		},
		"version": "2.0"
	},
	"accessors": [
		{
			"bufferView": 2,
			"byteOffset": 0,
			"componentType": 5126,
			"count": 2551,
			"max": [ 1.611887, 2.778868, 1.832913 ],
			"min": [ -1.805661, -0.2421939, -1.42275 ],
			"type": "VEC3"
		},
		{
			"bufferView": 2,
			"byteOffset": 30612,
			"componentType": 5126,
			"count": 2551,
			"max": [ 0.9989943, 0.9997955, 0.9992796 ],
			"min": [ -0.9996203, -0.9999095, -0.9998896 ],
			"type": "VEC3"
		},
		{
			"bufferView": 1,
			"byteOffset": 0,
			"componentType": 5126,
			"count": 2551,
			"max": [ 1.929129, 1.974647 ],
			"min": [ -0.9231817, -0.9746463 ],
			"type": "VEC2"
		},
		{
			"bufferView": 3,
			"byteOffset": 0,
			"componentType": 5126,
			"count": 2551,
			"max": [ 0.9746898, 0.9992136, 0.9999708, 1 ],
			"min": [ -0.9999901, -0.9998049, -1, -1 ],
			"type": "VEC4"
		},
		{
			"bufferView": 0,
			"byteOffset": 0,
			"componentType": 5123,
			"count": 1320,
			"max": [ 1286 ],
			"min": [ 0 ],
			"type": "SCALAR"
		},
		{
			"bufferView": 0,
			"byteOffset": 2640,
			"componentType": 5123,
			"count": 1278,
			"max": [ 2508 ],
			"min": [ 1287 ],
			"type": "SCALAR"
		},
		{
			"bufferView": 0,
			"byteOffset": 5196,
			"componentType": 5123,
			"count": 42,
			"max": [ 2550 ],
			"min": [ 2509 ],
			"type": "SCALAR"
		},
		{
			"bufferView": 2,
			"byteOffset": 61224,
			"componentType": 5126,
			"count": 24,
			"max": [ 0.75, 1.5, 0.75 ],
			"min": [ -0.75, 0, -0.75 ],
			"type": "VEC3"
		},
		{
			"bufferView": 2,
			"byteOffset": 61512,
			"componentType": 5126,
			"count": 24,
			"max": [ 1, 0.9392008, 1 ],
			"min": [ -1, -1, -1 ],
			"type": "VEC3"
		},
		{
			"bufferView": 1,
			"byteOffset": 20408,
			"componentType": 5126,
			"count": 24,
			"max": [ 0.875, 1 ],
			"min": [ 0.125, 0 ],
			"type": "VEC2"
		},
		{
			"bufferView": 3,
			"byteOffset": 40816,
			"componentType": 5126,
			"count": 24,
			"max": [ 0, 0.3433685, 1, 1 ],
			"min": [ -1, 0, -1, 1 ],
			"type": "VEC4"
		},
		{
			"bufferView": 0,
			"byteOffset": 5280,
			"componentType": 5123,
			"count": 36,
			"max": [ 23 ],
			"min": [ 0 ],
			"type": "SCALAR"
		}
	],
	"buffers": [
		{
			"byteLength": 128952,
			"uri": "entity178816.bin"
		}
	],
	"bufferViews": [
		{
			"buffer": 0,
			"byteLength": 5352,
			"target": 34963,
			"byteOffset": 123600
		},
		{
			"buffer": 0,
			"byteLength": 20600,
			"target": 34962,
			"byteStride": 8,
			"byteOffset": 0
		},
		{
			"buffer": 0,
			"byteLength": 61800,
			"target": 34962,
			"byteStride": 12,
			"byteOffset": 20600
		},
		{
			"buffer": 0,
			"byteLength": 41200,
			"target": 34962,
			"byteStride": 16,
			"byteOffset": 82400
		}
	],
	"images": [
		{
			"uri": "Assets/Visuals/Materials/Tree_Wood_Albedo.jpg"
		},
		{
			"uri": "Assets/Visuals/Materials/Mushroom_Clair_Albedo.jpg"
		}
	],
	"materials": [
		{
			"pbrMetallicRoughness": {
				"baseColorFactor": [0, 0, 0, 1],
				"metallicFactor": 0,
				"roughnessFactor": 1
			},
			"emissiveFactor": [0, 0, 0],
			"doubleSided": false,
			"name": "Black_Outline_Mat"
		},
		{
			"pbrMetallicRoughness": {
				"baseColorTexture" : {
					"index" : 0,
					"texCoord" : 0
				},
				"baseColorFactor": [1, 1, 1, 1],
				"metallicFactor": 0,
				"roughnessFactor": 1
			},
			"emissiveFactor": [0, 0, 0],
			"doubleSided": false,
			"name": "Tree_Wood_Mat"
		},
		{
			"pbrMetallicRoughness": {
				"baseColorTexture" : {
					"index" : 1,
					"texCoord" : 0
				},
				"baseColorFactor": [1, 1, 1, 1],
				"metallicFactor": 0,
				"roughnessFactor": 1
			},
			"emissiveFactor": [0, 0, 0],
			"doubleSided": false,
			"name": "Mushroom_Clair_Mat"
		},
		{
			"pbrMetallicRoughness": {
				"baseColorFactor": [1, 1, 1, 1],
				"metallicFactor": 0,
				"roughnessFactor": 0.5
			},
			"emissiveFactor": [0, 0, 0],
			"doubleSided": false,
			"name": "Default-Material"
		}
	],
	"meshes": [
		{
			"name": "mesh_Tree_Trunk_01_19154Tree_Trunk_01 (1)",
			"primitives": [
				{
					"attributes": {
						"POSITION": 0,
						"NORMAL": 1,
						"TEXCOORD_0": 2,
						"TANGENT": 3
					},
					"indices": 4,
					"material": 0,
					"mode": 4
				},
				{
					"attributes": {
						"POSITION": 0,
						"NORMAL": 1,
						"TEXCOORD_0": 2,
						"TANGENT": 3
					},
					"indices": 5,
					"material": 1,
					"mode": 4
				},
				{
					"attributes": {
						"POSITION": 0,
						"NORMAL": 1,
						"TEXCOORD_0": 2,
						"TANGENT": 3
					},
					"indices": 6,
					"material": 2,
					"mode": 4
				}
			]
		},
		{
			"name": "mesh_Tree_Trunk_01_collider_19152Tree_Trunk_01_collider",
			"primitives": [
				{
					"attributes": {
						"POSITION": 7,
						"NORMAL": 8,
						"TEXCOORD_0": 9,
						"TANGENT": 10
					},
					"indices": 11,
					"material": 3,
					"mode": 4
				}
			]
		}
	],
	"nodes": [
		{
			"name": "UnityGlTF_root",
			"children": [
				1
			]
		},
		{
			"name": "node_Tree_Trunk_01 (1)",
			"mesh": 0,
			"children": [
				2
			],
			"matrix": [1, 0, 0, 0, 0, 1, 0, 0, 0, 0, 1, 0, 0, 0, 0, 1]
		},
		{
			"name": "node_Tree_Trunk_01_collider",
			"mesh": 1,
			"scale": [ 1.431968, 1.878438, 1.431968]
		}
	],
	"samplers": [
		{
			"magFilter": 9729,
			"minFilter": 9985,
			"wrapS": 10497,
			"wrapT": 10497
		}
	],
	"scenes": [
		{
			"name":"defaultScene",
			"nodes": [
				0
			]
		}
	],
	"scene": 0,
	"textures": [
		{
			"sampler": 0,
			"source": 0
		},
		{
			"sampler": 0,
			"source": 1
		}
	]
}