{
	"asset": {
		"generator": "Unity 2018.3.6f1",
		"extras": {
			"exporterVersion" : "2.2.1"
		},
		"version": "2.0"
	},
	"accessors": [
		{
			"bufferView": 2,
			"byteOffset": 0,
			"componentType": 5126,
			"count": 276,
			"max": [ 2.206818, 1.463759, 2.350756 ],
			"min": [ -2.206818, 0.4281457, -2.350756 ],
			"type": "VEC3"
		},
		{
			"bufferView": 2,
			"byteOffset": 3312,
			"componentType": 5126,
			"count": 276,
			"max": [ 0.6341807, 1, 0.9486324 ],
			"min": [ -0.6341807, 0.2398604, -0.9486325 ],
			"type": "VEC3"
		},
		{
			"bufferView": 1,
			"byteOffset": 0,
			"componentType": 5126,
			"count": 276,
			"max": [ 4.688224, 2.635987 ],
			"min": [ -0.9177876, -0.1275239 ],
			"type": "VEC2"
		},
		{
			"bufferView": 3,
			"byteOffset": 0,
			"componentType": 5126,
			"count": 276,
			"max": [ 0.9999995, 0.3905096, 0.9999976, 1 ],
			"min": [ -0.9999995, -0.4280825, -0.9999976, -1 ],
			"type": "VEC4"
		},
		{
			"bufferView": 0,
			"byteOffset": 0,
			"componentType": 5123,
			"count": 984,
			"max": [ 275 ],
			"min": [ 0 ],
			"type": "SCALAR"
		}
	],
	"buffers": [
		{
			"byteLength": 15216,
			"uri": "entity155752.bin"
		}
	],
	"bufferViews": [
		{
			"buffer": 0,
			"byteLength": 1968,
			"target": 34963,
			"byteOffset": 13248
		},
		{
			"buffer": 0,
			"byteLength": 2208,
			"target": 34962,
			"byteStride": 8,
			"byteOffset": 0
		},
		{
			"buffer": 0,
			"byteLength": 6624,
			"target": 34962,
			"byteStride": 12,
			"byteOffset": 2208
		},
		{
			"buffer": 0,
			"byteLength": 4416,
			"target": 34962,
			"byteStride": 16,
			"byteOffset": 8832
		}
	],
	"images": [
		{
			"uri": "Assets/Visuals/Materials/Water_Albedo.jpg"
		}
	],
	"materials": [
		{
			"pbrMetallicRoughness": {
				"baseColorTexture" : {
					"index" : 0,
					"texCoord" : 0
				},
				"baseColorFactor": [1, 1, 1, 1],
				"metallicFactor": 0,
				"roughnessFactor": 1
			},
			"emissiveFactor": [0, 0, 0],
			"doubleSided": false,
			"name": "Water_Mat"
		}
	],
	"meshes": [
		{
			"name": "mesh_Str_Fountain_01_Water_5176Str_Fountain_01_Water",
			"primitives": [
				{
					"attributes": {
						"POSITION": 0,
						"NORMAL": 1,
						"TEXCOORD_0": 2,
						"TANGENT": 3
					},
					"indices": 4,
					"material": 0,
					"mode": 4
				}
			]
		}
	],
	"nodes": [
		{
			"name": "UnityGlTF_root",
			"children": [
				1
			]
		},
		{
			"name": "node_Str_Fountain_01_Water",
			"mesh": 0,
			"matrix": [1, 0, 0, 0, 0, 1, 0, 0, 0, 0, 1, 0, 0, 0, 0, 1]
		}
	],
	"samplers": [
		{
			"magFilter": 9729,
			"minFilter": 9985,
			"wrapS": 10497,
			"wrapT": 10497
		}
	],
	"scenes": [
		{
			"name":"defaultScene",
			"nodes": [
				0
			]
		}
	],
	"scene": 0,
	"textures": [
		{
			"sampler": 0,
			"source": 0
		}
	]
}