{
	"asset": {
		"generator": "Unity 2018.3.6f1",
		"extras": {
			"exporterVersion" : "2.2.1"
		},
		"version": "2.0"
	},
	"accessors": [
		{
			"bufferView": 3,
			"byteOffset": 0,
			"componentType": 5126,
			"count": 0,
			"max": [ 0, 0, 0 ],
			"min": [ 0, 0, 0 ],
			"type": "VEC3"
		},
		{
			"bufferView": 0,
			"byteOffset": 0,
			"componentType": 5123,
			"count": 0,
			"max": [ 0 ],
			"min": [ 0 ],
			"type": "SCALAR"
		},
		{
			"bufferView": 3,
			"byteOffset": 0,
			"componentType": 5126,
			"count": 8,
			"max": [ 0.426627, 0.4422358, 3.933906E-08 ],
			"min": [ -0.426627, -1.065814E-15, -3.695488E-08 ],
			"type": "VEC3"
		},
		{
			"bufferView": 3,
			"byteOffset": 96,
			"componentType": 5126,
			"count": 8,
			"max": [ 0, 0, 1 ],
			"min": [ 0, 0, -1 ],
			"type": "VEC3"
		},
		{
			"bufferView": 2,
			"byteOffset": 0,
			"componentType": 5126,
			"count": 8,
			"max": [ 0.7812494, 0.4350593 ],
			"min": [ 0.1445576, 0.07903368 ],
			"type": "VEC2"
		},
		{
			"bufferView": 4,
			"byteOffset": 0,
			"componentType": 5126,
			"count": 8,
			"max": [ 1, 0, 0, 1 ],
			"min": [ 1, 0, 0, -1 ],
			"type": "VEC4"
		},
		{
			"bufferView": 0,
			"byteOffset": 0,
			"componentType": 5123,
			"count": 12,
			"max": [ 7 ],
			"min": [ 0 ],
			"type": "SCALAR"
		},
		{
			"bufferView": 1,
			"byteOffset": 0,
			"componentType": 5126,
			"count": 135,
			"max": [ 4.466667 ],
			"min": [ 0 ],
			"type": "SCALAR"
		},
		{
			"bufferView": 5,
			"byteOffset": 0,
			"componentType": 5126,
			"count": 135,
			"max": [ 0, 0, 0 ],
			"min": [ 0, 0, 0 ],
			"type": "VEC3"
		},
		{
			"bufferView": 6,
			"byteOffset": 0,
			"componentType": 5126,
			"count": 135,
			"max": [ 0.0348995, 0, 0, -0.9993908 ],
			"min": [ -0.01744522, 0, 0, -1 ],
			"type": "VEC4"
		},
		{
			"bufferView": 5,
			"byteOffset": 1620,
			"componentType": 5126,
			"count": 135,
			"max": [ 1, 1.1, 1 ],
			"min": [ 1, 0.9, 1 ],
			"type": "VEC3"
		}
	],
	"animations": [
		{
			"name": "Grass_01_a_Art3",
			"channels": [
				{
					"sampler": 0,
					"target": {
						"node": 2,
						"path": "translation"
					}
				},
				{
					"sampler": 1,
					"target": {
						"node": 2,
						"path": "rotation"
					}
				},
				{
					"sampler": 2,
					"target": {
						"node": 2,
						"path": "scale"
					}
				}
			],
			"samplers": [
				{
					"input": 7,
					"interpolation": "LINEAR",
					"output": 8
				},
				{
					"input": 7,
					"interpolation": "LINEAR",
					"output": 9
				},
				{
					"input": 7,
					"interpolation": "LINEAR",
					"output": 10
				}
			]
		}
	],
	"buffers": [
		{
			"byteLength": 6348,
			"uri": "entity40340.bin"
		}
	],
	"bufferViews": [
		{
			"buffer": 0,
			"byteLength": 24,
			"target": 34963,
			"byteOffset": 924
		},
		{
			"buffer": 0,
			"byteLength": 540,
			"byteOffset": 0
		},
		{
			"buffer": 0,
			"byteLength": 64,
			"target": 34962,
			"byteStride": 8,
			"byteOffset": 540
		},
		{
			"buffer": 0,
			"byteLength": 192,
			"target": 34962,
			"byteStride": 12,
			"byteOffset": 604
		},
		{
			"buffer": 0,
			"byteLength": 128,
			"target": 34962,
			"byteStride": 16,
			"byteOffset": 796
		},
		{
			"buffer": 0,
			"byteLength": 3240,
			"byteStride": 12,
			"byteOffset": 948
		},
		{
			"buffer": 0,
			"byteLength": 2160,
			"byteStride": 16,
			"byteOffset": 4188
		}
	],
	"images": [
		{
			"uri": "Assets/Visuals/Materials/Bush_01_Albedo.png"
		}
	],
	"materials": [
		{
			"pbrMetallicRoughness": {
				"baseColorFactor": [1, 1, 1, 0],
				"metallicFactor": 0,
				"roughnessFactor": 1
			},
			"alphaMode": "BLEND",
			"alphaCutoff": 0.5,
			"emissiveFactor": [0, 0, 0],
			"doubleSided": false,
			"name": "_totaltrans"
		},
		{
			"pbrMetallicRoughness": {
				"baseColorTexture" : {
					"index" : 0,
					"texCoord" : 0
				},
				"baseColorFactor": [1, 1, 1, 1],
				"metallicFactor": 0,
				"roughnessFactor": 1
			},
			"alphaMode": "BLEND",
			"alphaCutoff": 0.5,
			"emissiveFactor": [0, 0, 0],
			"doubleSided": false,
			"name": "Bush_01_Mat"
		}
	],
	"meshes": [
		{
			"name": "mesh_Cube_5742Grass_01_a_COG3",
			"primitives": [
				{
					"attributes": {
						"POSITION": 0
					},
					"indices": 1,
					"material": 0,
					"mode": 4
				}
			]
		},
		{
			"name": "mesh_Grass_01_a_5468Grass_01_a_Art3",
			"primitives": [
				{
					"attributes": {
						"POSITION": 2,
						"NORMAL": 3,
						"TEXCOORD_0": 4,
						"TANGENT": 5
					},
					"indices": 6,
					"material": 1,
					"mode": 4
				}
			]
		}
	],
	"nodes": [
		{
			"name": "UnityGlTF_root",
			"children": [
				1
			]
		},
		{
			"name": "node_Grass_01_a_COG3",
			"mesh": 0,
			"children": [
				2
			],
			"matrix": [1, 0, 0, 0, 0, 1, 0, 0, 0, 0, 1, 0, 0, 0, 0, 1]
		},
		{
			"name": "node_Grass_01_a_Art3",
			"mesh": 1
		}
	],
	"samplers": [
		{
			"magFilter": 9729,
			"minFilter": 9985,
			"wrapS": 10497,
			"wrapT": 10497
		}
	],
	"scenes": [
		{
			"name":"defaultScene",
			"nodes": [
				0
			]
		}
	],
	"scene": 0,
	"textures": [
		{
			"sampler": 0,
			"source": 0
		}
	]
}