{
	"asset": {
		"generator": "Unity 2018.3.6f1",
		"extras": {
			"exporterVersion" : "2.2.1"
		},
		"version": "2.0"
	},
	"accessors": [
		{
			"bufferView": 2,
			"byteOffset": 0,
			"componentType": 5126,
			"count": 390,
			"max": [ 1.409443, 2.743688, 1.154786 ],
			"min": [ -1.114531, -0.01585293, -1.154792 ],
			"type": "VEC3"
		},
		{
			"bufferView": 2,
			"byteOffset": 4680,
			"componentType": 5126,
			"count": 390,
			"max": [ 0.9988303, 1, 0.9376099 ],
			"min": [ -0.9997773, -1, -0.9872037 ],
			"type": "VEC3"
		},
		{
			"bufferView": 1,
			"byteOffset": 0,
			"componentType": 5126,
			"count": 390,
			"max": [ 0.9094697, 1 ],
			"min": [ 0, 0 ],
			"type": "VEC2"
		},
		{
			"bufferView": 3,
			"byteOffset": 0,
			"componentType": 5126,
			"count": 390,
			"max": [ 0.9990492, 0.9974254, 0.9991357, 1 ],
			"min": [ -0.9998993, -0.9995623, -1, -1 ],
			"type": "VEC4"
		},
		{
			"bufferView": 0,
			"byteOffset": 0,
			"componentType": 5123,
			"count": 762,
			"max": [ 153 ],
			"min": [ 0 ],
			"type": "SCALAR"
		},
		{
			"bufferView": 0,
			"byteOffset": 1524,
			"componentType": 5123,
			"count": 378,
			"max": [ 235 ],
			"min": [ 154 ],
			"type": "SCALAR"
		},
		{
			"bufferView": 0,
			"byteOffset": 2280,
			"componentType": 5123,
			"count": 762,
			"max": [ 389 ],
			"min": [ 236 ],
			"type": "SCALAR"
		},
		{
			"bufferView": 2,
			"byteOffset": 9360,
			"componentType": 5126,
			"count": 104,
			"max": [ 2.523481, 1.829428, 0.75 ],
			"min": [ -2.523481, 0, -1.531183 ],
			"type": "VEC3"
		},
		{
			"bufferView": 2,
			"byteOffset": 10608,
			"componentType": 5126,
			"count": 104,
			"max": [ 1, 1, 1 ],
			"min": [ -1, -1, -1 ],
			"type": "VEC3"
		},
		{
			"bufferView": 1,
			"byteOffset": 3120,
			"componentType": 5126,
			"count": 104,
			"max": [ 0.875, 0.75 ],
			"min": [ 0.125, 0 ],
			"type": "VEC2"
		},
		{
			"bufferView": 3,
			"byteOffset": 6240,
			"componentType": 5126,
			"count": 104,
			"max": [ 1, 0, 1, 1 ],
			"min": [ -1, -0.07455322, -1, 1 ],
			"type": "VEC4"
		},
		{
			"bufferView": 0,
			"byteOffset": 3804,
			"componentType": 5123,
			"count": 174,
			"max": [ 103 ],
			"min": [ 0 ],
			"type": "SCALAR"
		}
	],
	"buffers": [
		{
			"byteLength": 27864,
			"uri": "entity85206.bin"
		}
	],
	"bufferViews": [
		{
			"buffer": 0,
			"byteLength": 4152,
			"target": 34963,
			"byteOffset": 23712
		},
		{
			"buffer": 0,
			"byteLength": 3952,
			"target": 34962,
			"byteStride": 8,
			"byteOffset": 0
		},
		{
			"buffer": 0,
			"byteLength": 11856,
			"target": 34962,
			"byteStride": 12,
			"byteOffset": 3952
		},
		{
			"buffer": 0,
			"byteLength": 7904,
			"target": 34962,
			"byteStride": 16,
			"byteOffset": 15808
		}
	],
	"images": [
		{
			"uri": "Assets/Visuals/Materials/Tree_Wood_Albedo.jpg"
		},
		{
			"uri": "Assets/Visuals/Materials/Tree_Leaves_Albedo.jpg"
		}
	],
	"materials": [
		{
			"pbrMetallicRoughness": {
				"baseColorFactor": [0, 0, 0, 1],
				"metallicFactor": 0,
				"roughnessFactor": 1
			},
			"emissiveFactor": [0, 0, 0],
			"doubleSided": false,
			"name": "Black_Outline_Mat"
		},
		{
			"pbrMetallicRoughness": {
				"baseColorTexture" : {
					"index" : 0,
					"texCoord" : 0
				},
				"baseColorFactor": [1, 1, 1, 1],
				"metallicFactor": 0,
				"roughnessFactor": 1
			},
			"emissiveFactor": [0, 0, 0],
			"doubleSided": false,
			"name": "Tree_Wood_Mat"
		},
		{
			"pbrMetallicRoughness": {
				"baseColorTexture" : {
					"index" : 1,
					"texCoord" : 0
				},
				"baseColorFactor": [1, 1, 1, 1],
				"metallicFactor": 0,
				"roughnessFactor": 1
			},
			"emissiveFactor": [0, 0, 0],
			"doubleSided": false,
			"name": "Tree_Leaves_Mat"
		},
		{
			"pbrMetallicRoughness": {
				"baseColorFactor": [1, 1, 1, 1],
				"metallicFactor": 0,
				"roughnessFactor": 0.5
			},
			"emissiveFactor": [0, 0, 0],
			"doubleSided": false,
			"name": "Default-Material"
		}
	],
	"meshes": [
		{
			"name": "mesh_Tree_03_5458Tree_03",
			"primitives": [
				{
					"attributes": {
						"POSITION": 0,
						"NORMAL": 1,
						"TEXCOORD_0": 2,
						"TANGENT": 3
					},
					"indices": 4,
					"material": 0,
					"mode": 4
				},
				{
					"attributes": {
						"POSITION": 0,
						"NORMAL": 1,
						"TEXCOORD_0": 2,
						"TANGENT": 3
					},
					"indices": 5,
					"material": 1,
					"mode": 4
				},
				{
					"attributes": {
						"POSITION": 0,
						"NORMAL": 1,
						"TEXCOORD_0": 2,
						"TANGENT": 3
					},
					"indices": 6,
					"material": 2,
					"mode": 4
				}
			]
		},
		{
			"name": "mesh_Tree_03_collider_5460Tree_03_collider",
			"primitives": [
				{
					"attributes": {
						"POSITION": 7,
						"NORMAL": 8,
						"TEXCOORD_0": 9,
						"TANGENT": 10
					},
					"indices": 11,
					"material": 3,
					"mode": 4
				}
			]
		}
	],
	"nodes": [
		{
			"name": "UnityGlTF_root",
			"children": [
				1
			]
		},
		{
			"name": "node_Tree_03",
			"mesh": 0,
			"children": [
				2
			],
			"matrix": [1, 0, 0, 0, 0, 1, 0, 0, 0, 0, 1, 0, 0, 0, 0, 1]
		},
		{
			"name": "node_Tree_03_collider",
			"mesh": 1,
			"translation": [ 0.247714, 0, 0],
			"scale": [ 0.3250346, 1, 0.3250346]
		}
	],
	"samplers": [
		{
			"magFilter": 9729,
			"minFilter": 9985,
			"wrapS": 10497,
			"wrapT": 10497
		}
	],
	"scenes": [
		{
			"name":"defaultScene",
			"nodes": [
				0
			]
		}
	],
	"scene": 0,
	"textures": [
		{
			"sampler": 0,
			"source": 0
		},
		{
			"sampler": 0,
			"source": 1
		}
	]
}