{
	"asset": {
		"generator": "Unity 2018.3.6f1",
		"extras": {
			"exporterVersion" : "2.2.1"
		},
		"version": "2.0"
	},
	"accessors": [
		{
			"bufferView": 2,
			"byteOffset": 0,
			"componentType": 5126,
			"count": 211,
			"max": [ 0.06885477, 0.7014965, 0.4849057 ],
			"min": [ -0.08799301, 0.5543033, 0.2919995 ],
			"type": "VEC3"
		},
		{
			"bufferView": 2,
			"byteOffset": 2532,
			"componentType": 5126,
			"count": 211,
			"max": [ 0.993143, 0.9829429, 0.945012 ],
			"min": [ -0.9905766, -0.9925528, -0.9374585 ],
			"type": "VEC3"
		},
		{
			"bufferView": 1,
			"byteOffset": 0,
			"componentType": 5126,
			"count": 211,
			"max": [ 0.9651679, 0.478628 ],
			"min": [ 0.8534716, 0.317916 ],
			"type": "VEC2"
		},
		{
			"bufferView": 4,
			"byteOffset": 0,
			"componentType": 5123,
			"count": 211,
			"max": [ 3, 3, 3, 4 ],
			"min": [ 0, 0, 0, 0 ],
			"type": "VEC4"
		},
		{
			"bufferView": 3,
			"byteOffset": 0,
			"componentType": 5126,
			"count": 211,
			"max": [ 0.9879004, 0.4935045, 0.227217, 0.0110996 ],
			"min": [ 0.427554, 0.009536474, 0, 0 ],
			"type": "VEC4"
		},
		{
			"bufferView": 3,
			"byteOffset": 3376,
			"componentType": 5126,
			"count": 211,
			"max": [ 0.9902638, 0.9969568, 0.9829106, 1 ],
			"min": [ -0.9959531, -0.9987783, -0.9997309, -1 ],
			"type": "VEC4"
		},
		{
			"bufferView": 0,
			"byteOffset": 0,
			"componentType": 5123,
			"count": 234,
			"max": [ 160 ],
			"min": [ 0 ],
			"type": "SCALAR"
		},
		{
			"bufferView": 0,
			"byteOffset": 468,
			"componentType": 5123,
			"count": 234,
			"max": [ 210 ],
			"min": [ 161 ],
			"type": "SCALAR"
		}
	],
	"buffers": [
		{
			"byteLength": 16128,
			"uri": "entity83682.bin"
		}
	],
	"bufferViews": [
		{
			"buffer": 0,
			"byteLength": 936,
			"target": 34963,
			"byteOffset": 15192
		},
		{
			"buffer": 0,
			"byteLength": 1688,
			"target": 34962,
			"byteStride": 8,
			"byteOffset": 0
		},
		{
			"buffer": 0,
			"byteLength": 5064,
			"target": 34962,
			"byteStride": 12,
			"byteOffset": 1688
		},
		{
			"buffer": 0,
			"byteLength": 6752,
			"target": 34962,
			"byteStride": 16,
			"byteOffset": 6752
		},
		{
			"buffer": 0,
			"byteLength": 1688,
			"byteStride": 8,
			"byteOffset": 13504
		}
	],
	"images": [
		{
			"uri": "Assets/Visuals/Materials/Pig_Albedo.jpg"
		}
	],
	"materials": [
		{
			"pbrMetallicRoughness": {
				"baseColorFactor": [0, 0, 0, 1],
				"metallicFactor": 0,
				"roughnessFactor": 1
			},
			"emissiveFactor": [0, 0, 0],
			"doubleSided": false,
			"name": "Black_Outline_Mat"
		},
		{
			"pbrMetallicRoughness": {
				"baseColorTexture" : {
					"index" : 0,
					"texCoord" : 0
				},
				"baseColorFactor": [1, 1, 1, 1],
				"metallicFactor": 0,
				"roughnessFactor": 1
			},
			"emissiveFactor": [0, 0, 0],
			"doubleSided": false,
			"name": "Pig_Mat"
		}
	],
	"meshes": [
		{
			"name": "mesh_mesh_pig_01_11288mesh_pig_01",
			"primitives": [
				{
					"attributes": {
						"POSITION": 0,
						"NORMAL": 1,
						"TEXCOORD_0": 2,
						"JOINTS_0": 3,
						"WEIGHTS_0": 4,
						"TANGENT": 5
					},
					"indices": 6,
					"material": 0,
					"mode": 4
				},
				{
					"attributes": {
						"POSITION": 0,
						"NORMAL": 1,
						"TEXCOORD_0": 2,
						"JOINTS_0": 3,
						"WEIGHTS_0": 4,
						"TANGENT": 5
					},
					"indices": 7,
					"material": 1,
					"mode": 4
				}
			]
		}
	],
	"nodes": [
		{
			"name": "UnityGlTF_root",
			"children": [
				1
			]
		},
		{
			"name": "node_mesh_pig_01",
			"mesh": 0,
			"matrix": [1, 0, 0, 0, 0, 1, 0, 0, 0, 0, 1, 0, 0, 0, 0, 1]
		}
	],
	"samplers": [
		{
			"magFilter": 9729,
			"minFilter": 9985,
			"wrapS": 10497,
			"wrapT": 10497
		}
	],
	"scenes": [
		{
			"name":"defaultScene",
			"nodes": [
				0
			]
		}
	],
	"scene": 0,
	"textures": [
		{
			"sampler": 0,
			"source": 0
		}
	]
}