{
	"asset": {
		"generator": "Unity 2018.3.6f1",
		"extras": {
			"exporterVersion" : "2.2.1"
		},
		"version": "2.0"
	},
	"accessors": [
		{
			"bufferView": 2,
			"byteOffset": 0,
			"componentType": 5126,
			"count": 168,
			"max": [ 1.743672, 1.324486, 0.6502943 ],
			"min": [ -1.411232, -0.2676336, -1.974163 ],
			"type": "VEC3"
		},
		{
			"bufferView": 2,
			"byteOffset": 2016,
			"componentType": 5126,
			"count": 168,
			"max": [ 0.9954252, 0.9996214, 0.9953039 ],
			"min": [ -0.9677573, -1, -0.9925672 ],
			"type": "VEC3"
		},
		{
			"bufferView": 1,
			"byteOffset": 0,
			"componentType": 5126,
			"count": 168,
			"max": [ 0.9827815, 0.8774917 ],
			"min": [ 0, 0 ],
			"type": "VEC2"
		},
		{
			"bufferView": 3,
			"byteOffset": 0,
			"componentType": 5126,
			"count": 168,
			"max": [ 0.9976655, 0.9876412, 0.985587, 1 ],
			"min": [ -0.9121444, -0.9914062, -0.9972783, 1 ],
			"type": "VEC4"
		},
		{
			"bufferView": 0,
			"byteOffset": 0,
			"componentType": 5123,
			"count": 660,
			"max": [ 167 ],
			"min": [ 0 ],
			"type": "SCALAR"
		},
		{
			"bufferView": 2,
			"byteOffset": 4032,
			"componentType": 5126,
			"count": 398,
			"max": [ 1.782745, 1.371206, 0.75 ],
			"min": [ -1.45779, -0.3226343, -2.013168 ],
			"type": "VEC3"
		},
		{
			"bufferView": 2,
			"byteOffset": 8808,
			"componentType": 5126,
			"count": 398,
			"max": [ 1, 0.9999896, 0.9953039 ],
			"min": [ -1, -1, -0.9948733 ],
			"type": "VEC3"
		},
		{
			"bufferView": 1,
			"byteOffset": 1344,
			"componentType": 5126,
			"count": 398,
			"max": [ 0.9827815, 1 ],
			"min": [ 0, 0 ],
			"type": "VEC2"
		},
		{
			"bufferView": 3,
			"byteOffset": 2688,
			"componentType": 5126,
			"count": 398,
			"max": [ 1, 0.9999971, 1, 1 ],
			"min": [ -0.9999897, -0.9999992, -1, -1 ],
			"type": "VEC4"
		},
		{
			"bufferView": 0,
			"byteOffset": 1320,
			"componentType": 5123,
			"count": 660,
			"max": [ 167 ],
			"min": [ 0 ],
			"type": "SCALAR"
		},
		{
			"bufferView": 0,
			"byteOffset": 2640,
			"componentType": 5123,
			"count": 660,
			"max": [ 335 ],
			"min": [ 168 ],
			"type": "SCALAR"
		},
		{
			"bufferView": 0,
			"byteOffset": 3960,
			"componentType": 5123,
			"count": 96,
			"max": [ 397 ],
			"min": [ 336 ],
			"type": "SCALAR"
		}
	],
	"buffers": [
		{
			"byteLength": 31320,
			"uri": "entity72666n.bin"
		}
	],
	"bufferViews": [
		{
			"buffer": 0,
			"byteLength": 4152,
			"target": 34963,
			"byteOffset": 27168
		},
		{
			"buffer": 0,
			"byteLength": 4528,
			"target": 34962,
			"byteStride": 8,
			"byteOffset": 0
		},
		{
			"buffer": 0,
			"byteLength": 13584,
			"target": 34962,
			"byteStride": 12,
			"byteOffset": 4528
		},
		{
			"buffer": 0,
			"byteLength": 9056,
			"target": 34962,
			"byteStride": 16,
			"byteOffset": 18112
		}
	],
	"images": [
		{
			"uri": "Assets/Visuals/Materials/Rock_01_Albedo.jpg"
		}
	],
	"materials": [
		{
			"pbrMetallicRoughness": {
				"baseColorTexture" : {
					"index" : 0,
					"texCoord" : 0
				},
				"baseColorFactor": [1, 1, 1, 1],
				"metallicFactor": 0,
				"roughnessFactor": 1
			},
			"emissiveFactor": [0, 0, 0],
			"doubleSided": false,
			"name": "Rock_01_Mat"
		},
		{
			"pbrMetallicRoughness": {
				"baseColorFactor": [0.05724907, 1, 0, 1],
				"metallicFactor": 0,
				"roughnessFactor": 0.5
			},
			"emissiveFactor": [0, 0, 0],
			"doubleSided": false,
			"name": "_collider_Mat"
		}
	],
	"meshes": [
		{
			"name": "mesh_Rock_04_11662Rock_04",
			"primitives": [
				{
					"attributes": {
						"POSITION": 0,
						"NORMAL": 1,
						"TEXCOORD_0": 2,
						"TANGENT": 3
					},
					"indices": 4,
					"material": 0,
					"mode": 4
				}
			]
		},
		{
			"name": "mesh_Rock_04_collider_11664Rock_04_collider",
			"primitives": [
				{
					"attributes": {
						"POSITION": 5,
						"NORMAL": 6,
						"TEXCOORD_0": 7,
						"TANGENT": 8
					},
					"indices": 9,
					"material": 1,
					"mode": 4
				},
				{
					"attributes": {
						"POSITION": 5,
						"NORMAL": 6,
						"TEXCOORD_0": 7,
						"TANGENT": 8
					},
					"indices": 10,
					"material": 1,
					"mode": 4
				},
				{
					"attributes": {
						"POSITION": 5,
						"NORMAL": 6,
						"TEXCOORD_0": 7,
						"TANGENT": 8
					},
					"indices": 11,
					"material": 1,
					"mode": 4
				}
			]
		}
	],
	"nodes": [
		{
			"name": "UnityGlTF_root",
			"children": [
				1
			]
		},
		{
			"name": "node_Rock_04",
			"mesh": 0,
			"children": [
				2
			],
			"matrix": [1, 0, 0, 0, 0, 1, 0, 0, 0, 0, 1, 0, 0, 0, 0, 1]
		},
		{
			"name": "node_Rock_04_collider",
			"mesh": 1
		}
	],
	"samplers": [
		{
			"magFilter": 9729,
			"minFilter": 9985,
			"wrapS": 10497,
			"wrapT": 10497
		}
	],
	"scenes": [
		{
			"name":"defaultScene",
			"nodes": [
				0
			]
		}
	],
	"scene": 0,
	"textures": [
		{
			"sampler": 0,
			"source": 0
		}
	]
}