{
	"asset": {
		"generator": "Unity 2018.3.6f1",
		"extras": {
			"exporterVersion" : "2.2.1"
		},
		"version": "2.0"
	},
	"accessors": [
		{
			"bufferView": 2,
			"byteOffset": 0,
			"componentType": 5126,
			"count": 1066,
			"max": [ 8.842456, 3.125217, 7.988384 ],
			"min": [ -8.893315, -3.125218, -8.272958 ],
			"type": "VEC3"
		},
		{
			"bufferView": 2,
			"byteOffset": 12792,
			"componentType": 5126,
			"count": 1066,
			"max": [ 0.9898931, 0.9999303, 0.994319 ],
			"min": [ -0.9918704, -0.9999796, -0.9994042 ],
			"type": "VEC3"
		},
		{
			"bufferView": 1,
			"byteOffset": 0,
			"componentType": 5126,
			"count": 1066,
			"max": [ 4.705249, 3.907429 ],
			"min": [ -3.57431, -3.116804 ],
			"type": "VEC2"
		},
		{
			"bufferView": 3,
			"byteOffset": 0,
			"componentType": 5126,
			"count": 1066,
			"max": [ 0.9964885, 0.9983267, 0.9999292, 1 ],
			"min": [ -0.9664159, -0.9929681, -0.9964766, -1 ],
			"type": "VEC4"
		},
		{
			"bufferView": 0,
			"byteOffset": 0,
			"componentType": 5123,
			"count": 1284,
			"max": [ 698 ],
			"min": [ 0 ],
			"type": "SCALAR"
		},
		{
			"bufferView": 0,
			"byteOffset": 2568,
			"componentType": 5123,
			"count": 804,
			"max": [ 1065 ],
			"min": [ 699 ],
			"type": "SCALAR"
		},
		{
			"bufferView": 2,
			"byteOffset": 25584,
			"componentType": 5126,
			"count": 88,
			"max": [ 8.569852, 3.143064, 8.005456 ],
			"min": [ -8.569852, -3.752206, -8.005456 ],
			"type": "VEC3"
		},
		{
			"bufferView": 2,
			"byteOffset": 26640,
			"componentType": 5126,
			"count": 88,
			"max": [ 0.8610389, 1, 0.8755812 ],
			"min": [ -0.8767014, -1, -0.8755812 ],
			"type": "VEC3"
		},
		{
			"bufferView": 1,
			"byteOffset": 8528,
			"componentType": 5126,
			"count": 88,
			"max": [ 0.875, 1 ],
			"min": [ 0.125, 0 ],
			"type": "VEC2"
		},
		{
			"bufferView": 3,
			"byteOffset": 17056,
			"componentType": 5126,
			"count": 88,
			"max": [ 1, 0.2040399, 0.979345, 1 ],
			"min": [ -1, -0.2040399, -1, 1 ],
			"type": "VEC4"
		},
		{
			"bufferView": 0,
			"byteOffset": 4176,
			"componentType": 5123,
			"count": 240,
			"max": [ 87 ],
			"min": [ 0 ],
			"type": "SCALAR"
		}
	],
	"buffers": [
		{
			"byteLength": 60048,
			"uri": "entity44700.bin"
		}
	],
	"bufferViews": [
		{
			"buffer": 0,
			"byteLength": 4656,
			"target": 34963,
			"byteOffset": 55392
		},
		{
			"buffer": 0,
			"byteLength": 9232,
			"target": 34962,
			"byteStride": 8,
			"byteOffset": 0
		},
		{
			"buffer": 0,
			"byteLength": 27696,
			"target": 34962,
			"byteStride": 12,
			"byteOffset": 9232
		},
		{
			"buffer": 0,
			"byteLength": 18464,
			"target": 34962,
			"byteStride": 16,
			"byteOffset": 36928
		}
	],
	"images": [
		{
			"uri": "Assets/Visuals/Materials/Rock_01_Albedo.jpg"
		},
		{
			"uri": "Assets/Visuals/Materials/Grass_Albedo.jpg"
		}
	],
	"materials": [
		{
			"pbrMetallicRoughness": {
				"baseColorTexture" : {
					"index" : 0,
					"texCoord" : 0
				},
				"baseColorFactor": [1, 1, 1, 1],
				"metallicFactor": 0,
				"roughnessFactor": 1
			},
			"emissiveFactor": [0, 0, 0],
			"doubleSided": false,
			"name": "Rock_01_Mat"
		},
		{
			"pbrMetallicRoughness": {
				"baseColorTexture" : {
					"index" : 1,
					"texCoord" : 0
				},
				"baseColorFactor": [1, 1, 1, 1],
				"metallicFactor": 0,
				"roughnessFactor": 1
			},
			"emissiveFactor": [0, 0, 0],
			"doubleSided": false,
			"name": "Grass_Mat"
		},
		{
			"pbrMetallicRoughness": {
				"baseColorFactor": [0.05724907, 1, 0, 1],
				"metallicFactor": 0,
				"roughnessFactor": 0.5
			},
			"emissiveFactor": [0, 0, 0],
			"doubleSided": false,
			"name": "_collider_Mat"
		}
	],
	"meshes": [
		{
			"name": "mesh_Floating_Island_02_3368Terrain_Island_02",
			"primitives": [
				{
					"attributes": {
						"POSITION": 0,
						"NORMAL": 1,
						"TEXCOORD_0": 2,
						"TANGENT": 3
					},
					"indices": 4,
					"material": 0,
					"mode": 4
				},
				{
					"attributes": {
						"POSITION": 0,
						"NORMAL": 1,
						"TEXCOORD_0": 2,
						"TANGENT": 3
					},
					"indices": 5,
					"material": 1,
					"mode": 4
				}
			]
		},
		{
			"name": "mesh_Floating_Island_02_collider_3370Floating_Island_02_collider",
			"primitives": [
				{
					"attributes": {
						"POSITION": 6,
						"NORMAL": 7,
						"TEXCOORD_0": 8,
						"TANGENT": 9
					},
					"indices": 10,
					"material": 2,
					"mode": 4
				}
			]
		}
	],
	"nodes": [
		{
			"name": "UnityGlTF_root",
			"children": [
				1
			]
		},
		{
			"name": "node_Terrain_Island_02",
			"mesh": 0,
			"children": [
				2
			],
			"matrix": [1, 0, 0, 0, 0, 1, 0, 0, 0, 0, 1, 0, 0, 0, 0, 1]
		},
		{
			"name": "node_Floating_Island_02_collider",
			"mesh": 1
		}
	],
	"samplers": [
		{
			"magFilter": 9729,
			"minFilter": 9985,
			"wrapS": 10497,
			"wrapT": 10497
		}
	],
	"scenes": [
		{
			"name":"defaultScene",
			"nodes": [
				0
			]
		}
	],
	"scene": 0,
	"textures": [
		{
			"sampler": 0,
			"source": 0
		},
		{
			"sampler": 0,
			"source": 1
		}
	]
}