{
	"asset": {
		"generator": "Unity 2018.3.6f1",
		"extras": {
			"exporterVersion" : "2.2.1"
		},
		"version": "2.0"
	},
	"accessors": [
		{
			"bufferView": 2,
			"byteOffset": 0,
			"componentType": 5126,
			"count": 520,
			"max": [ 36.2467, 118.2037, 26.2231 ],
			"min": [ -36.3695, -17.79077, -26.71176 ],
			"type": "VEC3"
		},
		{
			"bufferView": 2,
			"byteOffset": 6240,
			"componentType": 5126,
			"count": 520,
			"max": [ 1, 1, 1 ],
			"min": [ -1, -1, -1 ],
			"type": "VEC3"
		},
		{
			"bufferView": 1,
			"byteOffset": 0,
			"componentType": 5126,
			"count": 520,
			"max": [ 1.881716, 3.081966 ],
			"min": [ -0.2802676, -1.929652 ],
			"type": "VEC2"
		},
		{
			"bufferView": 3,
			"byteOffset": 0,
			"componentType": 5126,
			"count": 520,
			"max": [ 0.9998964, 0.9238795, 1, 1 ],
			"min": [ -1, -0.9238796, -1, -1 ],
			"type": "VEC4"
		},
		{
			"bufferView": 0,
			"byteOffset": 0,
			"componentType": 5123,
			"count": 324,
			"max": [ 155 ],
			"min": [ 0 ],
			"type": "SCALAR"
		},
		{
			"bufferView": 0,
			"byteOffset": 648,
			"componentType": 5123,
			"count": 180,
			"max": [ 231 ],
			"min": [ 156 ],
			"type": "SCALAR"
		},
		{
			"bufferView": 0,
			"byteOffset": 1008,
			"componentType": 5123,
			"count": 288,
			"max": [ 439 ],
			"min": [ 232 ],
			"type": "SCALAR"
		},
		{
			"bufferView": 0,
			"byteOffset": 1584,
			"componentType": 5123,
			"count": 144,
			"max": [ 519 ],
			"min": [ 440 ],
			"type": "SCALAR"
		}
	],
	"buffers": [
		{
			"byteLength": 26832,
			"uri": "entity43086.bin"
		}
	],
	"bufferViews": [
		{
			"buffer": 0,
			"byteLength": 1872,
			"target": 34963,
			"byteOffset": 24960
		},
		{
			"buffer": 0,
			"byteLength": 4160,
			"target": 34962,
			"byteStride": 8,
			"byteOffset": 0
		},
		{
			"buffer": 0,
			"byteLength": 12480,
			"target": 34962,
			"byteStride": 12,
			"byteOffset": 4160
		},
		{
			"buffer": 0,
			"byteLength": 8320,
			"target": 34962,
			"byteStride": 16,
			"byteOffset": 16640
		}
	],
	"images": [
		{
			"uri": "Assets/Visuals/Textures/Texture_dark_paint_01.jpg"
		},
		{
			"uri": "Assets/Visuals/Textures/texture_rock_mounts_01.jpg"
		},
		{
			"uri": "Assets/Visuals/Textures/texture_brown_paint.jpg"
		}
	],
	"materials": [
		{
			"pbrMetallicRoughness": {
				"baseColorFactor": [0.1708239, 0.1518166, 0.1985294, 1],
				"metallicFactor": 1,
				"roughnessFactor": 1
			},
			"emissiveFactor": [0, 0, 0],
			"doubleSided": false,
			"name": "outline"
		},
		{
			"pbrMetallicRoughness": {
				"baseColorTexture" : {
					"index" : 0,
					"texCoord" : 0
				},
				"baseColorFactor": [1, 1, 1, 1],
				"metallicFactor": 0,
				"roughnessFactor": 1
			},
			"emissiveFactor": [0, 0, 0],
			"doubleSided": false,
			"name": "mat03"
		},
		{
			"pbrMetallicRoughness": {
				"baseColorTexture" : {
					"index" : 1,
					"texCoord" : 0
				},
				"baseColorFactor": [1, 1, 1, 1],
				"metallicFactor": 0,
				"roughnessFactor": 1
			},
			"emissiveFactor": [0, 0, 0],
			"doubleSided": false,
			"name": "mat08"
		},
		{
			"pbrMetallicRoughness": {
				"baseColorTexture" : {
					"index" : 2,
					"texCoord" : 0
				},
				"baseColorFactor": [1, 1, 1, 1],
				"metallicFactor": 0,
				"roughnessFactor": 1
			},
			"emissiveFactor": [0, 0, 0],
			"doubleSided": false,
			"name": "mat02"
		}
	],
	"meshes": [
		{
			"name": "mesh_mesh_fence_02_11058mesh_fence_02",
			"primitives": [
				{
					"attributes": {
						"POSITION": 0,
						"NORMAL": 1,
						"TEXCOORD_0": 2,
						"TANGENT": 3
					},
					"indices": 4,
					"material": 0,
					"mode": 4
				},
				{
					"attributes": {
						"POSITION": 0,
						"NORMAL": 1,
						"TEXCOORD_0": 2,
						"TANGENT": 3
					},
					"indices": 5,
					"material": 1,
					"mode": 4
				},
				{
					"attributes": {
						"POSITION": 0,
						"NORMAL": 1,
						"TEXCOORD_0": 2,
						"TANGENT": 3
					},
					"indices": 6,
					"material": 2,
					"mode": 4
				},
				{
					"attributes": {
						"POSITION": 0,
						"NORMAL": 1,
						"TEXCOORD_0": 2,
						"TANGENT": 3
					},
					"indices": 7,
					"material": 3,
					"mode": 4
				}
			]
		}
	],
	"nodes": [
		{
			"name": "UnityGlTF_root",
			"children": [
				1
			]
		},
		{
			"name": "node_mesh_fence_02",
			"mesh": 0,
			"matrix": [1, 0, 0, 0, 0, 1, 0, 0, 0, 0, 1, 0, 0, 0, 0, 1]
		}
	],
	"samplers": [
		{
			"magFilter": 9729,
			"minFilter": 9985,
			"wrapS": 10497,
			"wrapT": 10497
		}
	],
	"scenes": [
		{
			"name":"defaultScene",
			"nodes": [
				0
			]
		}
	],
	"scene": 0,
	"textures": [
		{
			"sampler": 0,
			"source": 0
		},
		{
			"sampler": 0,
			"source": 1
		},
		{
			"sampler": 0,
			"source": 2
		}
	]
}