{
	"asset": {
		"generator": "Unity 2018.3.6f1",
		"extras": {
			"exporterVersion" : "2.2.1"
		},
		"version": "2.0"
	},
	"accessors": [
		{
			"bufferView": 2,
			"byteOffset": 0,
			"componentType": 5126,
			"count": 4972,
			"max": [ 1002.148, 1229.35, 188.2672 ],
			"min": [ -1002.148, -12.90563, -188.2672 ],
			"type": "VEC3"
		},
		{
			"bufferView": 2,
			"byteOffset": 59664,
			"componentType": 5126,
			"count": 4972,
			"max": [ 1, 1, 1 ],
			"min": [ -1, -1, -1 ],
			"type": "VEC3"
		},
		{
			"bufferView": 1,
			"byteOffset": 0,
			"componentType": 5126,
			"count": 4972,
			"max": [ 8.333324, 8.830597 ],
			"min": [ -9.335573, -7.83695 ],
			"type": "VEC2"
		},
		{
			"bufferView": 3,
			"byteOffset": 0,
			"componentType": 5126,
			"count": 4972,
			"max": [ 1, 1, 1, 1 ],
			"min": [ -1, -1, -1, -1 ],
			"type": "VEC4"
		},
		{
			"bufferView": 0,
			"byteOffset": 0,
			"componentType": 5123,
			"count": 9972,
			"max": [ 1899 ],
			"min": [ 0 ],
			"type": "SCALAR"
		},
		{
			"bufferView": 0,
			"byteOffset": 19944,
			"componentType": 5123,
			"count": 1170,
			"max": [ 2595 ],
			"min": [ 1900 ],
			"type": "SCALAR"
		},
		{
			"bufferView": 0,
			"byteOffset": 22284,
			"componentType": 5123,
			"count": 54,
			"max": [ 2623 ],
			"min": [ 2596 ],
			"type": "SCALAR"
		},
		{
			"bufferView": 0,
			"byteOffset": 22392,
			"componentType": 5123,
			"count": 1788,
			"max": [ 3599 ],
			"min": [ 2624 ],
			"type": "SCALAR"
		},
		{
			"bufferView": 0,
			"byteOffset": 25968,
			"componentType": 5123,
			"count": 2376,
			"max": [ 4971 ],
			"min": [ 3600 ],
			"type": "SCALAR"
		}
	],
	"buffers": [
		{
			"byteLength": 269376,
			"uri": "entity59614.bin"
		}
	],
	"bufferViews": [
		{
			"buffer": 0,
			"byteLength": 30720,
			"target": 34963,
			"byteOffset": 238656
		},
		{
			"buffer": 0,
			"byteLength": 39776,
			"target": 34962,
			"byteStride": 8,
			"byteOffset": 0
		},
		{
			"buffer": 0,
			"byteLength": 119328,
			"target": 34962,
			"byteStride": 12,
			"byteOffset": 39776
		},
		{
			"buffer": 0,
			"byteLength": 79552,
			"target": 34962,
			"byteStride": 16,
			"byteOffset": 159104
		}
	],
	"images": [
		{
			"uri": "Assets/Visuals/Textures/texture_bark_01.jpg"
		},
		{
			"uri": "Assets/Visuals/Textures/texture_brown_paint.jpg"
		},
		{
			"uri": "Assets/Visuals/Textures/texture_grass_base_01.jpg"
		},
		{
			"uri": "Assets/Visuals/Textures/Texture_dark_paint_01.jpg"
		}
	],
	"materials": [
		{
			"pbrMetallicRoughness": {
				"baseColorTexture" : {
					"index" : 0,
					"texCoord" : 0
				},
				"baseColorFactor": [1, 1, 1, 1],
				"metallicFactor": 0,
				"roughnessFactor": 1
			},
			"emissiveFactor": [0, 0, 0],
			"doubleSided": false,
			"name": "mat01"
		},
		{
			"pbrMetallicRoughness": {
				"baseColorTexture" : {
					"index" : 1,
					"texCoord" : 0
				},
				"baseColorFactor": [1, 1, 1, 1],
				"metallicFactor": 0,
				"roughnessFactor": 1
			},
			"emissiveFactor": [0, 0, 0],
			"doubleSided": false,
			"name": "mat02"
		},
		{
			"pbrMetallicRoughness": {
				"baseColorTexture" : {
					"index" : 2,
					"texCoord" : 0
				},
				"baseColorFactor": [1, 1, 1, 1],
				"metallicFactor": 0,
				"roughnessFactor": 1
			},
			"emissiveFactor": [0, 0, 0],
			"doubleSided": false,
			"name": "mat04"
		},
		{
			"pbrMetallicRoughness": {
				"baseColorTexture" : {
					"index" : 3,
					"texCoord" : 0
				},
				"baseColorFactor": [1, 1, 1, 1],
				"metallicFactor": 0,
				"roughnessFactor": 1
			},
			"emissiveFactor": [0, 0, 0],
			"doubleSided": false,
			"name": "mat03"
		},
		{
			"pbrMetallicRoughness": {
				"baseColorFactor": [0.1708239, 0.1518166, 0.1985294, 1],
				"metallicFactor": 1,
				"roughnessFactor": 1
			},
			"emissiveFactor": [0, 0, 0],
			"doubleSided": false,
			"name": "outline"
		}
	],
	"meshes": [
		{
			"name": "mesh_mesh_skydoor_01_10832mesh_skydoor_01",
			"primitives": [
				{
					"attributes": {
						"POSITION": 0,
						"NORMAL": 1,
						"TEXCOORD_0": 2,
						"TANGENT": 3
					},
					"indices": 4,
					"material": 0,
					"mode": 4
				},
				{
					"attributes": {
						"POSITION": 0,
						"NORMAL": 1,
						"TEXCOORD_0": 2,
						"TANGENT": 3
					},
					"indices": 5,
					"material": 1,
					"mode": 4
				},
				{
					"attributes": {
						"POSITION": 0,
						"NORMAL": 1,
						"TEXCOORD_0": 2,
						"TANGENT": 3
					},
					"indices": 6,
					"material": 2,
					"mode": 4
				},
				{
					"attributes": {
						"POSITION": 0,
						"NORMAL": 1,
						"TEXCOORD_0": 2,
						"TANGENT": 3
					},
					"indices": 7,
					"material": 3,
					"mode": 4
				},
				{
					"attributes": {
						"POSITION": 0,
						"NORMAL": 1,
						"TEXCOORD_0": 2,
						"TANGENT": 3
					},
					"indices": 8,
					"material": 4,
					"mode": 4
				}
			]
		}
	],
	"nodes": [
		{
			"name": "UnityGlTF_root",
			"children": [
				1
			]
		},
		{
			"name": "node_mesh_skydoor_01",
			"mesh": 0,
			"matrix": [1, 0, 0, 0, 0, 1, 0, 0, 0, 0, 1, 0, 0, 0, 0, 1]
		}
	],
	"samplers": [
		{
			"magFilter": 9729,
			"minFilter": 9985,
			"wrapS": 10497,
			"wrapT": 10497
		}
	],
	"scenes": [
		{
			"name":"defaultScene",
			"nodes": [
				0
			]
		}
	],
	"scene": 0,
	"textures": [
		{
			"sampler": 0,
			"source": 0
		},
		{
			"sampler": 0,
			"source": 1
		},
		{
			"sampler": 0,
			"source": 2
		},
		{
			"sampler": 0,
			"source": 3
		}
	]
}