{
	"asset": {
		"generator": "Unity 2018.3.6f1",
		"extras": {
			"exporterVersion" : "2.2.1"
		},
		"version": "2.0"
	},
	"accessors": [
		{
			"bufferView": 2,
			"byteOffset": 0,
			"componentType": 5126,
			"count": 520,
			"max": [ 0.362467, 1.359944, 0.262231 ],
			"min": [ -0.3636949, -7.629394E-08, -0.2671176 ],
			"type": "VEC3"
		},
		{
			"bufferView": 2,
			"byteOffset": 6240,
			"componentType": 5126,
			"count": 520,
			"max": [ 1, 1, 1 ],
			"min": [ -1, -1, -1 ],
			"type": "VEC3"
		},
		{
			"bufferView": 1,
			"byteOffset": 0,
			"componentType": 5126,
			"count": 520,
			"max": [ 1.881716, 3.081966 ],
			"min": [ -0.2802676, -1.929652 ],
			"type": "VEC2"
		},
		{
			"bufferView": 3,
			"byteOffset": 0,
			"componentType": 5126,
			"count": 520,
			"max": [ 0.9998964, 0.9238795, 1, 1 ],
			"min": [ -1, -0.9238796, -1, -1 ],
			"type": "VEC4"
		},
		{
			"bufferView": 0,
			"byteOffset": 0,
			"componentType": 5123,
			"count": 324,
			"max": [ 155 ],
			"min": [ 0 ],
			"type": "SCALAR"
		},
		{
			"bufferView": 0,
			"byteOffset": 648,
			"componentType": 5123,
			"count": 180,
			"max": [ 231 ],
			"min": [ 156 ],
			"type": "SCALAR"
		},
		{
			"bufferView": 0,
			"byteOffset": 1008,
			"componentType": 5123,
			"count": 288,
			"max": [ 439 ],
			"min": [ 232 ],
			"type": "SCALAR"
		},
		{
			"bufferView": 0,
			"byteOffset": 1584,
			"componentType": 5123,
			"count": 144,
			"max": [ 519 ],
			"min": [ 440 ],
			"type": "SCALAR"
		},
		{
			"bufferView": 2,
			"byteOffset": 12480,
			"componentType": 5126,
			"count": 24,
			"max": [ 0.3606788, 1.359944, 0.3606788 ],
			"min": [ -0.3606788, 0, -0.3606788 ],
			"type": "VEC3"
		},
		{
			"bufferView": 2,
			"byteOffset": 12768,
			"componentType": 5126,
			"count": 24,
			"max": [ 0.9994057, 1, 0.9994057 ],
			"min": [ -0.9994057, -1, -0.9994057 ],
			"type": "VEC3"
		},
		{
			"bufferView": 1,
			"byteOffset": 4160,
			"componentType": 5126,
			"count": 24,
			"max": [ 0.875, 1 ],
			"min": [ 0.125, 0 ],
			"type": "VEC2"
		},
		{
			"bufferView": 3,
			"byteOffset": 8320,
			"componentType": 5126,
			"count": 24,
			"max": [ 0, 0, 1, 1 ],
			"min": [ -1, 0, -1, 1 ],
			"type": "VEC4"
		},
		{
			"bufferView": 0,
			"byteOffset": 1872,
			"componentType": 5123,
			"count": 36,
			"max": [ 23 ],
			"min": [ 0 ],
			"type": "SCALAR"
		}
	],
	"buffers": [
		{
			"byteLength": 28056,
			"uri": "entity232030.bin"
		}
	],
	"bufferViews": [
		{
			"buffer": 0,
			"byteLength": 1944,
			"target": 34963,
			"byteOffset": 26112
		},
		{
			"buffer": 0,
			"byteLength": 4352,
			"target": 34962,
			"byteStride": 8,
			"byteOffset": 0
		},
		{
			"buffer": 0,
			"byteLength": 13056,
			"target": 34962,
			"byteStride": 12,
			"byteOffset": 4352
		},
		{
			"buffer": 0,
			"byteLength": 8704,
			"target": 34962,
			"byteStride": 16,
			"byteOffset": 17408
		}
	],
	"images": [
		{
			"uri": "Assets/Visuals/Materials/Wood_Clean_Albedo.jpg"
		},
		{
			"uri": "Assets/Visuals/Materials/Mushroom_Clair_Albedo.jpg"
		}
	],
	"materials": [
		{
			"pbrMetallicRoughness": {
				"baseColorFactor": [0, 0, 0, 1],
				"metallicFactor": 0,
				"roughnessFactor": 1
			},
			"emissiveFactor": [0, 0, 0],
			"doubleSided": false,
			"name": "Black_Outline_Mat"
		},
		{
			"pbrMetallicRoughness": {
				"baseColorTexture" : {
					"index" : 0,
					"texCoord" : 0
				},
				"baseColorFactor": [1, 1, 1, 1],
				"metallicFactor": 0,
				"roughnessFactor": 1
			},
			"emissiveFactor": [0, 0, 0],
			"doubleSided": false,
			"name": "Wood_Clean_Mat"
		},
		{
			"pbrMetallicRoughness": {
				"baseColorTexture" : {
					"index" : 1,
					"texCoord" : 0
				},
				"baseColorFactor": [1, 1, 1, 1],
				"metallicFactor": 0,
				"roughnessFactor": 1
			},
			"emissiveFactor": [0, 0, 0],
			"doubleSided": false,
			"name": "Mushroom_Clair_Mat"
		},
		{
			"pbrMetallicRoughness": {
				"baseColorFactor": [0.05724907, 1, 0, 1],
				"metallicFactor": 0,
				"roughnessFactor": 0.5
			},
			"emissiveFactor": [0, 0, 0],
			"doubleSided": false,
			"name": "_collider_Mat"
		}
	],
	"meshes": [
		{
			"name": "mesh_Fence_01_Post_12588Fence_01_Post",
			"primitives": [
				{
					"attributes": {
						"POSITION": 0,
						"NORMAL": 1,
						"TEXCOORD_0": 2,
						"TANGENT": 3
					},
					"indices": 4,
					"material": 0,
					"mode": 4
				},
				{
					"attributes": {
						"POSITION": 0,
						"NORMAL": 1,
						"TEXCOORD_0": 2,
						"TANGENT": 3
					},
					"indices": 5,
					"material": 1,
					"mode": 4
				},
				{
					"attributes": {
						"POSITION": 0,
						"NORMAL": 1,
						"TEXCOORD_0": 2,
						"TANGENT": 3
					},
					"indices": 6,
					"material": 2,
					"mode": 4
				},
				{
					"attributes": {
						"POSITION": 0,
						"NORMAL": 1,
						"TEXCOORD_0": 2,
						"TANGENT": 3
					},
					"indices": 7,
					"material": 1,
					"mode": 4
				}
			]
		},
		{
			"name": "mesh_Fence_01_Post_collider_12590Fence_01_Post_collider",
			"primitives": [
				{
					"attributes": {
						"POSITION": 8,
						"NORMAL": 9,
						"TEXCOORD_0": 10,
						"TANGENT": 11
					},
					"indices": 12,
					"material": 3,
					"mode": 4
				}
			]
		}
	],
	"nodes": [
		{
			"name": "UnityGlTF_root",
			"children": [
				1
			]
		},
		{
			"name": "node_Fence_01_Post",
			"mesh": 0,
			"children": [
				2
			],
			"matrix": [1, 0, 0, 0, 0, 1, 0, 0, 0, 0, 1, 0, 0, 0, 0, 1]
		},
		{
			"name": "node_Fence_01_Post_collider",
			"mesh": 1
		}
	],
	"samplers": [
		{
			"magFilter": 9729,
			"minFilter": 9985,
			"wrapS": 10497,
			"wrapT": 10497
		}
	],
	"scenes": [
		{
			"name":"defaultScene",
			"nodes": [
				0
			]
		}
	],
	"scene": 0,
	"textures": [
		{
			"sampler": 0,
			"source": 0
		},
		{
			"sampler": 0,
			"source": 1
		}
	]
}