{
	"asset": {
		"generator": "Unity 2018.3.6f1",
		"extras": {
			"exporterVersion" : "2.2.1"
		},
		"version": "2.0"
	},
	"accessors": [
		{
			"bufferView": 2,
			"byteOffset": 0,
			"componentType": 5126,
			"count": 556,
			"max": [ 1.333824, 1.593542, 1.338668 ],
			"min": [ -1.298827, -0.02475334, -1.326175 ],
			"type": "VEC3"
		},
		{
			"bufferView": 2,
			"byteOffset": 6672,
			"componentType": 5126,
			"count": 556,
			"max": [ 0.9960279, 0.9987234, 0.9894373 ],
			"min": [ -0.998884, -0.996439, -0.9905697 ],
			"type": "VEC3"
		},
		{
			"bufferView": 1,
			"byteOffset": 0,
			"componentType": 5126,
			"count": 556,
			"max": [ 1.779081, 2.358949 ],
			"min": [ -1.530372, -0.5625106 ],
			"type": "VEC2"
		},
		{
			"bufferView": 3,
			"byteOffset": 0,
			"componentType": 5126,
			"count": 556,
			"max": [ 0.9982906, 0.9623041, 0.9958929, 1 ],
			"min": [ -0.7800431, -0.9130727, -0.9998851, -1 ],
			"type": "VEC4"
		},
		{
			"bufferView": 0,
			"byteOffset": 0,
			"componentType": 5123,
			"count": 450,
			"max": [ 256 ],
			"min": [ 0 ],
			"type": "SCALAR"
		},
		{
			"bufferView": 0,
			"byteOffset": 900,
			"componentType": 5123,
			"count": 324,
			"max": [ 433 ],
			"min": [ 257 ],
			"type": "SCALAR"
		},
		{
			"bufferView": 0,
			"byteOffset": 1548,
			"componentType": 5123,
			"count": 285,
			"max": [ 555 ],
			"min": [ 434 ],
			"type": "SCALAR"
		},
		{
			"bufferView": 2,
			"byteOffset": 13344,
			"componentType": 5126,
			"count": 96,
			"max": [ 1.392017, 1.625182, 1.265444 ],
			"min": [ -1.392017, 0, -1.319775 ],
			"type": "VEC3"
		},
		{
			"bufferView": 2,
			"byteOffset": 14496,
			"componentType": 5126,
			"count": 96,
			"max": [ 0.9915554, 0.9995666, 0.9524326 ],
			"min": [ -0.9915554, -0.8898371, -0.9883033 ],
			"type": "VEC3"
		},
		{
			"bufferView": 1,
			"byteOffset": 4448,
			"componentType": 5126,
			"count": 96,
			"max": [ 0.875, 0.75 ],
			"min": [ 0.125, 0 ],
			"type": "VEC2"
		},
		{
			"bufferView": 3,
			"byteOffset": 8896,
			"componentType": 5126,
			"count": 96,
			"max": [ 1, 0.2133198, 0.9878913, 1 ],
			"min": [ -1, -0.2133198, -0.990763, 1 ],
			"type": "VEC4"
		},
		{
			"bufferView": 0,
			"byteOffset": 2118,
			"componentType": 5123,
			"count": 228,
			"max": [ 95 ],
			"min": [ 0 ],
			"type": "SCALAR"
		}
	],
	"buffers": [
		{
			"byteLength": 33870,
			"uri": "entity31508.bin"
		}
	],
	"bufferViews": [
		{
			"buffer": 0,
			"byteLength": 2574,
			"target": 34963,
			"byteOffset": 31296
		},
		{
			"buffer": 0,
			"byteLength": 5216,
			"target": 34962,
			"byteStride": 8,
			"byteOffset": 0
		},
		{
			"buffer": 0,
			"byteLength": 15648,
			"target": 34962,
			"byteStride": 12,
			"byteOffset": 5216
		},
		{
			"buffer": 0,
			"byteLength": 10432,
			"target": 34962,
			"byteStride": 16,
			"byteOffset": 20864
		}
	],
	"images": [
		{
			"uri": "Assets/Visuals/Materials/Rock_01_Albedo.jpg"
		},
		{
			"uri": "Assets/Visuals/Materials/Grass_Albedo.jpg"
		}
	],
	"materials": [
		{
			"pbrMetallicRoughness": {
				"baseColorFactor": [0, 0, 0, 1],
				"metallicFactor": 0,
				"roughnessFactor": 1
			},
			"emissiveFactor": [0, 0, 0],
			"doubleSided": false,
			"name": "Black_Outline_Mat"
		},
		{
			"pbrMetallicRoughness": {
				"baseColorTexture" : {
					"index" : 0,
					"texCoord" : 0
				},
				"baseColorFactor": [1, 1, 1, 1],
				"metallicFactor": 0,
				"roughnessFactor": 1
			},
			"emissiveFactor": [0, 0, 0],
			"doubleSided": false,
			"name": "Rock_01_Mat"
		},
		{
			"pbrMetallicRoughness": {
				"baseColorTexture" : {
					"index" : 1,
					"texCoord" : 0
				},
				"baseColorFactor": [1, 1, 1, 1],
				"metallicFactor": 0,
				"roughnessFactor": 1
			},
			"emissiveFactor": [0, 0, 0],
			"doubleSided": false,
			"name": "Grass_Mat"
		},
		{
			"pbrMetallicRoughness": {
				"baseColorFactor": [0.05724907, 1, 0, 1],
				"metallicFactor": 0,
				"roughnessFactor": 0.5
			},
			"emissiveFactor": [0, 0, 0],
			"doubleSided": false,
			"name": "_collider_Mat"
		}
	],
	"meshes": [
		{
			"name": "mesh_Shelter_01_12398Shelter_01",
			"primitives": [
				{
					"attributes": {
						"POSITION": 0,
						"NORMAL": 1,
						"TEXCOORD_0": 2,
						"TANGENT": 3
					},
					"indices": 4,
					"material": 0,
					"mode": 4
				},
				{
					"attributes": {
						"POSITION": 0,
						"NORMAL": 1,
						"TEXCOORD_0": 2,
						"TANGENT": 3
					},
					"indices": 5,
					"material": 1,
					"mode": 4
				},
				{
					"attributes": {
						"POSITION": 0,
						"NORMAL": 1,
						"TEXCOORD_0": 2,
						"TANGENT": 3
					},
					"indices": 6,
					"material": 2,
					"mode": 4
				}
			]
		},
		{
			"name": "mesh_Shelter_01_collider_12400Shelter_01_collider",
			"primitives": [
				{
					"attributes": {
						"POSITION": 7,
						"NORMAL": 8,
						"TEXCOORD_0": 9,
						"TANGENT": 10
					},
					"indices": 11,
					"material": 3,
					"mode": 4
				}
			]
		}
	],
	"nodes": [
		{
			"name": "UnityGlTF_root",
			"children": [
				1
			]
		},
		{
			"name": "node_Shelter_01",
			"mesh": 0,
			"children": [
				2
			],
			"matrix": [1, 0, 0, 0, 0, 1, 0, 0, 0, 0, 1, 0, 0, 0, 0, 1]
		},
		{
			"name": "node_Shelter_01_collider",
			"mesh": 1
		}
	],
	"samplers": [
		{
			"magFilter": 9729,
			"minFilter": 9985,
			"wrapS": 10497,
			"wrapT": 10497
		}
	],
	"scenes": [
		{
			"name":"defaultScene",
			"nodes": [
				0
			]
		}
	],
	"scene": 0,
	"textures": [
		{
			"sampler": 0,
			"source": 0
		},
		{
			"sampler": 0,
			"source": 1
		}
	]
}