{
	"asset": {
		"generator": "Unity 2018.3.6f1",
		"extras": {
			"exporterVersion" : "2.2.1"
		},
		"version": "2.0"
	},
	"accessors": [
		{
			"bufferView": 2,
			"byteOffset": 0,
			"componentType": 5126,
			"count": 250,
			"max": [ 1.309199, 1.357459, 0.8757492 ],
			"min": [ -1.089232, 0, -0.7153721 ],
			"type": "VEC3"
		},
		{
			"bufferView": 2,
			"byteOffset": 3000,
			"componentType": 5126,
			"count": 250,
			"max": [ 0.9991758, 0.9934277, 0.99355 ],
			"min": [ -0.9998019, -0.9917613, -0.9934927 ],
			"type": "VEC3"
		},
		{
			"bufferView": 1,
			"byteOffset": 0,
			"componentType": 5126,
			"count": 250,
			"max": [ 1.216599, 1.270226 ],
			"min": [ -0.2245363, -0.07772064 ],
			"type": "VEC2"
		},
		{
			"bufferView": 3,
			"byteOffset": 0,
			"componentType": 5126,
			"count": 250,
			"max": [ 0.7094548, 0.997228, 0.9803223, 1 ],
			"min": [ -0.946272, -0.9924415, -0.9879434, -1 ],
			"type": "VEC4"
		},
		{
			"bufferView": 0,
			"byteOffset": 0,
			"componentType": 5123,
			"count": 678,
			"max": [ 124 ],
			"min": [ 0 ],
			"type": "SCALAR"
		},
		{
			"bufferView": 0,
			"byteOffset": 1356,
			"componentType": 5123,
			"count": 678,
			"max": [ 249 ],
			"min": [ 125 ],
			"type": "SCALAR"
		},
		{
			"bufferView": 2,
			"byteOffset": 6000,
			"componentType": 5126,
			"count": 32,
			"max": [ 1.295107, 1.357459, 0.75 ],
			"min": [ -0.9879465, 0, -0.75 ],
			"type": "VEC3"
		},
		{
			"bufferView": 2,
			"byteOffset": 6384,
			"componentType": 5126,
			"count": 32,
			"max": [ 1, 0.9975637, 0.9921231 ],
			"min": [ -1, -0.9999996, -0.997767 ],
			"type": "VEC3"
		},
		{
			"bufferView": 1,
			"byteOffset": 2000,
			"componentType": 5126,
			"count": 32,
			"max": [ 0.875, 1 ],
			"min": [ 0.125, 0 ],
			"type": "VEC2"
		},
		{
			"bufferView": 3,
			"byteOffset": 4000,
			"componentType": 5126,
			"count": 32,
			"max": [ 0, 0.2809982, 1, 1 ],
			"min": [ -0.9977406, -0.2809982, -1, 1 ],
			"type": "VEC4"
		},
		{
			"bufferView": 0,
			"byteOffset": 2712,
			"componentType": 5123,
			"count": 60,
			"max": [ 31 ],
			"min": [ 0 ],
			"type": "SCALAR"
		}
	],
	"buffers": [
		{
			"byteLength": 16368,
			"uri": "entity282688.bin"
		}
	],
	"bufferViews": [
		{
			"buffer": 0,
			"byteLength": 2832,
			"target": 34963,
			"byteOffset": 13536
		},
		{
			"buffer": 0,
			"byteLength": 2256,
			"target": 34962,
			"byteStride": 8,
			"byteOffset": 0
		},
		{
			"buffer": 0,
			"byteLength": 6768,
			"target": 34962,
			"byteStride": 12,
			"byteOffset": 2256
		},
		{
			"buffer": 0,
			"byteLength": 4512,
			"target": 34962,
			"byteStride": 16,
			"byteOffset": 9024
		}
	],
	"images": [
		{
			"uri": "Assets/Visuals/Materials/Tree_Leaves_Albedo.jpg"
		}
	],
	"materials": [
		{
			"pbrMetallicRoughness": {
				"baseColorTexture" : {
					"index" : 0,
					"texCoord" : 0
				},
				"baseColorFactor": [1, 1, 1, 1],
				"metallicFactor": 0,
				"roughnessFactor": 1
			},
			"emissiveFactor": [0, 0, 0],
			"doubleSided": false,
			"name": "Tree_Leaves_Mat"
		},
		{
			"pbrMetallicRoughness": {
				"baseColorFactor": [0, 0, 0, 1],
				"metallicFactor": 0,
				"roughnessFactor": 1
			},
			"emissiveFactor": [0, 0, 0],
			"doubleSided": false,
			"name": "Black_Outline_Mat"
		},
		{
			"pbrMetallicRoughness": {
				"baseColorFactor": [0.05724907, 1, 0, 1],
				"metallicFactor": 0,
				"roughnessFactor": 0.5
			},
			"emissiveFactor": [0, 0, 0],
			"doubleSided": false,
			"name": "_collider_Mat"
		}
	],
	"meshes": [
		{
			"name": "mesh_Bush_01_12372Bush_01",
			"primitives": [
				{
					"attributes": {
						"POSITION": 0,
						"NORMAL": 1,
						"TEXCOORD_0": 2,
						"TANGENT": 3
					},
					"indices": 4,
					"material": 0,
					"mode": 4
				},
				{
					"attributes": {
						"POSITION": 0,
						"NORMAL": 1,
						"TEXCOORD_0": 2,
						"TANGENT": 3
					},
					"indices": 5,
					"material": 1,
					"mode": 4
				}
			]
		},
		{
			"name": "mesh_Bush_01_collider_12374Bush_01_collider",
			"primitives": [
				{
					"attributes": {
						"POSITION": 6,
						"NORMAL": 7,
						"TEXCOORD_0": 8,
						"TANGENT": 9
					},
					"indices": 10,
					"material": 2,
					"mode": 4
				}
			]
		}
	],
	"nodes": [
		{
			"name": "UnityGlTF_root",
			"children": [
				1
			]
		},
		{
			"name": "node_Bush_01",
			"mesh": 0,
			"children": [
				2
			],
			"matrix": [1, 0, 0, 0, 0, 1, 0, 0, 0, 0, 1, 0, 0, 0, 0, 1]
		},
		{
			"name": "node_Bush_01_collider",
			"mesh": 1
		}
	],
	"samplers": [
		{
			"magFilter": 9729,
			"minFilter": 9985,
			"wrapS": 10497,
			"wrapT": 10497
		}
	],
	"scenes": [
		{
			"name":"defaultScene",
			"nodes": [
				0
			]
		}
	],
	"scene": 0,
	"textures": [
		{
			"sampler": 0,
			"source": 0
		}
	]
}