{
	"asset": {
		"generator": "Unity 2018.3.6f1",
		"extras": {
			"exporterVersion" : "2.2.1"
		},
		"version": "2.0"
	},
	"accessors": [
		{
			"bufferView": 2,
			"byteOffset": 0,
			"componentType": 5126,
			"count": 9,
			"max": [ 6.95636, -3.814697E-08, 5.736753 ],
			"min": [ -7.096246, -3.814697E-08, -6.377605 ],
			"type": "VEC3"
		},
		{
			"bufferView": 2,
			"byteOffset": 108,
			"componentType": 5126,
			"count": 9,
			"max": [ 0, 1, 0 ],
			"min": [ 0, 1, 0 ],
			"type": "VEC3"
		},
		{
			"bufferView": 1,
			"byteOffset": 0,
			"componentType": 5126,
			"count": 9,
			"max": [ 0.7087618, 4.349024 ],
			"min": [ -1.152644, 2.187437 ],
			"type": "VEC2"
		},
		{
			"bufferView": 3,
			"byteOffset": 0,
			"componentType": 5126,
			"count": 9,
			"max": [ -0.02057797, 0, -0.9997882, 1 ],
			"min": [ -0.02057959, 0, -0.9997882, 1 ],
			"type": "VEC4"
		},
		{
			"bufferView": 0,
			"byteOffset": 0,
			"componentType": 5123,
			"count": 24,
			"max": [ 8 ],
			"min": [ 0 ],
			"type": "SCALAR"
		}
	],
	"buffers": [
		{
			"byteLength": 480,
			"uri": "entity83398n.bin"
		}
	],
	"bufferViews": [
		{
			"buffer": 0,
			"byteLength": 48,
			"target": 34963,
			"byteOffset": 432
		},
		{
			"buffer": 0,
			"byteLength": 72,
			"target": 34962,
			"byteStride": 8,
			"byteOffset": 0
		},
		{
			"buffer": 0,
			"byteLength": 216,
			"target": 34962,
			"byteStride": 12,
			"byteOffset": 72
		},
		{
			"buffer": 0,
			"byteLength": 144,
			"target": 34962,
			"byteStride": 16,
			"byteOffset": 288
		}
	],
	"images": [
		{
			"uri": "Assets/Visuals/Materials/Water_Albedo.jpg"
		}
	],
	"materials": [
		{
			"pbrMetallicRoughness": {
				"baseColorTexture" : {
					"index" : 0,
					"texCoord" : 0
				},
				"baseColorFactor": [1, 1, 1, 1],
				"metallicFactor": 0,
				"roughnessFactor": 1
			},
			"emissiveFactor": [0, 0, 0],
			"doubleSided": false,
			"name": "Water_Mat"
		}
	],
	"meshes": [
		{
			"name": "mesh_Water_Pond_01_12152Water_Pond_01",
			"primitives": [
				{
					"attributes": {
						"POSITION": 0,
						"NORMAL": 1,
						"TEXCOORD_0": 2,
						"TANGENT": 3
					},
					"indices": 4,
					"material": 0,
					"mode": 4
				}
			]
		}
	],
	"nodes": [
		{
			"name": "UnityGlTF_root",
			"children": [
				1
			]
		},
		{
			"name": "node_Water_Pond_01",
			"mesh": 0,
			"matrix": [1, 0, 0, 0, 0, 1, 0, 0, 0, 0, 1, 0, 0, 0, 0, 1]
		}
	],
	"samplers": [
		{
			"magFilter": 9729,
			"minFilter": 9985,
			"wrapS": 10497,
			"wrapT": 10497
		}
	],
	"scenes": [
		{
			"name":"defaultScene",
			"nodes": [
				0
			]
		}
	],
	"scene": 0,
	"textures": [
		{
			"sampler": 0,
			"source": 0
		}
	]
}