{
	"asset": {
		"generator": "Unity 2018.3.6f1",
		"extras": {
			"exporterVersion" : "2.2.1"
		},
		"version": "2.0"
	},
	"accessors": [
		{
			"bufferView": 2,
			"byteOffset": 0,
			"componentType": 5126,
			"count": 558,
			"max": [ 1.415046, 1.677096, 0.7813824 ],
			"min": [ -1.310938, -6.961822E-07, -0.6219983 ],
			"type": "VEC3"
		},
		{
			"bufferView": 2,
			"byteOffset": 6696,
			"componentType": 5126,
			"count": 558,
			"max": [ 0.9991855, 0.9943131, 0.9966668 ],
			"min": [ -0.9987082, -0.9925491, -0.9964445 ],
			"type": "VEC3"
		},
		{
			"bufferView": 1,
			"byteOffset": 0,
			"componentType": 5126,
			"count": 558,
			"max": [ 1, 0.9630298 ],
			"min": [ 0, 0 ],
			"type": "VEC2"
		},
		{
			"bufferView": 3,
			"byteOffset": 0,
			"componentType": 5126,
			"count": 558,
			"max": [ 0.9996934, 0.9417097, 0.998288, 1 ],
			"min": [ -0.9881523, -0.9932598, -0.9997137, -1 ],
			"type": "VEC4"
		},
		{
			"bufferView": 0,
			"byteOffset": 0,
			"componentType": 5123,
			"count": 966,
			"max": [ 236 ],
			"min": [ 0 ],
			"type": "SCALAR"
		},
		{
			"bufferView": 0,
			"byteOffset": 1932,
			"componentType": 5123,
			"count": 942,
			"max": [ 477 ],
			"min": [ 237 ],
			"type": "SCALAR"
		},
		{
			"bufferView": 0,
			"byteOffset": 3816,
			"componentType": 5123,
			"count": 240,
			"max": [ 557 ],
			"min": [ 376 ],
			"type": "SCALAR"
		},
		{
			"bufferView": 2,
			"byteOffset": 13392,
			"componentType": 5126,
			"count": 56,
			"max": [ 1.455613, 1.609143, 0.5631261 ],
			"min": [ -1.341435, -0.008294144, -0.5631261 ],
			"type": "VEC3"
		},
		{
			"bufferView": 2,
			"byteOffset": 14064,
			"componentType": 5126,
			"count": 56,
			"max": [ 1, 1, 1 ],
			"min": [ -1, -1, -1 ],
			"type": "VEC3"
		},
		{
			"bufferView": 1,
			"byteOffset": 4464,
			"componentType": 5126,
			"count": 56,
			"max": [ 0.77501, 1 ],
			"min": [ 0.22499, -7.450581E-09 ],
			"type": "VEC2"
		},
		{
			"bufferView": 3,
			"byteOffset": 8928,
			"componentType": 5126,
			"count": 56,
			"max": [ 0, 0.6979229, 1, 1 ],
			"min": [ -1, -0.6979228, -1, 1 ],
			"type": "VEC4"
		},
		{
			"bufferView": 0,
			"byteOffset": 4296,
			"componentType": 5123,
			"count": 84,
			"max": [ 55 ],
			"min": [ 0 ],
			"type": "SCALAR"
		}
	],
	"buffers": [
		{
			"byteLength": 33936,
			"uri": "entity42066n.bin"
		}
	],
	"bufferViews": [
		{
			"buffer": 0,
			"byteLength": 4464,
			"target": 34963,
			"byteOffset": 29472
		},
		{
			"buffer": 0,
			"byteLength": 4912,
			"target": 34962,
			"byteStride": 8,
			"byteOffset": 0
		},
		{
			"buffer": 0,
			"byteLength": 14736,
			"target": 34962,
			"byteStride": 12,
			"byteOffset": 4912
		},
		{
			"buffer": 0,
			"byteLength": 9824,
			"target": 34962,
			"byteStride": 16,
			"byteOffset": 19648
		}
	],
	"images": [
		{
			"uri": "Assets/Visuals/Materials/Tree_Leaves_Albedo.jpg"
		},
		{
			"uri": "Assets/Visuals/Materials/Wood_Clean_Albedo.jpg"
		}
	],
	"materials": [
		{
			"pbrMetallicRoughness": {
				"baseColorFactor": [0, 0, 0, 1],
				"metallicFactor": 0,
				"roughnessFactor": 1
			},
			"emissiveFactor": [0, 0, 0],
			"doubleSided": false,
			"name": "Black_Outline_Mat"
		},
		{
			"pbrMetallicRoughness": {
				"baseColorTexture" : {
					"index" : 0,
					"texCoord" : 0
				},
				"baseColorFactor": [1, 1, 1, 1],
				"metallicFactor": 0,
				"roughnessFactor": 1
			},
			"emissiveFactor": [0, 0, 0],
			"doubleSided": false,
			"name": "Tree_Leaves_Mat"
		},
		{
			"pbrMetallicRoughness": {
				"baseColorTexture" : {
					"index" : 1,
					"texCoord" : 0
				},
				"baseColorFactor": [1, 1, 1, 1],
				"metallicFactor": 0,
				"roughnessFactor": 1
			},
			"emissiveFactor": [0, 0, 0],
			"doubleSided": false,
			"name": "Wood_Clean_Mat"
		},
		{
			"pbrMetallicRoughness": {
				"baseColorFactor": [0.05724907, 1, 0, 1],
				"metallicFactor": 0,
				"roughnessFactor": 0.5
			},
			"emissiveFactor": [0, 0, 0],
			"doubleSided": false,
			"name": "_collider_Mat"
		}
	],
	"meshes": [
		{
			"name": "mesh_Bush_03_4500Bush_03",
			"primitives": [
				{
					"attributes": {
						"POSITION": 0,
						"NORMAL": 1,
						"TEXCOORD_0": 2,
						"TANGENT": 3
					},
					"indices": 4,
					"material": 0,
					"mode": 4
				},
				{
					"attributes": {
						"POSITION": 0,
						"NORMAL": 1,
						"TEXCOORD_0": 2,
						"TANGENT": 3
					},
					"indices": 5,
					"material": 1,
					"mode": 4
				},
				{
					"attributes": {
						"POSITION": 0,
						"NORMAL": 1,
						"TEXCOORD_0": 2,
						"TANGENT": 3
					},
					"indices": 6,
					"material": 2,
					"mode": 4
				}
			]
		},
		{
			"name": "mesh_Bush_03_collider_4502Bush_03_collider",
			"primitives": [
				{
					"attributes": {
						"POSITION": 7,
						"NORMAL": 8,
						"TEXCOORD_0": 9,
						"TANGENT": 10
					},
					"indices": 11,
					"material": 3,
					"mode": 4
				}
			]
		}
	],
	"nodes": [
		{
			"name": "UnityGlTF_root",
			"children": [
				1
			]
		},
		{
			"name": "node_Bush_03",
			"mesh": 0,
			"children": [
				2
			],
			"matrix": [1, 0, 0, 0, 0, 1, 0, 0, 0, 0, 1, 0, 0, 0, 0, 1]
		},
		{
			"name": "node_Bush_03_collider",
			"mesh": 1
		}
	],
	"samplers": [
		{
			"magFilter": 9729,
			"minFilter": 9985,
			"wrapS": 10497,
			"wrapT": 10497
		}
	],
	"scenes": [
		{
			"name":"defaultScene",
			"nodes": [
				0
			]
		}
	],
	"scene": 0,
	"textures": [
		{
			"sampler": 0,
			"source": 0
		},
		{
			"sampler": 0,
			"source": 1
		}
	]
}