{
	"asset": {
		"generator": "Unity 2018.3.6f1",
		"extras": {
			"exporterVersion" : "2.2.1"
		},
		"version": "2.0"
	},
	"accessors": [
		{
			"bufferView": 3,
			"byteOffset": 0,
			"componentType": 5126,
			"count": 0,
			"max": [ 0, 0, 0 ],
			"min": [ 0, 0, 0 ],
			"type": "VEC3"
		},
		{
			"bufferView": 0,
			"byteOffset": 0,
			"componentType": 5123,
			"count": 0,
			"max": [ 0 ],
			"min": [ 0 ],
			"type": "SCALAR"
		},
		{
			"bufferView": 1,
			"byteOffset": 0,
			"componentType": 5126,
			"count": 150,
			"max": [ 4.966667 ],
			"min": [ 0 ],
			"type": "SCALAR"
		},
		{
			"bufferView": 5,
			"byteOffset": 0,
			"componentType": 5126,
			"count": 150,
			"max": [ -4, 0, 0 ],
			"min": [ -4, 0, 0 ],
			"type": "VEC3"
		},
		{
			"bufferView": 6,
			"byteOffset": 0,
			"componentType": 5126,
			"count": 150,
			"max": [ 0, 0, 0, -1 ],
			"min": [ 0, 0, 0, -1 ],
			"type": "VEC4"
		},
		{
			"bufferView": 5,
			"byteOffset": 1800,
			"componentType": 5126,
			"count": 150,
			"max": [ 0.9933333, 1, 1 ],
			"min": [ 0, 1, 1 ],
			"type": "VEC3"
		},
		{
			"bufferView": 1,
			"byteOffset": 600,
			"componentType": 5126,
			"count": 150,
			"max": [ 4.966667 ],
			"min": [ 0 ],
			"type": "SCALAR"
		},
		{
			"bufferView": 5,
			"byteOffset": 3600,
			"componentType": 5126,
			"count": 150,
			"max": [ 0, 0, 0 ],
			"min": [ 0, 0, 0 ],
			"type": "VEC3"
		},
		{
			"bufferView": 6,
			"byteOffset": 2400,
			"componentType": 5126,
			"count": 150,
			"max": [ 0, 0, 0, -1 ],
			"min": [ 0, 0, 0, -1 ],
			"type": "VEC4"
		},
		{
			"bufferView": 5,
			"byteOffset": 5400,
			"componentType": 5126,
			"count": 150,
			"max": [ 1, 1, 1 ],
			"min": [ 0.00666666, 1, 1 ],
			"type": "VEC3"
		},
		{
			"bufferView": 3,
			"byteOffset": 0,
			"componentType": 5126,
			"count": 4,
			"max": [ 0, 0, 0.75 ],
			"min": [ -4, 0, -0.75 ],
			"type": "VEC3"
		},
		{
			"bufferView": 3,
			"byteOffset": 48,
			"componentType": 5126,
			"count": 4,
			"max": [ 0, 1, 0 ],
			"min": [ 0, 1, 0 ],
			"type": "VEC3"
		},
		{
			"bufferView": 2,
			"byteOffset": 0,
			"componentType": 5126,
			"count": 4,
			"max": [ 1, 1 ],
			"min": [ 0, 0 ],
			"type": "VEC2"
		},
		{
			"bufferView": 4,
			"byteOffset": 0,
			"componentType": 5126,
			"count": 4,
			"max": [ 0, 0, -1, 1 ],
			"min": [ 0, 0, -1, 1 ],
			"type": "VEC4"
		},
		{
			"bufferView": 0,
			"byteOffset": 0,
			"componentType": 5123,
			"count": 6,
			"max": [ 3 ],
			"min": [ 0 ],
			"type": "SCALAR"
		},
		{
			"bufferView": 3,
			"byteOffset": 96,
			"componentType": 5126,
			"count": 4,
			"max": [ 4, 0, 0.75 ],
			"min": [ 0, 0, -0.75 ],
			"type": "VEC3"
		},
		{
			"bufferView": 3,
			"byteOffset": 144,
			"componentType": 5126,
			"count": 4,
			"max": [ 0, 1, 0 ],
			"min": [ 0, 1, 0 ],
			"type": "VEC3"
		},
		{
			"bufferView": 2,
			"byteOffset": 32,
			"componentType": 5126,
			"count": 4,
			"max": [ 1, 1 ],
			"min": [ 0, 0 ],
			"type": "VEC2"
		},
		{
			"bufferView": 4,
			"byteOffset": 64,
			"componentType": 5126,
			"count": 4,
			"max": [ 0, 0, -1, 1 ],
			"min": [ 0, 0, -1, 1 ],
			"type": "VEC4"
		},
		{
			"bufferView": 0,
			"byteOffset": 12,
			"componentType": 5123,
			"count": 6,
			"max": [ 3 ],
			"min": [ 0 ],
			"type": "SCALAR"
		}
	],
	"animations": [
		{
			"name": "waterfx_art1",
			"channels": [
				{
					"sampler": 0,
					"target": {
						"node": 3,
						"path": "translation"
					}
				},
				{
					"sampler": 1,
					"target": {
						"node": 3,
						"path": "rotation"
					}
				},
				{
					"sampler": 2,
					"target": {
						"node": 3,
						"path": "scale"
					}
				},
				{
					"sampler": 3,
					"target": {
						"node": 2,
						"path": "translation"
					}
				},
				{
					"sampler": 4,
					"target": {
						"node": 2,
						"path": "rotation"
					}
				},
				{
					"sampler": 5,
					"target": {
						"node": 2,
						"path": "scale"
					}
				}
			],
			"samplers": [
				{
					"input": 2,
					"interpolation": "LINEAR",
					"output": 3
				},
				{
					"input": 2,
					"interpolation": "LINEAR",
					"output": 4
				},
				{
					"input": 2,
					"interpolation": "LINEAR",
					"output": 5
				},
				{
					"input": 6,
					"interpolation": "LINEAR",
					"output": 7
				},
				{
					"input": 6,
					"interpolation": "LINEAR",
					"output": 8
				},
				{
					"input": 6,
					"interpolation": "LINEAR",
					"output": 9
				}
			]
		}
	],
	"buffers": [
		{
			"byteLength": 13608,
			"uri": "entity232066.bin"
		}
	],
	"bufferViews": [
		{
			"buffer": 0,
			"byteLength": 24,
			"target": 34963,
			"byteOffset": 1584
		},
		{
			"buffer": 0,
			"byteLength": 1200,
			"byteOffset": 0
		},
		{
			"buffer": 0,
			"byteLength": 64,
			"target": 34962,
			"byteStride": 8,
			"byteOffset": 1200
		},
		{
			"buffer": 0,
			"byteLength": 192,
			"target": 34962,
			"byteStride": 12,
			"byteOffset": 1264
		},
		{
			"buffer": 0,
			"byteLength": 128,
			"target": 34962,
			"byteStride": 16,
			"byteOffset": 1456
		},
		{
			"buffer": 0,
			"byteLength": 7200,
			"byteStride": 12,
			"byteOffset": 1608
		},
		{
			"buffer": 0,
			"byteLength": 4800,
			"byteStride": 16,
			"byteOffset": 8808
		}
	],
	"images": [
		{
			"uri": "Assets/Visuals/Materials/Water_FX_Albedo.png"
		}
	],
	"materials": [
		{
			"pbrMetallicRoughness": {
				"baseColorFactor": [1, 1, 1, 0],
				"metallicFactor": 0,
				"roughnessFactor": 1
			},
			"alphaMode": "BLEND",
			"alphaCutoff": 0.5,
			"emissiveFactor": [0, 0, 0],
			"doubleSided": false,
			"name": "_totaltrans"
		},
		{
			"pbrMetallicRoughness": {
				"baseColorTexture" : {
					"index" : 0,
					"texCoord" : 0
				},
				"baseColorFactor": [1, 1, 1, 1],
				"metallicFactor": 0,
				"roughnessFactor": 1
			},
			"alphaMode": "BLEND",
			"alphaCutoff": 0.5,
			"emissiveFactor": [0, 0, 0],
			"doubleSided": false,
			"name": "Water_FX_Mat"
		}
	],
	"meshes": [
		{
			"name": "mesh_Cube_13020waterfx_art1",
			"primitives": [
				{
					"attributes": {
						"POSITION": 0
					},
					"indices": 1,
					"material": 0,
					"mode": 4
				}
			]
		},
		{
			"name": "mesh_Water_FX_1_12796Water_FX_1",
			"primitives": [
				{
					"attributes": {
						"POSITION": 10,
						"NORMAL": 11,
						"TEXCOORD_0": 12,
						"TANGENT": 13
					},
					"indices": 14,
					"material": 1,
					"mode": 4
				}
			]
		},
		{
			"name": "mesh_Water_FX_2_12798Water_FX_2",
			"primitives": [
				{
					"attributes": {
						"POSITION": 15,
						"NORMAL": 16,
						"TEXCOORD_0": 17,
						"TANGENT": 18
					},
					"indices": 19,
					"material": 1,
					"mode": 4
				}
			]
		}
	],
	"nodes": [
		{
			"name": "UnityGlTF_root",
			"children": [
				1
			]
		},
		{
			"name": "node_waterfx_art1",
			"mesh": 0,
			"children": [
				2,
				3
			],
			"matrix": [1, 0, 0, 0, 0, 1, 0, 0, 0, 0, 1, 0, 0, 0, 0, 1]
		},
		{
			"name": "node_Water_FX_1",
			"mesh": 1
		},
		{
			"name": "node_Water_FX_2",
			"mesh": 2,
			"translation": [ -4, 0, 0]
		}
	],
	"samplers": [
		{
			"magFilter": 9729,
			"minFilter": 9985,
			"wrapS": 10497,
			"wrapT": 10497
		}
	],
	"scenes": [
		{
			"name":"defaultScene",
			"nodes": [
				0
			]
		}
	],
	"scene": 0,
	"textures": [
		{
			"sampler": 0,
			"source": 0
		}
	]
}