{
	"asset": {
		"generator": "Unity 2018.3.6f1",
		"extras": {
			"exporterVersion" : "2.2.1"
		},
		"version": "2.0"
	},
	"accessors": [
		{
			"bufferView": 2,
			"byteOffset": 0,
			"componentType": 5126,
			"count": 745,
			"max": [ 6.441659, 11.58099, 6.763857 ],
			"min": [ -6.352592, -0.1582415, -7.267123 ],
			"type": "VEC3"
		},
		{
			"bufferView": 2,
			"byteOffset": 8940,
			"componentType": 5126,
			"count": 745,
			"max": [ 0.9989473, 0.9995778, 0.999965 ],
			"min": [ -0.9984855, -0.9989659, -0.999965 ],
			"type": "VEC3"
		},
		{
			"bufferView": 1,
			"byteOffset": 0,
			"componentType": 5126,
			"count": 745,
			"max": [ 1.829553, 1.924044 ],
			"min": [ -1.430612, -1.011589 ],
			"type": "VEC2"
		},
		{
			"bufferView": 3,
			"byteOffset": 0,
			"componentType": 5126,
			"count": 745,
			"max": [ 0.9998283, 0.9972208, 0.9989071, 1 ],
			"min": [ -0.9979304, -0.9979491, -0.9985055, -1 ],
			"type": "VEC4"
		},
		{
			"bufferView": 0,
			"byteOffset": 0,
			"componentType": 5123,
			"count": 888,
			"max": [ 280 ],
			"min": [ 0 ],
			"type": "SCALAR"
		},
		{
			"bufferView": 0,
			"byteOffset": 1776,
			"componentType": 5123,
			"count": 894,
			"max": [ 562 ],
			"min": [ 281 ],
			"type": "SCALAR"
		},
		{
			"bufferView": 0,
			"byteOffset": 3564,
			"componentType": 5123,
			"count": 744,
			"max": [ 744 ],
			"min": [ 563 ],
			"type": "SCALAR"
		},
		{
			"bufferView": 2,
			"byteOffset": 17880,
			"componentType": 5126,
			"count": 130,
			"max": [ 0.6776515, 8.417521, 0.9072065 ],
			"min": [ -0.4959663, 0, -0.766674 ],
			"type": "VEC3"
		},
		{
			"bufferView": 2,
			"byteOffset": 19440,
			"componentType": 5126,
			"count": 130,
			"max": [ 1, 1, 0.969943 ],
			"min": [ -0.9972225, -1, -1 ],
			"type": "VEC3"
		},
		{
			"bufferView": 1,
			"byteOffset": 5960,
			"componentType": 5126,
			"count": 130,
			"max": [ 0.875, 0.75 ],
			"min": [ 0.125, 0 ],
			"type": "VEC2"
		},
		{
			"bufferView": 3,
			"byteOffset": 11920,
			"componentType": 5126,
			"count": 130,
			"max": [ 1, 0.07356492, 0.9996126, 1 ],
			"min": [ -1, -0.02590516, -1, 1 ],
			"type": "VEC4"
		},
		{
			"bufferView": 0,
			"byteOffset": 5052,
			"componentType": 5123,
			"count": 240,
			"max": [ 129 ],
			"min": [ 0 ],
			"type": "SCALAR"
		}
	],
	"buffers": [
		{
			"byteLength": 47532,
			"uri": "entity275362.bin"
		}
	],
	"bufferViews": [
		{
			"buffer": 0,
			"byteLength": 5532,
			"target": 34963,
			"byteOffset": 42000
		},
		{
			"buffer": 0,
			"byteLength": 7000,
			"target": 34962,
			"byteStride": 8,
			"byteOffset": 0
		},
		{
			"buffer": 0,
			"byteLength": 21000,
			"target": 34962,
			"byteStride": 12,
			"byteOffset": 7000
		},
		{
			"buffer": 0,
			"byteLength": 14000,
			"target": 34962,
			"byteStride": 16,
			"byteOffset": 28000
		}
	],
	"images": [
		{
			"uri": "Assets/Visuals/Materials/Tree_Leaves_Albedo.jpg"
		},
		{
			"uri": "Assets/Visuals/Materials/Tree_Wood_Albedo.jpg"
		}
	],
	"materials": [
		{
			"pbrMetallicRoughness": {
				"baseColorFactor": [0, 0, 0, 1],
				"metallicFactor": 0,
				"roughnessFactor": 1
			},
			"emissiveFactor": [0, 0, 0],
			"doubleSided": false,
			"name": "Black_Outline_Mat"
		},
		{
			"pbrMetallicRoughness": {
				"baseColorTexture" : {
					"index" : 0,
					"texCoord" : 0
				},
				"baseColorFactor": [1, 1, 1, 1],
				"metallicFactor": 0,
				"roughnessFactor": 1
			},
			"emissiveFactor": [0, 0, 0],
			"doubleSided": false,
			"name": "Tree_Leaves_Mat"
		},
		{
			"pbrMetallicRoughness": {
				"baseColorTexture" : {
					"index" : 1,
					"texCoord" : 0
				},
				"baseColorFactor": [1, 1, 1, 1],
				"metallicFactor": 0,
				"roughnessFactor": 1
			},
			"emissiveFactor": [0, 0, 0],
			"doubleSided": false,
			"name": "Tree_Wood_Mat"
		},
		{
			"pbrMetallicRoughness": {
				"baseColorFactor": [1, 1, 1, 1],
				"metallicFactor": 0,
				"roughnessFactor": 0.5
			},
			"emissiveFactor": [0, 0, 0],
			"doubleSided": false,
			"name": "DefaultMaterial"
		}
	],
	"meshes": [
		{
			"name": "mesh_Tree_02_11580Tree_021",
			"primitives": [
				{
					"attributes": {
						"POSITION": 0,
						"NORMAL": 1,
						"TEXCOORD_0": 2,
						"TANGENT": 3
					},
					"indices": 4,
					"material": 0,
					"mode": 4
				},
				{
					"attributes": {
						"POSITION": 0,
						"NORMAL": 1,
						"TEXCOORD_0": 2,
						"TANGENT": 3
					},
					"indices": 5,
					"material": 1,
					"mode": 4
				},
				{
					"attributes": {
						"POSITION": 0,
						"NORMAL": 1,
						"TEXCOORD_0": 2,
						"TANGENT": 3
					},
					"indices": 6,
					"material": 2,
					"mode": 4
				}
			]
		},
		{
			"name": "mesh_Tree_02_collider_11582Tree_02_collider",
			"primitives": [
				{
					"attributes": {
						"POSITION": 7,
						"NORMAL": 8,
						"TEXCOORD_0": 9,
						"TANGENT": 10
					},
					"indices": 11,
					"material": 3,
					"mode": 4
				}
			]
		}
	],
	"nodes": [
		{
			"name": "UnityGlTF_root",
			"children": [
				1
			]
		},
		{
			"name": "node_Tree_021",
			"mesh": 0,
			"children": [
				2
			],
			"matrix": [1, 0, 0, 0, 0, 1, 0, 0, 0, 0, 1, 0, 0, 0, 0, 1]
		},
		{
			"name": "node_Tree_02_collider",
			"mesh": 1,
			"scale": [ 4.968678, 1, 4.968678]
		}
	],
	"samplers": [
		{
			"magFilter": 9729,
			"minFilter": 9985,
			"wrapS": 10497,
			"wrapT": 10497
		}
	],
	"scenes": [
		{
			"name":"defaultScene",
			"nodes": [
				0
			]
		}
	],
	"scene": 0,
	"textures": [
		{
			"sampler": 0,
			"source": 0
		},
		{
			"sampler": 0,
			"source": 1
		}
	]
}