{
	"asset": {
		"generator": "Unity 2018.3.6f1",
		"extras": {
			"exporterVersion" : "2.2.1"
		},
		"version": "2.0"
	},
	"accessors": [
		{
			"bufferView": 2,
			"byteOffset": 0,
			"componentType": 5126,
			"count": 0,
			"max": [ 0, 0, 0 ],
			"min": [ 0, 0, 0 ],
			"type": "VEC3"
		},
		{
			"bufferView": 0,
			"byteOffset": 0,
			"componentType": 5123,
			"count": 0,
			"max": [ 0 ],
			"min": [ 0 ],
			"type": "SCALAR"
		},
		{
			"bufferView": 2,
			"byteOffset": 0,
			"componentType": 5126,
			"count": 4,
			"max": [ 1.47386E-15, 0, 1.407548 ],
			"min": [ -1.47386E-15, -11.27535, -1.407548 ],
			"type": "VEC3"
		},
		{
			"bufferView": 2,
			"byteOffset": 48,
			"componentType": 5126,
			"count": 4,
			"max": [ -1, 0, 0 ],
			"min": [ -1, 0, 0 ],
			"type": "VEC3"
		},
		{
			"bufferView": 1,
			"byteOffset": 0,
			"componentType": 5126,
			"count": 4,
			"max": [ 1, 1 ],
			"min": [ 0, 0 ],
			"type": "VEC2"
		},
		{
			"bufferView": 3,
			"byteOffset": 0,
			"componentType": 5126,
			"count": 4,
			"max": [ 0, 0, 1, 1 ],
			"min": [ 0, 0, 1, 1 ],
			"type": "VEC4"
		},
		{
			"bufferView": 0,
			"byteOffset": 0,
			"componentType": 5123,
			"count": 6,
			"max": [ 3 ],
			"min": [ 0 ],
			"type": "SCALAR"
		},
		{
			"bufferView": 2,
			"byteOffset": 96,
			"componentType": 5126,
			"count": 4,
			"max": [ 1.47386E-15, 0, 1.407548 ],
			"min": [ -1.47386E-15, -11.27535, -1.407548 ],
			"type": "VEC3"
		},
		{
			"bufferView": 2,
			"byteOffset": 144,
			"componentType": 5126,
			"count": 4,
			"max": [ -1, 0, 0 ],
			"min": [ -1, 0, 0 ],
			"type": "VEC3"
		},
		{
			"bufferView": 1,
			"byteOffset": 32,
			"componentType": 5126,
			"count": 4,
			"max": [ 1, 1 ],
			"min": [ 0, 0 ],
			"type": "VEC2"
		},
		{
			"bufferView": 3,
			"byteOffset": 64,
			"componentType": 5126,
			"count": 4,
			"max": [ 0, 0, 1, 1 ],
			"min": [ 0, 0, 1, 1 ],
			"type": "VEC4"
		},
		{
			"bufferView": 0,
			"byteOffset": 12,
			"componentType": 5123,
			"count": 6,
			"max": [ 3 ],
			"min": [ 0 ],
			"type": "SCALAR"
		},
		{
			"bufferView": 2,
			"byteOffset": 192,
			"componentType": 5126,
			"count": 4,
			"max": [ 1.47386E-15, 0, 1.407548 ],
			"min": [ -1.47386E-15, -11.27535, -1.407548 ],
			"type": "VEC3"
		},
		{
			"bufferView": 2,
			"byteOffset": 240,
			"componentType": 5126,
			"count": 4,
			"max": [ -1, 0, 0 ],
			"min": [ -1, 0, 0 ],
			"type": "VEC3"
		},
		{
			"bufferView": 1,
			"byteOffset": 64,
			"componentType": 5126,
			"count": 4,
			"max": [ 1, 1 ],
			"min": [ 0, 0 ],
			"type": "VEC2"
		},
		{
			"bufferView": 3,
			"byteOffset": 128,
			"componentType": 5126,
			"count": 4,
			"max": [ 0, 0, 1, 1 ],
			"min": [ 0, 0, 1, 1 ],
			"type": "VEC4"
		},
		{
			"bufferView": 0,
			"byteOffset": 24,
			"componentType": 5123,
			"count": 6,
			"max": [ 3 ],
			"min": [ 0 ],
			"type": "SCALAR"
		},
		{
			"bufferView": 2,
			"byteOffset": 288,
			"componentType": 5126,
			"count": 4,
			"max": [ 1.47386E-15, 0, 1.407548 ],
			"min": [ -1.47386E-15, -11.27535, -1.407548 ],
			"type": "VEC3"
		},
		{
			"bufferView": 2,
			"byteOffset": 336,
			"componentType": 5126,
			"count": 4,
			"max": [ -1, 0, 0 ],
			"min": [ -1, 0, 0 ],
			"type": "VEC3"
		},
		{
			"bufferView": 1,
			"byteOffset": 96,
			"componentType": 5126,
			"count": 4,
			"max": [ 1, 1 ],
			"min": [ 0, 0 ],
			"type": "VEC2"
		},
		{
			"bufferView": 3,
			"byteOffset": 192,
			"componentType": 5126,
			"count": 4,
			"max": [ 0, 0, 1, 1 ],
			"min": [ 0, 0, 1, 1 ],
			"type": "VEC4"
		},
		{
			"bufferView": 0,
			"byteOffset": 36,
			"componentType": 5123,
			"count": 6,
			"max": [ 3 ],
			"min": [ 0 ],
			"type": "SCALAR"
		}
	],
	"buffers": [
		{
			"byteLength": 816,
			"uri": "entity61618.bin"
		}
	],
	"bufferViews": [
		{
			"buffer": 0,
			"byteLength": 48,
			"target": 34963,
			"byteOffset": 768
		},
		{
			"buffer": 0,
			"byteLength": 128,
			"target": 34962,
			"byteStride": 8,
			"byteOffset": 0
		},
		{
			"buffer": 0,
			"byteLength": 384,
			"target": 34962,
			"byteStride": 12,
			"byteOffset": 128
		},
		{
			"buffer": 0,
			"byteLength": 256,
			"target": 34962,
			"byteStride": 16,
			"byteOffset": 512
		}
	],
	"images": [
		{
			"uri": "Assets/Visuals/Materials/Light_ray_albedo.png"
		},
		{
			"uri": "Assets/Visuals/Materials/Light_ray_emissive.jpg"
		}
	],
	"materials": [
		{
			"pbrMetallicRoughness": {
				"baseColorFactor": [1, 1, 1, 0],
				"metallicFactor": 0,
				"roughnessFactor": 1
			},
			"alphaMode": "BLEND",
			"alphaCutoff": 0.5,
			"emissiveFactor": [0, 0, 0],
			"doubleSided": false,
			"name": "_totaltrans"
		},
		{
			"pbrMetallicRoughness": {
				"baseColorTexture" : {
					"index" : 0,
					"texCoord" : 0
				},
				"baseColorFactor": [1, 1, 1, 0.3529412],
				"metallicFactor": 0,
				"roughnessFactor": 1
			},
			"alphaMode": "BLEND",
			"alphaCutoff": 0.5,
			"emissiveTexture" : {
				"index" : 1,
				"texCoord" : 0
			},
			"emissiveFactor": [0.9568627, 0.6713069, 0.5360435],
			"doubleSided": false,
			"name": "Light_ray_mat"
		}
	],
	"meshes": [
		{
			"name": "mesh_Cube_13182light2rays",
			"primitives": [
				{
					"attributes": {
						"POSITION": 0
					},
					"indices": 1,
					"material": 0,
					"mode": 4
				}
			]
		},
		{
			"name": "mesh_light_ray_01_art_10768light_ray Variant",
			"primitives": [
				{
					"attributes": {
						"POSITION": 2,
						"NORMAL": 3,
						"TEXCOORD_0": 4,
						"TANGENT": 5
					},
					"indices": 6,
					"material": 1,
					"mode": 4
				}
			]
		},
		{
			"name": "mesh_light_ray_01_art_10768light_ray Variant (1)",
			"primitives": [
				{
					"attributes": {
						"POSITION": 7,
						"NORMAL": 8,
						"TEXCOORD_0": 9,
						"TANGENT": 10
					},
					"indices": 11,
					"material": 1,
					"mode": 4
				}
			]
		},
		{
			"name": "mesh_light_ray_01_art_10768light_ray Variant (2)",
			"primitives": [
				{
					"attributes": {
						"POSITION": 12,
						"NORMAL": 13,
						"TEXCOORD_0": 14,
						"TANGENT": 15
					},
					"indices": 16,
					"material": 1,
					"mode": 4
				}
			]
		},
		{
			"name": "mesh_light_ray_01_art_10768light_ray Variant (3)",
			"primitives": [
				{
					"attributes": {
						"POSITION": 17,
						"NORMAL": 18,
						"TEXCOORD_0": 19,
						"TANGENT": 20
					},
					"indices": 21,
					"material": 1,
					"mode": 4
				}
			]
		}
	],
	"nodes": [
		{
			"name": "UnityGlTF_root",
			"children": [
				1
			]
		},
		{
			"name": "node_light2rays",
			"mesh": 0,
			"children": [
				2,
				3,
				4,
				5
			],
			"matrix": [1, 0, 0, 0, 0, 1, 0, 0, 0, 0, 1, 0, 0, 0, 0, 1]
		},
		{
			"name": "node_light_ray Variant",
			"mesh": 1,
			"translation": [ 0.53, 8.34, 1.38],
			"scale": [ 1, 0.79275, 0.7549536]
		},
		{
			"name": "node_light_ray Variant (1)",
			"mesh": 2,
			"translation": [ 0.53, 8.34, 1.38],
			"scale": [ 1, 0.79275, 0.7549537],
			"rotation": [0, -0.5457081, 0, -0.8379754]
		},
		{
			"name": "node_light_ray Variant (2)",
			"mesh": 3,
			"translation": [ 0.53, 8.34, 1.38],
			"scale": [ 1, 0.79275, 0.7549536],
			"rotation": [0, -0.5784692, 0, 0.8157043]
		},
		{
			"name": "node_light_ray Variant (3)",
			"mesh": 4,
			"translation": [ 0.53, 8.34, 1.38],
			"scale": [ 1, 0.79275, 0.7549537],
			"rotation": [0, -0.999289, 0, 0.0377024]
		}
	],
	"samplers": [
		{
			"magFilter": 9729,
			"minFilter": 9985,
			"wrapS": 10497,
			"wrapT": 10497
		}
	],
	"scenes": [
		{
			"name":"defaultScene",
			"nodes": [
				0
			]
		}
	],
	"scene": 0,
	"textures": [
		{
			"sampler": 0,
			"source": 0
		},
		{
			"sampler": 0,
			"source": 1
		}
	]
}