{
	"asset": {
		"generator": "Unity 2018.3.6f1",
		"extras": {
			"exporterVersion" : "2.2.1"
		},
		"version": "2.0"
	},
	"accessors": [
		{
			"bufferView": 2,
			"byteOffset": 0,
			"componentType": 5126,
			"count": 0,
			"max": [ 0, 0, 0 ],
			"min": [ 0, 0, 0 ],
			"type": "VEC3"
		},
		{
			"bufferView": 0,
			"byteOffset": 0,
			"componentType": 5123,
			"count": 0,
			"max": [ 0 ],
			"min": [ 0 ],
			"type": "SCALAR"
		},
		{
			"bufferView": 2,
			"byteOffset": 0,
			"componentType": 5126,
			"count": 4,
			"max": [ 1.47386E-15, 0, 1.407548 ],
			"min": [ -1.47386E-15, -11.27535, -1.407548 ],
			"type": "VEC3"
		},
		{
			"bufferView": 2,
			"byteOffset": 48,
			"componentType": 5126,
			"count": 4,
			"max": [ -1, 0, 0 ],
			"min": [ -1, 0, 0 ],
			"type": "VEC3"
		},
		{
			"bufferView": 1,
			"byteOffset": 0,
			"componentType": 5126,
			"count": 4,
			"max": [ 1, 1 ],
			"min": [ 0, 0 ],
			"type": "VEC2"
		},
		{
			"bufferView": 3,
			"byteOffset": 0,
			"componentType": 5126,
			"count": 4,
			"max": [ 0, 0, 1, 1 ],
			"min": [ 0, 0, 1, 1 ],
			"type": "VEC4"
		},
		{
			"bufferView": 0,
			"byteOffset": 0,
			"componentType": 5123,
			"count": 6,
			"max": [ 3 ],
			"min": [ 0 ],
			"type": "SCALAR"
		},
		{
			"bufferView": 2,
			"byteOffset": 96,
			"componentType": 5126,
			"count": 4,
			"max": [ 1.47386E-15, 0, 1.407548 ],
			"min": [ -1.47386E-15, -11.27535, -1.407548 ],
			"type": "VEC3"
		},
		{
			"bufferView": 2,
			"byteOffset": 144,
			"componentType": 5126,
			"count": 4,
			"max": [ -1, 0, 0 ],
			"min": [ -1, 0, 0 ],
			"type": "VEC3"
		},
		{
			"bufferView": 1,
			"byteOffset": 32,
			"componentType": 5126,
			"count": 4,
			"max": [ 1, 1 ],
			"min": [ 0, 0 ],
			"type": "VEC2"
		},
		{
			"bufferView": 3,
			"byteOffset": 64,
			"componentType": 5126,
			"count": 4,
			"max": [ 0, 0, 1, 1 ],
			"min": [ 0, 0, 1, 1 ],
			"type": "VEC4"
		},
		{
			"bufferView": 0,
			"byteOffset": 12,
			"componentType": 5123,
			"count": 6,
			"max": [ 3 ],
			"min": [ 0 ],
			"type": "SCALAR"
		},
		{
			"bufferView": 2,
			"byteOffset": 192,
			"componentType": 5126,
			"count": 4,
			"max": [ 1.47386E-15, 0, 1.407548 ],
			"min": [ -1.47386E-15, -11.27535, -1.407548 ],
			"type": "VEC3"
		},
		{
			"bufferView": 2,
			"byteOffset": 240,
			"componentType": 5126,
			"count": 4,
			"max": [ -1, 0, 0 ],
			"min": [ -1, 0, 0 ],
			"type": "VEC3"
		},
		{
			"bufferView": 1,
			"byteOffset": 64,
			"componentType": 5126,
			"count": 4,
			"max": [ 1, 1 ],
			"min": [ 0, 0 ],
			"type": "VEC2"
		},
		{
			"bufferView": 3,
			"byteOffset": 128,
			"componentType": 5126,
			"count": 4,
			"max": [ 0, 0, 1, 1 ],
			"min": [ 0, 0, 1, 1 ],
			"type": "VEC4"
		},
		{
			"bufferView": 0,
			"byteOffset": 24,
			"componentType": 5123,
			"count": 6,
			"max": [ 3 ],
			"min": [ 0 ],
			"type": "SCALAR"
		},
		{
			"bufferView": 2,
			"byteOffset": 288,
			"componentType": 5126,
			"count": 4,
			"max": [ 1.47386E-15, 0, 1.407548 ],
			"min": [ -1.47386E-15, -11.27535, -1.407548 ],
			"type": "VEC3"
		},
		{
			"bufferView": 2,
			"byteOffset": 336,
			"componentType": 5126,
			"count": 4,
			"max": [ -1, 0, 0 ],
			"min": [ -1, 0, 0 ],
			"type": "VEC3"
		},
		{
			"bufferView": 1,
			"byteOffset": 96,
			"componentType": 5126,
			"count": 4,
			"max": [ 1, 1 ],
			"min": [ 0, 0 ],
			"type": "VEC2"
		},
		{
			"bufferView": 3,
			"byteOffset": 192,
			"componentType": 5126,
			"count": 4,
			"max": [ 0, 0, 1, 1 ],
			"min": [ 0, 0, 1, 1 ],
			"type": "VEC4"
		},
		{
			"bufferView": 0,
			"byteOffset": 36,
			"componentType": 5123,
			"count": 6,
			"max": [ 3 ],
			"min": [ 0 ],
			"type": "SCALAR"
		},
		{
			"bufferView": 2,
			"byteOffset": 384,
			"componentType": 5126,
			"count": 4,
			"max": [ 1.47386E-15, 0, 1.407548 ],
			"min": [ -1.47386E-15, -11.27535, -1.407548 ],
			"type": "VEC3"
		},
		{
			"bufferView": 2,
			"byteOffset": 432,
			"componentType": 5126,
			"count": 4,
			"max": [ -1, 0, 0 ],
			"min": [ -1, 0, 0 ],
			"type": "VEC3"
		},
		{
			"bufferView": 1,
			"byteOffset": 128,
			"componentType": 5126,
			"count": 4,
			"max": [ 1, 1 ],
			"min": [ 0, 0 ],
			"type": "VEC2"
		},
		{
			"bufferView": 3,
			"byteOffset": 256,
			"componentType": 5126,
			"count": 4,
			"max": [ 0, 0, 1, 1 ],
			"min": [ 0, 0, 1, 1 ],
			"type": "VEC4"
		},
		{
			"bufferView": 0,
			"byteOffset": 48,
			"componentType": 5123,
			"count": 6,
			"max": [ 3 ],
			"min": [ 0 ],
			"type": "SCALAR"
		},
		{
			"bufferView": 2,
			"byteOffset": 480,
			"componentType": 5126,
			"count": 4,
			"max": [ 1.47386E-15, 0, 1.407548 ],
			"min": [ -1.47386E-15, -11.27535, -1.407548 ],
			"type": "VEC3"
		},
		{
			"bufferView": 2,
			"byteOffset": 528,
			"componentType": 5126,
			"count": 4,
			"max": [ -1, 0, 0 ],
			"min": [ -1, 0, 0 ],
			"type": "VEC3"
		},
		{
			"bufferView": 1,
			"byteOffset": 160,
			"componentType": 5126,
			"count": 4,
			"max": [ 1, 1 ],
			"min": [ 0, 0 ],
			"type": "VEC2"
		},
		{
			"bufferView": 3,
			"byteOffset": 320,
			"componentType": 5126,
			"count": 4,
			"max": [ 0, 0, 1, 1 ],
			"min": [ 0, 0, 1, 1 ],
			"type": "VEC4"
		},
		{
			"bufferView": 0,
			"byteOffset": 60,
			"componentType": 5123,
			"count": 6,
			"max": [ 3 ],
			"min": [ 0 ],
			"type": "SCALAR"
		}
	],
	"buffers": [
		{
			"byteLength": 1224,
			"uri": "entity111344.bin"
		}
	],
	"bufferViews": [
		{
			"buffer": 0,
			"byteLength": 72,
			"target": 34963,
			"byteOffset": 1152
		},
		{
			"buffer": 0,
			"byteLength": 192,
			"target": 34962,
			"byteStride": 8,
			"byteOffset": 0
		},
		{
			"buffer": 0,
			"byteLength": 576,
			"target": 34962,
			"byteStride": 12,
			"byteOffset": 192
		},
		{
			"buffer": 0,
			"byteLength": 384,
			"target": 34962,
			"byteStride": 16,
			"byteOffset": 768
		}
	],
	"images": [
		{
			"uri": "Assets/Visuals/Materials/Light_ray_albedo.png"
		},
		{
			"uri": "Assets/Visuals/Materials/Light_ray_emissive.jpg"
		}
	],
	"materials": [
		{
			"pbrMetallicRoughness": {
				"baseColorFactor": [1, 1, 1, 0],
				"metallicFactor": 0,
				"roughnessFactor": 1
			},
			"alphaMode": "BLEND",
			"alphaCutoff": 0.5,
			"emissiveFactor": [0, 0, 0],
			"doubleSided": false,
			"name": "_totaltrans"
		},
		{
			"pbrMetallicRoughness": {
				"baseColorTexture" : {
					"index" : 0,
					"texCoord" : 0
				},
				"baseColorFactor": [1, 1, 1, 0.3529412],
				"metallicFactor": 0,
				"roughnessFactor": 1
			},
			"alphaMode": "BLEND",
			"alphaCutoff": 0.5,
			"emissiveTexture" : {
				"index" : 1,
				"texCoord" : 0
			},
			"emissiveFactor": [0.9568627, 0.6713069, 0.5360435],
			"doubleSided": false,
			"name": "Light_ray_mat"
		}
	],
	"meshes": [
		{
			"name": "mesh_Cube_13034light3rays8",
			"primitives": [
				{
					"attributes": {
						"POSITION": 0
					},
					"indices": 1,
					"material": 0,
					"mode": 4
				}
			]
		},
		{
			"name": "mesh_light_ray_01_art_10722light_rayVariant",
			"primitives": [
				{
					"attributes": {
						"POSITION": 2,
						"NORMAL": 3,
						"TEXCOORD_0": 4,
						"TANGENT": 5
					},
					"indices": 6,
					"material": 1,
					"mode": 4
				}
			]
		},
		{
			"name": "mesh_light_ray_01_art_10722light_rayVariant1",
			"primitives": [
				{
					"attributes": {
						"POSITION": 7,
						"NORMAL": 8,
						"TEXCOORD_0": 9,
						"TANGENT": 10
					},
					"indices": 11,
					"material": 1,
					"mode": 4
				}
			]
		},
		{
			"name": "mesh_light_ray_01_art_10722light_rayVariant2",
			"primitives": [
				{
					"attributes": {
						"POSITION": 12,
						"NORMAL": 13,
						"TEXCOORD_0": 14,
						"TANGENT": 15
					},
					"indices": 16,
					"material": 1,
					"mode": 4
				}
			]
		},
		{
			"name": "mesh_light_ray_01_art_10722light_rayVariant3",
			"primitives": [
				{
					"attributes": {
						"POSITION": 17,
						"NORMAL": 18,
						"TEXCOORD_0": 19,
						"TANGENT": 20
					},
					"indices": 21,
					"material": 1,
					"mode": 4
				}
			]
		},
		{
			"name": "mesh_light_ray_01_art_10722light_rayVariant4",
			"primitives": [
				{
					"attributes": {
						"POSITION": 22,
						"NORMAL": 23,
						"TEXCOORD_0": 24,
						"TANGENT": 25
					},
					"indices": 26,
					"material": 1,
					"mode": 4
				}
			]
		},
		{
			"name": "mesh_light_ray_01_art_10722light_rayVariant5",
			"primitives": [
				{
					"attributes": {
						"POSITION": 27,
						"NORMAL": 28,
						"TEXCOORD_0": 29,
						"TANGENT": 30
					},
					"indices": 31,
					"material": 1,
					"mode": 4
				}
			]
		}
	],
	"nodes": [
		{
			"name": "UnityGlTF_root",
			"children": [
				1
			]
		},
		{
			"name": "node_light3rays8",
			"mesh": 0,
			"children": [
				2,
				3,
				4,
				5,
				6,
				7
			],
			"matrix": [1, 0, 0, 0, 0, 1, 0, 0, 0, 0, 1, 0, 0, 0, 0, 1]
		},
		{
			"name": "node_light_rayVariant",
			"mesh": 1,
			"translation": [ 0.35, 11.19054, 1.3825],
			"scale": [ 1, 1, 0.7549536],
			"rotation": [0, 0, -0.09153232, -0.9958021]
		},
		{
			"name": "node_light_rayVariant1",
			"mesh": 2,
			"translation": [ 0.525, 11.16663, 1.16],
			"scale": [ 1, 1, 0.4421839],
			"rotation": [0.1024609, 0, 0, -0.994737]
		},
		{
			"name": "node_light_rayVariant2",
			"mesh": 3,
			"translation": [ 0.525, 11.19741, 1.04],
			"scale": [ 1, 1, 0.4543235],
			"rotation": [-0.08813686, 0, 0, -0.9961084]
		},
		{
			"name": "node_light_rayVariant3",
			"mesh": 4,
			"translation": [ 0.35, 11.19054, 1.3825],
			"scale": [ 1, 1, 0.7549536],
			"rotation": [0.09141102, -0.9944825, -0.004710741, -0.05124924]
		},
		{
			"name": "node_light_rayVariant4",
			"mesh": 5,
			"translation": [ 0.525, 11.16663, 1.16],
			"scale": [ 1, 1, 0.4421839],
			"rotation": [0.005273071, -0.9934188, 0.1023251, -0.05119452]
		},
		{
			"name": "node_light_rayVariant5",
			"mesh": 6,
			"translation": [ 0.525, 11.19741, 1.04],
			"scale": [ 1, 1, 0.4543235],
			"rotation": [-0.004536022, -0.9947883, -0.08802015, -0.05126503]
		}
	],
	"samplers": [
		{
			"magFilter": 9729,
			"minFilter": 9985,
			"wrapS": 10497,
			"wrapT": 10497
		}
	],
	"scenes": [
		{
			"name":"defaultScene",
			"nodes": [
				0
			]
		}
	],
	"scene": 0,
	"textures": [
		{
			"sampler": 0,
			"source": 0
		},
		{
			"sampler": 0,
			"source": 1
		}
	]
}