{
	"asset": {
		"generator": "Unity 2018.3.6f1",
		"extras": {
			"exporterVersion" : "2.2.1"
		},
		"version": "2.0"
	},
	"accessors": [
		{
			"bufferView": 2,
			"byteOffset": 0,
			"componentType": 5126,
			"count": 115,
			"max": [ 0.4006703, 0.5560532, 0.4088396 ],
			"min": [ -0.3795654, 0, -0.4088396 ],
			"type": "VEC3"
		},
		{
			"bufferView": 2,
			"byteOffset": 1380,
			"componentType": 5126,
			"count": 115,
			"max": [ 0.9639222, 0.9861752, 0.9631889 ],
			"min": [ -0.9873911, -0.994987, -0.9631888 ],
			"type": "VEC3"
		},
		{
			"bufferView": 1,
			"byteOffset": 0,
			"componentType": 5126,
			"count": 115,
			"max": [ 1.45336, 2.906025 ],
			"min": [ -0.4541348, -0.6597348 ],
			"type": "VEC2"
		},
		{
			"bufferView": 3,
			"byteOffset": 0,
			"componentType": 5126,
			"count": 115,
			"max": [ 0.9897643, 0.7532561, 1, 1 ],
			"min": [ -0.9949712, -0.9504138, -1, -1 ],
			"type": "VEC4"
		},
		{
			"bufferView": 0,
			"byteOffset": 0,
			"componentType": 5123,
			"count": 108,
			"max": [ 24 ],
			"min": [ 0 ],
			"type": "SCALAR"
		},
		{
			"bufferView": 0,
			"byteOffset": 216,
			"componentType": 5123,
			"count": 288,
			"max": [ 86 ],
			"min": [ 25 ],
			"type": "SCALAR"
		},
		{
			"bufferView": 0,
			"byteOffset": 792,
			"componentType": 5123,
			"count": 108,
			"max": [ 114 ],
			"min": [ 87 ],
			"type": "SCALAR"
		},
		{
			"bufferView": 2,
			"byteOffset": 2760,
			"componentType": 5126,
			"count": 12,
			"max": [ 0.2308845, 0.4597596, 0.3999037 ],
			"min": [ -0.461769, 0, -0.3999037 ],
			"type": "VEC3"
		},
		{
			"bufferView": 2,
			"byteOffset": 2904,
			"componentType": 5126,
			"count": 12,
			"max": [ 0.8936447, 0.4487752, 0.773919 ],
			"min": [ -0.4468224, -1, -0.773919 ],
			"type": "VEC3"
		},
		{
			"bufferView": 1,
			"byteOffset": 920,
			"componentType": 5126,
			"count": 12,
			"max": [ 0.7500001, 1 ],
			"min": [ 0.25, 0.03349362 ],
			"type": "VEC2"
		},
		{
			"bufferView": 3,
			"byteOffset": 1840,
			"componentType": 5126,
			"count": 12,
			"max": [ 0.8660254, 0, 0.5000001, 1 ],
			"min": [ -1, 0, -1, 1 ],
			"type": "VEC4"
		},
		{
			"bufferView": 0,
			"byteOffset": 1008,
			"componentType": 5123,
			"count": 12,
			"max": [ 11 ],
			"min": [ 0 ],
			"type": "SCALAR"
		}
	],
	"buffers": [
		{
			"byteLength": 7128,
			"uri": "entity168340.bin"
		}
	],
	"bufferViews": [
		{
			"buffer": 0,
			"byteLength": 1032,
			"target": 34963,
			"byteOffset": 6096
		},
		{
			"buffer": 0,
			"byteLength": 1016,
			"target": 34962,
			"byteStride": 8,
			"byteOffset": 0
		},
		{
			"buffer": 0,
			"byteLength": 3048,
			"target": 34962,
			"byteStride": 12,
			"byteOffset": 1016
		},
		{
			"buffer": 0,
			"byteLength": 2032,
			"target": 34962,
			"byteStride": 16,
			"byteOffset": 4064
		}
	],
	"images": [
		{
			"uri": "Assets/Visuals/Materials/Mushroom_01_Albedo.jpg"
		},
		{
			"uri": "Assets/Visuals/Materials/Mushroom_Clair_Albedo.jpg"
		}
	],
	"materials": [
		{
			"pbrMetallicRoughness": {
				"baseColorFactor": [0, 0, 0, 1],
				"metallicFactor": 0,
				"roughnessFactor": 1
			},
			"emissiveFactor": [0, 0, 0],
			"doubleSided": false,
			"name": "Black_Outline_Mat"
		},
		{
			"pbrMetallicRoughness": {
				"baseColorTexture" : {
					"index" : 0,
					"texCoord" : 0
				},
				"baseColorFactor": [1, 1, 1, 1],
				"metallicFactor": 0,
				"roughnessFactor": 1
			},
			"emissiveFactor": [0, 0, 0],
			"doubleSided": false,
			"name": "Mushroom_01_Mat"
		},
		{
			"pbrMetallicRoughness": {
				"baseColorTexture" : {
					"index" : 1,
					"texCoord" : 0
				},
				"baseColorFactor": [1, 1, 1, 1],
				"metallicFactor": 0,
				"roughnessFactor": 1
			},
			"emissiveFactor": [0, 0, 0],
			"doubleSided": false,
			"name": "Mushroom_Clair_Mat"
		},
		{
			"pbrMetallicRoughness": {
				"baseColorFactor": [0.05724907, 1, 0, 1],
				"metallicFactor": 0,
				"roughnessFactor": 0.5
			},
			"emissiveFactor": [0, 0, 0],
			"doubleSided": false,
			"name": "_collider_Mat"
		}
	],
	"meshes": [
		{
			"name": "mesh_Mushroom_01_4608Mushroom_015",
			"primitives": [
				{
					"attributes": {
						"POSITION": 0,
						"NORMAL": 1,
						"TEXCOORD_0": 2,
						"TANGENT": 3
					},
					"indices": 4,
					"material": 0,
					"mode": 4
				},
				{
					"attributes": {
						"POSITION": 0,
						"NORMAL": 1,
						"TEXCOORD_0": 2,
						"TANGENT": 3
					},
					"indices": 5,
					"material": 1,
					"mode": 4
				},
				{
					"attributes": {
						"POSITION": 0,
						"NORMAL": 1,
						"TEXCOORD_0": 2,
						"TANGENT": 3
					},
					"indices": 6,
					"material": 2,
					"mode": 4
				}
			]
		},
		{
			"name": "mesh_Mushroom_01_collider_4610Mushroom_01_collider",
			"primitives": [
				{
					"attributes": {
						"POSITION": 7,
						"NORMAL": 8,
						"TEXCOORD_0": 9,
						"TANGENT": 10
					},
					"indices": 11,
					"material": 3,
					"mode": 4
				}
			]
		}
	],
	"nodes": [
		{
			"name": "UnityGlTF_root",
			"children": [
				1
			]
		},
		{
			"name": "node_Mushroom_015",
			"mesh": 0,
			"children": [
				2
			],
			"matrix": [1, 0, 0, 0, 0, 1, 0, 0, 0, 0, 1, 0, 0, 0, 0, 1]
		},
		{
			"name": "node_Mushroom_01_collider",
			"mesh": 1
		}
	],
	"samplers": [
		{
			"magFilter": 9729,
			"minFilter": 9985,
			"wrapS": 10497,
			"wrapT": 10497
		}
	],
	"scenes": [
		{
			"name":"defaultScene",
			"nodes": [
				0
			]
		}
	],
	"scene": 0,
	"textures": [
		{
			"sampler": 0,
			"source": 0
		},
		{
			"sampler": 0,
			"source": 1
		}
	]
}