{
	"asset": {
		"generator": "Unity 2018.3.6f1",
		"extras": {
			"exporterVersion" : "2.2.1"
		},
		"version": "2.0"
	},
	"accessors": [
		{
			"bufferView": 2,
			"byteOffset": 0,
			"componentType": 5126,
			"count": 88,
			"max": [ 2.885351, 1.595539, 2.885349 ],
			"min": [ -2.88535, 0.06506091, -2.885351 ],
			"type": "VEC3"
		},
		{
			"bufferView": 2,
			"byteOffset": 1056,
			"componentType": 5126,
			"count": 88,
			"max": [ 0.8263596, 1, 0.8263599 ],
			"min": [ -0.8263596, 0.4471769, -0.8263601 ],
			"type": "VEC3"
		},
		{
			"bufferView": 1,
			"byteOffset": 0,
			"componentType": 5126,
			"count": 88,
			"max": [ 0.8216586, 0.9209914 ],
			"min": [ 0.1456642, 0.03883766 ],
			"type": "VEC2"
		},
		{
			"bufferView": 3,
			"byteOffset": 0,
			"componentType": 5126,
			"count": 88,
			"max": [ 1, 0.00110685, 0.9238679, 1 ],
			"min": [ -0.9240905, 0, -0.9240904, 1 ],
			"type": "VEC4"
		},
		{
			"bufferView": 0,
			"byteOffset": 0,
			"componentType": 5123,
			"count": 168,
			"max": [ 87 ],
			"min": [ 0 ],
			"type": "SCALAR"
		}
	],
	"buffers": [
		{
			"byteLength": 4560,
			"uri": "entity109014.bin"
		}
	],
	"bufferViews": [
		{
			"buffer": 0,
			"byteLength": 336,
			"target": 34963,
			"byteOffset": 4224
		},
		{
			"buffer": 0,
			"byteLength": 704,
			"target": 34962,
			"byteStride": 8,
			"byteOffset": 0
		},
		{
			"buffer": 0,
			"byteLength": 2112,
			"target": 34962,
			"byteStride": 12,
			"byteOffset": 704
		},
		{
			"buffer": 0,
			"byteLength": 1408,
			"target": 34962,
			"byteStride": 16,
			"byteOffset": 2816
		}
	],
	"materials": [
		{
			"pbrMetallicRoughness": {
				"baseColorFactor": [0.05724907, 1, 0, 1],
				"metallicFactor": 0,
				"roughnessFactor": 0.5
			},
			"emissiveFactor": [0, 0, 0],
			"doubleSided": false,
			"name": "_collider_Mat"
		}
	],
	"meshes": [
		{
			"name": "mesh_Str_Fountain_01_collider_5180Str_Fountain_01_collider",
			"primitives": [
				{
					"attributes": {
						"POSITION": 0,
						"NORMAL": 1,
						"TEXCOORD_0": 2,
						"TANGENT": 3
					},
					"indices": 4,
					"material": 0,
					"mode": 4
				}
			]
		}
	],
	"nodes": [
		{
			"name": "UnityGlTF_root",
			"children": [
				1
			]
		},
		{
			"name": "node_Str_Fountain_01_collider",
			"mesh": 0,
			"matrix": [1, 0, 0, 0, 0, 1, 0, 0, 0, 0, 1, 0, 0, 0, 0, 1]
		}
	],
	"scenes": [
		{
			"name":"defaultScene",
			"nodes": [
				0
			]
		}
	],
	"scene": 0
}