{
	"asset": {
		"generator": "Unity 2018.3.6f1",
		"extras": {
			"exporterVersion" : "2.2.1"
		},
		"version": "2.0"
	},
	"accessors": [
		{
			"bufferView": 3,
			"byteOffset": 0,
			"componentType": 5126,
			"count": 0,
			"max": [ 0, 0, 0 ],
			"min": [ 0, 0, 0 ],
			"type": "VEC3"
		},
		{
			"bufferView": 0,
			"byteOffset": 0,
			"componentType": 5123,
			"count": 0,
			"max": [ 0 ],
			"min": [ 0 ],
			"type": "SCALAR"
		},
		{
			"bufferView": 1,
			"byteOffset": 0,
			"componentType": 5126,
			"count": 60,
			"max": [ 1.966667 ],
			"min": [ 0 ],
			"type": "SCALAR"
		},
		{
			"bufferView": 5,
			"byteOffset": 0,
			"componentType": 5126,
			"count": 60,
			"max": [ 0.9459858, 5.11237, 1.659864 ],
			"min": [ 0.9459858, 5.11237, 1.659864 ],
			"type": "VEC3"
		},
		{
			"bufferView": 6,
			"byteOffset": 0,
			"componentType": 5126,
			"count": 60,
			"max": [ 0, 0, 0, -1 ],
			"min": [ 0, 0, 0, -1 ],
			"type": "VEC4"
		},
		{
			"bufferView": 5,
			"byteOffset": 720,
			"componentType": 5126,
			"count": 60,
			"max": [ 1, 1, 0.9833334 ],
			"min": [ 1, 1, 0 ],
			"type": "VEC3"
		},
		{
			"bufferView": 1,
			"byteOffset": 240,
			"componentType": 5126,
			"count": 60,
			"max": [ 1.966667 ],
			"min": [ 0 ],
			"type": "SCALAR"
		},
		{
			"bufferView": 5,
			"byteOffset": 1440,
			"componentType": 5126,
			"count": 60,
			"max": [ 0.9459858, 5.11237, -6.340136 ],
			"min": [ 0.9459858, 5.11237, -6.340136 ],
			"type": "VEC3"
		},
		{
			"bufferView": 6,
			"byteOffset": 960,
			"componentType": 5126,
			"count": 60,
			"max": [ 0, 0, 0, -1 ],
			"min": [ 0, 0, 0, -1 ],
			"type": "VEC4"
		},
		{
			"bufferView": 5,
			"byteOffset": 2160,
			"componentType": 5126,
			"count": 60,
			"max": [ 1, 1, 1 ],
			"min": [ 1, 1, 0.01666659 ],
			"type": "VEC3"
		},
		{
			"bufferView": 3,
			"byteOffset": 0,
			"componentType": 5126,
			"count": 4,
			"max": [ 2, 0, 0 ],
			"min": [ -2, 0, -8 ],
			"type": "VEC3"
		},
		{
			"bufferView": 3,
			"byteOffset": 48,
			"componentType": 5126,
			"count": 4,
			"max": [ 0, 1, 0 ],
			"min": [ 0, 1, 0 ],
			"type": "VEC3"
		},
		{
			"bufferView": 2,
			"byteOffset": 0,
			"componentType": 5126,
			"count": 4,
			"max": [ 1, 1 ],
			"min": [ 0, 0 ],
			"type": "VEC2"
		},
		{
			"bufferView": 4,
			"byteOffset": 0,
			"componentType": 5126,
			"count": 4,
			"max": [ -1, 0, 0, 1 ],
			"min": [ -1, 0, 0, 1 ],
			"type": "VEC4"
		},
		{
			"bufferView": 0,
			"byteOffset": 0,
			"componentType": 5123,
			"count": 6,
			"max": [ 3 ],
			"min": [ 0 ],
			"type": "SCALAR"
		},
		{
			"bufferView": 3,
			"byteOffset": 96,
			"componentType": 5126,
			"count": 4,
			"max": [ 2, 0, 8 ],
			"min": [ -2, 0, 0 ],
			"type": "VEC3"
		},
		{
			"bufferView": 3,
			"byteOffset": 144,
			"componentType": 5126,
			"count": 4,
			"max": [ 0, 1, 0 ],
			"min": [ 0, 1, 0 ],
			"type": "VEC3"
		},
		{
			"bufferView": 2,
			"byteOffset": 32,
			"componentType": 5126,
			"count": 4,
			"max": [ 1, 1 ],
			"min": [ 0, 0 ],
			"type": "VEC2"
		},
		{
			"bufferView": 4,
			"byteOffset": 64,
			"componentType": 5126,
			"count": 4,
			"max": [ -1, 0, 0, 1 ],
			"min": [ -1, 0, 0, 1 ],
			"type": "VEC4"
		},
		{
			"bufferView": 0,
			"byteOffset": 12,
			"componentType": 5123,
			"count": 6,
			"max": [ 3 ],
			"min": [ 0 ],
			"type": "SCALAR"
		}
	],
	"animations": [
		{
			"name": "water_2_plane",
			"channels": [
				{
					"sampler": 0,
					"target": {
						"node": 2,
						"path": "translation"
					}
				},
				{
					"sampler": 1,
					"target": {
						"node": 2,
						"path": "rotation"
					}
				},
				{
					"sampler": 2,
					"target": {
						"node": 2,
						"path": "scale"
					}
				},
				{
					"sampler": 3,
					"target": {
						"node": 3,
						"path": "translation"
					}
				},
				{
					"sampler": 4,
					"target": {
						"node": 3,
						"path": "rotation"
					}
				},
				{
					"sampler": 5,
					"target": {
						"node": 3,
						"path": "scale"
					}
				}
			],
			"samplers": [
				{
					"input": 2,
					"interpolation": "LINEAR",
					"output": 3
				},
				{
					"input": 2,
					"interpolation": "LINEAR",
					"output": 4
				},
				{
					"input": 2,
					"interpolation": "LINEAR",
					"output": 5
				},
				{
					"input": 6,
					"interpolation": "LINEAR",
					"output": 7
				},
				{
					"input": 6,
					"interpolation": "LINEAR",
					"output": 8
				},
				{
					"input": 6,
					"interpolation": "LINEAR",
					"output": 9
				}
			]
		}
	],
	"buffers": [
		{
			"byteLength": 5688,
			"uri": "entity170888.bin"
		}
	],
	"bufferViews": [
		{
			"buffer": 0,
			"byteLength": 24,
			"target": 34963,
			"byteOffset": 864
		},
		{
			"buffer": 0,
			"byteLength": 480,
			"byteOffset": 0
		},
		{
			"buffer": 0,
			"byteLength": 64,
			"target": 34962,
			"byteStride": 8,
			"byteOffset": 480
		},
		{
			"buffer": 0,
			"byteLength": 192,
			"target": 34962,
			"byteStride": 12,
			"byteOffset": 544
		},
		{
			"buffer": 0,
			"byteLength": 128,
			"target": 34962,
			"byteStride": 16,
			"byteOffset": 736
		},
		{
			"buffer": 0,
			"byteLength": 2880,
			"byteStride": 12,
			"byteOffset": 888
		},
		{
			"buffer": 0,
			"byteLength": 1920,
			"byteStride": 16,
			"byteOffset": 3768
		}
	],
	"images": [
		{
			"uri": "Assets/Visuals/Materials/Water_FX_Albedo.png"
		}
	],
	"materials": [
		{
			"pbrMetallicRoughness": {
				"baseColorFactor": [1, 1, 1, 0],
				"metallicFactor": 0,
				"roughnessFactor": 1
			},
			"alphaMode": "BLEND",
			"alphaCutoff": 0.5,
			"emissiveFactor": [0, 0, 0],
			"doubleSided": false,
			"name": "_totaltrans"
		},
		{
			"pbrMetallicRoughness": {
				"baseColorTexture" : {
					"index" : 0,
					"texCoord" : 0
				},
				"baseColorFactor": [1, 1, 1, 1],
				"metallicFactor": 0,
				"roughnessFactor": 1
			},
			"alphaMode": "BLEND",
			"alphaCutoff": 0.5,
			"emissiveFactor": [0.09215686, 0.3294118, 0.3235294],
			"doubleSided": false,
			"name": "Water_FX_Mat"
		}
	],
	"meshes": [
		{
			"name": "mesh_Cube_5742water_2_plane",
			"primitives": [
				{
					"attributes": {
						"POSITION": 0
					},
					"indices": 1,
					"material": 0,
					"mode": 4
				}
			]
		},
		{
			"name": "mesh_Water_FX_03_89906Water_FX_03",
			"primitives": [
				{
					"attributes": {
						"POSITION": 10,
						"NORMAL": 11,
						"TEXCOORD_0": 12,
						"TANGENT": 13
					},
					"indices": 14,
					"material": 1,
					"mode": 4
				}
			]
		},
		{
			"name": "mesh_Water_FX_04_89908Water_FX_04",
			"primitives": [
				{
					"attributes": {
						"POSITION": 15,
						"NORMAL": 16,
						"TEXCOORD_0": 17,
						"TANGENT": 18
					},
					"indices": 19,
					"material": 1,
					"mode": 4
				}
			]
		}
	],
	"nodes": [
		{
			"name": "UnityGlTF_root",
			"children": [
				1
			]
		},
		{
			"name": "node_water_2_plane",
			"mesh": 0,
			"children": [
				2,
				3
			],
			"matrix": [1, 0, 0, 0, 0, 1, 0, 0, 0, 0, 1, 0, 0, 0, 0, 1]
		},
		{
			"name": "node_Water_FX_03",
			"mesh": 1,
			"translation": [ 0.9459858, 5.11237, 1.659864],
			"scale": [ 1, 1, 0]
		},
		{
			"name": "node_Water_FX_04",
			"mesh": 2,
			"translation": [ 0.9459858, 5.11237, -6.340136]
		}
	],
	"samplers": [
		{
			"magFilter": 9729,
			"minFilter": 9985,
			"wrapS": 10497,
			"wrapT": 10497
		}
	],
	"scenes": [
		{
			"name":"defaultScene",
			"nodes": [
				0
			]
		}
	],
	"scene": 0,
	"textures": [
		{
			"sampler": 0,
			"source": 0
		}
	]
}