{
	"asset": {
		"generator": "Unity 2018.3.6f1",
		"extras": {
			"exporterVersion" : "2.2.1"
		},
		"version": "2.0"
	},
	"accessors": [
		{
			"bufferView": 2,
			"byteOffset": 0,
			"componentType": 5126,
			"count": 1892,
			"max": [ 0.2529322, 1.934616, 0.227386 ],
			"min": [ -0.3216497, -0.01502263, -0.2128143 ],
			"type": "VEC3"
		},
		{
			"bufferView": 2,
			"byteOffset": 22704,
			"componentType": 5126,
			"count": 1892,
			"max": [ 0.999803, 0.9999027, 0.9997286 ],
			"min": [ -0.9991756, -0.9999874, -0.99988 ],
			"type": "VEC3"
		},
		{
			"bufferView": 3,
			"byteOffset": 0,
			"componentType": 5126,
			"count": 1892,
			"max": [ 1, 1, 1, 1 ],
			"min": [ 0, 0, 0, 0 ],
			"type": "VEC4"
		},
		{
			"bufferView": 1,
			"byteOffset": 0,
			"componentType": 5126,
			"count": 1892,
			"max": [ 1, 1 ],
			"min": [ 0, 0 ],
			"type": "VEC2"
		},
		{
			"bufferView": 3,
			"byteOffset": 30272,
			"componentType": 5126,
			"count": 1892,
			"max": [ 0.9927592, 0.9999399, 1, 1 ],
			"min": [ -1, -0.9977997, -0.9999874, 1 ],
			"type": "VEC4"
		},
		{
			"bufferView": 0,
			"byteOffset": 0,
			"componentType": 5123,
			"count": 5910,
			"max": [ 1891 ],
			"min": [ 0 ],
			"type": "SCALAR"
		},
		{
			"bufferView": 2,
			"byteOffset": 45408,
			"componentType": 5126,
			"count": 24,
			"max": [ 0.3270379, 0.9615735, 0.3270379 ],
			"min": [ -0.3270379, -0.9615735, -0.3270379 ],
			"type": "VEC3"
		},
		{
			"bufferView": 2,
			"byteOffset": 45696,
			"componentType": 5126,
			"count": 24,
			"max": [ 1, 1, 1 ],
			"min": [ -1, -1, -1 ],
			"type": "VEC3"
		},
		{
			"bufferView": 1,
			"byteOffset": 15136,
			"componentType": 5126,
			"count": 24,
			"max": [ 0.875, 1 ],
			"min": [ 0.125, 0 ],
			"type": "VEC2"
		},
		{
			"bufferView": 3,
			"byteOffset": 60544,
			"componentType": 5126,
			"count": 24,
			"max": [ 0, 0, 1, 1 ],
			"min": [ -1, 0, -1, 1 ],
			"type": "VEC4"
		},
		{
			"bufferView": 0,
			"byteOffset": 11820,
			"componentType": 5123,
			"count": 36,
			"max": [ 23 ],
			"min": [ 0 ],
			"type": "SCALAR"
		}
	],
	"buffers": [
		{
			"byteLength": 134132,
			"uri": "entity30222.bin"
		}
	],
	"bufferViews": [
		{
			"buffer": 0,
			"byteLength": 11892,
			"target": 34963,
			"byteOffset": 122240
		},
		{
			"buffer": 0,
			"byteLength": 15328,
			"target": 34962,
			"byteStride": 8,
			"byteOffset": 0
		},
		{
			"buffer": 0,
			"byteLength": 45984,
			"target": 34962,
			"byteStride": 12,
			"byteOffset": 15328
		},
		{
			"buffer": 0,
			"byteLength": 60928,
			"target": 34962,
			"byteStride": 16,
			"byteOffset": 61312
		}
	],
	"images": [
		{
			"uri": "Assets/Visuals/Materials/Rock_01_Albedo.jpg"
		}
	],
	"materials": [
		{
			"pbrMetallicRoughness": {
				"baseColorTexture" : {
					"index" : 0,
					"texCoord" : 0
				},
				"baseColorFactor": [0.5, 0.5, 0.5, 1],
				"metallicFactor": 0,
				"roughnessFactor": 1
			},
			"emissiveFactor": [0, 0, 0],
			"doubleSided": false,
			"name": "Rock_dark_01_Mat"
		},
		{
			"pbrMetallicRoughness": {
				"baseColorFactor": [0.05724907, 1, 0, 1],
				"metallicFactor": 0,
				"roughnessFactor": 0.5
			},
			"emissiveFactor": [0, 0, 0],
			"doubleSided": false,
			"name": "_collider_Mat"
		}
	],
	"meshes": [
		{
			"name": "mesh_Statue_greek_01_Art_12940Statue_greek_01",
			"primitives": [
				{
					"attributes": {
						"POSITION": 0,
						"NORMAL": 1,
						"COLOR_0": 2,
						"TEXCOORD_0": 3,
						"TANGENT": 4
					},
					"indices": 5,
					"material": 0,
					"mode": 4
				}
			]
		},
		{
			"name": "mesh_Statue_greek_01_collider_12942Statue_greek_01_collider",
			"primitives": [
				{
					"attributes": {
						"POSITION": 6,
						"NORMAL": 7,
						"TEXCOORD_0": 8,
						"TANGENT": 9
					},
					"indices": 10,
					"material": 1,
					"mode": 4
				}
			]
		}
	],
	"nodes": [
		{
			"name": "UnityGlTF_root",
			"children": [
				1
			]
		},
		{
			"name": "node_Statue_greek_01",
			"mesh": 0,
			"children": [
				2
			],
			"matrix": [1, 0, 0, 0, 0, 1, 0, 0, 0, 0, 1, 0, 0, 0, 0, 1]
		},
		{
			"name": "node_Statue_greek_01_collider",
			"mesh": 1,
			"translation": [ 0, 0.9383876, 0],
			"scale": [ 0.6540757, 1.923147, 0.6540757]
		}
	],
	"samplers": [
		{
			"magFilter": 9729,
			"minFilter": 9985,
			"wrapS": 10497,
			"wrapT": 10497
		}
	],
	"scenes": [
		{
			"name":"defaultScene",
			"nodes": [
				0
			]
		}
	],
	"scene": 0,
	"textures": [
		{
			"sampler": 0,
			"source": 0
		}
	]
}