{
	"asset": {
		"generator": "Unity 2018.3.6f1",
		"extras": {
			"exporterVersion" : "2.2.1"
		},
		"version": "2.0"
	},
	"accessors": [
		{
			"bufferView": 2,
			"byteOffset": 0,
			"componentType": 5126,
			"count": 162,
			"max": [ 34.58204, 8.208755, -0.6333911 ],
			"min": [ -32.46443, 5.45006, -17.97142 ],
			"type": "VEC3"
		},
		{
			"bufferView": 2,
			"byteOffset": 1944,
			"componentType": 5126,
			"count": 162,
			"max": [ 1, 1, 1 ],
			"min": [ -1, -1, -1 ],
			"type": "VEC3"
		},
		{
			"bufferView": 1,
			"byteOffset": 0,
			"componentType": 5126,
			"count": 162,
			"max": [ 3.490982, 1 ],
			"min": [ -1.722305, -12.09589 ],
			"type": "VEC2"
		},
		{
			"bufferView": 3,
			"byteOffset": 0,
			"componentType": 5126,
			"count": 162,
			"max": [ 1, 1, 1, 1 ],
			"min": [ -1, -1, -1, -1 ],
			"type": "VEC4"
		},
		{
			"bufferView": 0,
			"byteOffset": 0,
			"componentType": 5123,
			"count": 216,
			"max": [ 125 ],
			"min": [ 0 ],
			"type": "SCALAR"
		},
		{
			"bufferView": 0,
			"byteOffset": 432,
			"componentType": 5123,
			"count": 66,
			"max": [ 161 ],
			"min": [ 126 ],
			"type": "SCALAR"
		},
		{
			"bufferView": 2,
			"byteOffset": 3888,
			"componentType": 5126,
			"count": 156,
			"max": [ 34.58204, 8.190477, -0.6333911 ],
			"min": [ -32.46443, 5.45006, -17.97142 ],
			"type": "VEC3"
		},
		{
			"bufferView": 2,
			"byteOffset": 5760,
			"componentType": 5126,
			"count": 156,
			"max": [ 1, 1, 1 ],
			"min": [ -1, -1, -1 ],
			"type": "VEC3"
		},
		{
			"bufferView": 3,
			"byteOffset": 2592,
			"componentType": 5126,
			"count": 156,
			"max": [ 1, 0, 0, 1 ],
			"min": [ 1, 0, 0, 1 ],
			"type": "VEC4"
		},
		{
			"bufferView": 0,
			"byteOffset": 564,
			"componentType": 5123,
			"count": 384,
			"max": [ 155 ],
			"min": [ 0 ],
			"type": "SCALAR"
		},
		{
			"bufferView": 2,
			"byteOffset": 7632,
			"componentType": 5126,
			"count": 304,
			"max": [ 34.63203, 9.143969, -0.6333911 ],
			"min": [ -32.51443, 6.094145, -18.02141 ],
			"type": "VEC3"
		},
		{
			"bufferView": 2,
			"byteOffset": 11280,
			"componentType": 5126,
			"count": 304,
			"max": [ 1, 1, 1 ],
			"min": [ -1, -0.3704528, -1 ],
			"type": "VEC3"
		},
		{
			"bufferView": 1,
			"byteOffset": 1296,
			"componentType": 5126,
			"count": 304,
			"max": [ -0.9239873, 2.342753 ],
			"min": [ -1.998986, -5.769016 ],
			"type": "VEC2"
		},
		{
			"bufferView": 3,
			"byteOffset": 5088,
			"componentType": 5126,
			"count": 304,
			"max": [ 1, 0.1519616, 1, 1 ],
			"min": [ -1, -1, -1, 1 ],
			"type": "VEC4"
		},
		{
			"bufferView": 0,
			"byteOffset": 1332,
			"componentType": 5123,
			"count": 456,
			"max": [ 303 ],
			"min": [ 0 ],
			"type": "SCALAR"
		},
		{
			"bufferView": 2,
			"byteOffset": 14928,
			"componentType": 5126,
			"count": 431,
			"max": [ 34.63203, 9.143969, -0.6333911 ],
			"min": [ -32.51443, 6.094145, -18.02141 ],
			"type": "VEC3"
		},
		{
			"bufferView": 2,
			"byteOffset": 20100,
			"componentType": 5126,
			"count": 431,
			"max": [ 1, 1, 1 ],
			"min": [ -1, -0.3704528, -1 ],
			"type": "VEC3"
		},
		{
			"bufferView": 3,
			"byteOffset": 9952,
			"componentType": 5126,
			"count": 431,
			"max": [ 1, 0, 0, 1 ],
			"min": [ 1, 0, 0, 1 ],
			"type": "VEC4"
		},
		{
			"bufferView": 0,
			"byteOffset": 2244,
			"componentType": 5123,
			"count": 684,
			"max": [ 430 ],
			"min": [ 0 ],
			"type": "SCALAR"
		}
	],
	"buffers": [
		{
			"byteLength": 49460,
			"uri": "entity14220.bin"
		}
	],
	"bufferViews": [
		{
			"buffer": 0,
			"byteLength": 3612,
			"target": 34963,
			"byteOffset": 45848
		},
		{
			"buffer": 0,
			"byteLength": 3728,
			"target": 34962,
			"byteStride": 8,
			"byteOffset": 0
		},
		{
			"buffer": 0,
			"byteLength": 25272,
			"target": 34962,
			"byteStride": 12,
			"byteOffset": 3728
		},
		{
			"buffer": 0,
			"byteLength": 16848,
			"target": 34962,
			"byteStride": 16,
			"byteOffset": 29000
		}
	],
	"images": [
		{
			"uri": "Assets/Visuals/Materials/Textures/Raw/Atlas_2_Albedo.jpg"
		},
		{
			"uri": "Assets/Visuals/Materials/Textures/Raw/Atlas_2_Metallic_converted_metalRoughness.jpg"
		},
		{
			"uri": "Assets/Visuals/Materials/Textures/Raw/Atlas_2_Normal.jpg"
		},
		{
			"uri": "Assets/Visuals/Materials/Textures/Raw/Atlas_2_Emissive.jpg"
		},
		{
			"uri": "Assets/Visuals/Materials/Textures/Raw/Atlas_3_Albedo.jpg"
		},
		{
			"uri": "Assets/Visuals/Materials/Textures/Raw/Atlas_3_Metallic_converted_metalRoughness.jpg"
		},
		{
			"uri": "Assets/Visuals/Materials/Textures/Raw/Atlas_3_Normal.jpg"
		},
		{
			"uri": "Assets/Visuals/Materials/Textures/Raw/Atlas_3_Emissive.jpg"
		}
	],
	"materials": [
		{
			"pbrMetallicRoughness": {
				"baseColorTexture" : {
					"index" : 0,
					"texCoord" : 0
				},
				"baseColorFactor": [1, 1, 1, 1],
				"metallicRoughnessTexture" : {
					"index" : 1,
					"texCoord" : 0
				},
				"metallicFactor": 1,
				"roughnessFactor": 1
			},
			"normalTexture" : {
				"index" : 2,
				"texCoord" : 0,
				"scale" : 1
			},
			"emissiveTexture" : {
				"index" : 3,
				"texCoord" : 0
			},
			"emissiveFactor": [0.5, 0.5, 0.5],
			"doubleSided": false,
			"name": "Atlas_2_Mat"
		},
		{
			"pbrMetallicRoughness": {
				"baseColorTexture" : {
					"index" : 4,
					"texCoord" : 0
				},
				"baseColorFactor": [1, 1, 1, 1],
				"metallicRoughnessTexture" : {
					"index" : 5,
					"texCoord" : 0
				},
				"metallicFactor": 1,
				"roughnessFactor": 1
			},
			"normalTexture" : {
				"index" : 6,
				"texCoord" : 0,
				"scale" : 1
			},
			"emissiveTexture" : {
				"index" : 7,
				"texCoord" : 0
			},
			"emissiveFactor": [0.5, 0.5, 0.5],
			"doubleSided": false,
			"name": "Atlas_3_Mat"
		},
		{
			"pbrMetallicRoughness": {
				"baseColorFactor": [0.9427509, 0, 1, 1],
				"metallicFactor": 0,
				"roughnessFactor": 0.5
			},
			"emissiveFactor": [0, 0, 0],
			"doubleSided": false,
			"name": "Collider_Mat"
		}
	],
	"meshes": [
		{
			"name": "mesh_Exhibit_Str_Bridge_1_10744Exhibit_Str_Bridge_1_Art",
			"primitives": [
				{
					"attributes": {
						"POSITION": 0,
						"NORMAL": 1,
						"TEXCOORD_0": 2,
						"TANGENT": 3
					},
					"indices": 4,
					"material": 0,
					"mode": 4
				},
				{
					"attributes": {
						"POSITION": 0,
						"NORMAL": 1,
						"TEXCOORD_0": 2,
						"TANGENT": 3
					},
					"indices": 5,
					"material": 1,
					"mode": 4
				}
			]
		},
		{
			"name": "mesh_Exhibit_Str_Bridge_1_Collider_10746Exhibit_Str_Bridge_1_Collider",
			"primitives": [
				{
					"attributes": {
						"POSITION": 6,
						"NORMAL": 7,
						"TANGENT": 8
					},
					"indices": 9,
					"material": 2,
					"mode": 4
				}
			]
		},
		{
			"name": "mesh_Exhibit_Str_Bridge_Railing_1_10748Exhibit_Str_Bridge_Railing_1",
			"primitives": [
				{
					"attributes": {
						"POSITION": 10,
						"NORMAL": 11,
						"TEXCOORD_0": 12,
						"TANGENT": 13
					},
					"indices": 14,
					"material": 1,
					"mode": 4
				}
			]
		},
		{
			"name": "mesh_Exhibit_Str_Bridge_Railing_1_Collider_10750Exhibit_Str_Bridge_Railing_1_Collider",
			"primitives": [
				{
					"attributes": {
						"POSITION": 15,
						"NORMAL": 16,
						"TANGENT": 17
					},
					"indices": 18,
					"material": 2,
					"mode": 4
				}
			]
		}
	],
	"nodes": [
		{
			"name": "UnityGlTF_root",
			"children": [
				1
			]
		},
		{
			"name": "node_Exhibit_Str_Bridge_1_Art",
			"mesh": 0,
			"children": [
				2,
				3,
				4
			],
			"matrix": [1, 0, 0, 0, 0, 1, 0, 0, 0, 0, 1, 0, 0, 0, 0, 1]
		},
		{
			"name": "node_Exhibit_Str_Bridge_1_Collider",
			"mesh": 1
		},
		{
			"name": "node_Exhibit_Str_Bridge_Railing_1",
			"mesh": 2
		},
		{
			"name": "node_Exhibit_Str_Bridge_Railing_1_Collider",
			"mesh": 3
		}
	],
	"samplers": [
		{
			"magFilter": 9729,
			"minFilter": 9985,
			"wrapS": 10497,
			"wrapT": 10497
		}
	],
	"scenes": [
		{
			"name":"defaultScene",
			"nodes": [
				0
			]
		}
	],
	"scene": 0,
	"textures": [
		{
			"sampler": 0,
			"source": 0
		},
		{
			"sampler": 0,
			"source": 1
		},
		{
			"sampler": 0,
			"source": 2
		},
		{
			"sampler": 0,
			"source": 3
		},
		{
			"sampler": 0,
			"source": 4
		},
		{
			"sampler": 0,
			"source": 5
		},
		{
			"sampler": 0,
			"source": 6
		},
		{
			"sampler": 0,
			"source": 7
		}
	]
}