{
	"asset": {
		"generator": "Unity 2018.3.6f1",
		"extras": {
			"exporterVersion" : "2.2.1"
		},
		"version": "2.0"
	},
	"accessors": [
		{
			"bufferView": 2,
			"byteOffset": 0,
			"componentType": 5126,
			"count": 1336,
			"max": [ 10.6383, 23.53575, 10.63829 ],
			"min": [ -10.63829, 16.88681, -10.63829 ],
			"type": "VEC3"
		},
		{
			"bufferView": 2,
			"byteOffset": 16032,
			"componentType": 5126,
			"count": 1336,
			"max": [ 1, 1, 1 ],
			"min": [ -1, -1, -1 ],
			"type": "VEC3"
		},
		{
			"bufferView": 1,
			"byteOffset": 0,
			"componentType": 5126,
			"count": 1336,
			"max": [ 2.660345, 1.942947 ],
			"min": [ -1.660331, -0.9429466 ],
			"type": "VEC2"
		},
		{
			"bufferView": 3,
			"byteOffset": 0,
			"componentType": 5126,
			"count": 1336,
			"max": [ 1, 1, 1, 1 ],
			"min": [ -1, -1, -1, -1 ],
			"type": "VEC4"
		},
		{
			"bufferView": 0,
			"byteOffset": 0,
			"componentType": 5123,
			"count": 2556,
			"max": [ 1335 ],
			"min": [ 0 ],
			"type": "SCALAR"
		},
		{
			"bufferView": 2,
			"byteOffset": 32064,
			"componentType": 5126,
			"count": 25,
			"max": [ 10.51745, 26.16384, 10.51745 ],
			"min": [ -10.51745, 16.88682, -10.51745 ],
			"type": "VEC3"
		},
		{
			"bufferView": 2,
			"byteOffset": 32364,
			"componentType": 5126,
			"count": 25,
			"max": [ 0.627243, 1, 0.6272429 ],
			"min": [ -0.627243, -1, -0.6272429 ],
			"type": "VEC3"
		},
		{
			"bufferView": 1,
			"byteOffset": 10688,
			"componentType": 5126,
			"count": 25,
			"max": [ 0.875, 1 ],
			"min": [ 0.125, 0 ],
			"type": "VEC2"
		},
		{
			"bufferView": 3,
			"byteOffset": 21376,
			"componentType": 5126,
			"count": 25,
			"max": [ 0, 0.2405208, 1, 1 ],
			"min": [ -1, -0.2405208, -1, 1 ],
			"type": "VEC4"
		},
		{
			"bufferView": 0,
			"byteOffset": 5112,
			"componentType": 5123,
			"count": 42,
			"max": [ 24 ],
			"min": [ 0 ],
			"type": "SCALAR"
		}
	],
	"buffers": [
		{
			"byteLength": 70524,
			"uri": "entity15632.bin"
		}
	],
	"bufferViews": [
		{
			"buffer": 0,
			"byteLength": 5196,
			"target": 34963,
			"byteOffset": 65328
		},
		{
			"buffer": 0,
			"byteLength": 10888,
			"target": 34962,
			"byteStride": 8,
			"byteOffset": 0
		},
		{
			"buffer": 0,
			"byteLength": 32664,
			"target": 34962,
			"byteStride": 12,
			"byteOffset": 10888
		},
		{
			"buffer": 0,
			"byteLength": 21776,
			"target": 34962,
			"byteStride": 16,
			"byteOffset": 43552
		}
	],
	"images": [
		{
			"uri": "Assets/Visuals/Materials/Textures/Raw/Atlas_1_Albedo.jpg"
		},
		{
			"uri": "Assets/Visuals/Materials/Textures/Raw/Atlas_1_Metallic_converted_metalRoughness.jpg"
		},
		{
			"uri": "Assets/Visuals/Materials/Textures/Raw/Atlas_1_Normal.jpg"
		},
		{
			"uri": "Assets/Visuals/Materials/Textures/Raw/Atlas_1_Emissive.jpg"
		}
	],
	"materials": [
		{
			"pbrMetallicRoughness": {
				"baseColorTexture" : {
					"index" : 0,
					"texCoord" : 0
				},
				"baseColorFactor": [1, 1, 1, 1],
				"metallicRoughnessTexture" : {
					"index" : 1,
					"texCoord" : 0
				},
				"metallicFactor": 1,
				"roughnessFactor": 1
			},
			"normalTexture" : {
				"index" : 2,
				"texCoord" : 0,
				"scale" : 1
			},
			"emissiveTexture" : {
				"index" : 3,
				"texCoord" : 0
			},
			"emissiveFactor": [0.08437618, 0.2704978, 0.1470273],
			"doubleSided": false,
			"name": "Atlas_1_Mat"
		},
		{
			"pbrMetallicRoughness": {
				"baseColorFactor": [0.9427509, 0, 1, 1],
				"metallicFactor": 0,
				"roughnessFactor": 0.5
			},
			"emissiveFactor": [0, 0, 0],
			"doubleSided": false,
			"name": "Collider_Mat"
		}
	],
	"meshes": [
		{
			"name": "mesh_Mushroom_Top_10490Exhibit_Mushroom_Top_Art (0)",
			"primitives": [
				{
					"attributes": {
						"POSITION": 0,
						"NORMAL": 1,
						"TEXCOORD_0": 2,
						"TANGENT": 3
					},
					"indices": 4,
					"material": 0,
					"mode": 4
				}
			]
		},
		{
			"name": "mesh_Mushroom_Top_Collider_10492Mushroom_Top_Collider",
			"primitives": [
				{
					"attributes": {
						"POSITION": 5,
						"NORMAL": 6,
						"TEXCOORD_0": 7,
						"TANGENT": 8
					},
					"indices": 9,
					"material": 1,
					"mode": 4
				}
			]
		}
	],
	"nodes": [
		{
			"name": "UnityGlTF_root",
			"children": [
				1
			]
		},
		{
			"name": "node_Exhibit_Mushroom_Top_Art (0)",
			"mesh": 0,
			"children": [
				2
			],
			"matrix": [1, 0, 0, 0, 0, 1, 0, 0, 0, 0, 1, 0, 0, 0, 0, 1]
		},
		{
			"name": "node_Mushroom_Top_Collider",
			"mesh": 1
		}
	],
	"samplers": [
		{
			"magFilter": 9729,
			"minFilter": 9985,
			"wrapS": 10497,
			"wrapT": 10497
		}
	],
	"scenes": [
		{
			"name":"defaultScene",
			"nodes": [
				0
			]
		}
	],
	"scene": 0,
	"textures": [
		{
			"sampler": 0,
			"source": 0
		},
		{
			"sampler": 0,
			"source": 1
		},
		{
			"sampler": 0,
			"source": 2
		},
		{
			"sampler": 0,
			"source": 3
		}
	]
}