{
	"asset": {
		"generator": "Unity 2018.3.6f1",
		"extras": {
			"exporterVersion" : "2.2.1"
		},
		"version": "2.0"
	},
	"accessors": [
		{
			"bufferView": 2,
			"byteOffset": 0,
			"componentType": 5126,
			"count": 96,
			"max": [ 32.60217, 10.73089, 4.698513 ],
			"min": [ -24.42416, 10.51261, -4.442837 ],
			"type": "VEC3"
		},
		{
			"bufferView": 2,
			"byteOffset": 1152,
			"componentType": 5126,
			"count": 96,
			"max": [ 1, 1, 1 ],
			"min": [ -1, -1, -1 ],
			"type": "VEC3"
		},
		{
			"bufferView": 1,
			"byteOffset": 0,
			"componentType": 5126,
			"count": 96,
			"max": [ 3.495658, 1.000004 ],
			"min": [ 0.5, -4.61294 ],
			"type": "VEC2"
		},
		{
			"bufferView": 3,
			"byteOffset": 0,
			"componentType": 5126,
			"count": 96,
			"max": [ 1, 1, 1, 1 ],
			"min": [ 0, -1, -1, -1 ],
			"type": "VEC4"
		},
		{
			"bufferView": 0,
			"byteOffset": 0,
			"componentType": 5123,
			"count": 36,
			"max": [ 23 ],
			"min": [ 0 ],
			"type": "SCALAR"
		},
		{
			"bufferView": 0,
			"byteOffset": 72,
			"componentType": 5123,
			"count": 108,
			"max": [ 95 ],
			"min": [ 24 ],
			"type": "SCALAR"
		},
		{
			"bufferView": 2,
			"byteOffset": 2304,
			"componentType": 5126,
			"count": 122,
			"max": [ 32.60217, 10.73089, 4.698513 ],
			"min": [ -24.42416, 10.53089, -4.442837 ],
			"type": "VEC3"
		},
		{
			"bufferView": 2,
			"byteOffset": 3768,
			"componentType": 5126,
			"count": 122,
			"max": [ 1, 1, 1 ],
			"min": [ -1, -1, -1 ],
			"type": "VEC3"
		},
		{
			"bufferView": 1,
			"byteOffset": 768,
			"componentType": 5126,
			"count": 122,
			"max": [ 0.875, 0.25 ],
			"min": [ 0.125, 0 ],
			"type": "VEC2"
		},
		{
			"bufferView": 3,
			"byteOffset": 1536,
			"componentType": 5126,
			"count": 122,
			"max": [ 1, 0, 1, 1 ],
			"min": [ 0, 0, -1, -1 ],
			"type": "VEC4"
		},
		{
			"bufferView": 0,
			"byteOffset": 288,
			"componentType": 5123,
			"count": 264,
			"max": [ 121 ],
			"min": [ 0 ],
			"type": "SCALAR"
		},
		{
			"bufferView": 2,
			"byteOffset": 5232,
			"componentType": 5126,
			"count": 248,
			"max": [ 32.65217, 11.68438, 9.057957 ],
			"min": [ -32.51443, 11.17498, -4.492832 ],
			"type": "VEC3"
		},
		{
			"bufferView": 2,
			"byteOffset": 8208,
			"componentType": 5126,
			"count": 248,
			"max": [ 1, 1, 1 ],
			"min": [ -1, -0.3704565, -1 ],
			"type": "VEC3"
		},
		{
			"bufferView": 1,
			"byteOffset": 1744,
			"componentType": 5126,
			"count": 248,
			"max": [ -0.9239855, 2.012825 ],
			"min": [ -1.999086, -11.06358 ],
			"type": "VEC2"
		},
		{
			"bufferView": 3,
			"byteOffset": 3488,
			"componentType": 5126,
			"count": 248,
			"max": [ 1, 0, 1, 1 ],
			"min": [ -1, -1, -1, 1 ],
			"type": "VEC4"
		},
		{
			"bufferView": 0,
			"byteOffset": 816,
			"componentType": 5123,
			"count": 384,
			"max": [ 247 ],
			"min": [ 0 ],
			"type": "SCALAR"
		},
		{
			"bufferView": 2,
			"byteOffset": 11184,
			"componentType": 5126,
			"count": 328,
			"max": [ 32.65217, 11.68438, 9.057957 ],
			"min": [ -32.51443, 11.17498, -4.492832 ],
			"type": "VEC3"
		},
		{
			"bufferView": 2,
			"byteOffset": 15120,
			"componentType": 5126,
			"count": 328,
			"max": [ 1, 1, 1 ],
			"min": [ -1, -0.3704565, -1 ],
			"type": "VEC3"
		},
		{
			"bufferView": 1,
			"byteOffset": 3728,
			"componentType": 5126,
			"count": 328,
			"max": [ 1, 1 ],
			"min": [ 0, -2.793968E-09 ],
			"type": "VEC2"
		},
		{
			"bufferView": 3,
			"byteOffset": 7456,
			"componentType": 5126,
			"count": 328,
			"max": [ 1, 0.9915463, 1, 1 ],
			"min": [ -1, -0.9915463, -1, -1 ],
			"type": "VEC4"
		},
		{
			"bufferView": 0,
			"byteOffset": 1584,
			"componentType": 5123,
			"count": 492,
			"max": [ 327 ],
			"min": [ 0 ],
			"type": "SCALAR"
		}
	],
	"buffers": [
		{
			"byteLength": 40680,
			"uri": "entity14824.bin"
		}
	],
	"bufferViews": [
		{
			"buffer": 0,
			"byteLength": 2568,
			"target": 34963,
			"byteOffset": 38112
		},
		{
			"buffer": 0,
			"byteLength": 6352,
			"target": 34962,
			"byteStride": 8,
			"byteOffset": 0
		},
		{
			"buffer": 0,
			"byteLength": 19056,
			"target": 34962,
			"byteStride": 12,
			"byteOffset": 6352
		},
		{
			"buffer": 0,
			"byteLength": 12704,
			"target": 34962,
			"byteStride": 16,
			"byteOffset": 25408
		}
	],
	"images": [
		{
			"uri": "Assets/Visuals/Materials/Textures/Raw/Atlas_3_Albedo.jpg"
		},
		{
			"uri": "Assets/Visuals/Materials/Textures/Raw/Atlas_3_Metallic_converted_metalRoughness.jpg"
		},
		{
			"uri": "Assets/Visuals/Materials/Textures/Raw/Atlas_3_Normal.jpg"
		},
		{
			"uri": "Assets/Visuals/Materials/Textures/Raw/Atlas_3_Emissive.jpg"
		},
		{
			"uri": "Assets/Visuals/Materials/Textures/Raw/Atlas_2_Albedo.jpg"
		},
		{
			"uri": "Assets/Visuals/Materials/Textures/Raw/Atlas_2_Metallic_converted_metalRoughness.jpg"
		},
		{
			"uri": "Assets/Visuals/Materials/Textures/Raw/Atlas_2_Normal.jpg"
		},
		{
			"uri": "Assets/Visuals/Materials/Textures/Raw/Atlas_2_Emissive.jpg"
		}
	],
	"materials": [
		{
			"pbrMetallicRoughness": {
				"baseColorTexture" : {
					"index" : 0,
					"texCoord" : 0
				},
				"baseColorFactor": [1, 1, 1, 1],
				"metallicRoughnessTexture" : {
					"index" : 1,
					"texCoord" : 0
				},
				"metallicFactor": 1,
				"roughnessFactor": 1
			},
			"normalTexture" : {
				"index" : 2,
				"texCoord" : 0,
				"scale" : 1
			},
			"emissiveTexture" : {
				"index" : 3,
				"texCoord" : 0
			},
			"emissiveFactor": [0.5, 0.5, 0.5],
			"doubleSided": false,
			"name": "Atlas_3_Mat"
		},
		{
			"pbrMetallicRoughness": {
				"baseColorTexture" : {
					"index" : 4,
					"texCoord" : 0
				},
				"baseColorFactor": [1, 1, 1, 1],
				"metallicRoughnessTexture" : {
					"index" : 5,
					"texCoord" : 0
				},
				"metallicFactor": 1,
				"roughnessFactor": 1
			},
			"normalTexture" : {
				"index" : 6,
				"texCoord" : 0,
				"scale" : 1
			},
			"emissiveTexture" : {
				"index" : 7,
				"texCoord" : 0
			},
			"emissiveFactor": [0.5, 0.5, 0.5],
			"doubleSided": false,
			"name": "Atlas_2_Mat"
		},
		{
			"pbrMetallicRoughness": {
				"baseColorFactor": [0.9427509, 0, 1, 1],
				"metallicFactor": 0,
				"roughnessFactor": 0.5
			},
			"emissiveFactor": [0, 0, 0],
			"doubleSided": false,
			"name": "Collider_Mat"
		}
	],
	"meshes": [
		{
			"name": "mesh_Exhibit_Str_Bridge_3_11794Exhibit_Str_Bridge_3_Art",
			"primitives": [
				{
					"attributes": {
						"POSITION": 0,
						"NORMAL": 1,
						"TEXCOORD_0": 2,
						"TANGENT": 3
					},
					"indices": 4,
					"material": 0,
					"mode": 4
				},
				{
					"attributes": {
						"POSITION": 0,
						"NORMAL": 1,
						"TEXCOORD_0": 2,
						"TANGENT": 3
					},
					"indices": 5,
					"material": 1,
					"mode": 4
				}
			]
		},
		{
			"name": "mesh_Exhibit_Str_Bridge_3_Collider_11796Exhibit_Str_Bridge_3_Collider",
			"primitives": [
				{
					"attributes": {
						"POSITION": 6,
						"NORMAL": 7,
						"TEXCOORD_0": 8,
						"TANGENT": 9
					},
					"indices": 10,
					"material": 2,
					"mode": 4
				}
			]
		},
		{
			"name": "mesh_Exhibit_Str_Bridge_Railing_3_11798Exhibit_Str_Bridge_Railing_3",
			"primitives": [
				{
					"attributes": {
						"POSITION": 11,
						"NORMAL": 12,
						"TEXCOORD_0": 13,
						"TANGENT": 14
					},
					"indices": 15,
					"material": 0,
					"mode": 4
				}
			]
		},
		{
			"name": "mesh_Exhibit_Str_Bridge_Railing_Collider_11800Exhibit_Str_Bridge_Railing_Collider",
			"primitives": [
				{
					"attributes": {
						"POSITION": 16,
						"NORMAL": 17,
						"TEXCOORD_0": 18,
						"TANGENT": 19
					},
					"indices": 20,
					"material": 2,
					"mode": 4
				}
			]
		}
	],
	"nodes": [
		{
			"name": "UnityGlTF_root",
			"children": [
				1
			]
		},
		{
			"name": "node_Exhibit_Str_Bridge_3_Art",
			"mesh": 0,
			"children": [
				2,
				3,
				4
			],
			"matrix": [1, 0, 0, 0, 0, 1, 0, 0, 0, 0, 1, 0, 0, 0, 0, 1]
		},
		{
			"name": "node_Exhibit_Str_Bridge_3_Collider",
			"mesh": 1
		},
		{
			"name": "node_Exhibit_Str_Bridge_Railing_3",
			"mesh": 2
		},
		{
			"name": "node_Exhibit_Str_Bridge_Railing_Collider",
			"mesh": 3
		}
	],
	"samplers": [
		{
			"magFilter": 9729,
			"minFilter": 9985,
			"wrapS": 10497,
			"wrapT": 10497
		}
	],
	"scenes": [
		{
			"name":"defaultScene",
			"nodes": [
				0
			]
		}
	],
	"scene": 0,
	"textures": [
		{
			"sampler": 0,
			"source": 0
		},
		{
			"sampler": 0,
			"source": 1
		},
		{
			"sampler": 0,
			"source": 2
		},
		{
			"sampler": 0,
			"source": 3
		},
		{
			"sampler": 0,
			"source": 4
		},
		{
			"sampler": 0,
			"source": 5
		},
		{
			"sampler": 0,
			"source": 6
		},
		{
			"sampler": 0,
			"source": 7
		}
	]
}