{
	"asset": {
		"generator": "Unity 2018.3.6f1",
		"extras": {
			"exporterVersion" : "2.2.1"
		},
		"version": "2.0"
	},
	"accessors": [
		{
			"bufferView": 2,
			"byteOffset": 0,
			"componentType": 5126,
			"count": 311,
			"max": [ 34.58204, 15.83, 22.87587 ],
			"min": [ -34.46443, 13.07131, 0.4185132 ],
			"type": "VEC3"
		},
		{
			"bufferView": 2,
			"byteOffset": 3732,
			"componentType": 5126,
			"count": 311,
			"max": [ 1, 1, 1 ],
			"min": [ -1, -1, -1 ],
			"type": "VEC3"
		},
		{
			"bufferView": 1,
			"byteOffset": 0,
			"componentType": 5126,
			"count": 311,
			"max": [ 0.9993596, 1 ],
			"min": [ 0.1020217, -16.65685 ],
			"type": "VEC2"
		},
		{
			"bufferView": 3,
			"byteOffset": 0,
			"componentType": 5126,
			"count": 311,
			"max": [ 1, 1, 1, 1 ],
			"min": [ -1, -1, -1, -1 ],
			"type": "VEC4"
		},
		{
			"bufferView": 0,
			"byteOffset": 0,
			"componentType": 5123,
			"count": 393,
			"max": [ 217 ],
			"min": [ 0 ],
			"type": "SCALAR"
		},
		{
			"bufferView": 0,
			"byteOffset": 786,
			"componentType": 5123,
			"count": 147,
			"max": [ 298 ],
			"min": [ 218 ],
			"type": "SCALAR"
		},
		{
			"bufferView": 0,
			"byteOffset": 1080,
			"componentType": 5123,
			"count": 18,
			"max": [ 310 ],
			"min": [ 299 ],
			"type": "SCALAR"
		},
		{
			"bufferView": 2,
			"byteOffset": 7464,
			"componentType": 5126,
			"count": 268,
			"max": [ 34.58204, 15.83, 22.87587 ],
			"min": [ -34.46443, 13.07131, 0.4185132 ],
			"type": "VEC3"
		},
		{
			"bufferView": 2,
			"byteOffset": 10680,
			"componentType": 5126,
			"count": 268,
			"max": [ 1, 1, 1 ],
			"min": [ -1, -1, -1 ],
			"type": "VEC3"
		},
		{
			"bufferView": 1,
			"byteOffset": 2488,
			"componentType": 5126,
			"count": 268,
			"max": [ 0.375, 0.25 ],
			"min": [ 0.375, 0 ],
			"type": "VEC2"
		},
		{
			"bufferView": 3,
			"byteOffset": 4976,
			"componentType": 5126,
			"count": 268,
			"max": [ 1, 0, 0, 1 ],
			"min": [ -1, 0, 0, -1 ],
			"type": "VEC4"
		},
		{
			"bufferView": 0,
			"byteOffset": 1116,
			"componentType": 5123,
			"count": 630,
			"max": [ 267 ],
			"min": [ 0 ],
			"type": "SCALAR"
		},
		{
			"bufferView": 2,
			"byteOffset": 13896,
			"componentType": 5126,
			"count": 688,
			"max": [ 34.57323, 1.52491, 11.25368 ],
			"min": [ -34.57323, -1.52491, -11.25368 ],
			"type": "VEC3"
		},
		{
			"bufferView": 2,
			"byteOffset": 22152,
			"componentType": 5126,
			"count": 688,
			"max": [ 1, 1, 1 ],
			"min": [ -1, -0.3857382, -1 ],
			"type": "VEC3"
		},
		{
			"bufferView": 1,
			"byteOffset": 4632,
			"componentType": 5126,
			"count": 688,
			"max": [ -0.9239272, 2.012824 ],
			"min": [ -1.999142, -15.79359 ],
			"type": "VEC2"
		},
		{
			"bufferView": 3,
			"byteOffset": 9264,
			"componentType": 5126,
			"count": 688,
			"max": [ 1, 1, 1, 1 ],
			"min": [ -1, -1, -1, -1 ],
			"type": "VEC4"
		},
		{
			"bufferView": 0,
			"byteOffset": 2376,
			"componentType": 5123,
			"count": 1032,
			"max": [ 687 ],
			"min": [ 0 ],
			"type": "SCALAR"
		},
		{
			"bufferView": 2,
			"byteOffset": 30408,
			"componentType": 5126,
			"count": 792,
			"max": [ 34.63203, 16.76521, 22.92587 ],
			"min": [ -34.51443, 13.71539, 0.4185129 ],
			"type": "VEC3"
		},
		{
			"bufferView": 2,
			"byteOffset": 39912,
			"componentType": 5126,
			"count": 792,
			"max": [ 1, 1, 1 ],
			"min": [ -1, -0.3857383, -1 ],
			"type": "VEC3"
		},
		{
			"bufferView": 1,
			"byteOffset": 10136,
			"componentType": 5126,
			"count": 792,
			"max": [ 1, 1 ],
			"min": [ 0, -2.793968E-09 ],
			"type": "VEC2"
		},
		{
			"bufferView": 3,
			"byteOffset": 20272,
			"componentType": 5126,
			"count": 792,
			"max": [ 1, 0.9915463, 1, 1 ],
			"min": [ -1, -0.9915463, -1, -1 ],
			"type": "VEC4"
		},
		{
			"bufferView": 0,
			"byteOffset": 4440,
			"componentType": 5123,
			"count": 1188,
			"max": [ 791 ],
			"min": [ 0 ],
			"type": "SCALAR"
		}
	],
	"buffers": [
		{
			"byteLength": 105648,
			"uri": "entity14116.bin"
		}
	],
	"bufferViews": [
		{
			"buffer": 0,
			"byteLength": 6816,
			"target": 34963,
			"byteOffset": 98832
		},
		{
			"buffer": 0,
			"byteLength": 16472,
			"target": 34962,
			"byteStride": 8,
			"byteOffset": 0
		},
		{
			"buffer": 0,
			"byteLength": 49416,
			"target": 34962,
			"byteStride": 12,
			"byteOffset": 16472
		},
		{
			"buffer": 0,
			"byteLength": 32944,
			"target": 34962,
			"byteStride": 16,
			"byteOffset": 65888
		}
	],
	"images": [
		{
			"uri": "Assets/Visuals/Materials/Textures/Raw/Atlas_2_Albedo.jpg"
		},
		{
			"uri": "Assets/Visuals/Materials/Textures/Raw/Atlas_2_Metallic_converted_metalRoughness.jpg"
		},
		{
			"uri": "Assets/Visuals/Materials/Textures/Raw/Atlas_2_Normal.jpg"
		},
		{
			"uri": "Assets/Visuals/Materials/Textures/Raw/Atlas_2_Emissive.jpg"
		},
		{
			"uri": "Assets/Visuals/Materials/Textures/Raw/Atlas_3_Albedo.jpg"
		},
		{
			"uri": "Assets/Visuals/Materials/Textures/Raw/Atlas_3_Metallic_converted_metalRoughness.jpg"
		},
		{
			"uri": "Assets/Visuals/Materials/Textures/Raw/Atlas_3_Normal.jpg"
		},
		{
			"uri": "Assets/Visuals/Materials/Textures/Raw/Atlas_3_Emissive.jpg"
		}
	],
	"materials": [
		{
			"pbrMetallicRoughness": {
				"baseColorTexture" : {
					"index" : 0,
					"texCoord" : 0
				},
				"baseColorFactor": [1, 1, 1, 1],
				"metallicRoughnessTexture" : {
					"index" : 1,
					"texCoord" : 0
				},
				"metallicFactor": 1,
				"roughnessFactor": 1
			},
			"normalTexture" : {
				"index" : 2,
				"texCoord" : 0,
				"scale" : 1
			},
			"emissiveTexture" : {
				"index" : 3,
				"texCoord" : 0
			},
			"emissiveFactor": [0.5, 0.5, 0.5],
			"doubleSided": false,
			"name": "Atlas_2_Mat"
		},
		{
			"pbrMetallicRoughness": {
				"baseColorTexture" : {
					"index" : 4,
					"texCoord" : 0
				},
				"baseColorFactor": [1, 1, 1, 1],
				"metallicRoughnessTexture" : {
					"index" : 5,
					"texCoord" : 0
				},
				"metallicFactor": 1,
				"roughnessFactor": 1
			},
			"normalTexture" : {
				"index" : 6,
				"texCoord" : 0,
				"scale" : 1
			},
			"emissiveTexture" : {
				"index" : 7,
				"texCoord" : 0
			},
			"emissiveFactor": [0.5, 0.5, 0.5],
			"doubleSided": false,
			"name": "Atlas_3_Mat"
		},
		{
			"pbrMetallicRoughness": {
				"baseColorFactor": [1, 1, 1, 1],
				"metallicFactor": 0,
				"roughnessFactor": 0.5
			},
			"emissiveFactor": [0, 0, 0],
			"doubleSided": false,
			"name": "Default-Material"
		},
		{
			"pbrMetallicRoughness": {
				"baseColorFactor": [0.9427509, 0, 1, 1],
				"metallicFactor": 0,
				"roughnessFactor": 0.5
			},
			"emissiveFactor": [0, 0, 0],
			"doubleSided": false,
			"name": "Collider_Mat"
		}
	],
	"meshes": [
		{
			"name": "mesh_Exhibit_Str_Bridge_2_11576Exhibit_Str_Bridge_2_Art",
			"primitives": [
				{
					"attributes": {
						"POSITION": 0,
						"NORMAL": 1,
						"TEXCOORD_0": 2,
						"TANGENT": 3
					},
					"indices": 4,
					"material": 0,
					"mode": 4
				},
				{
					"attributes": {
						"POSITION": 0,
						"NORMAL": 1,
						"TEXCOORD_0": 2,
						"TANGENT": 3
					},
					"indices": 5,
					"material": 1,
					"mode": 4
				},
				{
					"attributes": {
						"POSITION": 0,
						"NORMAL": 1,
						"TEXCOORD_0": 2,
						"TANGENT": 3
					},
					"indices": 6,
					"material": 2,
					"mode": 4
				}
			]
		},
		{
			"name": "mesh_Exhibit_Str_Bridge_2_Collider_11578Exhibit_Str_Bridge_2_Collider",
			"primitives": [
				{
					"attributes": {
						"POSITION": 7,
						"NORMAL": 8,
						"TEXCOORD_0": 9,
						"TANGENT": 10
					},
					"indices": 11,
					"material": 3,
					"mode": 4
				}
			]
		},
		{
			"name": "mesh_Exhibit_Str_Bridge_Railing_2_11580Exhibit_Str_Bridge_Railing_2",
			"primitives": [
				{
					"attributes": {
						"POSITION": 12,
						"NORMAL": 13,
						"TEXCOORD_0": 14,
						"TANGENT": 15
					},
					"indices": 16,
					"material": 1,
					"mode": 4
				}
			]
		},
		{
			"name": "mesh_Exhibit_Str_Bridge_Railing_2_Collider_11582Exhibit_Str_Bridge_Railing_2_Collider",
			"primitives": [
				{
					"attributes": {
						"POSITION": 17,
						"NORMAL": 18,
						"TEXCOORD_0": 19,
						"TANGENT": 20
					},
					"indices": 21,
					"material": 3,
					"mode": 4
				}
			]
		}
	],
	"nodes": [
		{
			"name": "UnityGlTF_root",
			"children": [
				1
			]
		},
		{
			"name": "node_Exhibit_Str_Bridge_2_Art",
			"mesh": 0,
			"children": [
				2,
				3,
				4
			],
			"matrix": [1, 0, 0, 0, 0, 1, 0, 0, 0, 0, 1, 0, 0, 0, 0, 1]
		},
		{
			"name": "node_Exhibit_Str_Bridge_2_Collider",
			"mesh": 1
		},
		{
			"name": "node_Exhibit_Str_Bridge_Railing_2",
			"mesh": 2,
			"translation": [ 0.05880371, 15.2403, 11.67219]
		},
		{
			"name": "node_Exhibit_Str_Bridge_Railing_2_Collider",
			"mesh": 3
		}
	],
	"samplers": [
		{
			"magFilter": 9729,
			"minFilter": 9985,
			"wrapS": 10497,
			"wrapT": 10497
		}
	],
	"scenes": [
		{
			"name":"defaultScene",
			"nodes": [
				0
			]
		}
	],
	"scene": 0,
	"textures": [
		{
			"sampler": 0,
			"source": 0
		},
		{
			"sampler": 0,
			"source": 1
		},
		{
			"sampler": 0,
			"source": 2
		},
		{
			"sampler": 0,
			"source": 3
		},
		{
			"sampler": 0,
			"source": 4
		},
		{
			"sampler": 0,
			"source": 5
		},
		{
			"sampler": 0,
			"source": 6
		},
		{
			"sampler": 0,
			"source": 7
		}
	]
}