{
	"asset": {
		"generator": "Unity 2018.3.6f1",
		"extras": {
			"exporterVersion" : "2.2.1"
		},
		"version": "2.0"
	},
	"accessors": [
		{
			"bufferView": 2,
			"byteOffset": 0,
			"componentType": 5126,
			"count": 28,
			"max": [ 4.882812E-06, 4.073146, 0 ],
			"min": [ -2.020129, -0.2, -0.3690112 ],
			"type": "VEC3"
		},
		{
			"bufferView": 2,
			"byteOffset": 336,
			"componentType": 5126,
			"count": 28,
			"max": [ 1, 1, 1 ],
			"min": [ -1, 0, -1 ],
			"type": "VEC3"
		},
		{
			"bufferView": 1,
			"byteOffset": 0,
			"componentType": 5126,
			"count": 28,
			"max": [ 1, 1.251138 ],
			"min": [ 0.0001939535, 0 ],
			"type": "VEC2"
		},
		{
			"bufferView": 3,
			"byteOffset": 0,
			"componentType": 5126,
			"count": 28,
			"max": [ 1, 1, 1, 1 ],
			"min": [ 0, 0, -1, 1 ],
			"type": "VEC4"
		},
		{
			"bufferView": 0,
			"byteOffset": 0,
			"componentType": 5123,
			"count": 54,
			"max": [ 27 ],
			"min": [ 0 ],
			"type": "SCALAR"
		}
	],
	"buffers": [
		{
			"byteLength": 1452,
			"uri": "entity14644.bin"
		}
	],
	"bufferViews": [
		{
			"buffer": 0,
			"byteLength": 108,
			"target": 34963,
			"byteOffset": 1344
		},
		{
			"buffer": 0,
			"byteLength": 224,
			"target": 34962,
			"byteStride": 8,
			"byteOffset": 0
		},
		{
			"buffer": 0,
			"byteLength": 672,
			"target": 34962,
			"byteStride": 12,
			"byteOffset": 224
		},
		{
			"buffer": 0,
			"byteLength": 448,
			"target": 34962,
			"byteStride": 16,
			"byteOffset": 896
		}
	],
	"images": [
		{
			"uri": "Assets/Visuals/Materials/Textures/Raw/Atlas_3_Albedo.jpg"
		},
		{
			"uri": "Assets/Visuals/Materials/Textures/Raw/Atlas_3_Metallic_converted_metalRoughness.jpg"
		},
		{
			"uri": "Assets/Visuals/Materials/Textures/Raw/Atlas_3_Normal.jpg"
		},
		{
			"uri": "Assets/Visuals/Materials/Textures/Raw/Atlas_3_Emissive.jpg"
		}
	],
	"materials": [
		{
			"pbrMetallicRoughness": {
				"baseColorTexture" : {
					"index" : 0,
					"texCoord" : 0
				},
				"baseColorFactor": [1, 1, 1, 1],
				"metallicRoughnessTexture" : {
					"index" : 1,
					"texCoord" : 0
				},
				"metallicFactor": 1,
				"roughnessFactor": 1
			},
			"normalTexture" : {
				"index" : 2,
				"texCoord" : 0,
				"scale" : 1
			},
			"emissiveTexture" : {
				"index" : 3,
				"texCoord" : 0
			},
			"emissiveFactor": [0.5, 0.5, 0.5],
			"doubleSided": false,
			"name": "Atlas_3_Mat"
		}
	],
	"meshes": [
		{
			"name": "mesh_Exhibit_Sign2_10370Artist_Sign_Hex (3)",
			"primitives": [
				{
					"attributes": {
						"POSITION": 0,
						"NORMAL": 1,
						"TEXCOORD_0": 2,
						"TANGENT": 3
					},
					"indices": 4,
					"material": 0,
					"mode": 4
				}
			]
		}
	],
	"nodes": [
		{
			"name": "UnityGlTF_root",
			"children": [
				1
			]
		},
		{
			"name": "node_Artist_Sign_Hex (3)",
			"mesh": 0,
			"matrix": [1, 0, 0, 0, 0, 1, 0, 0, 0, 0, 1, 0, 0, 0, 0, 1]
		}
	],
	"samplers": [
		{
			"magFilter": 9729,
			"minFilter": 9985,
			"wrapS": 10497,
			"wrapT": 10497
		}
	],
	"scenes": [
		{
			"name":"defaultScene",
			"nodes": [
				0
			]
		}
	],
	"scene": 0,
	"textures": [
		{
			"sampler": 0,
			"source": 0
		},
		{
			"sampler": 0,
			"source": 1
		},
		{
			"sampler": 0,
			"source": 2
		},
		{
			"sampler": 0,
			"source": 3
		}
	]
}