{
	"asset": {
		"generator": "Unity 2018.3.6f1",
		"extras": {
			"exporterVersion" : "2.2.1"
		},
		"version": "2.0"
	},
	"accessors": [
		{
			"bufferView": 2,
			"byteOffset": 0,
			"componentType": 5126,
			"count": 487,
			"max": [ 34.62231, 25.97338, 0.527959 ],
			"min": [ 28.59714, 0.3692289, -12.71421 ],
			"type": "VEC3"
		},
		{
			"bufferView": 2,
			"byteOffset": 5844,
			"componentType": 5126,
			"count": 487,
			"max": [ 1, 1, 1 ],
			"min": [ -1, -1, -1 ],
			"type": "VEC3"
		},
		{
			"bufferView": 1,
			"byteOffset": 0,
			"componentType": 5126,
			"count": 487,
			"max": [ 3.486844, 1 ],
			"min": [ 0.4999998, -2.602382 ],
			"type": "VEC2"
		},
		{
			"bufferView": 3,
			"byteOffset": 0,
			"componentType": 5126,
			"count": 487,
			"max": [ 0.09093885, 1, 1, 1 ],
			"min": [ -1, -1, -1, -1 ],
			"type": "VEC4"
		},
		{
			"bufferView": 0,
			"byteOffset": 0,
			"componentType": 5123,
			"count": 567,
			"max": [ 354 ],
			"min": [ 0 ],
			"type": "SCALAR"
		},
		{
			"bufferView": 0,
			"byteOffset": 1134,
			"componentType": 5123,
			"count": 180,
			"max": [ 486 ],
			"min": [ 355 ],
			"type": "SCALAR"
		},
		{
			"bufferView": 2,
			"byteOffset": 11688,
			"componentType": 5126,
			"count": 459,
			"max": [ 34.62231, 25.97338, 0.527959 ],
			"min": [ 28.59714, 0.3692289, -12.71421 ],
			"type": "VEC3"
		},
		{
			"bufferView": 2,
			"byteOffset": 17196,
			"componentType": 5126,
			"count": 459,
			"max": [ 1, 1, 1 ],
			"min": [ -1, -1, -1 ],
			"type": "VEC3"
		},
		{
			"bufferView": 1,
			"byteOffset": 3896,
			"componentType": 5126,
			"count": 459,
			"max": [ 6.343636, 2.221928 ],
			"min": [ 0.4999998, -2.602382 ],
			"type": "VEC2"
		},
		{
			"bufferView": 3,
			"byteOffset": 7792,
			"componentType": 5126,
			"count": 459,
			"max": [ 1, 1, 1, 1 ],
			"min": [ -1, -1, -1, -1 ],
			"type": "VEC4"
		},
		{
			"bufferView": 0,
			"byteOffset": 1494,
			"componentType": 5123,
			"count": 747,
			"max": [ 458 ],
			"min": [ 0 ],
			"type": "SCALAR"
		},
		{
			"bufferView": 2,
			"byteOffset": 22704,
			"componentType": 5126,
			"count": 924,
			"max": [ 34.63203, 26.92688, 0.4685083 ],
			"min": [ 28.53205, 1.013313, -12.76421 ],
			"type": "VEC3"
		},
		{
			"bufferView": 2,
			"byteOffset": 33792,
			"componentType": 5126,
			"count": 924,
			"max": [ 1, 1, 1 ],
			"min": [ -1, -0.3867788, -1 ],
			"type": "VEC3"
		},
		{
			"bufferView": 1,
			"byteOffset": 7568,
			"componentType": 5126,
			"count": 924,
			"max": [ -0.9239888, 6.984859 ],
			"min": [ -1.999504, 0.6237721 ],
			"type": "VEC2"
		},
		{
			"bufferView": 3,
			"byteOffset": 15136,
			"componentType": 5126,
			"count": 924,
			"max": [ 1, 1, 1, 1 ],
			"min": [ -1, -1, -1, 1 ],
			"type": "VEC4"
		},
		{
			"bufferView": 0,
			"byteOffset": 2988,
			"componentType": 5123,
			"count": 1392,
			"max": [ 923 ],
			"min": [ 0 ],
			"type": "SCALAR"
		},
		{
			"bufferView": 2,
			"byteOffset": 44880,
			"componentType": 5126,
			"count": 928,
			"max": [ 34.63203, 26.92688, 0.4685083 ],
			"min": [ 28.53205, 1.013313, -12.76421 ],
			"type": "VEC3"
		},
		{
			"bufferView": 2,
			"byteOffset": 56016,
			"componentType": 5126,
			"count": 928,
			"max": [ 1, 1, 1 ],
			"min": [ -1, -0.3867788, -1 ],
			"type": "VEC3"
		},
		{
			"bufferView": 1,
			"byteOffset": 14960,
			"componentType": 5126,
			"count": 928,
			"max": [ 1, 1 ],
			"min": [ 0, -2.793968E-09 ],
			"type": "VEC2"
		},
		{
			"bufferView": 3,
			"byteOffset": 29920,
			"componentType": 5126,
			"count": 928,
			"max": [ 1, 0.9915465, 1, 1 ],
			"min": [ -1, -0.9915465, -1, -1 ],
			"type": "VEC4"
		},
		{
			"bufferView": 0,
			"byteOffset": 5772,
			"componentType": 5123,
			"count": 1416,
			"max": [ 927 ],
			"min": [ 0 ],
			"type": "SCALAR"
		}
	],
	"buffers": [
		{
			"byteLength": 142908,
			"uri": "entity15160.bin"
		}
	],
	"bufferViews": [
		{
			"buffer": 0,
			"byteLength": 8604,
			"target": 34963,
			"byteOffset": 134304
		},
		{
			"buffer": 0,
			"byteLength": 22384,
			"target": 34962,
			"byteStride": 8,
			"byteOffset": 0
		},
		{
			"buffer": 0,
			"byteLength": 67152,
			"target": 34962,
			"byteStride": 12,
			"byteOffset": 22384
		},
		{
			"buffer": 0,
			"byteLength": 44768,
			"target": 34962,
			"byteStride": 16,
			"byteOffset": 89536
		}
	],
	"images": [
		{
			"uri": "Assets/Visuals/Materials/Textures/Raw/Atlas_2_Albedo.jpg"
		},
		{
			"uri": "Assets/Visuals/Materials/Textures/Raw/Atlas_2_Metallic_converted_metalRoughness.jpg"
		},
		{
			"uri": "Assets/Visuals/Materials/Textures/Raw/Atlas_2_Normal.jpg"
		},
		{
			"uri": "Assets/Visuals/Materials/Textures/Raw/Atlas_2_Emissive.jpg"
		},
		{
			"uri": "Assets/Visuals/Materials/Textures/Raw/Atlas_3_Albedo.jpg"
		},
		{
			"uri": "Assets/Visuals/Materials/Textures/Raw/Atlas_3_Metallic_converted_metalRoughness.jpg"
		},
		{
			"uri": "Assets/Visuals/Materials/Textures/Raw/Atlas_3_Normal.jpg"
		},
		{
			"uri": "Assets/Visuals/Materials/Textures/Raw/Atlas_3_Emissive.jpg"
		}
	],
	"materials": [
		{
			"pbrMetallicRoughness": {
				"baseColorTexture" : {
					"index" : 0,
					"texCoord" : 0
				},
				"baseColorFactor": [1, 1, 1, 1],
				"metallicRoughnessTexture" : {
					"index" : 1,
					"texCoord" : 0
				},
				"metallicFactor": 1,
				"roughnessFactor": 1
			},
			"normalTexture" : {
				"index" : 2,
				"texCoord" : 0,
				"scale" : 1
			},
			"emissiveTexture" : {
				"index" : 3,
				"texCoord" : 0
			},
			"emissiveFactor": [0.5, 0.5, 0.5],
			"doubleSided": false,
			"name": "Atlas_2_Mat"
		},
		{
			"pbrMetallicRoughness": {
				"baseColorTexture" : {
					"index" : 4,
					"texCoord" : 0
				},
				"baseColorFactor": [1, 1, 1, 1],
				"metallicRoughnessTexture" : {
					"index" : 5,
					"texCoord" : 0
				},
				"metallicFactor": 1,
				"roughnessFactor": 1
			},
			"normalTexture" : {
				"index" : 6,
				"texCoord" : 0,
				"scale" : 1
			},
			"emissiveTexture" : {
				"index" : 7,
				"texCoord" : 0
			},
			"emissiveFactor": [0.5, 0.5, 0.5],
			"doubleSided": false,
			"name": "Atlas_3_Mat"
		},
		{
			"pbrMetallicRoughness": {
				"baseColorFactor": [0.9427509, 0, 1, 1],
				"metallicFactor": 0,
				"roughnessFactor": 0.5
			},
			"emissiveFactor": [0, 0, 0],
			"doubleSided": false,
			"name": "Collider_Mat"
		}
	],
	"meshes": [
		{
			"name": "mesh_Exhibit_Str_Stairs_1_12636Exhibit_Str_Stairs_1_Art",
			"primitives": [
				{
					"attributes": {
						"POSITION": 0,
						"NORMAL": 1,
						"TEXCOORD_0": 2,
						"TANGENT": 3
					},
					"indices": 4,
					"material": 0,
					"mode": 4
				},
				{
					"attributes": {
						"POSITION": 0,
						"NORMAL": 1,
						"TEXCOORD_0": 2,
						"TANGENT": 3
					},
					"indices": 5,
					"material": 1,
					"mode": 4
				}
			]
		},
		{
			"name": "mesh_Exhibit_Str_Stairs_1_Collider_12638Exhibit_Str_Stairs_1_Collider",
			"primitives": [
				{
					"attributes": {
						"POSITION": 6,
						"NORMAL": 7,
						"TEXCOORD_0": 8,
						"TANGENT": 9
					},
					"indices": 10,
					"material": 2,
					"mode": 4
				}
			]
		},
		{
			"name": "mesh_Exhibit_Str_Stairs_1_Railing_12640Exhibit_Str_Stairs_1_Railing",
			"primitives": [
				{
					"attributes": {
						"POSITION": 11,
						"NORMAL": 12,
						"TEXCOORD_0": 13,
						"TANGENT": 14
					},
					"indices": 15,
					"material": 1,
					"mode": 4
				}
			]
		},
		{
			"name": "mesh_Exhibit_Str_Stairs_1_Railing_Collider_12642Exhibit_Str_Stairs_1_Railing_Collider",
			"primitives": [
				{
					"attributes": {
						"POSITION": 16,
						"NORMAL": 17,
						"TEXCOORD_0": 18,
						"TANGENT": 19
					},
					"indices": 20,
					"material": 2,
					"mode": 4
				}
			]
		}
	],
	"nodes": [
		{
			"name": "UnityGlTF_root",
			"children": [
				1
			]
		},
		{
			"name": "node_Exhibit_Str_Stairs_1_Art",
			"mesh": 0,
			"children": [
				2,
				3,
				4
			],
			"matrix": [1, 0, 0, 0, 0, 1, 0, 0, 0, 0, 1, 0, 0, 0, 0, 1]
		},
		{
			"name": "node_Exhibit_Str_Stairs_1_Collider",
			"mesh": 1
		},
		{
			"name": "node_Exhibit_Str_Stairs_1_Railing",
			"mesh": 2
		},
		{
			"name": "node_Exhibit_Str_Stairs_1_Railing_Collider",
			"mesh": 3
		}
	],
	"samplers": [
		{
			"magFilter": 9729,
			"minFilter": 9985,
			"wrapS": 10497,
			"wrapT": 10497
		}
	],
	"scenes": [
		{
			"name":"defaultScene",
			"nodes": [
				0
			]
		}
	],
	"scene": 0,
	"textures": [
		{
			"sampler": 0,
			"source": 0
		},
		{
			"sampler": 0,
			"source": 1
		},
		{
			"sampler": 0,
			"source": 2
		},
		{
			"sampler": 0,
			"source": 3
		},
		{
			"sampler": 0,
			"source": 4
		},
		{
			"sampler": 0,
			"source": 5
		},
		{
			"sampler": 0,
			"source": 6
		},
		{
			"sampler": 0,
			"source": 7
		}
	]
}