{
	"asset": {
		"generator": "Unity 2018.3.6f1",
		"extras": {
			"exporterVersion" : "2.2.1"
		},
		"version": "2.0"
	},
	"accessors": [
		{
			"bufferView": 3,
			"byteOffset": 0,
			"componentType": 5126,
			"count": 312,
			"max": [ 3.700536, 12.19596, 3.700536 ],
			"min": [ -3.700537, 0, -3.700536 ],
			"type": "VEC3"
		},
		{
			"bufferView": 3,
			"byteOffset": 3744,
			"componentType": 5126,
			"count": 312,
			"max": [ 1, 1, 1 ],
			"min": [ -1, -1, -1 ],
			"type": "VEC3"
		},
		{
			"bufferView": 2,
			"byteOffset": 0,
			"componentType": 5126,
			"count": 312,
			"max": [ 0.840286, 0.9969048 ],
			"min": [ 0.003054783, 0.6112391 ],
			"type": "VEC2"
		},
		{
			"bufferView": 4,
			"byteOffset": 0,
			"componentType": 5126,
			"count": 312,
			"max": [ 0.9999753, 0.96109, 0.9999955, 1 ],
			"min": [ -0.9999753, -0.9998211, -1, 1 ],
			"type": "VEC4"
		},
		{
			"bufferView": 0,
			"byteOffset": 0,
			"componentType": 5123,
			"count": 774,
			"max": [ 311 ],
			"min": [ 0 ],
			"type": "SCALAR"
		},
		{
			"bufferView": 1,
			"byteOffset": 0,
			"componentType": 5126,
			"count": 478,
			"max": [ 15.93326 ],
			"min": [ 0 ],
			"type": "SCALAR"
		},
		{
			"bufferView": 5,
			"byteOffset": 0,
			"componentType": 5126,
			"count": 478,
			"max": [ 0, 2.999596, 0 ],
			"min": [ 0, 0, 0 ],
			"type": "VEC3"
		},
		{
			"bufferView": 6,
			"byteOffset": 0,
			"componentType": 5126,
			"count": 478,
			"max": [ 0, -3.408111E-10, 0, 0.9999579 ],
			"min": [ -8.614943E-17, -0.9999942, -8.614943E-17, -1 ],
			"type": "VEC4"
		},
		{
			"bufferView": 5,
			"byteOffset": 5736,
			"componentType": 5126,
			"count": 478,
			"max": [ 0.99, 1, 0.99 ],
			"min": [ 0.99, 1, 0.99 ],
			"type": "VEC3"
		},
		{
			"bufferView": 3,
			"byteOffset": 7488,
			"componentType": 5126,
			"count": 32,
			"max": [ 3.728535, 12.19596, 3.728535 ],
			"min": [ -3.728535, 0, -3.728535 ],
			"type": "VEC3"
		},
		{
			"bufferView": 3,
			"byteOffset": 7872,
			"componentType": 5126,
			"count": 32,
			"max": [ 0.9993857, 1, 0.9993857 ],
			"min": [ -0.9993857, -1, -0.9993857 ],
			"type": "VEC3"
		},
		{
			"bufferView": 2,
			"byteOffset": 2496,
			"componentType": 5126,
			"count": 32,
			"max": [ 0.875, 1 ],
			"min": [ 0.125, 0 ],
			"type": "VEC2"
		},
		{
			"bufferView": 4,
			"byteOffset": 4992,
			"componentType": 5126,
			"count": 32,
			"max": [ 0, 0, 1, 1 ],
			"min": [ -1, 0, -1, 1 ],
			"type": "VEC4"
		},
		{
			"bufferView": 0,
			"byteOffset": 1548,
			"componentType": 5123,
			"count": 60,
			"max": [ 31 ],
			"min": [ 0 ],
			"type": "SCALAR"
		}
	],
	"animations": [
		{
			"name": "Exhibit_AirBalloon_Art (0)",
			"channels": [
				{
					"sampler": 0,
					"target": {
						"node": 1,
						"path": "translation"
					}
				},
				{
					"sampler": 1,
					"target": {
						"node": 1,
						"path": "rotation"
					}
				},
				{
					"sampler": 2,
					"target": {
						"node": 1,
						"path": "scale"
					}
				}
			],
			"samplers": [
				{
					"input": 5,
					"interpolation": "LINEAR",
					"output": 6
				},
				{
					"input": 5,
					"interpolation": "LINEAR",
					"output": 7
				},
				{
					"input": 5,
					"interpolation": "LINEAR",
					"output": 8
				}
			]
		}
	],
	"buffers": [
		{
			"byteLength": 39212,
			"uri": "entity15094.bin"
		}
	],
	"bufferViews": [
		{
			"buffer": 0,
			"byteLength": 1668,
			"target": 34963,
			"byteOffset": 18424
		},
		{
			"buffer": 0,
			"byteLength": 1912,
			"byteOffset": 0
		},
		{
			"buffer": 0,
			"byteLength": 2752,
			"target": 34962,
			"byteStride": 8,
			"byteOffset": 1912
		},
		{
			"buffer": 0,
			"byteLength": 8256,
			"target": 34962,
			"byteStride": 12,
			"byteOffset": 4664
		},
		{
			"buffer": 0,
			"byteLength": 5504,
			"target": 34962,
			"byteStride": 16,
			"byteOffset": 12920
		},
		{
			"buffer": 0,
			"byteLength": 11472,
			"byteStride": 12,
			"byteOffset": 20092
		},
		{
			"buffer": 0,
			"byteLength": 7648,
			"byteStride": 16,
			"byteOffset": 31564
		}
	],
	"images": [
		{
			"uri": "Assets/Visuals/Materials/Textures/Raw/Atlas_5_Albedo.jpg"
		},
		{
			"uri": "Assets/Visuals/Materials/Textures/Raw/Atlas_5_Metallic_converted_metalRoughness.jpg"
		},
		{
			"uri": "Assets/Visuals/Materials/Textures/Raw/Atlas_5_Normal.jpg"
		}
	],
	"materials": [
		{
			"pbrMetallicRoughness": {
				"baseColorTexture" : {
					"index" : 0,
					"texCoord" : 0
				},
				"baseColorFactor": [1, 1, 1, 1],
				"metallicRoughnessTexture" : {
					"index" : 1,
					"texCoord" : 0
				},
				"metallicFactor": 1,
				"roughnessFactor": 1
			},
			"normalTexture" : {
				"index" : 2,
				"texCoord" : 0,
				"scale" : 1
			},
			"emissiveFactor": [0, 0, 0],
			"doubleSided": false,
			"name": "Atlas_5_Mat"
		},
		{
			"pbrMetallicRoughness": {
				"baseColorFactor": [0.9427509, 0, 1, 1],
				"metallicFactor": 0,
				"roughnessFactor": 0.5
			},
			"emissiveFactor": [0, 0, 0],
			"doubleSided": false,
			"name": "Collider_Mat"
		}
	],
	"meshes": [
		{
			"name": "mesh_Exhibit_AirBalloon_12854Exhibit_AirBalloon_Art (0)",
			"primitives": [
				{
					"attributes": {
						"POSITION": 0,
						"NORMAL": 1,
						"TEXCOORD_0": 2,
						"TANGENT": 3
					},
					"indices": 4,
					"material": 0,
					"mode": 4
				}
			]
		},
		{
			"name": "mesh_Exhibit_AirBalloon_Collider_12856Exhibit_AirBalloon_Collider",
			"primitives": [
				{
					"attributes": {
						"POSITION": 9,
						"NORMAL": 10,
						"TEXCOORD_0": 11,
						"TANGENT": 12
					},
					"indices": 13,
					"material": 1,
					"mode": 4
				}
			]
		}
	],
	"nodes": [
		{
			"name": "UnityGlTF_root",
			"children": [
				1
			]
		},
		{
			"name": "node_Exhibit_AirBalloon_Art (0)",
			"mesh": 0,
			"children": [
				2
			],
			"matrix": [1, 0, 0, 0, 0, 1, 0, 0, 0, 0, 1, 0, 0, 0, 0, 1]
		},
		{
			"name": "node_Exhibit_AirBalloon_Collider",
			"mesh": 1
		}
	],
	"samplers": [
		{
			"magFilter": 9729,
			"minFilter": 9985,
			"wrapS": 10497,
			"wrapT": 10497
		}
	],
	"scenes": [
		{
			"name":"defaultScene",
			"nodes": [
				0
			]
		}
	],
	"scene": 0,
	"textures": [
		{
			"sampler": 0,
			"source": 0
		},
		{
			"sampler": 0,
			"source": 1
		},
		{
			"sampler": 0,
			"source": 2
		}
	]
}