{
	"asset": {
		"generator": "Unity 2018.3.6f1",
		"extras": {
			"exporterVersion" : "2.2.1"
		},
		"version": "2.0"
	},
	"accessors": [
		{
			"bufferView": 2,
			"byteOffset": 0,
			"componentType": 5126,
			"count": 428,
			"max": [ 16.30383, 4.256794, 7.227295 ],
			"min": [ -16.30383, -4.256794, -7.227293 ],
			"type": "VEC3"
		},
		{
			"bufferView": 2,
			"byteOffset": 5136,
			"componentType": 5126,
			"count": 428,
			"max": [ 0.9779247, 0.9996811, 0.9973618 ],
			"min": [ -0.972917, -0.999542, -0.9973618 ],
			"type": "VEC3"
		},
		{
			"bufferView": 1,
			"byteOffset": 0,
			"componentType": 5126,
			"count": 428,
			"max": [ 0.8792431, 0.3410141 ],
			"min": [ 0.01410979, 0.01248291 ],
			"type": "VEC2"
		},
		{
			"bufferView": 3,
			"byteOffset": 0,
			"componentType": 5126,
			"count": 428,
			"max": [ 0.9768877, 0.6364834, 0.9992163, 1 ],
			"min": [ -0.9983163, -0.4337821, -0.9992163, -1 ],
			"type": "VEC4"
		},
		{
			"bufferView": 0,
			"byteOffset": 0,
			"componentType": 5123,
			"count": 1956,
			"max": [ 427 ],
			"min": [ 0 ],
			"type": "SCALAR"
		},
		{
			"bufferView": 2,
			"byteOffset": 10272,
			"componentType": 5126,
			"count": 40,
			"max": [ 19.78553, 6.573042, 5.293297 ],
			"min": [ -12.60267, -1.177312, -3.293297 ],
			"type": "VEC3"
		},
		{
			"bufferView": 2,
			"byteOffset": 10752,
			"componentType": 5126,
			"count": 40,
			"max": [ 1, 0.9885693, 0.9850269 ],
			"min": [ -1, -0.9995989, -0.9850269 ],
			"type": "VEC3"
		},
		{
			"bufferView": 1,
			"byteOffset": 3424,
			"componentType": 5126,
			"count": 40,
			"max": [ 0.875, 1 ],
			"min": [ 0.125, 0 ],
			"type": "VEC2"
		},
		{
			"bufferView": 3,
			"byteOffset": 6848,
			"componentType": 5126,
			"count": 40,
			"max": [ 1, 0.02822728, 1, 1 ],
			"min": [ -0.9962747, -0.1502657, -1, 1 ],
			"type": "VEC4"
		},
		{
			"bufferView": 0,
			"byteOffset": 3912,
			"componentType": 5123,
			"count": 60,
			"max": [ 39 ],
			"min": [ 0 ],
			"type": "SCALAR"
		}
	],
	"buffers": [
		{
			"byteLength": 26496,
			"uri": "entity15306.bin"
		}
	],
	"bufferViews": [
		{
			"buffer": 0,
			"byteLength": 4032,
			"target": 34963,
			"byteOffset": 22464
		},
		{
			"buffer": 0,
			"byteLength": 3744,
			"target": 34962,
			"byteStride": 8,
			"byteOffset": 0
		},
		{
			"buffer": 0,
			"byteLength": 11232,
			"target": 34962,
			"byteStride": 12,
			"byteOffset": 3744
		},
		{
			"buffer": 0,
			"byteLength": 7488,
			"target": 34962,
			"byteStride": 16,
			"byteOffset": 14976
		}
	],
	"images": [
		{
			"uri": "Assets/Visuals/Materials/Textures/Raw/Atlas_5_Albedo.jpg"
		},
		{
			"uri": "Assets/Visuals/Materials/Textures/Raw/Atlas_5_Metallic_converted_metalRoughness.jpg"
		},
		{
			"uri": "Assets/Visuals/Materials/Textures/Raw/Atlas_5_Normal.jpg"
		}
	],
	"materials": [
		{
			"pbrMetallicRoughness": {
				"baseColorTexture" : {
					"index" : 0,
					"texCoord" : 0
				},
				"baseColorFactor": [1, 1, 1, 1],
				"metallicRoughnessTexture" : {
					"index" : 1,
					"texCoord" : 0
				},
				"metallicFactor": 1,
				"roughnessFactor": 1
			},
			"normalTexture" : {
				"index" : 2,
				"texCoord" : 0,
				"scale" : 1
			},
			"emissiveFactor": [0, 0, 0],
			"doubleSided": false,
			"name": "Atlas_5_Mat"
		},
		{
			"pbrMetallicRoughness": {
				"baseColorFactor": [0.9427509, 0, 1, 1],
				"metallicFactor": 0,
				"roughnessFactor": 0.5
			},
			"emissiveFactor": [0, 0, 0],
			"doubleSided": false,
			"name": "Collider_Mat"
		}
	],
	"meshes": [
		{
			"name": "mesh_Exhibit_Whale_13434Exhibit_Whale_Art",
			"primitives": [
				{
					"attributes": {
						"POSITION": 0,
						"NORMAL": 1,
						"TEXCOORD_0": 2,
						"TANGENT": 3
					},
					"indices": 4,
					"material": 0,
					"mode": 4
				}
			]
		},
		{
			"name": "mesh_Exhibit_Whale_Collider_13436Exhibit_Whale_Collider",
			"primitives": [
				{
					"attributes": {
						"POSITION": 5,
						"NORMAL": 6,
						"TEXCOORD_0": 7,
						"TANGENT": 8
					},
					"indices": 9,
					"material": 1,
					"mode": 4
				}
			]
		}
	],
	"nodes": [
		{
			"name": "UnityGlTF_root",
			"children": [
				1
			]
		},
		{
			"name": "node_Exhibit_Whale_Art",
			"mesh": 0,
			"children": [
				2
			],
			"matrix": [1, 0, 0, 0, 0, 1, 0, 0, 0, 0, 1, 0, 0, 0, 0, 1]
		},
		{
			"name": "node_Exhibit_Whale_Collider",
			"mesh": 1,
			"translation": [ -4.201157, -2.938323, -1]
		}
	],
	"samplers": [
		{
			"magFilter": 9729,
			"minFilter": 9985,
			"wrapS": 10497,
			"wrapT": 10497
		}
	],
	"scenes": [
		{
			"name":"defaultScene",
			"nodes": [
				0
			]
		}
	],
	"scene": 0,
	"textures": [
		{
			"sampler": 0,
			"source": 0
		},
		{
			"sampler": 0,
			"source": 1
		},
		{
			"sampler": 0,
			"source": 2
		}
	]
}