{
	"asset": {
		"generator": "Unity 2018.3.6f1",
		"extras": {
			"exporterVersion" : "2.2.1"
		},
		"version": "2.0"
	},
	"accessors": [
		{
			"bufferView": 2,
			"byteOffset": 0,
			"componentType": 5126,
			"count": 112,
			"max": [ 2.99294, 16.88681, 3.026192 ],
			"min": [ -2.99294, 0, -3.026192 ],
			"type": "VEC3"
		},
		{
			"bufferView": 2,
			"byteOffset": 1344,
			"componentType": 5126,
			"count": 112,
			"max": [ 0.9998964, 0.05751788, 0.9998916 ],
			"min": [ -0.9998964, 0.01439833, -0.9998916 ],
			"type": "VEC3"
		},
		{
			"bufferView": 1,
			"byteOffset": 0,
			"componentType": 5126,
			"count": 112,
			"max": [ 0.3274484, 0.9973924 ],
			"min": [ 0.0004101843, -0.004014186 ],
			"type": "VEC2"
		},
		{
			"bufferView": 3,
			"byteOffset": 0,
			"componentType": 5126,
			"count": 112,
			"max": [ 1, 0, 1, 1 ],
			"min": [ -1, 0, -1, 1 ],
			"type": "VEC4"
		},
		{
			"bufferView": 0,
			"byteOffset": 0,
			"componentType": 5123,
			"count": 168,
			"max": [ 111 ],
			"min": [ 0 ],
			"type": "SCALAR"
		},
		{
			"bufferView": 2,
			"byteOffset": 2688,
			"componentType": 5126,
			"count": 24,
			"max": [ 3.66824, 16.88681, 3.66824 ],
			"min": [ -3.66824, 0, -3.66824 ],
			"type": "VEC3"
		},
		{
			"bufferView": 2,
			"byteOffset": 2976,
			"componentType": 5126,
			"count": 24,
			"max": [ 0.7065346, 1, 0.7065346 ],
			"min": [ -0.7065346, -1, -0.7065346 ],
			"type": "VEC3"
		},
		{
			"bufferView": 1,
			"byteOffset": 896,
			"componentType": 5126,
			"count": 24,
			"max": [ 0.875, 1 ],
			"min": [ 0.125, 0 ],
			"type": "VEC2"
		},
		{
			"bufferView": 3,
			"byteOffset": 1792,
			"componentType": 5126,
			"count": 24,
			"max": [ 0.7071068, 0, 0.7071068, 1 ],
			"min": [ -0.7071068, 0, -0.7071068, 1 ],
			"type": "VEC4"
		},
		{
			"bufferView": 0,
			"byteOffset": 336,
			"componentType": 5123,
			"count": 36,
			"max": [ 23 ],
			"min": [ 0 ],
			"type": "SCALAR"
		}
	],
	"buffers": [
		{
			"byteLength": 6936,
			"uri": "entity15872.bin"
		}
	],
	"bufferViews": [
		{
			"buffer": 0,
			"byteLength": 408,
			"target": 34963,
			"byteOffset": 6528
		},
		{
			"buffer": 0,
			"byteLength": 1088,
			"target": 34962,
			"byteStride": 8,
			"byteOffset": 0
		},
		{
			"buffer": 0,
			"byteLength": 3264,
			"target": 34962,
			"byteStride": 12,
			"byteOffset": 1088
		},
		{
			"buffer": 0,
			"byteLength": 2176,
			"target": 34962,
			"byteStride": 16,
			"byteOffset": 4352
		}
	],
	"images": [
		{
			"uri": "Assets/Visuals/Materials/Textures/Raw/Atlas_1_Albedo.jpg"
		},
		{
			"uri": "Assets/Visuals/Materials/Textures/Raw/Atlas_1_Metallic_converted_metalRoughness.jpg"
		},
		{
			"uri": "Assets/Visuals/Materials/Textures/Raw/Atlas_1_Normal.jpg"
		},
		{
			"uri": "Assets/Visuals/Materials/Textures/Raw/Atlas_1_Emissive.jpg"
		}
	],
	"materials": [
		{
			"pbrMetallicRoughness": {
				"baseColorTexture" : {
					"index" : 0,
					"texCoord" : 0
				},
				"baseColorFactor": [1, 1, 1, 1],
				"metallicRoughnessTexture" : {
					"index" : 1,
					"texCoord" : 0
				},
				"metallicFactor": 1,
				"roughnessFactor": 1
			},
			"normalTexture" : {
				"index" : 2,
				"texCoord" : 0,
				"scale" : 1
			},
			"emissiveTexture" : {
				"index" : 3,
				"texCoord" : 0
			},
			"emissiveFactor": [0.08437618, 0.2704978, 0.1470273],
			"doubleSided": false,
			"name": "Atlas_1_Mat"
		},
		{
			"pbrMetallicRoughness": {
				"baseColorFactor": [0.9427509, 0, 1, 1],
				"metallicFactor": 0,
				"roughnessFactor": 0.5
			},
			"emissiveFactor": [0, 0, 0],
			"doubleSided": false,
			"name": "Collider_Mat"
		}
	],
	"meshes": [
		{
			"name": "mesh_Mushroom_Bark_12218Exhibit_Mushroom_Art (0)",
			"primitives": [
				{
					"attributes": {
						"POSITION": 0,
						"NORMAL": 1,
						"TEXCOORD_0": 2,
						"TANGENT": 3
					},
					"indices": 4,
					"material": 0,
					"mode": 4
				}
			]
		},
		{
			"name": "mesh_Mushroom_Bark_Collider_12220Mushroom_Bark_Collider",
			"primitives": [
				{
					"attributes": {
						"POSITION": 5,
						"NORMAL": 6,
						"TEXCOORD_0": 7,
						"TANGENT": 8
					},
					"indices": 9,
					"material": 1,
					"mode": 4
				}
			]
		}
	],
	"nodes": [
		{
			"name": "UnityGlTF_root",
			"children": [
				1
			]
		},
		{
			"name": "node_Exhibit_Mushroom_Art (0)",
			"mesh": 0,
			"children": [
				2
			],
			"matrix": [1, 0, 0, 0, 0, 1, 0, 0, 0, 0, 1, 0, 0, 0, 0, 1]
		},
		{
			"name": "node_Mushroom_Bark_Collider",
			"mesh": 1
		}
	],
	"samplers": [
		{
			"magFilter": 9729,
			"minFilter": 9985,
			"wrapS": 10497,
			"wrapT": 10497
		}
	],
	"scenes": [
		{
			"name":"defaultScene",
			"nodes": [
				0
			]
		}
	],
	"scene": 0,
	"textures": [
		{
			"sampler": 0,
			"source": 0
		},
		{
			"sampler": 0,
			"source": 1
		},
		{
			"sampler": 0,
			"source": 2
		},
		{
			"sampler": 0,
			"source": 3
		}
	]
}