{
	"asset": {
		"generator": "Unity 2018.3.6f1",
		"extras": {
			"exporterVersion" : "2.2.1"
		},
		"version": "2.0"
	},
	"accessors": [
		{
			"bufferView": 2,
			"byteOffset": 0,
			"componentType": 5126,
			"count": 832,
			"max": [ 1.317331, 2.644612, 0.1707418 ],
			"min": [ -1.317331, -0.0357719, -0.1707418 ],
			"type": "VEC3"
		},
		{
			"bufferView": 2,
			"byteOffset": 9984,
			"componentType": 5126,
			"count": 832,
			"max": [ 1, 1, 1 ],
			"min": [ -1, -1, -1 ],
			"type": "VEC3"
		},
		{
			"bufferView": 1,
			"byteOffset": 0,
			"componentType": 5126,
			"count": 832,
			"max": [ 0.9980081, 1.023637 ],
			"min": [ -0.1131, -0.3335328 ],
			"type": "VEC2"
		},
		{
			"bufferView": 3,
			"byteOffset": 0,
			"componentType": 5126,
			"count": 832,
			"max": [ 0.9966274, 0.9998721, 1, 1 ],
			"min": [ -1, -0.9999624, -1, -1 ],
			"type": "VEC4"
		},
		{
			"bufferView": 0,
			"byteOffset": 0,
			"componentType": 5123,
			"count": 600,
			"max": [ 351 ],
			"min": [ 0 ],
			"type": "SCALAR"
		},
		{
			"bufferView": 0,
			"byteOffset": 1200,
			"componentType": 5123,
			"count": 216,
			"max": [ 431 ],
			"min": [ 352 ],
			"type": "SCALAR"
		},
		{
			"bufferView": 0,
			"byteOffset": 1632,
			"componentType": 5123,
			"count": 408,
			"max": [ 687 ],
			"min": [ 432 ],
			"type": "SCALAR"
		},
		{
			"bufferView": 0,
			"byteOffset": 2448,
			"componentType": 5123,
			"count": 216,
			"max": [ 799 ],
			"min": [ 688 ],
			"type": "SCALAR"
		},
		{
			"bufferView": 0,
			"byteOffset": 2880,
			"componentType": 5123,
			"count": 48,
			"max": [ 831 ],
			"min": [ 800 ],
			"type": "SCALAR"
		},
		{
			"bufferView": 2,
			"byteOffset": 19968,
			"componentType": 5126,
			"count": 21,
			"max": [ 1.341302, 2.644612, 0.1472337 ],
			"min": [ -1.341302, -0.03577194, -0.1472337 ],
			"type": "VEC3"
		},
		{
			"bufferView": 2,
			"byteOffset": 20220,
			"componentType": 5126,
			"count": 21,
			"max": [ 0.8524883, 1, 1 ],
			"min": [ -0.8524883, -1, -1 ],
			"type": "VEC3"
		},
		{
			"bufferView": 1,
			"byteOffset": 6656,
			"componentType": 5126,
			"count": 21,
			"max": [ 0.875, 1 ],
			"min": [ 0.125, 0 ],
			"type": "VEC2"
		},
		{
			"bufferView": 3,
			"byteOffset": 13312,
			"componentType": 5126,
			"count": 21,
			"max": [ 0, 0.8524883, 1, 1 ],
			"min": [ -1, -0.8524883, -1, 1 ],
			"type": "VEC4"
		},
		{
			"bufferView": 0,
			"byteOffset": 2976,
			"componentType": 5123,
			"count": 36,
			"max": [ 20 ],
			"min": [ 0 ],
			"type": "SCALAR"
		}
	],
	"buffers": [
		{
			"byteLength": 43992,
			"uri": "entity26126n.bin"
		}
	],
	"bufferViews": [
		{
			"buffer": 0,
			"byteLength": 3048,
			"target": 34963,
			"byteOffset": 40944
		},
		{
			"buffer": 0,
			"byteLength": 6824,
			"target": 34962,
			"byteStride": 8,
			"byteOffset": 0
		},
		{
			"buffer": 0,
			"byteLength": 20472,
			"target": 34962,
			"byteStride": 12,
			"byteOffset": 6824
		},
		{
			"buffer": 0,
			"byteLength": 13648,
			"target": 34962,
			"byteStride": 16,
			"byteOffset": 27296
		}
	],
	"images": [
		{
			"uri": "Assets/Visuals/Materials/Signal_01_Albedo.jpg"
		},
		{
			"uri": "Assets/Visuals/Materials/Rock_03_Albedo.jpg"
		},
		{
			"uri": "Assets/Visuals/Materials/Wood_Clean_Albedo.jpg"
		},
		{
			"uri": "Assets/Visuals/Materials/Tree_Wood_Albedo.jpg"
		}
	],
	"materials": [
		{
			"pbrMetallicRoughness": {
				"baseColorFactor": [0, 0, 0, 1],
				"metallicFactor": 0,
				"roughnessFactor": 1
			},
			"emissiveFactor": [0, 0, 0],
			"doubleSided": false,
			"name": "Black_Outline_Mat"
		},
		{
			"pbrMetallicRoughness": {
				"baseColorTexture" : {
					"index" : 0,
					"texCoord" : 0
				},
				"baseColorFactor": [1, 1, 1, 1],
				"metallicFactor": 0,
				"roughnessFactor": 1
			},
			"emissiveFactor": [0, 0, 0],
			"doubleSided": false,
			"name": "Signal_01_Mat"
		},
		{
			"pbrMetallicRoughness": {
				"baseColorTexture" : {
					"index" : 1,
					"texCoord" : 0
				},
				"baseColorFactor": [1, 1, 1, 1],
				"metallicFactor": 0,
				"roughnessFactor": 1
			},
			"emissiveFactor": [0, 0, 0],
			"doubleSided": false,
			"name": "Rock_03_Mat"
		},
		{
			"pbrMetallicRoughness": {
				"baseColorTexture" : {
					"index" : 2,
					"texCoord" : 0
				},
				"baseColorFactor": [1, 1, 1, 1],
				"metallicFactor": 0,
				"roughnessFactor": 1
			},
			"emissiveFactor": [0, 0, 0],
			"doubleSided": false,
			"name": "Wood_Clean_Mat"
		},
		{
			"pbrMetallicRoughness": {
				"baseColorTexture" : {
					"index" : 3,
					"texCoord" : 0
				},
				"baseColorFactor": [1, 1, 1, 1],
				"metallicFactor": 0,
				"roughnessFactor": 1
			},
			"emissiveFactor": [0, 0, 0],
			"doubleSided": false,
			"name": "Tree_Wood_Mat"
		},
		{
			"pbrMetallicRoughness": {
				"baseColorFactor": [0.05724907, 1, 0, 1],
				"metallicFactor": 0,
				"roughnessFactor": 0.5
			},
			"emissiveFactor": [0, 0, 0],
			"doubleSided": false,
			"name": "_collider_Mat"
		}
	],
	"meshes": [
		{
			"name": "mesh_Signal_01_10678Signal_01",
			"primitives": [
				{
					"attributes": {
						"POSITION": 0,
						"NORMAL": 1,
						"TEXCOORD_0": 2,
						"TANGENT": 3
					},
					"indices": 4,
					"material": 0,
					"mode": 4
				},
				{
					"attributes": {
						"POSITION": 0,
						"NORMAL": 1,
						"TEXCOORD_0": 2,
						"TANGENT": 3
					},
					"indices": 5,
					"material": 1,
					"mode": 4
				},
				{
					"attributes": {
						"POSITION": 0,
						"NORMAL": 1,
						"TEXCOORD_0": 2,
						"TANGENT": 3
					},
					"indices": 6,
					"material": 2,
					"mode": 4
				},
				{
					"attributes": {
						"POSITION": 0,
						"NORMAL": 1,
						"TEXCOORD_0": 2,
						"TANGENT": 3
					},
					"indices": 7,
					"material": 3,
					"mode": 4
				},
				{
					"attributes": {
						"POSITION": 0,
						"NORMAL": 1,
						"TEXCOORD_0": 2,
						"TANGENT": 3
					},
					"indices": 8,
					"material": 4,
					"mode": 4
				}
			]
		},
		{
			"name": "mesh_Signal_01_collider_10680Signal_01_collider",
			"primitives": [
				{
					"attributes": {
						"POSITION": 9,
						"NORMAL": 10,
						"TEXCOORD_0": 11,
						"TANGENT": 12
					},
					"indices": 13,
					"material": 5,
					"mode": 4
				}
			]
		}
	],
	"nodes": [
		{
			"name": "UnityGlTF_root",
			"children": [
				1
			]
		},
		{
			"name": "node_Signal_01",
			"mesh": 0,
			"children": [
				2
			],
			"matrix": [1, 0, 0, 0, 0, 1, 0, 0, 0, 0, 1, 0, 0, 0, 0, 1]
		},
		{
			"name": "node_Signal_01_collider",
			"mesh": 1
		}
	],
	"samplers": [
		{
			"magFilter": 9729,
			"minFilter": 9985,
			"wrapS": 10497,
			"wrapT": 10497
		}
	],
	"scenes": [
		{
			"name":"defaultScene",
			"nodes": [
				0
			]
		}
	],
	"scene": 0,
	"textures": [
		{
			"sampler": 0,
			"source": 0
		},
		{
			"sampler": 0,
			"source": 1
		},
		{
			"sampler": 0,
			"source": 2
		},
		{
			"sampler": 0,
			"source": 3
		}
	]
}