{
	"asset": {
		"generator": "Unity 2018.3.6f1",
		"extras": {
			"exporterVersion" : "2.2.1"
		},
		"version": "2.0"
	},
	"accessors": [
		{
			"bufferView": 2,
			"byteOffset": 0,
			"componentType": 5126,
			"count": 553,
			"max": [ 0.5646617, 1.054141, 0.4761315 ],
			"min": [ -0.3844955, 0, -0.5048737 ],
			"type": "VEC3"
		},
		{
			"bufferView": 2,
			"byteOffset": 6636,
			"componentType": 5126,
			"count": 553,
			"max": [ 0.9887238, 1, 0.9946697 ],
			"min": [ -0.9866132, -1, -0.9948309 ],
			"type": "VEC3"
		},
		{
			"bufferView": 1,
			"byteOffset": 0,
			"componentType": 5126,
			"count": 553,
			"max": [ 1, 1.023441 ],
			"min": [ -2.270291E-05, -0.01657578 ],
			"type": "VEC2"
		},
		{
			"bufferView": 3,
			"byteOffset": 0,
			"componentType": 5126,
			"count": 553,
			"max": [ 0.996865, 0.9900919, 0.996865, 1 ],
			"min": [ -0.99704, -0.9977628, -0.9968649, 1 ],
			"type": "VEC4"
		},
		{
			"bufferView": 0,
			"byteOffset": 0,
			"componentType": 5123,
			"count": 1872,
			"max": [ 552 ],
			"min": [ 0 ],
			"type": "SCALAR"
		}
	],
	"buffers": [
		{
			"byteLength": 30288,
			"uri": "entity295026n.bin"
		}
	],
	"bufferViews": [
		{
			"buffer": 0,
			"byteLength": 3744,
			"target": 34963,
			"byteOffset": 26544
		},
		{
			"buffer": 0,
			"byteLength": 4424,
			"target": 34962,
			"byteStride": 8,
			"byteOffset": 0
		},
		{
			"buffer": 0,
			"byteLength": 13272,
			"target": 34962,
			"byteStride": 12,
			"byteOffset": 4424
		},
		{
			"buffer": 0,
			"byteLength": 8848,
			"target": 34962,
			"byteStride": 16,
			"byteOffset": 17696
		}
	],
	"images": [
		{
			"uri": "Assets/Visuals/Materials/Mushroom_01_Albedo.jpg"
		}
	],
	"materials": [
		{
			"pbrMetallicRoughness": {
				"baseColorTexture" : {
					"index" : 0,
					"texCoord" : 0
				},
				"baseColorFactor": [1, 1, 1, 1],
				"metallicFactor": 0,
				"roughnessFactor": 0.5
			},
			"emissiveFactor": [0, 0, 0],
			"doubleSided": false,
			"name": "Mushroom_01_Albedo"
		}
	],
	"meshes": [
		{
			"name": "mesh_Flower_03_b_21906Flower_03_b (1)",
			"primitives": [
				{
					"attributes": {
						"POSITION": 0,
						"NORMAL": 1,
						"TEXCOORD_0": 2,
						"TANGENT": 3
					},
					"indices": 4,
					"material": 0,
					"mode": 4
				}
			]
		}
	],
	"nodes": [
		{
			"name": "UnityGlTF_root",
			"children": [
				1
			]
		},
		{
			"name": "node_Flower_03_b (1)",
			"mesh": 0,
			"matrix": [1, 0, 0, 0, 0, 1, 0, 0, 0, 0, 1, 0, 0, 0, 0, 1]
		}
	],
	"samplers": [
		{
			"magFilter": 9729,
			"minFilter": 9985,
			"wrapS": 10497,
			"wrapT": 10497
		}
	],
	"scenes": [
		{
			"name":"defaultScene",
			"nodes": [
				0
			]
		}
	],
	"scene": 0,
	"textures": [
		{
			"sampler": 0,
			"source": 0
		}
	]
}