{
	"asset": {
		"generator": "Unity 2018.3.6f1",
		"extras": {
			"exporterVersion" : "2.2.1"
		},
		"version": "2.0"
	},
	"accessors": [
		{
			"bufferView": 2,
			"byteOffset": 0,
			"componentType": 5126,
			"count": 779,
			"max": [ 1.066127, 3.728371, 0.8185314 ],
			"min": [ -1.066011, -0.0007157898, -0.8155042 ],
			"type": "VEC3"
		},
		{
			"bufferView": 2,
			"byteOffset": 9348,
			"componentType": 5126,
			"count": 779,
			"max": [ 0.999964, 1, 0.9998972 ],
			"min": [ -0.9998535, -0.9999902, -0.9996356 ],
			"type": "VEC3"
		},
		{
			"bufferView": 1,
			"byteOffset": 0,
			"componentType": 5126,
			"count": 779,
			"max": [ 0.9181156, 0.9980081 ],
			"min": [ 0.001832566, 0.001992032 ],
			"type": "VEC2"
		},
		{
			"bufferView": 3,
			"byteOffset": 0,
			"componentType": 5126,
			"count": 779,
			"max": [ 0.9323594, 0.9998699, 0.9999974, 1 ],
			"min": [ -1, -0.9998111, -0.999997, 1 ],
			"type": "VEC4"
		},
		{
			"bufferView": 0,
			"byteOffset": 0,
			"componentType": 5123,
			"count": 816,
			"max": [ 778 ],
			"min": [ 0 ],
			"type": "SCALAR"
		},
		{
			"bufferView": 2,
			"byteOffset": 18696,
			"componentType": 5126,
			"count": 24,
			"max": [ 0.75, 3.494442, 0.75 ],
			"min": [ -0.75, 0.1258488, -0.75 ],
			"type": "VEC3"
		},
		{
			"bufferView": 2,
			"byteOffset": 18984,
			"componentType": 5126,
			"count": 24,
			"max": [ 1, 1, 1 ],
			"min": [ -1, -1, -1 ],
			"type": "VEC3"
		},
		{
			"bufferView": 1,
			"byteOffset": 6232,
			"componentType": 5126,
			"count": 24,
			"max": [ 0.875, 1 ],
			"min": [ 0.125, 0 ],
			"type": "VEC2"
		},
		{
			"bufferView": 3,
			"byteOffset": 12464,
			"componentType": 5126,
			"count": 24,
			"max": [ 0, 0, 1, 1 ],
			"min": [ -1, 0, -1, 1 ],
			"type": "VEC4"
		},
		{
			"bufferView": 0,
			"byteOffset": 1632,
			"componentType": 5123,
			"count": 36,
			"max": [ 23 ],
			"min": [ 0 ],
			"type": "SCALAR"
		}
	],
	"buffers": [
		{
			"byteLength": 40248,
			"uri": "entity233844n.bin"
		}
	],
	"bufferViews": [
		{
			"buffer": 0,
			"byteLength": 1704,
			"target": 34963,
			"byteOffset": 38544
		},
		{
			"buffer": 0,
			"byteLength": 6424,
			"target": 34962,
			"byteStride": 8,
			"byteOffset": 0
		},
		{
			"buffer": 0,
			"byteLength": 19272,
			"target": 34962,
			"byteStride": 12,
			"byteOffset": 6424
		},
		{
			"buffer": 0,
			"byteLength": 12848,
			"target": 34962,
			"byteStride": 16,
			"byteOffset": 25696
		}
	],
	"images": [
		{
			"uri": "Assets/Visuals/Materials/Rock_02_Albedo.jpg"
		}
	],
	"materials": [
		{
			"pbrMetallicRoughness": {
				"baseColorTexture" : {
					"index" : 0,
					"texCoord" : 0
				},
				"baseColorFactor": [1, 1, 1, 1],
				"metallicFactor": 0,
				"roughnessFactor": 1
			},
			"emissiveFactor": [0, 0, 0],
			"doubleSided": false,
			"name": "Rock_02_Mat"
		},
		{
			"pbrMetallicRoughness": {
				"baseColorFactor": [0.05724907, 1, 0, 1],
				"metallicFactor": 0,
				"roughnessFactor": 0.5
			},
			"emissiveFactor": [0, 0, 0],
			"doubleSided": false,
			"name": "_collider_Mat"
		}
	],
	"meshes": [
		{
			"name": "mesh_Str_Ruins_01_17616Str_Ruins_01 (1)",
			"primitives": [
				{
					"attributes": {
						"POSITION": 0,
						"NORMAL": 1,
						"TEXCOORD_0": 2,
						"TANGENT": 3
					},
					"indices": 4,
					"material": 0,
					"mode": 4
				}
			]
		},
		{
			"name": "mesh_Str_Ruins_01_collider_17618Str_Ruins_01_collider",
			"primitives": [
				{
					"attributes": {
						"POSITION": 5,
						"NORMAL": 6,
						"TEXCOORD_0": 7,
						"TANGENT": 8
					},
					"indices": 9,
					"material": 1,
					"mode": 4
				}
			]
		}
	],
	"nodes": [
		{
			"name": "UnityGlTF_root",
			"children": [
				1
			]
		},
		{
			"name": "node_Str_Ruins_01 (1)",
			"mesh": 0,
			"children": [
				2
			],
			"matrix": [1, 0, 0, 0, 0, 1, 0, 0, 0, 0, 1, 0, 0, 0, 0, 1]
		},
		{
			"name": "node_Str_Ruins_01_collider",
			"mesh": 1
		}
	],
	"samplers": [
		{
			"magFilter": 9729,
			"minFilter": 9985,
			"wrapS": 10497,
			"wrapT": 10497
		}
	],
	"scenes": [
		{
			"name":"defaultScene",
			"nodes": [
				0
			]
		}
	],
	"scene": 0,
	"textures": [
		{
			"sampler": 0,
			"source": 0
		}
	]
}