{
	"asset": {
		"generator": "Unity 2018.3.6f1",
		"extras": {
			"exporterVersion" : "2.2.1"
		},
		"version": "2.0"
	},
	"accessors": [
		{
			"bufferView": 2,
			"byteOffset": 0,
			"componentType": 5126,
			"count": 54,
			"max": [ 3, 4.090991, 1.125 ],
			"min": [ -3, -0.9982684, -0.125 ],
			"type": "VEC3"
		},
		{
			"bufferView": 2,
			"byteOffset": 648,
			"componentType": 5126,
			"count": 54,
			"max": [ 1, 0.7071068, 1 ],
			"min": [ -1, -0.7124885, -1 ],
			"type": "VEC3"
		},
		{
			"bufferView": 1,
			"byteOffset": 0,
			"componentType": 5126,
			"count": 54,
			"max": [ 1, 1 ],
			"min": [ 0, 0 ],
			"type": "VEC2"
		},
		{
			"bufferView": 3,
			"byteOffset": 0,
			"componentType": 5126,
			"count": 54,
			"max": [ 1, 0, 0, 1 ],
			"min": [ 1, 0, 0, 1 ],
			"type": "VEC4"
		},
		{
			"bufferView": 0,
			"byteOffset": 0,
			"componentType": 5123,
			"count": 108,
			"max": [ 53 ],
			"min": [ 0 ],
			"type": "SCALAR"
		},
		{
			"bufferView": 2,
			"byteOffset": 1296,
			"componentType": 5126,
			"count": 18,
			"max": [ 3, 2, 1 ],
			"min": [ 1, 0, 0 ],
			"type": "VEC3"
		},
		{
			"bufferView": 2,
			"byteOffset": 1512,
			"componentType": 5126,
			"count": 18,
			"max": [ 1, 1, 1 ],
			"min": [ -0.7071068, -1, -1 ],
			"type": "VEC3"
		},
		{
			"bufferView": 1,
			"byteOffset": 432,
			"componentType": 5126,
			"count": 18,
			"max": [ 0.875, 1 ],
			"min": [ 0.125, 0 ],
			"type": "VEC2"
		},
		{
			"bufferView": 3,
			"byteOffset": 864,
			"componentType": 5126,
			"count": 18,
			"max": [ 0, 0, 1, 1 ],
			"min": [ -1, 0, -1, 1 ],
			"type": "VEC4"
		},
		{
			"bufferView": 0,
			"byteOffset": 216,
			"componentType": 5123,
			"count": 24,
			"max": [ 17 ],
			"min": [ 0 ],
			"type": "SCALAR"
		},
		{
			"bufferView": 2,
			"byteOffset": 1728,
			"componentType": 5126,
			"count": 18,
			"max": [ -1, 2, 1 ],
			"min": [ -3, 0, 0 ],
			"type": "VEC3"
		},
		{
			"bufferView": 2,
			"byteOffset": 1944,
			"componentType": 5126,
			"count": 18,
			"max": [ 0.7071068, 1, 1 ],
			"min": [ -1, -1, -1 ],
			"type": "VEC3"
		},
		{
			"bufferView": 1,
			"byteOffset": 576,
			"componentType": 5126,
			"count": 18,
			"max": [ 0.875, 1 ],
			"min": [ 0.375, 0 ],
			"type": "VEC2"
		},
		{
			"bufferView": 3,
			"byteOffset": 1152,
			"componentType": 5126,
			"count": 18,
			"max": [ 0.7071068, 0, 1, 1 ],
			"min": [ 0, -1, 0, 1 ],
			"type": "VEC4"
		},
		{
			"bufferView": 0,
			"byteOffset": 264,
			"componentType": 5123,
			"count": 24,
			"max": [ 17 ],
			"min": [ 0 ],
			"type": "SCALAR"
		},
		{
			"bufferView": 2,
			"byteOffset": 2160,
			"componentType": 5126,
			"count": 24,
			"max": [ 1.06066, 5.151651, 1 ],
			"min": [ -1.06066, 3.030331, 0 ],
			"type": "VEC3"
		},
		{
			"bufferView": 2,
			"byteOffset": 2448,
			"componentType": 5126,
			"count": 24,
			"max": [ 0.7071068, 0.7071068, 1 ],
			"min": [ -0.7071068, -0.7071068, -1 ],
			"type": "VEC3"
		},
		{
			"bufferView": 1,
			"byteOffset": 720,
			"componentType": 5126,
			"count": 24,
			"max": [ 0.875, 1 ],
			"min": [ 0.125, 0 ],
			"type": "VEC2"
		},
		{
			"bufferView": 3,
			"byteOffset": 1440,
			"componentType": 5126,
			"count": 24,
			"max": [ 0, 0, 1, 1 ],
			"min": [ -0.7071068, -0.7071068, -1, 1 ],
			"type": "VEC4"
		},
		{
			"bufferView": 0,
			"byteOffset": 312,
			"componentType": 5123,
			"count": 36,
			"max": [ 23 ],
			"min": [ 0 ],
			"type": "SCALAR"
		},
		{
			"bufferView": 2,
			"byteOffset": 2736,
			"componentType": 5126,
			"count": 4,
			"max": [ 0.5165388, 0.344268, 7.280087E-17 ],
			"min": [ -0.5165388, 0, -7.280087E-17 ],
			"type": "VEC3"
		},
		{
			"bufferView": 2,
			"byteOffset": 2784,
			"componentType": 5126,
			"count": 4,
			"max": [ 0, 0, -1 ],
			"min": [ 0, 0, -1 ],
			"type": "VEC3"
		},
		{
			"bufferView": 1,
			"byteOffset": 912,
			"componentType": 5126,
			"count": 4,
			"max": [ 1, 1.02327 ],
			"min": [ 0, 0 ],
			"type": "VEC2"
		},
		{
			"bufferView": 3,
			"byteOffset": 1824,
			"componentType": 5126,
			"count": 4,
			"max": [ -1, 0, 0, 1 ],
			"min": [ -1, 0, 0, 1 ],
			"type": "VEC4"
		},
		{
			"bufferView": 0,
			"byteOffset": 384,
			"componentType": 5123,
			"count": 6,
			"max": [ 3 ],
			"min": [ 0 ],
			"type": "SCALAR"
		},
		{
			"bufferView": 2,
			"byteOffset": 2832,
			"componentType": 5126,
			"count": 4,
			"max": [ 0.5, 0.5, 3.061617E-17 ],
			"min": [ -0.5, -0.5, -3.061617E-17 ],
			"type": "VEC3"
		},
		{
			"bufferView": 2,
			"byteOffset": 2880,
			"componentType": 5126,
			"count": 4,
			"max": [ 0, 0, 1 ],
			"min": [ 0, 0, 1 ],
			"type": "VEC3"
		},
		{
			"bufferView": 1,
			"byteOffset": 944,
			"componentType": 5126,
			"count": 4,
			"max": [ 1, 1 ],
			"min": [ 0, 0 ],
			"type": "VEC2"
		},
		{
			"bufferView": 3,
			"byteOffset": 1888,
			"componentType": 5126,
			"count": 4,
			"max": [ 1, 0, 0, 1 ],
			"min": [ 1, 0, 0, 1 ],
			"type": "VEC4"
		},
		{
			"bufferView": 0,
			"byteOffset": 396,
			"componentType": 5123,
			"count": 6,
			"max": [ 3 ],
			"min": [ 0 ],
			"type": "SCALAR"
		},
		{
			"bufferView": 2,
			"byteOffset": 2928,
			"componentType": 5126,
			"count": 4,
			"max": [ 0.5165388, 0.344268, 7.280087E-17 ],
			"min": [ -0.5165388, 0, -7.280087E-17 ],
			"type": "VEC3"
		},
		{
			"bufferView": 2,
			"byteOffset": 2976,
			"componentType": 5126,
			"count": 4,
			"max": [ 0, 0, -1 ],
			"min": [ 0, 0, -1 ],
			"type": "VEC3"
		},
		{
			"bufferView": 1,
			"byteOffset": 976,
			"componentType": 5126,
			"count": 4,
			"max": [ 1, 1.02327 ],
			"min": [ 0, 0 ],
			"type": "VEC2"
		},
		{
			"bufferView": 3,
			"byteOffset": 1952,
			"componentType": 5126,
			"count": 4,
			"max": [ -1, 0, 0, 1 ],
			"min": [ -1, 0, 0, 1 ],
			"type": "VEC4"
		},
		{
			"bufferView": 0,
			"byteOffset": 408,
			"componentType": 5123,
			"count": 6,
			"max": [ 3 ],
			"min": [ 0 ],
			"type": "SCALAR"
		},
		{
			"bufferView": 2,
			"byteOffset": 3024,
			"componentType": 5126,
			"count": 4,
			"max": [ 0.5, 0.5, 3.061617E-17 ],
			"min": [ -0.5, -0.5, -3.061617E-17 ],
			"type": "VEC3"
		},
		{
			"bufferView": 2,
			"byteOffset": 3072,
			"componentType": 5126,
			"count": 4,
			"max": [ 0, 0, 1 ],
			"min": [ 0, 0, 1 ],
			"type": "VEC3"
		},
		{
			"bufferView": 1,
			"byteOffset": 1008,
			"componentType": 5126,
			"count": 4,
			"max": [ 1, 1 ],
			"min": [ 0, 0 ],
			"type": "VEC2"
		},
		{
			"bufferView": 3,
			"byteOffset": 2016,
			"componentType": 5126,
			"count": 4,
			"max": [ 1, 0, 0, 1 ],
			"min": [ 1, 0, 0, 1 ],
			"type": "VEC4"
		},
		{
			"bufferView": 0,
			"byteOffset": 420,
			"componentType": 5123,
			"count": 6,
			"max": [ 3 ],
			"min": [ 0 ],
			"type": "SCALAR"
		}
	],
	"buffers": [
		{
			"byteLength": 6672,
			"uri": "entity85294n.bin"
		}
	],
	"bufferViews": [
		{
			"buffer": 0,
			"byteLength": 432,
			"target": 34963,
			"byteOffset": 6240
		},
		{
			"buffer": 0,
			"byteLength": 1040,
			"target": 34962,
			"byteStride": 8,
			"byteOffset": 0
		},
		{
			"buffer": 0,
			"byteLength": 3120,
			"target": 34962,
			"byteStride": 12,
			"byteOffset": 1040
		},
		{
			"buffer": 0,
			"byteLength": 2080,
			"target": 34962,
			"byteStride": 16,
			"byteOffset": 4160
		}
	],
	"images": [
		{
			"uri": "Assets/Visuals/Materials/momus-typo-2.png"
		},
		{
			"uri": "Assets/Visuals/Materials/Light_ray_albedo.png"
		},
		{
			"uri": "Assets/Visuals/Materials/Light_ray_emissive.jpg"
		}
	],
	"materials": [
		{
			"pbrMetallicRoughness": {
				"baseColorFactor": [0.2392157, 0.227451, 0.345098, 1],
				"metallicFactor": 0,
				"roughnessFactor": 1
			},
			"emissiveFactor": [0, 0, 0],
			"doubleSided": false,
			"name": "MOMUS_Logo_01_Mat"
		},
		{
			"pbrMetallicRoughness": {
				"baseColorFactor": [0.4470588, 0.4470588, 0.6470588, 1],
				"metallicFactor": 0,
				"roughnessFactor": 1
			},
			"emissiveFactor": [0, 0, 0],
			"doubleSided": false,
			"name": "MOMUS_Logo_02_Mat"
		},
		{
			"pbrMetallicRoughness": {
				"baseColorTexture" : {
					"index" : 0,
					"texCoord" : 0
				},
				"baseColorFactor": [1, 1, 1, 1],
				"metallicFactor": 0,
				"roughnessFactor": 1
			},
			"alphaMode": "BLEND",
			"alphaCutoff": 0.5,
			"emissiveFactor": [0, 0, 0],
			"doubleSided": false,
			"name": "Momus_Collection_mat"
		},
		{
			"pbrMetallicRoughness": {
				"baseColorTexture" : {
					"index" : 1,
					"texCoord" : 0
				},
				"baseColorFactor": [1, 1, 1, 0.3529412],
				"metallicFactor": 0,
				"roughnessFactor": 1
			},
			"alphaMode": "BLEND",
			"alphaCutoff": 0.5,
			"emissiveTexture" : {
				"index" : 2,
				"texCoord" : 0
			},
			"emissiveFactor": [0.9568627, 0.6713069, 0.5360435],
			"doubleSided": false,
			"name": "Light_ray_mat"
		}
	],
	"meshes": [
		{
			"name": "mesh_MOMUS_Logo_V_13150MOMUS_Logo",
			"primitives": [
				{
					"attributes": {
						"POSITION": 0,
						"NORMAL": 1,
						"TEXCOORD_0": 2,
						"TANGENT": 3
					},
					"indices": 4,
					"material": 0,
					"mode": 4
				}
			]
		},
		{
			"name": "mesh_MOMUS_Logo_Corner_1_13144MOMUS_Logo_Corner_1",
			"primitives": [
				{
					"attributes": {
						"POSITION": 5,
						"NORMAL": 6,
						"TEXCOORD_0": 7,
						"TANGENT": 8
					},
					"indices": 9,
					"material": 1,
					"mode": 4
				}
			]
		},
		{
			"name": "mesh_MOMUS_Logo_Corner_2_13146MOMUS_Logo_Corner_2",
			"primitives": [
				{
					"attributes": {
						"POSITION": 10,
						"NORMAL": 11,
						"TEXCOORD_0": 12,
						"TANGENT": 13
					},
					"indices": 14,
					"material": 1,
					"mode": 4
				}
			]
		},
		{
			"name": "mesh_MOMUS_Logo_Top_13148MOMUS_Logo_Top",
			"primitives": [
				{
					"attributes": {
						"POSITION": 15,
						"NORMAL": 16,
						"TEXCOORD_0": 17,
						"TANGENT": 18
					},
					"indices": 19,
					"material": 1,
					"mode": 4
				}
			]
		},
		{
			"name": "mesh_Momus_collection_sign_01_art_11562Momus_collection_sign_01_art",
			"primitives": [
				{
					"attributes": {
						"POSITION": 20,
						"NORMAL": 21,
						"TEXCOORD_0": 22,
						"TANGENT": 23
					},
					"indices": 24,
					"material": 2,
					"mode": 4
				}
			]
		},
		{
			"name": "mesh_Quad_530Quad",
			"primitives": [
				{
					"attributes": {
						"POSITION": 25,
						"NORMAL": 26,
						"TEXCOORD_0": 27,
						"TANGENT": 28
					},
					"indices": 29,
					"material": 3,
					"mode": 4
				}
			]
		},
		{
			"name": "mesh_Momus_collection_sign_01_art_11562Momus_collection_sign_01_art (1)",
			"primitives": [
				{
					"attributes": {
						"POSITION": 30,
						"NORMAL": 31,
						"TEXCOORD_0": 32,
						"TANGENT": 33
					},
					"indices": 34,
					"material": 2,
					"mode": 4
				}
			]
		},
		{
			"name": "mesh_Quad_530Quad (1)",
			"primitives": [
				{
					"attributes": {
						"POSITION": 35,
						"NORMAL": 36,
						"TEXCOORD_0": 37,
						"TANGENT": 38
					},
					"indices": 39,
					"material": 3,
					"mode": 4
				}
			]
		}
	],
	"nodes": [
		{
			"name": "UnityGlTF_root",
			"children": [
				1
			]
		},
		{
			"name": "node_MOMUS_Logo",
			"mesh": 0,
			"children": [
				2,
				3,
				4,
				5,
				6,
				7,
				8
			],
			"matrix": [1, 0, 0, 0, 0, 1, 0, 0, 0, 0, 1, 0, 0, 0, 0, 1]
		},
		{
			"name": "node_MOMUS_Logo_Corner_1",
			"mesh": 1
		},
		{
			"name": "node_MOMUS_Logo_Corner_2",
			"mesh": 2
		},
		{
			"name": "node_MOMUS_Logo_Top",
			"mesh": 3
		},
		{
			"name": "node_Momus_collection_sign_01_art",
			"mesh": 4,
			"translation": [ 0, -3.43, -0.137],
			"scale": [ 5.6274, 5.6274, 5.6274]
		},
		{
			"name": "node_Quad",
			"mesh": 5,
			"translation": [ 0, -2.1, 0.07],
			"scale": [ 5.6274, 5.6274, 5.6274],
			"rotation": [0, 1, 0, 0]
		},
		{
			"name": "node_Momus_collection_sign_01_art (1)",
			"mesh": 6,
			"translation": [ -0.01, -3.43, 1.044],
			"scale": [ 5.6274, 5.6274, 5.6274],
			"rotation": [0, -0.9999817, 0, -0.006048395]
		},
		{
			"name": "node_Quad (1)",
			"mesh": 7,
			"translation": [ -0.01, -2.1, 0.86],
			"scale": [ 5.6274, 5.6274, 5.6274],
			"rotation": [0, 0.006048395, 0, -0.9999817]
		}
	],
	"samplers": [
		{
			"magFilter": 9729,
			"minFilter": 9985,
			"wrapS": 10497,
			"wrapT": 10497
		}
	],
	"scenes": [
		{
			"name":"defaultScene",
			"nodes": [
				0
			]
		}
	],
	"scene": 0,
	"textures": [
		{
			"sampler": 0,
			"source": 0
		},
		{
			"sampler": 0,
			"source": 1
		},
		{
			"sampler": 0,
			"source": 2
		}
	]
}