{
	"asset": {
		"generator": "Unity 2018.3.6f1",
		"extras": {
			"exporterVersion" : "2.2.1"
		},
		"version": "2.0"
	},
	"accessors": [
		{
			"bufferView": 2,
			"byteOffset": 0,
			"componentType": 5126,
			"count": 300,
			"max": [ 2.919223, 1.068738, 0.7165232 ],
			"min": [ -2.899695, -0.04043232, -0.6721169 ],
			"type": "VEC3"
		},
		{
			"bufferView": 2,
			"byteOffset": 3600,
			"componentType": 5126,
			"count": 300,
			"max": [ 0.9829862, 0.9997961, 0.9996203 ],
			"min": [ -0.9839191, -0.9998133, -0.9996245 ],
			"type": "VEC3"
		},
		{
			"bufferView": 1,
			"byteOffset": 0,
			"componentType": 5126,
			"count": 300,
			"max": [ 2.160764, 1.944769 ],
			"min": [ -1.353677, -0.4673077 ],
			"type": "VEC2"
		},
		{
			"bufferView": 3,
			"byteOffset": 0,
			"componentType": 5126,
			"count": 300,
			"max": [ 0.9999543, 0.7853856, 0.9943228, 1 ],
			"min": [ -0.9996537, -0.7676026, -0.996586, -1 ],
			"type": "VEC4"
		},
		{
			"bufferView": 0,
			"byteOffset": 0,
			"componentType": 5123,
			"count": 198,
			"max": [ 149 ],
			"min": [ 0 ],
			"type": "SCALAR"
		},
		{
			"bufferView": 0,
			"byteOffset": 396,
			"componentType": 5123,
			"count": 198,
			"max": [ 299 ],
			"min": [ 150 ],
			"type": "SCALAR"
		},
		{
			"bufferView": 2,
			"byteOffset": 7200,
			"componentType": 5126,
			"count": 24,
			"max": [ 2.862686, 1, 0.75 ],
			"min": [ -2.831387, 0, -0.75 ],
			"type": "VEC3"
		},
		{
			"bufferView": 2,
			"byteOffset": 7488,
			"componentType": 5126,
			"count": 24,
			"max": [ 1, 1, 1 ],
			"min": [ -1, -1, -1 ],
			"type": "VEC3"
		},
		{
			"bufferView": 1,
			"byteOffset": 2400,
			"componentType": 5126,
			"count": 24,
			"max": [ 0.875, 1 ],
			"min": [ 0.125, 0 ],
			"type": "VEC2"
		},
		{
			"bufferView": 3,
			"byteOffset": 4800,
			"componentType": 5126,
			"count": 24,
			"max": [ 0, 0, 1, 1 ],
			"min": [ -1, 0, -1, 1 ],
			"type": "VEC4"
		},
		{
			"bufferView": 0,
			"byteOffset": 792,
			"componentType": 5123,
			"count": 36,
			"max": [ 23 ],
			"min": [ 0 ],
			"type": "SCALAR"
		},
		{
			"bufferView": 2,
			"byteOffset": 7776,
			"componentType": 5126,
			"count": 300,
			"max": [ 2.919223, 1.068738, 0.7165232 ],
			"min": [ -2.899695, -0.04043232, -0.6721169 ],
			"type": "VEC3"
		},
		{
			"bufferView": 2,
			"byteOffset": 11376,
			"componentType": 5126,
			"count": 300,
			"max": [ 0.9829862, 0.9997961, 0.9996203 ],
			"min": [ -0.9839191, -0.9998133, -0.9996245 ],
			"type": "VEC3"
		},
		{
			"bufferView": 1,
			"byteOffset": 2592,
			"componentType": 5126,
			"count": 300,
			"max": [ 2.160764, 1.944769 ],
			"min": [ -1.353677, -0.4673077 ],
			"type": "VEC2"
		},
		{
			"bufferView": 3,
			"byteOffset": 5184,
			"componentType": 5126,
			"count": 300,
			"max": [ 0.9999543, 0.7853856, 0.9943228, 1 ],
			"min": [ -0.9996537, -0.7676026, -0.996586, -1 ],
			"type": "VEC4"
		},
		{
			"bufferView": 0,
			"byteOffset": 864,
			"componentType": 5123,
			"count": 198,
			"max": [ 149 ],
			"min": [ 0 ],
			"type": "SCALAR"
		},
		{
			"bufferView": 0,
			"byteOffset": 1260,
			"componentType": 5123,
			"count": 198,
			"max": [ 299 ],
			"min": [ 150 ],
			"type": "SCALAR"
		},
		{
			"bufferView": 2,
			"byteOffset": 14976,
			"componentType": 5126,
			"count": 24,
			"max": [ 2.862686, 1, 0.75 ],
			"min": [ -2.831387, 0, -0.75 ],
			"type": "VEC3"
		},
		{
			"bufferView": 2,
			"byteOffset": 15264,
			"componentType": 5126,
			"count": 24,
			"max": [ 1, 1, 1 ],
			"min": [ -1, -1, -1 ],
			"type": "VEC3"
		},
		{
			"bufferView": 1,
			"byteOffset": 4992,
			"componentType": 5126,
			"count": 24,
			"max": [ 0.875, 1 ],
			"min": [ 0.125, 0 ],
			"type": "VEC2"
		},
		{
			"bufferView": 3,
			"byteOffset": 9984,
			"componentType": 5126,
			"count": 24,
			"max": [ 0, 0, 1, 1 ],
			"min": [ -1, 0, -1, 1 ],
			"type": "VEC4"
		},
		{
			"bufferView": 0,
			"byteOffset": 1656,
			"componentType": 5123,
			"count": 36,
			"max": [ 23 ],
			"min": [ 0 ],
			"type": "SCALAR"
		},
		{
			"bufferView": 2,
			"byteOffset": 15552,
			"componentType": 5126,
			"count": 276,
			"max": [ 0, 0.9253459, 0.44046 ],
			"min": [ -3.930549, -1.385767, -1.65609 ],
			"type": "VEC3"
		},
		{
			"bufferView": 2,
			"byteOffset": 18864,
			"componentType": 5126,
			"count": 276,
			"max": [ 0.9939014, 0.9903058, 0.9939871 ],
			"min": [ -0.9906387, -0.9852491, -0.9956174 ],
			"type": "VEC3"
		},
		{
			"bufferView": 1,
			"byteOffset": 5184,
			"componentType": 5126,
			"count": 276,
			"max": [ 2.269763, 1.496265 ],
			"min": [ -0.02452263, -1.798516 ],
			"type": "VEC2"
		},
		{
			"bufferView": 3,
			"byteOffset": 10368,
			"componentType": 5126,
			"count": 276,
			"max": [ 0.9477429, 0.9999541, 0.9980443, 1 ],
			"min": [ -0.9673978, -0.994432, -0.9986004, -1 ],
			"type": "VEC4"
		},
		{
			"bufferView": 0,
			"byteOffset": 1728,
			"componentType": 5123,
			"count": 1392,
			"max": [ 275 ],
			"min": [ 0 ],
			"type": "SCALAR"
		},
		{
			"bufferView": 2,
			"byteOffset": 22176,
			"componentType": 5126,
			"count": 72,
			"max": [ -0.09598999, 0.8841459, 0.5645922 ],
			"min": [ -4.062054, -1.389363, -1.718294 ],
			"type": "VEC3"
		},
		{
			"bufferView": 2,
			"byteOffset": 23040,
			"componentType": 5126,
			"count": 72,
			"max": [ 1, 0.9737785, 0.9826915 ],
			"min": [ -0.8726594, -0.9855179, -0.9900244 ],
			"type": "VEC3"
		},
		{
			"bufferView": 1,
			"byteOffset": 7392,
			"componentType": 5126,
			"count": 72,
			"max": [ 0.875, 1 ],
			"min": [ 0.125, 0 ],
			"type": "VEC2"
		},
		{
			"bufferView": 3,
			"byteOffset": 14784,
			"componentType": 5126,
			"count": 72,
			"max": [ 1, 0.2237594, 0.4381571, 1 ],
			"min": [ -0.9577748, 0, -1, 1 ],
			"type": "VEC4"
		},
		{
			"bufferView": 0,
			"byteOffset": 4512,
			"componentType": 5123,
			"count": 132,
			"max": [ 71 ],
			"min": [ 0 ],
			"type": "SCALAR"
		},
		{
			"bufferView": 2,
			"byteOffset": 23904,
			"componentType": 5126,
			"count": 276,
			"max": [ 0, 0.9253459, 0.44046 ],
			"min": [ -3.930549, -1.385767, -1.65609 ],
			"type": "VEC3"
		},
		{
			"bufferView": 2,
			"byteOffset": 27216,
			"componentType": 5126,
			"count": 276,
			"max": [ 0.9939014, 0.9903058, 0.9939871 ],
			"min": [ -0.9906387, -0.9852491, -0.9956174 ],
			"type": "VEC3"
		},
		{
			"bufferView": 1,
			"byteOffset": 7968,
			"componentType": 5126,
			"count": 276,
			"max": [ 2.269763, 1.496265 ],
			"min": [ -0.02452263, -1.798516 ],
			"type": "VEC2"
		},
		{
			"bufferView": 3,
			"byteOffset": 15936,
			"componentType": 5126,
			"count": 276,
			"max": [ 0.9477429, 0.9999541, 0.9980443, 1 ],
			"min": [ -0.9673978, -0.994432, -0.9986004, -1 ],
			"type": "VEC4"
		},
		{
			"bufferView": 0,
			"byteOffset": 4776,
			"componentType": 5123,
			"count": 1392,
			"max": [ 275 ],
			"min": [ 0 ],
			"type": "SCALAR"
		},
		{
			"bufferView": 2,
			"byteOffset": 30528,
			"componentType": 5126,
			"count": 72,
			"max": [ -0.09598999, 0.8841459, 0.5645922 ],
			"min": [ -4.062054, -1.389363, -1.718294 ],
			"type": "VEC3"
		},
		{
			"bufferView": 2,
			"byteOffset": 31392,
			"componentType": 5126,
			"count": 72,
			"max": [ 1, 0.9737785, 0.9826915 ],
			"min": [ -0.8726594, -0.9855179, -0.9900244 ],
			"type": "VEC3"
		},
		{
			"bufferView": 1,
			"byteOffset": 10176,
			"componentType": 5126,
			"count": 72,
			"max": [ 0.875, 1 ],
			"min": [ 0.125, 0 ],
			"type": "VEC2"
		},
		{
			"bufferView": 3,
			"byteOffset": 20352,
			"componentType": 5126,
			"count": 72,
			"max": [ 1, 0.2237594, 0.4381571, 1 ],
			"min": [ -0.9577748, 0, -1, 1 ],
			"type": "VEC4"
		},
		{
			"bufferView": 0,
			"byteOffset": 7560,
			"componentType": 5123,
			"count": 132,
			"max": [ 71 ],
			"min": [ 0 ],
			"type": "SCALAR"
		}
	],
	"buffers": [
		{
			"byteLength": 72336,
			"uri": "entity87208n.bin"
		}
	],
	"bufferViews": [
		{
			"buffer": 0,
			"byteLength": 7824,
			"target": 34963,
			"byteOffset": 64512
		},
		{
			"buffer": 0,
			"byteLength": 10752,
			"target": 34962,
			"byteStride": 8,
			"byteOffset": 0
		},
		{
			"buffer": 0,
			"byteLength": 32256,
			"target": 34962,
			"byteStride": 12,
			"byteOffset": 10752
		},
		{
			"buffer": 0,
			"byteLength": 21504,
			"target": 34962,
			"byteStride": 16,
			"byteOffset": 43008
		}
	],
	"images": [
		{
			"uri": "Assets/Visuals/Materials/Rock_01_Albedo.jpg"
		},
		{
			"uri": "Assets/Visuals/Materials/Tree_Wood_Albedo.jpg"
		}
	],
	"materials": [
		{
			"pbrMetallicRoughness": {
				"baseColorFactor": [0, 0, 0, 1],
				"metallicFactor": 0,
				"roughnessFactor": 1
			},
			"emissiveFactor": [0, 0, 0],
			"doubleSided": false,
			"name": "Black_Outline_Mat"
		},
		{
			"pbrMetallicRoughness": {
				"baseColorTexture" : {
					"index" : 0,
					"texCoord" : 0
				},
				"baseColorFactor": [1, 1, 1, 1],
				"metallicFactor": 0,
				"roughnessFactor": 1
			},
			"emissiveFactor": [0, 0, 0],
			"doubleSided": false,
			"name": "Rock_01_Mat"
		},
		{
			"pbrMetallicRoughness": {
				"baseColorFactor": [0.05724907, 1, 0, 1],
				"metallicFactor": 0,
				"roughnessFactor": 0.5
			},
			"emissiveFactor": [0, 0, 0],
			"doubleSided": false,
			"name": "_collider_Mat"
		},
		{
			"pbrMetallicRoughness": {
				"baseColorTexture" : {
					"index" : 1,
					"texCoord" : 0
				},
				"baseColorFactor": [1, 1, 1, 1],
				"metallicFactor": 0,
				"roughnessFactor": 1
			},
			"emissiveFactor": [0, 0, 0],
			"doubleSided": false,
			"name": "Tree_Wood_Mat"
		}
	],
	"meshes": [
		{
			"name": "mesh_Brick_Step_01_11090Brick_Step_01 (18)",
			"primitives": [
				{
					"attributes": {
						"POSITION": 0,
						"NORMAL": 1,
						"TEXCOORD_0": 2,
						"TANGENT": 3
					},
					"indices": 4,
					"material": 0,
					"mode": 4
				},
				{
					"attributes": {
						"POSITION": 0,
						"NORMAL": 1,
						"TEXCOORD_0": 2,
						"TANGENT": 3
					},
					"indices": 5,
					"material": 1,
					"mode": 4
				}
			]
		},
		{
			"name": "mesh_Brick_Step_01_collider_11092Brick_Step_01_collider",
			"primitives": [
				{
					"attributes": {
						"POSITION": 6,
						"NORMAL": 7,
						"TEXCOORD_0": 8,
						"TANGENT": 9
					},
					"indices": 10,
					"material": 2,
					"mode": 4
				}
			]
		},
		{
			"name": "mesh_Brick_Step_01_11090Brick_Step_01 (17)",
			"primitives": [
				{
					"attributes": {
						"POSITION": 11,
						"NORMAL": 12,
						"TEXCOORD_0": 13,
						"TANGENT": 14
					},
					"indices": 15,
					"material": 0,
					"mode": 4
				},
				{
					"attributes": {
						"POSITION": 11,
						"NORMAL": 12,
						"TEXCOORD_0": 13,
						"TANGENT": 14
					},
					"indices": 16,
					"material": 1,
					"mode": 4
				}
			]
		},
		{
			"name": "mesh_Brick_Step_01_collider_11092Brick_Step_01_collider",
			"primitives": [
				{
					"attributes": {
						"POSITION": 17,
						"NORMAL": 18,
						"TEXCOORD_0": 19,
						"TANGENT": 20
					},
					"indices": 21,
					"material": 2,
					"mode": 4
				}
			]
		},
		{
			"name": "mesh_Root_01_10678Root_01 (3)",
			"primitives": [
				{
					"attributes": {
						"POSITION": 22,
						"NORMAL": 23,
						"TEXCOORD_0": 24,
						"TANGENT": 25
					},
					"indices": 26,
					"material": 3,
					"mode": 4
				}
			]
		},
		{
			"name": "mesh_Root_01_collider_10680Root_01_collider",
			"primitives": [
				{
					"attributes": {
						"POSITION": 27,
						"NORMAL": 28,
						"TEXCOORD_0": 29,
						"TANGENT": 30
					},
					"indices": 31,
					"material": 2,
					"mode": 4
				}
			]
		},
		{
			"name": "mesh_Root_01_10678Root_01 (4)",
			"primitives": [
				{
					"attributes": {
						"POSITION": 32,
						"NORMAL": 33,
						"TEXCOORD_0": 34,
						"TANGENT": 35
					},
					"indices": 36,
					"material": 3,
					"mode": 4
				}
			]
		},
		{
			"name": "mesh_Root_01_collider_10680Root_01_collider",
			"primitives": [
				{
					"attributes": {
						"POSITION": 37,
						"NORMAL": 38,
						"TEXCOORD_0": 39,
						"TANGENT": 40
					},
					"indices": 41,
					"material": 2,
					"mode": 4
				}
			]
		}
	],
	"nodes": [
		{
			"name": "UnityGlTF_root",
			"children": [
				1
			]
		},
		{
			"name": "node_Brick_Step_01 (18)",
			"mesh": 0,
			"children": [
				2,
				3,
				5,
				7
			],
			"matrix": [1, 0, 0, 0, 0, 1, 0, 0, 0, 0, 1, 0, 0, 0, 0, 1]
		},
		{
			"name": "node_Brick_Step_01_collider",
			"mesh": 1
		},
		{
			"name": "node_Brick_Step_01 (17)",
			"mesh": 2,
			"children": [
				2
			],
			"translation": [ 0, 0.3202611, -1.356379],
			"scale": [ 1, 0.8519984, 1.173714],
			"rotation": [-0.7046848, 2.108615E-06, -4.276937E-06, -0.7095206]
		},
		{
			"name": "node_Brick_Step_01_collider",
			"mesh": 3
		},
		{
			"name": "node_Root_01 (3)",
			"mesh": 4,
			"children": [
				6
			],
			"translation": [ 2.738911, 1.2659, -0.1433451],
			"scale": [ 1.743359, 0.9304589, 1.125037],
			"rotation": [-0.5060852, -0.5049715, 0.4511773, 0.5341542]
		},
		{
			"name": "node_Root_01_collider",
			"mesh": 5
		},
		{
			"name": "node_Root_01 (4)",
			"mesh": 6,
			"children": [
				6
			],
			"translation": [ -2.433629, 1.265919, -0.1433762],
			"scale": [ 1.745538, 0.930563, -1.123131],
			"rotation": [-0.4764756, -0.5326371, 0.480923, 0.5079191]
		},
		{
			"name": "node_Root_01_collider",
			"mesh": 7
		}
	],
	"samplers": [
		{
			"magFilter": 9729,
			"minFilter": 9985,
			"wrapS": 10497,
			"wrapT": 10497
		}
	],
	"scenes": [
		{
			"name":"defaultScene",
			"nodes": [
				0
			]
		}
	],
	"scene": 0,
	"textures": [
		{
			"sampler": 0,
			"source": 0
		},
		{
			"sampler": 0,
			"source": 1
		}
	]
}