{
	"asset": {
		"generator": "Unity 2018.3.6f1",
		"extras": {
			"exporterVersion" : "2.2.1"
		},
		"version": "2.0"
	},
	"accessors": [
		{
			"bufferView": 2,
			"byteOffset": 0,
			"componentType": 5126,
			"count": 54,
			"max": [ 3, 4.090991, 1.125 ],
			"min": [ -3, -0.9982684, -0.125 ],
			"type": "VEC3"
		},
		{
			"bufferView": 2,
			"byteOffset": 648,
			"componentType": 5126,
			"count": 54,
			"max": [ 1, 0.7071068, 1 ],
			"min": [ -1, -0.7124885, -1 ],
			"type": "VEC3"
		},
		{
			"bufferView": 1,
			"byteOffset": 0,
			"componentType": 5126,
			"count": 54,
			"max": [ 1, 1 ],
			"min": [ 0, 0 ],
			"type": "VEC2"
		},
		{
			"bufferView": 3,
			"byteOffset": 0,
			"componentType": 5126,
			"count": 54,
			"max": [ 1, 0, 0, 1 ],
			"min": [ 1, 0, 0, 1 ],
			"type": "VEC4"
		},
		{
			"bufferView": 0,
			"byteOffset": 0,
			"componentType": 5123,
			"count": 108,
			"max": [ 53 ],
			"min": [ 0 ],
			"type": "SCALAR"
		},
		{
			"bufferView": 2,
			"byteOffset": 1296,
			"componentType": 5126,
			"count": 18,
			"max": [ 3, 2, 1 ],
			"min": [ 1, 0, 0 ],
			"type": "VEC3"
		},
		{
			"bufferView": 2,
			"byteOffset": 1512,
			"componentType": 5126,
			"count": 18,
			"max": [ 1, 1, 1 ],
			"min": [ -0.7071068, -1, -1 ],
			"type": "VEC3"
		},
		{
			"bufferView": 1,
			"byteOffset": 432,
			"componentType": 5126,
			"count": 18,
			"max": [ 0.875, 1 ],
			"min": [ 0.125, 0 ],
			"type": "VEC2"
		},
		{
			"bufferView": 3,
			"byteOffset": 864,
			"componentType": 5126,
			"count": 18,
			"max": [ 0, 0, 1, 1 ],
			"min": [ -1, 0, -1, 1 ],
			"type": "VEC4"
		},
		{
			"bufferView": 0,
			"byteOffset": 216,
			"componentType": 5123,
			"count": 24,
			"max": [ 17 ],
			"min": [ 0 ],
			"type": "SCALAR"
		},
		{
			"bufferView": 2,
			"byteOffset": 1728,
			"componentType": 5126,
			"count": 18,
			"max": [ -1, 2, 1 ],
			"min": [ -3, 0, 0 ],
			"type": "VEC3"
		},
		{
			"bufferView": 2,
			"byteOffset": 1944,
			"componentType": 5126,
			"count": 18,
			"max": [ 0.7071068, 1, 1 ],
			"min": [ -1, -1, -1 ],
			"type": "VEC3"
		},
		{
			"bufferView": 1,
			"byteOffset": 576,
			"componentType": 5126,
			"count": 18,
			"max": [ 0.875, 1 ],
			"min": [ 0.375, 0 ],
			"type": "VEC2"
		},
		{
			"bufferView": 3,
			"byteOffset": 1152,
			"componentType": 5126,
			"count": 18,
			"max": [ 0.7071068, 0, 1, 1 ],
			"min": [ 0, -1, 0, 1 ],
			"type": "VEC4"
		},
		{
			"bufferView": 0,
			"byteOffset": 264,
			"componentType": 5123,
			"count": 24,
			"max": [ 17 ],
			"min": [ 0 ],
			"type": "SCALAR"
		},
		{
			"bufferView": 2,
			"byteOffset": 2160,
			"componentType": 5126,
			"count": 24,
			"max": [ 1.06066, 5.151651, 1 ],
			"min": [ -1.06066, 3.030331, 0 ],
			"type": "VEC3"
		},
		{
			"bufferView": 2,
			"byteOffset": 2448,
			"componentType": 5126,
			"count": 24,
			"max": [ 0.7071068, 0.7071068, 1 ],
			"min": [ -0.7071068, -0.7071068, -1 ],
			"type": "VEC3"
		},
		{
			"bufferView": 1,
			"byteOffset": 720,
			"componentType": 5126,
			"count": 24,
			"max": [ 0.875, 1 ],
			"min": [ 0.125, 0 ],
			"type": "VEC2"
		},
		{
			"bufferView": 3,
			"byteOffset": 1440,
			"componentType": 5126,
			"count": 24,
			"max": [ 0, 0, 1, 1 ],
			"min": [ -0.7071068, -0.7071068, -1, 1 ],
			"type": "VEC4"
		},
		{
			"bufferView": 0,
			"byteOffset": 312,
			"componentType": 5123,
			"count": 36,
			"max": [ 23 ],
			"min": [ 0 ],
			"type": "SCALAR"
		}
	],
	"buffers": [
		{
			"byteLength": 5856,
			"uri": "entity206016.bin"
		}
	],
	"bufferViews": [
		{
			"buffer": 0,
			"byteLength": 384,
			"target": 34963,
			"byteOffset": 5472
		},
		{
			"buffer": 0,
			"byteLength": 912,
			"target": 34962,
			"byteStride": 8,
			"byteOffset": 0
		},
		{
			"buffer": 0,
			"byteLength": 2736,
			"target": 34962,
			"byteStride": 12,
			"byteOffset": 912
		},
		{
			"buffer": 0,
			"byteLength": 1824,
			"target": 34962,
			"byteStride": 16,
			"byteOffset": 3648
		}
	],
	"materials": [
		{
			"pbrMetallicRoughness": {
				"baseColorFactor": [0.2392157, 0.227451, 0.345098, 1],
				"metallicFactor": 0,
				"roughnessFactor": 1
			},
			"emissiveFactor": [0, 0, 0],
			"doubleSided": false,
			"name": "MOMUS_Logo_01_Mat"
		},
		{
			"pbrMetallicRoughness": {
				"baseColorFactor": [0.4470588, 0.4470588, 0.6470588, 1],
				"metallicFactor": 0,
				"roughnessFactor": 1
			},
			"emissiveFactor": [0, 0, 0],
			"doubleSided": false,
			"name": "MOMUS_Logo_02_Mat"
		}
	],
	"meshes": [
		{
			"name": "mesh_MOMUS_Logo_V_31334MOMUS_Logo0",
			"primitives": [
				{
					"attributes": {
						"POSITION": 0,
						"NORMAL": 1,
						"TEXCOORD_0": 2,
						"TANGENT": 3
					},
					"indices": 4,
					"material": 0,
					"mode": 4
				}
			]
		},
		{
			"name": "mesh_MOMUS_Logo_Corner_1_31336MOMUS_Logo_Corner_1",
			"primitives": [
				{
					"attributes": {
						"POSITION": 5,
						"NORMAL": 6,
						"TEXCOORD_0": 7,
						"TANGENT": 8
					},
					"indices": 9,
					"material": 1,
					"mode": 4
				}
			]
		},
		{
			"name": "mesh_MOMUS_Logo_Corner_2_31338MOMUS_Logo_Corner_2",
			"primitives": [
				{
					"attributes": {
						"POSITION": 10,
						"NORMAL": 11,
						"TEXCOORD_0": 12,
						"TANGENT": 13
					},
					"indices": 14,
					"material": 1,
					"mode": 4
				}
			]
		},
		{
			"name": "mesh_MOMUS_Logo_Top_31340MOMUS_Logo_Top",
			"primitives": [
				{
					"attributes": {
						"POSITION": 15,
						"NORMAL": 16,
						"TEXCOORD_0": 17,
						"TANGENT": 18
					},
					"indices": 19,
					"material": 1,
					"mode": 4
				}
			]
		}
	],
	"nodes": [
		{
			"name": "UnityGlTF_root",
			"children": [
				1
			]
		},
		{
			"name": "node_MOMUS_Logo0",
			"mesh": 0,
			"children": [
				2,
				3,
				4
			],
			"matrix": [1, 0, 0, 0, 0, 1, 0, 0, 0, 0, 1, 0, 0, 0, 0, 1]
		},
		{
			"name": "node_MOMUS_Logo_Corner_1",
			"mesh": 1
		},
		{
			"name": "node_MOMUS_Logo_Corner_2",
			"mesh": 2
		},
		{
			"name": "node_MOMUS_Logo_Top",
			"mesh": 3
		}
	],
	"scenes": [
		{
			"name":"defaultScene",
			"nodes": [
				0
			]
		}
	],
	"scene": 0
}