{
	"asset": {
		"generator": "Unity 2018.3.6f1",
		"extras": {
			"exporterVersion" : "2.2.1"
		},
		"version": "2.0"
	},
	"accessors": [
		{
			"bufferView": 2,
			"byteOffset": 0,
			"componentType": 5126,
			"count": 345,
			"max": [ 0.4425033, 0.859141, 0.4296425 ],
			"min": [ -0.2941049, 0, -0.3495319 ],
			"type": "VEC3"
		},
		{
			"bufferView": 2,
			"byteOffset": 4140,
			"componentType": 5126,
			"count": 345,
			"max": [ 0.9706734, 1, 0.9946891 ],
			"min": [ -0.9684105, -1, -0.9937618 ],
			"type": "VEC3"
		},
		{
			"bufferView": 1,
			"byteOffset": 0,
			"componentType": 5126,
			"count": 345,
			"max": [ 1, 1.023441 ],
			"min": [ -2.270291E-05, -0.01657578 ],
			"type": "VEC2"
		},
		{
			"bufferView": 3,
			"byteOffset": 0,
			"componentType": 5126,
			"count": 345,
			"max": [ 0.996865, 0.985765, 0.996865, 1 ],
			"min": [ -0.996865, -0.9977628, -0.9968649, 1 ],
			"type": "VEC4"
		},
		{
			"bufferView": 0,
			"byteOffset": 0,
			"componentType": 5123,
			"count": 1164,
			"max": [ 344 ],
			"min": [ 0 ],
			"type": "SCALAR"
		}
	],
	"buffers": [
		{
			"byteLength": 18888,
			"uri": "entity93796n.bin"
		}
	],
	"bufferViews": [
		{
			"buffer": 0,
			"byteLength": 2328,
			"target": 34963,
			"byteOffset": 16560
		},
		{
			"buffer": 0,
			"byteLength": 2760,
			"target": 34962,
			"byteStride": 8,
			"byteOffset": 0
		},
		{
			"buffer": 0,
			"byteLength": 8280,
			"target": 34962,
			"byteStride": 12,
			"byteOffset": 2760
		},
		{
			"buffer": 0,
			"byteLength": 5520,
			"target": 34962,
			"byteStride": 16,
			"byteOffset": 11040
		}
	],
	"images": [
		{
			"uri": "Assets/Visuals/Materials/Mushroom_01_Albedo.jpg"
		}
	],
	"materials": [
		{
			"pbrMetallicRoughness": {
				"baseColorTexture" : {
					"index" : 0,
					"texCoord" : 0
				},
				"baseColorFactor": [1, 1, 1, 1],
				"metallicFactor": 0,
				"roughnessFactor": 1
			},
			"emissiveFactor": [0, 0, 0],
			"doubleSided": false,
			"name": "Mushroom_01_Mat"
		}
	],
	"meshes": [
		{
			"name": "mesh_Flower_03_a_11862Flower_03_a",
			"primitives": [
				{
					"attributes": {
						"POSITION": 0,
						"NORMAL": 1,
						"TEXCOORD_0": 2,
						"TANGENT": 3
					},
					"indices": 4,
					"material": 0,
					"mode": 4
				}
			]
		}
	],
	"nodes": [
		{
			"name": "UnityGlTF_root",
			"children": [
				1
			]
		},
		{
			"name": "node_Flower_03_a",
			"mesh": 0,
			"matrix": [1, 0, 0, 0, 0, 1, 0, 0, 0, 0, 1, 0, 0, 0, 0, 1]
		}
	],
	"samplers": [
		{
			"magFilter": 9729,
			"minFilter": 9985,
			"wrapS": 10497,
			"wrapT": 10497
		}
	],
	"scenes": [
		{
			"name":"defaultScene",
			"nodes": [
				0
			]
		}
	],
	"scene": 0,
	"textures": [
		{
			"sampler": 0,
			"source": 0
		}
	]
}