{
	"asset": {
		"generator": "Unity 2018.3.6f1",
		"extras": {
			"exporterVersion" : "2.2.1"
		},
		"version": "2.0"
	},
	"accessors": [
		{
			"bufferView": 2,
			"byteOffset": 0,
			"componentType": 5126,
			"count": 4944,
			"max": [ 7.759006, 9.83547, 1.212666 ],
			"min": [ -7.757978, -0.009942413, -1.195268 ],
			"type": "VEC3"
		},
		{
			"bufferView": 2,
			"byteOffset": 59328,
			"componentType": 5126,
			"count": 4944,
			"max": [ 1, 1, 1 ],
			"min": [ -1, -1, -1 ],
			"type": "VEC3"
		},
		{
			"bufferView": 1,
			"byteOffset": 0,
			"componentType": 5126,
			"count": 4944,
			"max": [ 8.333324, 8.830597 ],
			"min": [ -9.335573, -7.83695 ],
			"type": "VEC2"
		},
		{
			"bufferView": 3,
			"byteOffset": 0,
			"componentType": 5126,
			"count": 4944,
			"max": [ 1, 1, 1, 1 ],
			"min": [ -1, -1, -1, -1 ],
			"type": "VEC4"
		},
		{
			"bufferView": 0,
			"byteOffset": 0,
			"componentType": 5123,
			"count": 9972,
			"max": [ 1899 ],
			"min": [ 0 ],
			"type": "SCALAR"
		},
		{
			"bufferView": 0,
			"byteOffset": 19944,
			"componentType": 5123,
			"count": 1170,
			"max": [ 2595 ],
			"min": [ 1900 ],
			"type": "SCALAR"
		},
		{
			"bufferView": 0,
			"byteOffset": 22284,
			"componentType": 5123,
			"count": 1788,
			"max": [ 3571 ],
			"min": [ 2596 ],
			"type": "SCALAR"
		},
		{
			"bufferView": 0,
			"byteOffset": 25860,
			"componentType": 5123,
			"count": 2376,
			"max": [ 4943 ],
			"min": [ 3572 ],
			"type": "SCALAR"
		},
		{
			"bufferView": 2,
			"byteOffset": 118656,
			"componentType": 5126,
			"count": 76,
			"max": [ 7.878157, 9.552764, 0.75 ],
			"min": [ -7.878157, 0, -0.75 ],
			"type": "VEC3"
		},
		{
			"bufferView": 2,
			"byteOffset": 119568,
			"componentType": 5126,
			"count": 76,
			"max": [ 1, 1, 1 ],
			"min": [ -1, -1, -1 ],
			"type": "VEC3"
		},
		{
			"bufferView": 1,
			"byteOffset": 39552,
			"componentType": 5126,
			"count": 76,
			"max": [ 0.875, 1 ],
			"min": [ 0.125, 0 ],
			"type": "VEC2"
		},
		{
			"bufferView": 3,
			"byteOffset": 79104,
			"componentType": 5126,
			"count": 76,
			"max": [ 1, 0, 1, 1 ],
			"min": [ -1, 0, -1, 1 ],
			"type": "VEC4"
		},
		{
			"bufferView": 0,
			"byteOffset": 30612,
			"componentType": 5123,
			"count": 132,
			"max": [ 75 ],
			"min": [ 0 ],
			"type": "SCALAR"
		}
	],
	"buffers": [
		{
			"byteLength": 271836,
			"uri": "entity99100.bin"
		}
	],
	"bufferViews": [
		{
			"buffer": 0,
			"byteLength": 30876,
			"target": 34963,
			"byteOffset": 240960
		},
		{
			"buffer": 0,
			"byteLength": 40160,
			"target": 34962,
			"byteStride": 8,
			"byteOffset": 0
		},
		{
			"buffer": 0,
			"byteLength": 120480,
			"target": 34962,
			"byteStride": 12,
			"byteOffset": 40160
		},
		{
			"buffer": 0,
			"byteLength": 80320,
			"target": 34962,
			"byteStride": 16,
			"byteOffset": 160640
		}
	],
	"images": [
		{
			"uri": "Assets/Visuals/Materials/Tree_Wood_Albedo.jpg"
		},
		{
			"uri": "Assets/Visuals/Materials/Signal_01_Albedo.jpg"
		},
		{
			"uri": "Assets/Visuals/Materials/Wood_Clean_Albedo.jpg"
		}
	],
	"materials": [
		{
			"pbrMetallicRoughness": {
				"baseColorTexture" : {
					"index" : 0,
					"texCoord" : 0
				},
				"baseColorFactor": [1, 1, 1, 1],
				"metallicFactor": 0,
				"roughnessFactor": 1
			},
			"emissiveFactor": [0, 0, 0],
			"doubleSided": false,
			"name": "Tree_Wood_Mat"
		},
		{
			"pbrMetallicRoughness": {
				"baseColorTexture" : {
					"index" : 1,
					"texCoord" : 0
				},
				"baseColorFactor": [1, 1, 1, 1],
				"metallicFactor": 0,
				"roughnessFactor": 1
			},
			"emissiveFactor": [0, 0, 0],
			"doubleSided": false,
			"name": "Signal_01_Mat"
		},
		{
			"pbrMetallicRoughness": {
				"baseColorTexture" : {
					"index" : 2,
					"texCoord" : 0
				},
				"baseColorFactor": [1, 1, 1, 1],
				"metallicFactor": 0,
				"roughnessFactor": 1
			},
			"emissiveFactor": [0, 0, 0],
			"doubleSided": false,
			"name": "Wood_Clean_Mat"
		},
		{
			"pbrMetallicRoughness": {
				"baseColorFactor": [0, 0, 0, 1],
				"metallicFactor": 0,
				"roughnessFactor": 1
			},
			"emissiveFactor": [0, 0, 0],
			"doubleSided": false,
			"name": "Black_Outline_Mat"
		},
		{
			"pbrMetallicRoughness": {
				"baseColorFactor": [0.05724907, 1, 0, 1],
				"metallicFactor": 0,
				"roughnessFactor": 0.5
			},
			"emissiveFactor": [0, 0, 0],
			"doubleSided": false,
			"name": "_collider_Mat"
		}
	],
	"meshes": [
		{
			"name": "mesh_Skydoor_01_13290Skydoor_01",
			"primitives": [
				{
					"attributes": {
						"POSITION": 0,
						"NORMAL": 1,
						"TEXCOORD_0": 2,
						"TANGENT": 3
					},
					"indices": 4,
					"material": 0,
					"mode": 4
				},
				{
					"attributes": {
						"POSITION": 0,
						"NORMAL": 1,
						"TEXCOORD_0": 2,
						"TANGENT": 3
					},
					"indices": 5,
					"material": 1,
					"mode": 4
				},
				{
					"attributes": {
						"POSITION": 0,
						"NORMAL": 1,
						"TEXCOORD_0": 2,
						"TANGENT": 3
					},
					"indices": 6,
					"material": 2,
					"mode": 4
				},
				{
					"attributes": {
						"POSITION": 0,
						"NORMAL": 1,
						"TEXCOORD_0": 2,
						"TANGENT": 3
					},
					"indices": 7,
					"material": 3,
					"mode": 4
				}
			]
		},
		{
			"name": "mesh_Skydoor_01_collider_13292Skydoor_01_collider",
			"primitives": [
				{
					"attributes": {
						"POSITION": 8,
						"NORMAL": 9,
						"TEXCOORD_0": 10,
						"TANGENT": 11
					},
					"indices": 12,
					"material": 4,
					"mode": 4
				}
			]
		}
	],
	"nodes": [
		{
			"name": "UnityGlTF_root",
			"children": [
				1
			]
		},
		{
			"name": "node_Skydoor_01",
			"mesh": 0,
			"children": [
				2
			],
			"matrix": [1, 0, 0, 0, 0, 1, 0, 0, 0, 0, 1, 0, 0, 0, 0, 1]
		},
		{
			"name": "node_Skydoor_01_collider",
			"mesh": 1
		}
	],
	"samplers": [
		{
			"magFilter": 9729,
			"minFilter": 9985,
			"wrapS": 10497,
			"wrapT": 10497
		}
	],
	"scenes": [
		{
			"name":"defaultScene",
			"nodes": [
				0
			]
		}
	],
	"scene": 0,
	"textures": [
		{
			"sampler": 0,
			"source": 0
		},
		{
			"sampler": 0,
			"source": 1
		},
		{
			"sampler": 0,
			"source": 2
		}
	]
}