{
	"asset": {
		"generator": "Unity 2018.3.6f1",
		"extras": {
			"exporterVersion" : "2.2.1"
		},
		"version": "2.0"
	},
	"accessors": [
		{
			"bufferView": 2,
			"byteOffset": 0,
			"componentType": 5126,
			"count": 56,
			"max": [ 437.0018, 148.6836, 217.1368 ],
			"min": [ -437.7722, -10.88142, -236.3117 ],
			"type": "VEC3"
		},
		{
			"bufferView": 2,
			"byteOffset": 672,
			"componentType": 5126,
			"count": 56,
			"max": [ 0.6799697, 0.9888058, 0.6842394 ],
			"min": [ -0.7839428, 0.218693, -0.9715688 ],
			"type": "VEC3"
		},
		{
			"bufferView": 1,
			"byteOffset": 0,
			"componentType": 5126,
			"count": 56,
			"max": [ 0.9587439, 1.19473 ],
			"min": [ -0.865445, -0.2715263 ],
			"type": "VEC2"
		},
		{
			"bufferView": 3,
			"byteOffset": 0,
			"componentType": 5126,
			"count": 56,
			"max": [ 0.9994649, 0.1507544, 0.9971835, 1 ],
			"min": [ -0.9978712, -0.975185, -0.9863567, -1 ],
			"type": "VEC4"
		},
		{
			"bufferView": 0,
			"byteOffset": 0,
			"componentType": 5123,
			"count": 48,
			"max": [ 23 ],
			"min": [ 0 ],
			"type": "SCALAR"
		},
		{
			"bufferView": 0,
			"byteOffset": 96,
			"componentType": 5123,
			"count": 60,
			"max": [ 41 ],
			"min": [ 24 ],
			"type": "SCALAR"
		},
		{
			"bufferView": 0,
			"byteOffset": 216,
			"componentType": 5123,
			"count": 48,
			"max": [ 55 ],
			"min": [ 42 ],
			"type": "SCALAR"
		}
	],
	"buffers": [
		{
			"byteLength": 3000,
			"uri": "entity42180.bin"
		}
	],
	"bufferViews": [
		{
			"buffer": 0,
			"byteLength": 312,
			"target": 34963,
			"byteOffset": 2688
		},
		{
			"buffer": 0,
			"byteLength": 448,
			"target": 34962,
			"byteStride": 8,
			"byteOffset": 0
		},
		{
			"buffer": 0,
			"byteLength": 1344,
			"target": 34962,
			"byteStride": 12,
			"byteOffset": 448
		},
		{
			"buffer": 0,
			"byteLength": 896,
			"target": 34962,
			"byteStride": 16,
			"byteOffset": 1792
		}
	],
	"images": [
		{
			"uri": "Assets/Visuals/Textures/Texture_grass_transparent_01.png"
		},
		{
			"uri": "Assets/Visuals/Textures/texture_rock_mounts_01.jpg"
		},
		{
			"uri": "Assets/Visuals/Textures/texture_grass_base_01.jpg"
		}
	],
	"materials": [
		{
			"pbrMetallicRoughness": {
				"baseColorTexture" : {
					"index" : 0,
					"texCoord" : 0
				},
				"baseColorFactor": [1, 1, 1, 1],
				"metallicFactor": 0,
				"roughnessFactor": 1
			},
			"alphaMode": "BLEND",
			"alphaCutoff": 0.5,
			"emissiveFactor": [0, 0, 0],
			"doubleSided": false,
			"name": "mat05"
		},
		{
			"pbrMetallicRoughness": {
				"baseColorTexture" : {
					"index" : 1,
					"texCoord" : 0
				},
				"baseColorFactor": [1, 1, 1, 1],
				"metallicFactor": 0,
				"roughnessFactor": 1
			},
			"emissiveFactor": [0, 0, 0],
			"doubleSided": false,
			"name": "mat08"
		},
		{
			"pbrMetallicRoughness": {
				"baseColorTexture" : {
					"index" : 2,
					"texCoord" : 0
				},
				"baseColorFactor": [1, 1, 1, 1],
				"metallicFactor": 0,
				"roughnessFactor": 1
			},
			"emissiveFactor": [0, 0, 0],
			"doubleSided": false,
			"name": "mat04"
		}
	],
	"meshes": [
		{
			"name": "mesh_mesh_small_mount_01_10436mesh_small_mount_01",
			"primitives": [
				{
					"attributes": {
						"POSITION": 0,
						"NORMAL": 1,
						"TEXCOORD_0": 2,
						"TANGENT": 3
					},
					"indices": 4,
					"material": 0,
					"mode": 4
				},
				{
					"attributes": {
						"POSITION": 0,
						"NORMAL": 1,
						"TEXCOORD_0": 2,
						"TANGENT": 3
					},
					"indices": 5,
					"material": 1,
					"mode": 4
				},
				{
					"attributes": {
						"POSITION": 0,
						"NORMAL": 1,
						"TEXCOORD_0": 2,
						"TANGENT": 3
					},
					"indices": 6,
					"material": 2,
					"mode": 4
				}
			]
		}
	],
	"nodes": [
		{
			"name": "UnityGlTF_root",
			"children": [
				1
			]
		},
		{
			"name": "node_mesh_small_mount_01",
			"mesh": 0,
			"matrix": [1, 0, 0, 0, 0, 1, 0, 0, 0, 0, 1, 0, 0, 0, 0, 1]
		}
	],
	"samplers": [
		{
			"magFilter": 9729,
			"minFilter": 9985,
			"wrapS": 10497,
			"wrapT": 10497
		}
	],
	"scenes": [
		{
			"name":"defaultScene",
			"nodes": [
				0
			]
		}
	],
	"scene": 0,
	"textures": [
		{
			"sampler": 0,
			"source": 0
		},
		{
			"sampler": 0,
			"source": 1
		},
		{
			"sampler": 0,
			"source": 2
		}
	]
}