{
	"asset": {
		"generator": "Unity 2018.3.6f1",
		"extras": {
			"exporterVersion" : "2.2.1"
		},
		"version": "2.0"
	},
	"accessors": [
		{
			"bufferView": 2,
			"byteOffset": 0,
			"componentType": 5126,
			"count": 1120,
			"max": [ 644.1659, 1158.099, 676.3857 ],
			"min": [ -635.2592, -25.93108, -726.7123 ],
			"type": "VEC3"
		},
		{
			"bufferView": 2,
			"byteOffset": 13440,
			"componentType": 5126,
			"count": 1120,
			"max": [ 0.9989473, 0.9995778, 0.999965 ],
			"min": [ -0.9999548, -0.9989659, -0.999965 ],
			"type": "VEC3"
		},
		{
			"bufferView": 1,
			"byteOffset": 0,
			"componentType": 5126,
			"count": 1120,
			"max": [ 1.829553, 1.924044 ],
			"min": [ -1.430612, -1.011589 ],
			"type": "VEC2"
		},
		{
			"bufferView": 3,
			"byteOffset": 0,
			"componentType": 5126,
			"count": 1120,
			"max": [ 0.9998283, 0.9987148, 0.9999076, 1 ],
			"min": [ -0.99978, -0.9979491, -0.9996455, -1 ],
			"type": "VEC4"
		},
		{
			"bufferView": 0,
			"byteOffset": 0,
			"componentType": 5123,
			"count": 888,
			"max": [ 280 ],
			"min": [ 0 ],
			"type": "SCALAR"
		},
		{
			"bufferView": 0,
			"byteOffset": 1776,
			"componentType": 5123,
			"count": 894,
			"max": [ 562 ],
			"min": [ 281 ],
			"type": "SCALAR"
		},
		{
			"bufferView": 0,
			"byteOffset": 3564,
			"componentType": 5123,
			"count": 3024,
			"max": [ 1119 ],
			"min": [ 563 ],
			"type": "SCALAR"
		}
	],
	"buffers": [
		{
			"byteLength": 63372,
			"uri": "entity42190.bin"
		}
	],
	"bufferViews": [
		{
			"buffer": 0,
			"byteLength": 9612,
			"target": 34963,
			"byteOffset": 53760
		},
		{
			"buffer": 0,
			"byteLength": 8960,
			"target": 34962,
			"byteStride": 8,
			"byteOffset": 0
		},
		{
			"buffer": 0,
			"byteLength": 26880,
			"target": 34962,
			"byteStride": 12,
			"byteOffset": 8960
		},
		{
			"buffer": 0,
			"byteLength": 17920,
			"target": 34962,
			"byteStride": 16,
			"byteOffset": 35840
		}
	],
	"images": [
		{
			"uri": "Assets/Visuals/Textures/texture_spiral_leaves_01.jpg"
		},
		{
			"uri": "Assets/Visuals/Textures/texture_bark_01.jpg"
		}
	],
	"materials": [
		{
			"pbrMetallicRoughness": {
				"baseColorFactor": [0.1708239, 0.1518166, 0.1985294, 1],
				"metallicFactor": 1,
				"roughnessFactor": 1
			},
			"emissiveFactor": [0, 0, 0],
			"doubleSided": false,
			"name": "outline"
		},
		{
			"pbrMetallicRoughness": {
				"baseColorTexture" : {
					"index" : 0,
					"texCoord" : 0
				},
				"baseColorFactor": [1, 1, 1, 1],
				"metallicFactor": 0,
				"roughnessFactor": 1
			},
			"emissiveFactor": [0, 0, 0],
			"doubleSided": false,
			"name": "mat11"
		},
		{
			"pbrMetallicRoughness": {
				"baseColorTexture" : {
					"index" : 1,
					"texCoord" : 0
				},
				"baseColorFactor": [1, 1, 1, 1],
				"metallicFactor": 0,
				"roughnessFactor": 1
			},
			"emissiveFactor": [0, 0, 0],
			"doubleSided": false,
			"name": "mat01"
		}
	],
	"meshes": [
		{
			"name": "mesh_mesh_tree_02_10420mesh_tree_02",
			"primitives": [
				{
					"attributes": {
						"POSITION": 0,
						"NORMAL": 1,
						"TEXCOORD_0": 2,
						"TANGENT": 3
					},
					"indices": 4,
					"material": 0,
					"mode": 4
				},
				{
					"attributes": {
						"POSITION": 0,
						"NORMAL": 1,
						"TEXCOORD_0": 2,
						"TANGENT": 3
					},
					"indices": 5,
					"material": 1,
					"mode": 4
				},
				{
					"attributes": {
						"POSITION": 0,
						"NORMAL": 1,
						"TEXCOORD_0": 2,
						"TANGENT": 3
					},
					"indices": 6,
					"material": 2,
					"mode": 4
				}
			]
		}
	],
	"nodes": [
		{
			"name": "UnityGlTF_root",
			"children": [
				1
			]
		},
		{
			"name": "node_mesh_tree_02",
			"mesh": 0,
			"matrix": [1, 0, 0, 0, 0, 1, 0, 0, 0, 0, 1, 0, 0, 0, 0, 1]
		}
	],
	"samplers": [
		{
			"magFilter": 9729,
			"minFilter": 9985,
			"wrapS": 10497,
			"wrapT": 10497
		}
	],
	"scenes": [
		{
			"name":"defaultScene",
			"nodes": [
				0
			]
		}
	],
	"scene": 0,
	"textures": [
		{
			"sampler": 0,
			"source": 0
		},
		{
			"sampler": 0,
			"source": 1
		}
	]
}