{
	"asset": {
		"generator": "Unity 2018.3.6f1",
		"extras": {
			"exporterVersion" : "2.2.1"
		},
		"version": "2.0"
	},
	"accessors": [
		{
			"bufferView": 2,
			"byteOffset": 0,
			"componentType": 5126,
			"count": 112,
			"max": [ 437.387, 232.8987, 226.7242 ],
			"min": [ -437.387, -10.88143, -226.7242 ],
			"type": "VEC3"
		},
		{
			"bufferView": 2,
			"byteOffset": 1344,
			"componentType": 5126,
			"count": 112,
			"max": [ 0.8426003, 0.9888058, 0.8499303 ],
			"min": [ -0.8567445, 0.1277238, -0.9875156 ],
			"type": "VEC3"
		},
		{
			"bufferView": 1,
			"byteOffset": 0,
			"componentType": 5126,
			"count": 112,
			"max": [ 0.9587439, 1.19473 ],
			"min": [ -0.865445, -0.2715263 ],
			"type": "VEC2"
		},
		{
			"bufferView": 3,
			"byteOffset": 0,
			"componentType": 5126,
			"count": 112,
			"max": [ 0.9994649, 0.2500849, 0.9998423, 1 ],
			"min": [ -0.9978712, -0.9915167, -0.9863567, -1 ],
			"type": "VEC4"
		},
		{
			"bufferView": 0,
			"byteOffset": 0,
			"componentType": 5123,
			"count": 96,
			"max": [ 47 ],
			"min": [ 0 ],
			"type": "SCALAR"
		},
		{
			"bufferView": 0,
			"byteOffset": 192,
			"componentType": 5123,
			"count": 120,
			"max": [ 83 ],
			"min": [ 48 ],
			"type": "SCALAR"
		},
		{
			"bufferView": 0,
			"byteOffset": 432,
			"componentType": 5123,
			"count": 96,
			"max": [ 111 ],
			"min": [ 84 ],
			"type": "SCALAR"
		}
	],
	"buffers": [
		{
			"byteLength": 6000,
			"uri": "entity43064.bin"
		}
	],
	"bufferViews": [
		{
			"buffer": 0,
			"byteLength": 624,
			"target": 34963,
			"byteOffset": 5376
		},
		{
			"buffer": 0,
			"byteLength": 896,
			"target": 34962,
			"byteStride": 8,
			"byteOffset": 0
		},
		{
			"buffer": 0,
			"byteLength": 2688,
			"target": 34962,
			"byteStride": 12,
			"byteOffset": 896
		},
		{
			"buffer": 0,
			"byteLength": 1792,
			"target": 34962,
			"byteStride": 16,
			"byteOffset": 3584
		}
	],
	"images": [
		{
			"uri": "Assets/Visuals/Textures/Texture_grass_transparent_01.png"
		},
		{
			"uri": "Assets/Visuals/Textures/texture_rock_mounts_01.jpg"
		},
		{
			"uri": "Assets/Visuals/Textures/texture_grass_base_01.jpg"
		}
	],
	"materials": [
		{
			"pbrMetallicRoughness": {
				"baseColorTexture" : {
					"index" : 0,
					"texCoord" : 0
				},
				"baseColorFactor": [1, 1, 1, 1],
				"metallicFactor": 0,
				"roughnessFactor": 1
			},
			"alphaMode": "BLEND",
			"alphaCutoff": 0.5,
			"emissiveFactor": [0, 0, 0],
			"doubleSided": false,
			"name": "mat05"
		},
		{
			"pbrMetallicRoughness": {
				"baseColorTexture" : {
					"index" : 1,
					"texCoord" : 0
				},
				"baseColorFactor": [1, 1, 1, 1],
				"metallicFactor": 0,
				"roughnessFactor": 1
			},
			"emissiveFactor": [0, 0, 0],
			"doubleSided": false,
			"name": "mat08"
		},
		{
			"pbrMetallicRoughness": {
				"baseColorTexture" : {
					"index" : 2,
					"texCoord" : 0
				},
				"baseColorFactor": [1, 1, 1, 1],
				"metallicFactor": 0,
				"roughnessFactor": 1
			},
			"emissiveFactor": [0, 0, 0],
			"doubleSided": false,
			"name": "mat04"
		}
	],
	"meshes": [
		{
			"name": "mesh_mesh_small_mount_02_10384mesh_small_mount_021",
			"primitives": [
				{
					"attributes": {
						"POSITION": 0,
						"NORMAL": 1,
						"TEXCOORD_0": 2,
						"TANGENT": 3
					},
					"indices": 4,
					"material": 0,
					"mode": 4
				},
				{
					"attributes": {
						"POSITION": 0,
						"NORMAL": 1,
						"TEXCOORD_0": 2,
						"TANGENT": 3
					},
					"indices": 5,
					"material": 1,
					"mode": 4
				},
				{
					"attributes": {
						"POSITION": 0,
						"NORMAL": 1,
						"TEXCOORD_0": 2,
						"TANGENT": 3
					},
					"indices": 6,
					"material": 2,
					"mode": 4
				}
			]
		}
	],
	"nodes": [
		{
			"name": "UnityGlTF_root",
			"children": [
				1
			]
		},
		{
			"name": "node_mesh_small_mount_021",
			"mesh": 0,
			"matrix": [1, 0, 0, 0, 0, 1, 0, 0, 0, 0, 1, 0, 0, 0, 0, 1]
		}
	],
	"samplers": [
		{
			"magFilter": 9729,
			"minFilter": 9985,
			"wrapS": 10497,
			"wrapT": 10497
		}
	],
	"scenes": [
		{
			"name":"defaultScene",
			"nodes": [
				0
			]
		}
	],
	"scene": 0,
	"textures": [
		{
			"sampler": 0,
			"source": 0
		},
		{
			"sampler": 0,
			"source": 1
		},
		{
			"sampler": 0,
			"source": 2
		}
	]
}