{
	"asset": {
		"generator": "Unity 2018.3.6f1",
		"extras": {
			"exporterVersion" : "2.2.1"
		},
		"version": "2.0"
	},
	"accessors": [
		{
			"bufferView": 2,
			"byteOffset": 0,
			"componentType": 5126,
			"count": 6428,
			"max": [ 71.60841, 121.2489, 82.04111 ],
			"min": [ -79.25476, -10.78847, -64.03822 ],
			"type": "VEC3"
		},
		{
			"bufferView": 2,
			"byteOffset": 77136,
			"componentType": 5126,
			"count": 6428,
			"max": [ 0.9996092, 0.9999981, 0.9999822 ],
			"min": [ -0.9996498, -0.9999981, -0.9999839 ],
			"type": "VEC3"
		},
		{
			"bufferView": 1,
			"byteOffset": 0,
			"componentType": 5126,
			"count": 6428,
			"max": [ 1.929129, 1.974647 ],
			"min": [ -0.9231817, -0.9746463 ],
			"type": "VEC2"
		},
		{
			"bufferView": 3,
			"byteOffset": 0,
			"componentType": 5126,
			"count": 6428,
			"max": [ 0.8601284, 0.9999999, 0.9999993, 1 ],
			"min": [ -0.9999933, -0.9987162, -1, -1 ],
			"type": "VEC4"
		},
		{
			"bufferView": 0,
			"byteOffset": 0,
			"componentType": 5123,
			"count": 3204,
			"max": [ 3005 ],
			"min": [ 0 ],
			"type": "SCALAR"
		},
		{
			"bufferView": 0,
			"byteOffset": 6408,
			"componentType": 5123,
			"count": 216,
			"max": [ 3210 ],
			"min": [ 3006 ],
			"type": "SCALAR"
		},
		{
			"bufferView": 0,
			"byteOffset": 6840,
			"componentType": 5123,
			"count": 3420,
			"max": [ 6427 ],
			"min": [ 3211 ],
			"type": "SCALAR"
		}
	],
	"buffers": [
		{
			"byteLength": 322224,
			"uri": "entity42908.bin"
		}
	],
	"bufferViews": [
		{
			"buffer": 0,
			"byteLength": 13680,
			"target": 34963,
			"byteOffset": 308544
		},
		{
			"buffer": 0,
			"byteLength": 51424,
			"target": 34962,
			"byteStride": 8,
			"byteOffset": 0
		},
		{
			"buffer": 0,
			"byteLength": 154272,
			"target": 34962,
			"byteStride": 12,
			"byteOffset": 51424
		},
		{
			"buffer": 0,
			"byteLength": 102848,
			"target": 34962,
			"byteStride": 16,
			"byteOffset": 205696
		}
	],
	"images": [
		{
			"uri": "Assets/Visuals/Textures/texture_bark_01.jpg"
		},
		{
			"uri": "Assets/Visuals/Textures/texture_rock_mounts_01.jpg"
		}
	],
	"materials": [
		{
			"pbrMetallicRoughness": {
				"baseColorTexture" : {
					"index" : 0,
					"texCoord" : 0
				},
				"baseColorFactor": [1, 1, 1, 1],
				"metallicFactor": 0,
				"roughnessFactor": 1
			},
			"emissiveFactor": [0, 0, 0],
			"doubleSided": false,
			"name": "mat01"
		},
		{
			"pbrMetallicRoughness": {
				"baseColorTexture" : {
					"index" : 1,
					"texCoord" : 0
				},
				"baseColorFactor": [1, 1, 1, 1],
				"metallicFactor": 0,
				"roughnessFactor": 1
			},
			"emissiveFactor": [0, 0, 0],
			"doubleSided": false,
			"name": "mat08"
		},
		{
			"pbrMetallicRoughness": {
				"baseColorFactor": [0.1708239, 0.1518166, 0.1985294, 1],
				"metallicFactor": 1,
				"roughnessFactor": 1
			},
			"emissiveFactor": [0, 0, 0],
			"doubleSided": false,
			"name": "outline"
		}
	],
	"meshes": [
		{
			"name": "mesh_mesh_trunk_01_10942mesh_trunk_01",
			"primitives": [
				{
					"attributes": {
						"POSITION": 0,
						"NORMAL": 1,
						"TEXCOORD_0": 2,
						"TANGENT": 3
					},
					"indices": 4,
					"material": 0,
					"mode": 4
				},
				{
					"attributes": {
						"POSITION": 0,
						"NORMAL": 1,
						"TEXCOORD_0": 2,
						"TANGENT": 3
					},
					"indices": 5,
					"material": 1,
					"mode": 4
				},
				{
					"attributes": {
						"POSITION": 0,
						"NORMAL": 1,
						"TEXCOORD_0": 2,
						"TANGENT": 3
					},
					"indices": 6,
					"material": 2,
					"mode": 4
				}
			]
		}
	],
	"nodes": [
		{
			"name": "UnityGlTF_root",
			"children": [
				1
			]
		},
		{
			"name": "node_mesh_trunk_01",
			"mesh": 0,
			"matrix": [1, 0, 0, 0, 0, 1, 0, 0, 0, 0, 1, 0, 0, 0, 0, 1]
		}
	],
	"samplers": [
		{
			"magFilter": 9729,
			"minFilter": 9985,
			"wrapS": 10497,
			"wrapT": 10497
		}
	],
	"scenes": [
		{
			"name":"defaultScene",
			"nodes": [
				0
			]
		}
	],
	"scene": 0,
	"textures": [
		{
			"sampler": 0,
			"source": 0
		},
		{
			"sampler": 0,
			"source": 1
		}
	]
}