{
	"asset": {
		"generator": "Unity 2018.3.6f1",
		"extras": {
			"exporterVersion" : "2.2.1"
		},
		"version": "2.0"
	},
	"accessors": [
		{
			"bufferView": 2,
			"byteOffset": 0,
			"componentType": 5126,
			"count": 214,
			"max": [ 0.01020569, 0.8892512, 0.903127 ],
			"min": [ -4.836996, -1.396997, -0.3428069 ],
			"type": "VEC3"
		},
		{
			"bufferView": 2,
			"byteOffset": 2568,
			"componentType": 5126,
			"count": 214,
			"max": [ 0.9746776, 0.9922767, 0.9996846 ],
			"min": [ -0.9154551, -0.9893579, -0.9995017 ],
			"type": "VEC3"
		},
		{
			"bufferView": 1,
			"byteOffset": 0,
			"componentType": 5126,
			"count": 214,
			"max": [ 0.7811979, 1.777228 ],
			"min": [ -0.6219877, -1.3763 ],
			"type": "VEC2"
		},
		{
			"bufferView": 3,
			"byteOffset": 0,
			"componentType": 5126,
			"count": 214,
			"max": [ 0.996407, 0.9882954, 0.9979925, 1 ],
			"min": [ -0.8620195, -0.988126, -0.9995887, -1 ],
			"type": "VEC4"
		},
		{
			"bufferView": 0,
			"byteOffset": 0,
			"componentType": 5123,
			"count": 948,
			"max": [ 213 ],
			"min": [ 0 ],
			"type": "SCALAR"
		},
		{
			"bufferView": 2,
			"byteOffset": 5136,
			"componentType": 5126,
			"count": 72,
			"max": [ -0.09598999, 0.8841459, 0.6492198 ],
			"min": [ -4.970577, -1.389363, -0.4814734 ],
			"type": "VEC3"
		},
		{
			"bufferView": 2,
			"byteOffset": 6000,
			"componentType": 5126,
			"count": 72,
			"max": [ 1, 0.9737785, 0.9826915 ],
			"min": [ -0.8726594, -0.9855179, -0.9900244 ],
			"type": "VEC3"
		},
		{
			"bufferView": 1,
			"byteOffset": 1712,
			"componentType": 5126,
			"count": 72,
			"max": [ 0.875, 1 ],
			"min": [ 0.125, 0 ],
			"type": "VEC2"
		},
		{
			"bufferView": 3,
			"byteOffset": 3424,
			"componentType": 5126,
			"count": 72,
			"max": [ 1, 0.2760311, 0.8252978, 1 ],
			"min": [ -0.9735976, 0, -1, 1 ],
			"type": "VEC4"
		},
		{
			"bufferView": 0,
			"byteOffset": 1896,
			"componentType": 5123,
			"count": 132,
			"max": [ 71 ],
			"min": [ 0 ],
			"type": "SCALAR"
		}
	],
	"buffers": [
		{
			"byteLength": 15888,
			"uri": "entity76618n.bin"
		}
	],
	"bufferViews": [
		{
			"buffer": 0,
			"byteLength": 2160,
			"target": 34963,
			"byteOffset": 13728
		},
		{
			"buffer": 0,
			"byteLength": 2288,
			"target": 34962,
			"byteStride": 8,
			"byteOffset": 0
		},
		{
			"buffer": 0,
			"byteLength": 6864,
			"target": 34962,
			"byteStride": 12,
			"byteOffset": 2288
		},
		{
			"buffer": 0,
			"byteLength": 4576,
			"target": 34962,
			"byteStride": 16,
			"byteOffset": 9152
		}
	],
	"images": [
		{
			"uri": "Assets/Visuals/Materials/Tree_Wood_Albedo.jpg"
		}
	],
	"materials": [
		{
			"pbrMetallicRoughness": {
				"baseColorTexture" : {
					"index" : 0,
					"texCoord" : 0
				},
				"baseColorFactor": [1, 1, 1, 1],
				"metallicFactor": 0,
				"roughnessFactor": 1
			},
			"emissiveFactor": [0, 0, 0],
			"doubleSided": false,
			"name": "Tree_Wood_Mat"
		},
		{
			"pbrMetallicRoughness": {
				"baseColorFactor": [0.05724907, 1, 0, 1],
				"metallicFactor": 0,
				"roughnessFactor": 0.5
			},
			"emissiveFactor": [0, 0, 0],
			"doubleSided": false,
			"name": "_collider_Mat"
		}
	],
	"meshes": [
		{
			"name": "mesh_Root_02_3394Root_02",
			"primitives": [
				{
					"attributes": {
						"POSITION": 0,
						"NORMAL": 1,
						"TEXCOORD_0": 2,
						"TANGENT": 3
					},
					"indices": 4,
					"material": 0,
					"mode": 4
				}
			]
		},
		{
			"name": "mesh_Root_02_collider_3396Root_02_collider",
			"primitives": [
				{
					"attributes": {
						"POSITION": 5,
						"NORMAL": 6,
						"TEXCOORD_0": 7,
						"TANGENT": 8
					},
					"indices": 9,
					"material": 1,
					"mode": 4
				}
			]
		}
	],
	"nodes": [
		{
			"name": "UnityGlTF_root",
			"children": [
				1
			]
		},
		{
			"name": "node_Root_02",
			"mesh": 0,
			"children": [
				2
			],
			"matrix": [1, 0, 0, 0, 0, 1, 0, 0, 0, 0, 1, 0, 0, 0, 0, 1]
		},
		{
			"name": "node_Root_02_collider",
			"mesh": 1
		}
	],
	"samplers": [
		{
			"magFilter": 9729,
			"minFilter": 9985,
			"wrapS": 10497,
			"wrapT": 10497
		}
	],
	"scenes": [
		{
			"name":"defaultScene",
			"nodes": [
				0
			]
		}
	],
	"scene": 0,
	"textures": [
		{
			"sampler": 0,
			"source": 0
		}
	]
}