{
	"asset": {
		"generator": "Unity 2018.3.6f1",
		"extras": {
			"exporterVersion" : "2.2.1"
		},
		"version": "2.0"
	},
	"accessors": [
		{
			"bufferView": 2,
			"byteOffset": 0,
			"componentType": 5126,
			"count": 605,
			"max": [ 0.2937662, 0.7797217, 0.2507331 ],
			"min": [ -0.1976874, -0.005221672, -0.2748596 ],
			"type": "VEC3"
		},
		{
			"bufferView": 2,
			"byteOffset": 7260,
			"componentType": 5126,
			"count": 605,
			"max": [ 1, 1, 0.9975451 ],
			"min": [ -0.9971389, -1, -0.9976507 ],
			"type": "VEC3"
		},
		{
			"bufferView": 1,
			"byteOffset": 0,
			"componentType": 5126,
			"count": 605,
			"max": [ 1, 1 ],
			"min": [ 0, 0 ],
			"type": "VEC2"
		},
		{
			"bufferView": 3,
			"byteOffset": 0,
			"componentType": 5126,
			"count": 605,
			"max": [ 0.9999046, 0.8163841, 1, 1 ],
			"min": [ -0.9988233, -0.8163841, -1, -1 ],
			"type": "VEC4"
		},
		{
			"bufferView": 0,
			"byteOffset": 0,
			"componentType": 5123,
			"count": 1440,
			"max": [ 576 ],
			"min": [ 0 ],
			"type": "SCALAR"
		},
		{
			"bufferView": 0,
			"byteOffset": 2880,
			"componentType": 5123,
			"count": 60,
			"max": [ 604 ],
			"min": [ 577 ],
			"type": "SCALAR"
		},
		{
			"bufferView": 2,
			"byteOffset": 14520,
			"componentType": 5126,
			"count": 24,
			"max": [ 0.75, 0.2773074, 0.75 ],
			"min": [ -0.75, 0, -0.75 ],
			"type": "VEC3"
		},
		{
			"bufferView": 2,
			"byteOffset": 14808,
			"componentType": 5126,
			"count": 24,
			"max": [ 0.5462369, 1, 0.5462368 ],
			"min": [ -0.5462369, -1, -0.5462368 ],
			"type": "VEC3"
		},
		{
			"bufferView": 1,
			"byteOffset": 4840,
			"componentType": 5126,
			"count": 24,
			"max": [ 0.875, 1 ],
			"min": [ 0.125, 0 ],
			"type": "VEC2"
		},
		{
			"bufferView": 3,
			"byteOffset": 9680,
			"componentType": 5126,
			"count": 24,
			"max": [ 0, 0, 1, 1 ],
			"min": [ -1, 0, -1, 1 ],
			"type": "VEC4"
		},
		{
			"bufferView": 0,
			"byteOffset": 3000,
			"componentType": 5123,
			"count": 36,
			"max": [ 23 ],
			"min": [ 0 ],
			"type": "SCALAR"
		}
	],
	"buffers": [
		{
			"byteLength": 33264,
			"uri": "entity311904.bin"
		}
	],
	"bufferViews": [
		{
			"buffer": 0,
			"byteLength": 3072,
			"target": 34963,
			"byteOffset": 30192
		},
		{
			"buffer": 0,
			"byteLength": 5032,
			"target": 34962,
			"byteStride": 8,
			"byteOffset": 0
		},
		{
			"buffer": 0,
			"byteLength": 15096,
			"target": 34962,
			"byteStride": 12,
			"byteOffset": 5032
		},
		{
			"buffer": 0,
			"byteLength": 10064,
			"target": 34962,
			"byteStride": 16,
			"byteOffset": 20128
		}
	],
	"images": [
		{
			"uri": "Assets/Visuals/Materials/Mushroom_01_Albedo.jpg"
		},
		{
			"uri": "Assets/Visuals/Materials/Flower_02_Albedo.png"
		}
	],
	"materials": [
		{
			"pbrMetallicRoughness": {
				"baseColorTexture" : {
					"index" : 0,
					"texCoord" : 0
				},
				"baseColorFactor": [1, 1, 1, 1],
				"metallicFactor": 0,
				"roughnessFactor": 1
			},
			"emissiveFactor": [0, 0, 0],
			"doubleSided": false,
			"name": "Mushroom_01_Mat"
		},
		{
			"pbrMetallicRoughness": {
				"baseColorTexture" : {
					"index" : 1,
					"texCoord" : 0
				},
				"baseColorFactor": [1, 1, 1, 1],
				"metallicFactor": 0,
				"roughnessFactor": 1
			},
			"alphaMode": "BLEND",
			"alphaCutoff": 0.5,
			"emissiveFactor": [0, 0, 0],
			"doubleSided": false,
			"name": "Flower_02_Mat"
		},
		{
			"pbrMetallicRoughness": {
				"baseColorFactor": [0.05724907, 1, 0, 1],
				"metallicFactor": 0,
				"roughnessFactor": 0.5
			},
			"emissiveFactor": [0, 0, 0],
			"doubleSided": false,
			"name": "_collider_Mat"
		}
	],
	"meshes": [
		{
			"name": "mesh_Flower_02_b_3878Flower_02_b",
			"primitives": [
				{
					"attributes": {
						"POSITION": 0,
						"NORMAL": 1,
						"TEXCOORD_0": 2,
						"TANGENT": 3
					},
					"indices": 4,
					"material": 0,
					"mode": 4
				},
				{
					"attributes": {
						"POSITION": 0,
						"NORMAL": 1,
						"TEXCOORD_0": 2,
						"TANGENT": 3
					},
					"indices": 5,
					"material": 1,
					"mode": 4
				}
			]
		},
		{
			"name": "mesh_Flower_02_b_collider_3880Flower_02_b_collider",
			"primitives": [
				{
					"attributes": {
						"POSITION": 6,
						"NORMAL": 7,
						"TEXCOORD_0": 8,
						"TANGENT": 9
					},
					"indices": 10,
					"material": 2,
					"mode": 4
				}
			]
		}
	],
	"nodes": [
		{
			"name": "UnityGlTF_root",
			"children": [
				1
			]
		},
		{
			"name": "node_Flower_02_b",
			"mesh": 0,
			"children": [
				2
			],
			"matrix": [1, 0, 0, 0, 0, 1, 0, 0, 0, 0, 1, 0, 0, 0, 0, 1]
		},
		{
			"name": "node_Flower_02_b_collider",
			"mesh": 1,
			"scale": [ 0.3973839, 1, 0.3973839]
		}
	],
	"samplers": [
		{
			"magFilter": 9729,
			"minFilter": 9985,
			"wrapS": 10497,
			"wrapT": 10497
		}
	],
	"scenes": [
		{
			"name":"defaultScene",
			"nodes": [
				0
			]
		}
	],
	"scene": 0,
	"textures": [
		{
			"sampler": 0,
			"source": 0
		},
		{
			"sampler": 0,
			"source": 1
		}
	]
}