{
	"asset": {
		"generator": "Unity 2018.3.6f1",
		"extras": {
			"exporterVersion" : "2.2.1"
		},
		"version": "2.0"
	},
	"accessors": [
		{
			"bufferView": 2,
			"byteOffset": 0,
			"componentType": 5126,
			"count": 510,
			"max": [ 3.273882, 4.164099, 2.397212 ],
			"min": [ -3.311123, -0.2701579, -2.514744 ],
			"type": "VEC3"
		},
		{
			"bufferView": 2,
			"byteOffset": 6120,
			"componentType": 5126,
			"count": 510,
			"max": [ 0.9953521, 0.9982775, 0.9986834 ],
			"min": [ -0.9955099, -0.9983838, -0.9986635 ],
			"type": "VEC3"
		},
		{
			"bufferView": 1,
			"byteOffset": 0,
			"componentType": 5126,
			"count": 510,
			"max": [ 0.9471899, 1 ],
			"min": [ 0, 0 ],
			"type": "VEC2"
		},
		{
			"bufferView": 3,
			"byteOffset": 0,
			"componentType": 5126,
			"count": 510,
			"max": [ 0.9889286, 0.9912315, 0.991952, 1 ],
			"min": [ -0.9996985, -0.9892647, -0.9947354, -1 ],
			"type": "VEC4"
		},
		{
			"bufferView": 0,
			"byteOffset": 0,
			"componentType": 5123,
			"count": 912,
			"max": [ 254 ],
			"min": [ 0 ],
			"type": "SCALAR"
		},
		{
			"bufferView": 0,
			"byteOffset": 1824,
			"componentType": 5123,
			"count": 912,
			"max": [ 509 ],
			"min": [ 255 ],
			"type": "SCALAR"
		},
		{
			"bufferView": 2,
			"byteOffset": 12240,
			"componentType": 5126,
			"count": 120,
			"max": [ 3.264898, 3.990123, 1.714056 ],
			"min": [ -3.556387, -1.525879E-07, -2.431198 ],
			"type": "VEC3"
		},
		{
			"bufferView": 2,
			"byteOffset": 13680,
			"componentType": 5126,
			"count": 120,
			"max": [ 1, 1, 0.9862235 ],
			"min": [ -1, -1, -0.9938413 ],
			"type": "VEC3"
		},
		{
			"bufferView": 1,
			"byteOffset": 4080,
			"componentType": 5126,
			"count": 120,
			"max": [ 0.875, 1 ],
			"min": [ 0.125, 0 ],
			"type": "VEC2"
		},
		{
			"bufferView": 3,
			"byteOffset": 8160,
			"componentType": 5126,
			"count": 120,
			"max": [ 1, 0, 1, 1 ],
			"min": [ -0.9930906, 0, -1, 1 ],
			"type": "VEC4"
		},
		{
			"bufferView": 0,
			"byteOffset": 3648,
			"componentType": 5123,
			"count": 180,
			"max": [ 119 ],
			"min": [ 0 ],
			"type": "SCALAR"
		}
	],
	"buffers": [
		{
			"byteLength": 34248,
			"uri": "entity310126.bin"
		}
	],
	"bufferViews": [
		{
			"buffer": 0,
			"byteLength": 4008,
			"target": 34963,
			"byteOffset": 30240
		},
		{
			"buffer": 0,
			"byteLength": 5040,
			"target": 34962,
			"byteStride": 8,
			"byteOffset": 0
		},
		{
			"buffer": 0,
			"byteLength": 15120,
			"target": 34962,
			"byteStride": 12,
			"byteOffset": 5040
		},
		{
			"buffer": 0,
			"byteLength": 10080,
			"target": 34962,
			"byteStride": 16,
			"byteOffset": 20160
		}
	],
	"images": [
		{
			"uri": "Assets/Visuals/Materials/Rock_02_Albedo.jpg"
		}
	],
	"materials": [
		{
			"pbrMetallicRoughness": {
				"baseColorFactor": [0, 0, 0, 1],
				"metallicFactor": 0,
				"roughnessFactor": 1
			},
			"emissiveFactor": [0, 0, 0],
			"doubleSided": false,
			"name": "Black_Outline_Mat"
		},
		{
			"pbrMetallicRoughness": {
				"baseColorTexture" : {
					"index" : 0,
					"texCoord" : 0
				},
				"baseColorFactor": [1, 1, 1, 1],
				"metallicFactor": 0,
				"roughnessFactor": 1
			},
			"emissiveFactor": [0, 0, 0],
			"doubleSided": false,
			"name": "Rock_02_Mat"
		},
		{
			"pbrMetallicRoughness": {
				"baseColorFactor": [0.05724907, 1, 0, 1],
				"metallicFactor": 0,
				"roughnessFactor": 0.5
			},
			"emissiveFactor": [0, 0, 0],
			"doubleSided": false,
			"name": "_collider_Mat"
		}
	],
	"meshes": [
		{
			"name": "mesh_Rock_03_4930Rock_034",
			"primitives": [
				{
					"attributes": {
						"POSITION": 0,
						"NORMAL": 1,
						"TEXCOORD_0": 2,
						"TANGENT": 3
					},
					"indices": 4,
					"material": 0,
					"mode": 4
				},
				{
					"attributes": {
						"POSITION": 0,
						"NORMAL": 1,
						"TEXCOORD_0": 2,
						"TANGENT": 3
					},
					"indices": 5,
					"material": 1,
					"mode": 4
				}
			]
		},
		{
			"name": "mesh_Rock_03_collider_4932Rock_03_collider",
			"primitives": [
				{
					"attributes": {
						"POSITION": 6,
						"NORMAL": 7,
						"TEXCOORD_0": 8,
						"TANGENT": 9
					},
					"indices": 10,
					"material": 2,
					"mode": 4
				}
			]
		}
	],
	"nodes": [
		{
			"name": "UnityGlTF_root",
			"children": [
				1
			]
		},
		{
			"name": "node_Rock_034",
			"mesh": 0,
			"children": [
				2
			],
			"matrix": [1, 0, 0, 0, 0, 1, 0, 0, 0, 0, 1, 0, 0, 0, 0, 1]
		},
		{
			"name": "node_Rock_03_collider",
			"mesh": 1
		}
	],
	"samplers": [
		{
			"magFilter": 9729,
			"minFilter": 9985,
			"wrapS": 10497,
			"wrapT": 10497
		}
	],
	"scenes": [
		{
			"name":"defaultScene",
			"nodes": [
				0
			]
		}
	],
	"scene": 0,
	"textures": [
		{
			"sampler": 0,
			"source": 0
		}
	]
}