{
	"asset": {
		"generator": "Unity 2018.3.6f1",
		"extras": {
			"exporterVersion" : "2.2.1"
		},
		"version": "2.0"
	},
	"accessors": [
		{
			"bufferView": 2,
			"byteOffset": 0,
			"componentType": 5126,
			"count": 420,
			"max": [ 1.639518, 1.225264, 0.534779 ],
			"min": [ -1.61591, 0.006439052, -0.6075736 ],
			"type": "VEC3"
		},
		{
			"bufferView": 2,
			"byteOffset": 5040,
			"componentType": 5126,
			"count": 420,
			"max": [ 0.9995521, 0.999952, 0.9993666 ],
			"min": [ -0.9992296, -1, -1 ],
			"type": "VEC3"
		},
		{
			"bufferView": 1,
			"byteOffset": 0,
			"componentType": 5126,
			"count": 420,
			"max": [ 2.147611, 2.445824 ],
			"min": [ -1.438312, -1.429941 ],
			"type": "VEC2"
		},
		{
			"bufferView": 3,
			"byteOffset": 0,
			"componentType": 5126,
			"count": 420,
			"max": [ 0.6504554, 0.999822, 0.9999545, 1 ],
			"min": [ -1, -0.9998492, -0.9941078, -1 ],
			"type": "VEC4"
		},
		{
			"bufferView": 0,
			"byteOffset": 0,
			"componentType": 5123,
			"count": 168,
			"max": [ 125 ],
			"min": [ 0 ],
			"type": "SCALAR"
		},
		{
			"bufferView": 0,
			"byteOffset": 336,
			"componentType": 5123,
			"count": 402,
			"max": [ 419 ],
			"min": [ 126 ],
			"type": "SCALAR"
		},
		{
			"bufferView": 2,
			"byteOffset": 10080,
			"componentType": 5126,
			"count": 32,
			"max": [ 1.583843, 1.216264, 0.5782298 ],
			"min": [ -1.583843, 0, -0.5981348 ],
			"type": "VEC3"
		},
		{
			"bufferView": 2,
			"byteOffset": 10464,
			"componentType": 5126,
			"count": 32,
			"max": [ 0.9998908, 0.9999859, 0.9998695 ],
			"min": [ -0.9998908, -1, -0.999902 ],
			"type": "VEC3"
		},
		{
			"bufferView": 1,
			"byteOffset": 3360,
			"componentType": 5126,
			"count": 32,
			"max": [ 0.875, 1 ],
			"min": [ 0.125, 0 ],
			"type": "VEC2"
		},
		{
			"bufferView": 3,
			"byteOffset": 6720,
			"componentType": 5126,
			"count": 32,
			"max": [ 0.01477936, 0.1246071, 0.9998908, 1 ],
			"min": [ -0.999902, -0.1247548, -0.9998908, 1 ],
			"type": "VEC4"
		},
		{
			"bufferView": 0,
			"byteOffset": 1140,
			"componentType": 5123,
			"count": 60,
			"max": [ 31 ],
			"min": [ 0 ],
			"type": "SCALAR"
		}
	],
	"buffers": [
		{
			"byteLength": 22956,
			"uri": "entity312866.bin"
		}
	],
	"bufferViews": [
		{
			"buffer": 0,
			"byteLength": 1260,
			"target": 34963,
			"byteOffset": 21696
		},
		{
			"buffer": 0,
			"byteLength": 3616,
			"target": 34962,
			"byteStride": 8,
			"byteOffset": 0
		},
		{
			"buffer": 0,
			"byteLength": 10848,
			"target": 34962,
			"byteStride": 12,
			"byteOffset": 3616
		},
		{
			"buffer": 0,
			"byteLength": 7232,
			"target": 34962,
			"byteStride": 16,
			"byteOffset": 14464
		}
	],
	"images": [
		{
			"uri": "Assets/Visuals/Materials/Rock_03_Albedo.jpg"
		}
	],
	"materials": [
		{
			"pbrMetallicRoughness": {
				"baseColorFactor": [0, 0, 0, 1],
				"metallicFactor": 0,
				"roughnessFactor": 1
			},
			"emissiveFactor": [0, 0, 0],
			"doubleSided": false,
			"name": "Black_Outline_Mat"
		},
		{
			"pbrMetallicRoughness": {
				"baseColorTexture" : {
					"index" : 0,
					"texCoord" : 0
				},
				"baseColorFactor": [1, 1, 1, 1],
				"metallicFactor": 0,
				"roughnessFactor": 1
			},
			"emissiveFactor": [0, 0, 0],
			"doubleSided": false,
			"name": "Rock_03_Mat"
		},
		{
			"pbrMetallicRoughness": {
				"baseColorFactor": [0.05724907, 1, 0, 1],
				"metallicFactor": 0,
				"roughnessFactor": 0.5
			},
			"emissiveFactor": [0, 0, 0],
			"doubleSided": false,
			"name": "_collider_Mat"
		}
	],
	"meshes": [
		{
			"name": "mesh_Str_Ruins_05_5842Str_Ruins_055",
			"primitives": [
				{
					"attributes": {
						"POSITION": 0,
						"NORMAL": 1,
						"TEXCOORD_0": 2,
						"TANGENT": 3
					},
					"indices": 4,
					"material": 0,
					"mode": 4
				},
				{
					"attributes": {
						"POSITION": 0,
						"NORMAL": 1,
						"TEXCOORD_0": 2,
						"TANGENT": 3
					},
					"indices": 5,
					"material": 1,
					"mode": 4
				}
			]
		},
		{
			"name": "mesh_Str_Ruins_05_collider_5844Str_Ruins_05_collider",
			"primitives": [
				{
					"attributes": {
						"POSITION": 6,
						"NORMAL": 7,
						"TEXCOORD_0": 8,
						"TANGENT": 9
					},
					"indices": 10,
					"material": 2,
					"mode": 4
				}
			]
		}
	],
	"nodes": [
		{
			"name": "UnityGlTF_root",
			"children": [
				1
			]
		},
		{
			"name": "node_Str_Ruins_055",
			"mesh": 0,
			"children": [
				2
			],
			"matrix": [1, 0, 0, 0, 0, 1, 0, 0, 0, 0, 1, 0, 0, 0, 0, 1]
		},
		{
			"name": "node_Str_Ruins_05_collider",
			"mesh": 1
		}
	],
	"samplers": [
		{
			"magFilter": 9729,
			"minFilter": 9985,
			"wrapS": 10497,
			"wrapT": 10497
		}
	],
	"scenes": [
		{
			"name":"defaultScene",
			"nodes": [
				0
			]
		}
	],
	"scene": 0,
	"textures": [
		{
			"sampler": 0,
			"source": 0
		}
	]
}