{
	"asset": {
		"generator": "Unity 2018.3.6f1",
		"extras": {
			"exporterVersion" : "2.2.1"
		},
		"version": "2.0"
	},
	"accessors": [
		{
			"bufferView": 2,
			"byteOffset": 0,
			"componentType": 5126,
			"count": 24,
			"max": [ 0.5, 0.5, 0.5 ],
			"min": [ -0.5, -0.5, -0.5 ],
			"type": "VEC3"
		},
		{
			"bufferView": 2,
			"byteOffset": 288,
			"componentType": 5126,
			"count": 24,
			"max": [ 1, 1, 1 ],
			"min": [ -1, -1, -1 ],
			"type": "VEC3"
		},
		{
			"bufferView": 1,
			"byteOffset": 0,
			"componentType": 5126,
			"count": 24,
			"max": [ 1, 1 ],
			"min": [ 0, 0 ],
			"type": "VEC2"
		},
		{
			"bufferView": 1,
			"byteOffset": 192,
			"componentType": 5126,
			"count": 24,
			"max": [ 0.9966581, 0.6528358 ],
			"min": [ 0.004055766, 0.004055766 ],
			"type": "VEC2"
		},
		{
			"bufferView": 3,
			"byteOffset": 0,
			"componentType": 5126,
			"count": 24,
			"max": [ 0, 0, 1, 1 ],
			"min": [ -1, 0, -1, 1 ],
			"type": "VEC4"
		},
		{
			"bufferView": 0,
			"byteOffset": 0,
			"componentType": 5123,
			"count": 36,
			"max": [ 23 ],
			"min": [ 0 ],
			"type": "SCALAR"
		}
	],
	"buffers": [
		{
			"byteLength": 1416,
			"uri": "entity6848.bin"
		}
	],
	"bufferViews": [
		{
			"buffer": 0,
			"byteLength": 72,
			"target": 34963,
			"byteOffset": 1344
		},
		{
			"buffer": 0,
			"byteLength": 384,
			"target": 34962,
			"byteStride": 8,
			"byteOffset": 0
		},
		{
			"buffer": 0,
			"byteLength": 576,
			"target": 34962,
			"byteStride": 12,
			"byteOffset": 384
		},
		{
			"buffer": 0,
			"byteLength": 384,
			"target": 34962,
			"byteStride": 16,
			"byteOffset": 960
		}
	],
	"materials": [
		{
			"pbrMetallicRoughness": {
				"baseColorFactor": [0, 0, 0, 1],
				"metallicFactor": 0,
				"roughnessFactor": 1
			},
			"emissiveFactor": [0, 0, 0],
			"doubleSided": false,
			"name": "Black_Outline_Mat"
		}
	],
	"meshes": [
		{
			"name": "mesh_Cube_520PaintingDummy (3)",
			"primitives": [
				{
					"attributes": {
						"POSITION": 0,
						"NORMAL": 1,
						"TEXCOORD_0": 2,
						"TEXCOORD_1": 3,
						"TANGENT": 4
					},
					"indices": 5,
					"material": 0,
					"mode": 4
				}
			]
		}
	],
	"nodes": [
		{
			"name": "UnityGlTF_root",
			"children": [
				1
			]
		},
		{
			"name": "node_PaintingDummy (3)",
			"mesh": 0,
			"matrix": [1, 0, 0, 0, 0, 1, 0, 0, 0, 0, 1, 0, 0, 0, 0, 1]
		}
	],
	"scenes": [
		{
			"name":"defaultScene",
			"nodes": [
				0
			]
		}
	],
	"scene": 0
}