{
	"asset": {
		"generator": "Unity 2018.3.6f1",
		"extras": {
			"exporterVersion" : "2.2.1"
		},
		"version": "2.0"
	},
	"accessors": [
		{
			"bufferView": 2,
			"byteOffset": 0,
			"componentType": 5126,
			"count": 515,
			"max": [ 0.5, 0.5, 0.5 ],
			"min": [ -0.5, -0.5, -0.5 ],
			"type": "VEC3"
		},
		{
			"bufferView": 2,
			"byteOffset": 6180,
			"componentType": 5126,
			"count": 515,
			"max": [ 0.999975, 1, 0.9999735 ],
			"min": [ -0.999975, -1, -0.999977 ],
			"type": "VEC3"
		},
		{
			"bufferView": 1,
			"byteOffset": 0,
			"componentType": 5126,
			"count": 515,
			"max": [ 0.9983337, 0.9758912 ],
			"min": [ -0.0009213686, 0.01762898 ],
			"type": "VEC2"
		},
		{
			"bufferView": 1,
			"byteOffset": 4120,
			"componentType": 5126,
			"count": 515,
			"max": [ 1, 0.6538535 ],
			"min": [ 0, 0 ],
			"type": "VEC2"
		},
		{
			"bufferView": 3,
			"byteOffset": 0,
			"componentType": 5126,
			"count": 515,
			"max": [ 1, 0.056131, 1, 1 ],
			"min": [ -1, -0.06598339, -1, -1 ],
			"type": "VEC4"
		},
		{
			"bufferView": 0,
			"byteOffset": 0,
			"componentType": 5123,
			"count": 2304,
			"max": [ 514 ],
			"min": [ 0 ],
			"type": "SCALAR"
		}
	],
	"buffers": [
		{
			"byteLength": 33448,
			"uri": "entity6826.bin"
		}
	],
	"bufferViews": [
		{
			"buffer": 0,
			"byteLength": 4608,
			"target": 34963,
			"byteOffset": 28840
		},
		{
			"buffer": 0,
			"byteLength": 8240,
			"target": 34962,
			"byteStride": 8,
			"byteOffset": 0
		},
		{
			"buffer": 0,
			"byteLength": 12360,
			"target": 34962,
			"byteStride": 12,
			"byteOffset": 8240
		},
		{
			"buffer": 0,
			"byteLength": 8240,
			"target": 34962,
			"byteStride": 16,
			"byteOffset": 20600
		}
	],
	"materials": [
		{
			"pbrMetallicRoughness": {
				"baseColorFactor": [1, 1, 1, 0],
				"metallicFactor": 0,
				"roughnessFactor": 1
			},
			"alphaMode": "BLEND",
			"alphaCutoff": 0.5,
			"emissiveFactor": [0, 0, 0],
			"doubleSided": false,
			"name": "_totaltrans"
		}
	],
	"meshes": [
		{
			"name": "mesh_Sphere_524Sphere (1)",
			"primitives": [
				{
					"attributes": {
						"POSITION": 0,
						"NORMAL": 1,
						"TEXCOORD_0": 2,
						"TEXCOORD_1": 3,
						"TANGENT": 4
					},
					"indices": 5,
					"material": 0,
					"mode": 4
				}
			]
		}
	],
	"nodes": [
		{
			"name": "UnityGlTF_root",
			"children": [
				1
			]
		},
		{
			"name": "node_Sphere (1)",
			"mesh": 0,
			"matrix": [1, 0, 0, 0, 0, 1, 0, 0, 0, 0, 1, 0, 0, 0, 0, 1]
		}
	],
	"scenes": [
		{
			"name":"defaultScene",
			"nodes": [
				0
			]
		}
	],
	"scene": 0
}