{
	"asset": {
		"generator": "Unity 2018.3.6f1",
		"extras": {
			"exporterVersion" : "2.2.1"
		},
		"version": "2.0"
	},
	"accessors": [
		{
			"bufferView": 2,
			"byteOffset": 0,
			"componentType": 5126,
			"count": 658,
			"max": [ 0.8454767, 2.423285, 0.9301178 ],
			"min": [ -0.8454767, 0, -0.9301178 ],
			"type": "VEC3"
		},
		{
			"bufferView": 2,
			"byteOffset": 7896,
			"componentType": 5126,
			"count": 658,
			"max": [ 0.9977859, 1, 0.9972531 ],
			"min": [ -0.9976702, -1, -0.9973956 ],
			"type": "VEC3"
		},
		{
			"bufferView": 1,
			"byteOffset": 0,
			"componentType": 5126,
			"count": 658,
			"max": [ 1.422944, 1.535516 ],
			"min": [ -0.5355617, -0.5353194 ],
			"type": "VEC2"
		},
		{
			"bufferView": 3,
			"byteOffset": 0,
			"componentType": 5126,
			"count": 658,
			"max": [ 0.9242429, 0.997786, 0.9676924, 1 ],
			"min": [ -1, -0.997396, -0.9999666, -1 ],
			"type": "VEC4"
		},
		{
			"bufferView": 0,
			"byteOffset": 0,
			"componentType": 5123,
			"count": 306,
			"max": [ 226 ],
			"min": [ 0 ],
			"type": "SCALAR"
		},
		{
			"bufferView": 0,
			"byteOffset": 612,
			"componentType": 5123,
			"count": 414,
			"max": [ 556 ],
			"min": [ 227 ],
			"type": "SCALAR"
		},
		{
			"bufferView": 0,
			"byteOffset": 1440,
			"componentType": 5123,
			"count": 102,
			"max": [ 657 ],
			"min": [ 557 ],
			"type": "SCALAR"
		},
		{
			"bufferView": 2,
			"byteOffset": 15792,
			"componentType": 5126,
			"count": 52,
			"max": [ 0.8578819, 2.295559, 0.8578819 ],
			"min": [ -0.8578819, 0, -0.8578819 ],
			"type": "VEC3"
		},
		{
			"bufferView": 2,
			"byteOffset": 16416,
			"componentType": 5126,
			"count": 52,
			"max": [ 1, 0.9518721, 1 ],
			"min": [ -1, -1, -1 ],
			"type": "VEC3"
		},
		{
			"bufferView": 1,
			"byteOffset": 5264,
			"componentType": 5126,
			"count": 52,
			"max": [ 0.875, 1 ],
			"min": [ 0.125, 0 ],
			"type": "VEC2"
		},
		{
			"bufferView": 3,
			"byteOffset": 10528,
			"componentType": 5126,
			"count": 52,
			"max": [ 1, 0, 1, 1 ],
			"min": [ -1, 0, -1, 1 ],
			"type": "VEC4"
		},
		{
			"bufferView": 0,
			"byteOffset": 1644,
			"componentType": 5123,
			"count": 84,
			"max": [ 51 ],
			"min": [ 0 ],
			"type": "SCALAR"
		}
	],
	"buffers": [
		{
			"byteLength": 35892,
			"uri": "entity45236n.bin"
		}
	],
	"bufferViews": [
		{
			"buffer": 0,
			"byteLength": 1812,
			"target": 34963,
			"byteOffset": 34080
		},
		{
			"buffer": 0,
			"byteLength": 5680,
			"target": 34962,
			"byteStride": 8,
			"byteOffset": 0
		},
		{
			"buffer": 0,
			"byteLength": 17040,
			"target": 34962,
			"byteStride": 12,
			"byteOffset": 5680
		},
		{
			"buffer": 0,
			"byteLength": 11360,
			"target": 34962,
			"byteStride": 16,
			"byteOffset": 22720
		}
	],
	"images": [
		{
			"uri": "Assets/Visuals/Materials/Rock_01_Albedo.jpg"
		},
		{
			"uri": "Assets/Visuals/Materials/Rock_03_Albedo.jpg"
		}
	],
	"materials": [
		{
			"pbrMetallicRoughness": {
				"baseColorTexture" : {
					"index" : 0,
					"texCoord" : 0
				},
				"baseColorFactor": [1, 1, 1, 1],
				"metallicFactor": 0,
				"roughnessFactor": 1
			},
			"emissiveFactor": [0, 0, 0],
			"doubleSided": false,
			"name": "Rock_01_Mat"
		},
		{
			"pbrMetallicRoughness": {
				"baseColorFactor": [0, 0, 0, 1],
				"metallicFactor": 0,
				"roughnessFactor": 1
			},
			"emissiveFactor": [0, 0, 0],
			"doubleSided": false,
			"name": "Black_Outline_Mat"
		},
		{
			"pbrMetallicRoughness": {
				"baseColorTexture" : {
					"index" : 1,
					"texCoord" : 0
				},
				"baseColorFactor": [1, 1, 1, 1],
				"metallicFactor": 0,
				"roughnessFactor": 1
			},
			"emissiveFactor": [0, 0, 0],
			"doubleSided": false,
			"name": "Rock_03_Mat"
		},
		{
			"pbrMetallicRoughness": {
				"baseColorFactor": [0.05724907, 1, 0, 1],
				"metallicFactor": 0,
				"roughnessFactor": 0.5
			},
			"emissiveFactor": [0, 0, 0],
			"doubleSided": false,
			"name": "_collider_Mat"
		}
	],
	"meshes": [
		{
			"name": "mesh_Str_Ruins_04_12238Str_Ruins_04",
			"primitives": [
				{
					"attributes": {
						"POSITION": 0,
						"NORMAL": 1,
						"TEXCOORD_0": 2,
						"TANGENT": 3
					},
					"indices": 4,
					"material": 0,
					"mode": 4
				},
				{
					"attributes": {
						"POSITION": 0,
						"NORMAL": 1,
						"TEXCOORD_0": 2,
						"TANGENT": 3
					},
					"indices": 5,
					"material": 1,
					"mode": 4
				},
				{
					"attributes": {
						"POSITION": 0,
						"NORMAL": 1,
						"TEXCOORD_0": 2,
						"TANGENT": 3
					},
					"indices": 6,
					"material": 2,
					"mode": 4
				}
			]
		},
		{
			"name": "mesh_Str_Ruins_04_collider_12240Str_Ruins_04_collider",
			"primitives": [
				{
					"attributes": {
						"POSITION": 7,
						"NORMAL": 8,
						"TEXCOORD_0": 9,
						"TANGENT": 10
					},
					"indices": 11,
					"material": 3,
					"mode": 4
				}
			]
		}
	],
	"nodes": [
		{
			"name": "UnityGlTF_root",
			"children": [
				1
			]
		},
		{
			"name": "node_Str_Ruins_04",
			"mesh": 0,
			"children": [
				2
			],
			"matrix": [1, 0, 0, 0, 0, 1, 0, 0, 0, 0, 1, 0, 0, 0, 0, 1]
		},
		{
			"name": "node_Str_Ruins_04_collider",
			"mesh": 1
		}
	],
	"samplers": [
		{
			"magFilter": 9729,
			"minFilter": 9985,
			"wrapS": 10497,
			"wrapT": 10497
		}
	],
	"scenes": [
		{
			"name":"defaultScene",
			"nodes": [
				0
			]
		}
	],
	"scene": 0,
	"textures": [
		{
			"sampler": 0,
			"source": 0
		},
		{
			"sampler": 0,
			"source": 1
		}
	]
}