{
	"asset": {
		"generator": "Unity 2018.3.6f1",
		"extras": {
			"exporterVersion" : "2.2.1"
		},
		"version": "2.0"
	},
	"accessors": [
		{
			"bufferView": 2,
			"byteOffset": 0,
			"componentType": 5126,
			"count": 381,
			"max": [ 0.930241, 0.1506944, 0.9202232 ],
			"min": [ -0.9530505, -0.0221887, -1.012608 ],
			"type": "VEC3"
		},
		{
			"bufferView": 2,
			"byteOffset": 4572,
			"componentType": 5126,
			"count": 381,
			"max": [ 0.9997018, 1, 0.9990108 ],
			"min": [ -0.9996883, -1, -0.9990521 ],
			"type": "VEC3"
		},
		{
			"bufferView": 1,
			"byteOffset": 0,
			"componentType": 5126,
			"count": 381,
			"max": [ 0.875, 0.75 ],
			"min": [ 0.1724377, -2.595863E-09 ],
			"type": "VEC2"
		},
		{
			"bufferView": 3,
			"byteOffset": 0,
			"componentType": 5126,
			"count": 381,
			"max": [ 0.9998466, 0.5334529, 0.9997018, 1 ],
			"min": [ -0.9996773, -0.4548359, -0.9971022, -1 ],
			"type": "VEC4"
		},
		{
			"bufferView": 0,
			"byteOffset": 0,
			"componentType": 5123,
			"count": 342,
			"max": [ 191 ],
			"min": [ 0 ],
			"type": "SCALAR"
		},
		{
			"bufferView": 0,
			"byteOffset": 684,
			"componentType": 5123,
			"count": 342,
			"max": [ 380 ],
			"min": [ 192 ],
			"type": "SCALAR"
		}
	],
	"buffers": [
		{
			"byteLength": 19656,
			"uri": "entity18064n.bin"
		}
	],
	"bufferViews": [
		{
			"buffer": 0,
			"byteLength": 1368,
			"target": 34963,
			"byteOffset": 18288
		},
		{
			"buffer": 0,
			"byteLength": 3048,
			"target": 34962,
			"byteStride": 8,
			"byteOffset": 0
		},
		{
			"buffer": 0,
			"byteLength": 9144,
			"target": 34962,
			"byteStride": 12,
			"byteOffset": 3048
		},
		{
			"buffer": 0,
			"byteLength": 6096,
			"target": 34962,
			"byteStride": 16,
			"byteOffset": 12192
		}
	],
	"images": [
		{
			"uri": "Assets/Visuals/Materials/Rock_03_Albedo.jpg"
		}
	],
	"materials": [
		{
			"pbrMetallicRoughness": {
				"baseColorTexture" : {
					"index" : 0,
					"texCoord" : 0
				},
				"baseColorFactor": [1, 1, 1, 1],
				"metallicFactor": 0,
				"roughnessFactor": 1
			},
			"emissiveFactor": [0, 0, 0],
			"doubleSided": false,
			"name": "Rock_03_Mat"
		},
		{
			"pbrMetallicRoughness": {
				"baseColorFactor": [0, 0, 0, 1],
				"metallicFactor": 0,
				"roughnessFactor": 1
			},
			"emissiveFactor": [0, 0, 0],
			"doubleSided": false,
			"name": "Black_Outline_Mat"
		}
	],
	"meshes": [
		{
			"name": "mesh_Path_03_4164Path_03",
			"primitives": [
				{
					"attributes": {
						"POSITION": 0,
						"NORMAL": 1,
						"TEXCOORD_0": 2,
						"TANGENT": 3
					},
					"indices": 4,
					"material": 0,
					"mode": 4
				},
				{
					"attributes": {
						"POSITION": 0,
						"NORMAL": 1,
						"TEXCOORD_0": 2,
						"TANGENT": 3
					},
					"indices": 5,
					"material": 1,
					"mode": 4
				}
			]
		}
	],
	"nodes": [
		{
			"name": "UnityGlTF_root",
			"children": [
				1
			]
		},
		{
			"name": "node_Path_03",
			"mesh": 0,
			"matrix": [1, 0, 0, 0, 0, 1, 0, 0, 0, 0, 1, 0, 0, 0, 0, 1]
		}
	],
	"samplers": [
		{
			"magFilter": 9729,
			"minFilter": 9985,
			"wrapS": 10497,
			"wrapT": 10497
		}
	],
	"scenes": [
		{
			"name":"defaultScene",
			"nodes": [
				0
			]
		}
	],
	"scene": 0,
	"textures": [
		{
			"sampler": 0,
			"source": 0
		}
	]
}