{
	"asset": {
		"generator": "Unity 2018.3.6f1",
		"extras": {
			"exporterVersion" : "2.2.1"
		},
		"version": "2.0"
	},
	"accessors": [
		{
			"bufferView": 2,
			"byteOffset": 0,
			"componentType": 5126,
			"count": 300,
			"max": [ 2.919223, 1.068738, 0.7165232 ],
			"min": [ -2.899695, -0.04043232, -0.6721169 ],
			"type": "VEC3"
		},
		{
			"bufferView": 2,
			"byteOffset": 3600,
			"componentType": 5126,
			"count": 300,
			"max": [ 0.9829862, 0.9997961, 0.9996203 ],
			"min": [ -0.9839191, -0.9998133, -0.9996245 ],
			"type": "VEC3"
		},
		{
			"bufferView": 1,
			"byteOffset": 0,
			"componentType": 5126,
			"count": 300,
			"max": [ 2.160764, 1.944769 ],
			"min": [ -1.353677, -0.4673077 ],
			"type": "VEC2"
		},
		{
			"bufferView": 3,
			"byteOffset": 0,
			"componentType": 5126,
			"count": 300,
			"max": [ 0.9999543, 0.7853856, 0.9943228, 1 ],
			"min": [ -0.9996537, -0.7676026, -0.996586, -1 ],
			"type": "VEC4"
		},
		{
			"bufferView": 0,
			"byteOffset": 0,
			"componentType": 5123,
			"count": 198,
			"max": [ 149 ],
			"min": [ 0 ],
			"type": "SCALAR"
		},
		{
			"bufferView": 0,
			"byteOffset": 396,
			"componentType": 5123,
			"count": 198,
			"max": [ 299 ],
			"min": [ 150 ],
			"type": "SCALAR"
		},
		{
			"bufferView": 2,
			"byteOffset": 7200,
			"componentType": 5126,
			"count": 24,
			"max": [ 2.862686, 1, 0.75 ],
			"min": [ -2.831387, 0, -0.75 ],
			"type": "VEC3"
		},
		{
			"bufferView": 2,
			"byteOffset": 7488,
			"componentType": 5126,
			"count": 24,
			"max": [ 1, 1, 1 ],
			"min": [ -1, -1, -1 ],
			"type": "VEC3"
		},
		{
			"bufferView": 1,
			"byteOffset": 2400,
			"componentType": 5126,
			"count": 24,
			"max": [ 0.875, 1 ],
			"min": [ 0.125, 0 ],
			"type": "VEC2"
		},
		{
			"bufferView": 3,
			"byteOffset": 4800,
			"componentType": 5126,
			"count": 24,
			"max": [ 0, 0, 1, 1 ],
			"min": [ -1, 0, -1, 1 ],
			"type": "VEC4"
		},
		{
			"bufferView": 0,
			"byteOffset": 792,
			"componentType": 5123,
			"count": 36,
			"max": [ 23 ],
			"min": [ 0 ],
			"type": "SCALAR"
		}
	],
	"buffers": [
		{
			"byteLength": 16416,
			"uri": "entity38400n.bin"
		}
	],
	"bufferViews": [
		{
			"buffer": 0,
			"byteLength": 864,
			"target": 34963,
			"byteOffset": 15552
		},
		{
			"buffer": 0,
			"byteLength": 2592,
			"target": 34962,
			"byteStride": 8,
			"byteOffset": 0
		},
		{
			"buffer": 0,
			"byteLength": 7776,
			"target": 34962,
			"byteStride": 12,
			"byteOffset": 2592
		},
		{
			"buffer": 0,
			"byteLength": 5184,
			"target": 34962,
			"byteStride": 16,
			"byteOffset": 10368
		}
	],
	"images": [
		{
			"uri": "Assets/Visuals/Materials/Wood_Clean_Albedo.jpg"
		}
	],
	"materials": [
		{
			"pbrMetallicRoughness": {
				"baseColorFactor": [0, 0, 0, 1],
				"metallicFactor": 0,
				"roughnessFactor": 1
			},
			"emissiveFactor": [0, 0, 0],
			"doubleSided": false,
			"name": "Black_Outline_Mat"
		},
		{
			"pbrMetallicRoughness": {
				"baseColorTexture" : {
					"index" : 0,
					"texCoord" : 0
				},
				"baseColorFactor": [1, 1, 1, 1],
				"metallicFactor": 0,
				"roughnessFactor": 1
			},
			"emissiveFactor": [0, 0, 0],
			"doubleSided": false,
			"name": "Wood_Clean_Mat"
		},
		{
			"pbrMetallicRoughness": {
				"baseColorFactor": [0.05724907, 1, 0, 1],
				"metallicFactor": 0,
				"roughnessFactor": 0.5
			},
			"emissiveFactor": [0, 0, 0],
			"doubleSided": false,
			"name": "_collider_Mat"
		}
	],
	"meshes": [
		{
			"name": "mesh_Brick_Step_01_10762Brick_Step_01 (117)",
			"primitives": [
				{
					"attributes": {
						"POSITION": 0,
						"NORMAL": 1,
						"TEXCOORD_0": 2,
						"TANGENT": 3
					},
					"indices": 4,
					"material": 0,
					"mode": 4
				},
				{
					"attributes": {
						"POSITION": 0,
						"NORMAL": 1,
						"TEXCOORD_0": 2,
						"TANGENT": 3
					},
					"indices": 5,
					"material": 1,
					"mode": 4
				}
			]
		},
		{
			"name": "mesh_Brick_Step_01_collider_10764Brick_Step_01_collider",
			"primitives": [
				{
					"attributes": {
						"POSITION": 6,
						"NORMAL": 7,
						"TEXCOORD_0": 8,
						"TANGENT": 9
					},
					"indices": 10,
					"material": 2,
					"mode": 4
				}
			]
		}
	],
	"nodes": [
		{
			"name": "UnityGlTF_root",
			"children": [
				1
			]
		},
		{
			"name": "node_Brick_Step_01 (117)",
			"mesh": 0,
			"children": [
				2
			],
			"matrix": [1, 0, 0, 0, 0, 1, 0, 0, 0, 0, 1, 0, 0, 0, 0, 1]
		},
		{
			"name": "node_Brick_Step_01_collider",
			"mesh": 1
		}
	],
	"samplers": [
		{
			"magFilter": 9729,
			"minFilter": 9985,
			"wrapS": 10497,
			"wrapT": 10497
		}
	],
	"scenes": [
		{
			"name":"defaultScene",
			"nodes": [
				0
			]
		}
	],
	"scene": 0,
	"textures": [
		{
			"sampler": 0,
			"source": 0
		}
	]
}