{
	"asset": {
		"generator": "Unity 2018.3.6f1",
		"extras": {
			"exporterVersion" : "2.2.1"
		},
		"version": "2.0"
	},
	"accessors": [
		{
			"bufferView": 2,
			"byteOffset": 0,
			"componentType": 5126,
			"count": 263,
			"max": [ 0.2458124, 1.08329, 0.1273009 ],
			"min": [ -0.2501078, 0, -0.1171695 ],
			"type": "VEC3"
		},
		{
			"bufferView": 2,
			"byteOffset": 3156,
			"componentType": 5126,
			"count": 263,
			"max": [ 0.9541527, 0.977284, 0.9931924 ],
			"min": [ -0.9983062, -0.9976616, -0.9955956 ],
			"type": "VEC3"
		},
		{
			"bufferView": 1,
			"byteOffset": 0,
			"componentType": 5126,
			"count": 263,
			"max": [ 1, 1 ],
			"min": [ 0, -5.551115E-17 ],
			"type": "VEC2"
		},
		{
			"bufferView": 3,
			"byteOffset": 0,
			"componentType": 5126,
			"count": 263,
			"max": [ 0.9890521, 0.9695632, 1, 1 ],
			"min": [ -0.9921173, -0.95256, -1, -1 ],
			"type": "VEC4"
		},
		{
			"bufferView": 0,
			"byteOffset": 0,
			"componentType": 5123,
			"count": 666,
			"max": [ 262 ],
			"min": [ 0 ],
			"type": "SCALAR"
		}
	],
	"buffers": [
		{
			"byteLength": 13956,
			"uri": "entity55946.bin"
		}
	],
	"bufferViews": [
		{
			"buffer": 0,
			"byteLength": 1332,
			"target": 34963,
			"byteOffset": 12624
		},
		{
			"buffer": 0,
			"byteLength": 2104,
			"target": 34962,
			"byteStride": 8,
			"byteOffset": 0
		},
		{
			"buffer": 0,
			"byteLength": 6312,
			"target": 34962,
			"byteStride": 12,
			"byteOffset": 2104
		},
		{
			"buffer": 0,
			"byteLength": 4208,
			"target": 34962,
			"byteStride": 16,
			"byteOffset": 8416
		}
	],
	"images": [
		{
			"uri": "Assets/Visuals/Materials/Mushroom_01_Albedo.jpg"
		}
	],
	"materials": [
		{
			"pbrMetallicRoughness": {
				"baseColorTexture" : {
					"index" : 0,
					"texCoord" : 0
				},
				"baseColorFactor": [1, 1, 1, 1],
				"metallicFactor": 0,
				"roughnessFactor": 1
			},
			"emissiveFactor": [0, 0, 0],
			"doubleSided": false,
			"name": "Mushroom_01_Mat"
		}
	],
	"meshes": [
		{
			"name": "mesh_Flower_01_b_4778Flower_01_b",
			"primitives": [
				{
					"attributes": {
						"POSITION": 0,
						"NORMAL": 1,
						"TEXCOORD_0": 2,
						"TANGENT": 3
					},
					"indices": 4,
					"material": 0,
					"mode": 4
				}
			]
		}
	],
	"nodes": [
		{
			"name": "UnityGlTF_root",
			"children": [
				1
			]
		},
		{
			"name": "node_Flower_01_b",
			"mesh": 0,
			"matrix": [1, 0, 0, 0, 0, 1, 0, 0, 0, 0, 1, 0, 0, 0, 0, 1]
		}
	],
	"samplers": [
		{
			"magFilter": 9729,
			"minFilter": 9985,
			"wrapS": 10497,
			"wrapT": 10497
		}
	],
	"scenes": [
		{
			"name":"defaultScene",
			"nodes": [
				0
			]
		}
	],
	"scene": 0,
	"textures": [
		{
			"sampler": 0,
			"source": 0
		}
	]
}