{
	"asset": {
		"generator": "Unity 2018.3.6f1",
		"extras": {
			"exporterVersion" : "2.2.1"
		},
		"version": "2.0"
	},
	"accessors": [
		{
			"bufferView": 2,
			"byteOffset": 0,
			"componentType": 5126,
			"count": 1074,
			"max": [ 3.364618, 1.541618, 3.364616 ],
			"min": [ -3.364618, 0.06506091, -3.364619 ],
			"type": "VEC3"
		},
		{
			"bufferView": 2,
			"byteOffset": 12888,
			"componentType": 5126,
			"count": 1074,
			"max": [ 1, 1, 1 ],
			"min": [ -1, -0.8119236, -1 ],
			"type": "VEC3"
		},
		{
			"bufferView": 1,
			"byteOffset": 0,
			"componentType": 5126,
			"count": 1074,
			"max": [ 7.570776, 3.004699 ],
			"min": [ -0.5265304, 0 ],
			"type": "VEC2"
		},
		{
			"bufferView": 3,
			"byteOffset": 0,
			"componentType": 5126,
			"count": 1074,
			"max": [ 1, 0.9879894, 1, 1 ],
			"min": [ -1, -0.9547746, -1, -1 ],
			"type": "VEC4"
		},
		{
			"bufferView": 0,
			"byteOffset": 0,
			"componentType": 5123,
			"count": 2088,
			"max": [ 1073 ],
			"min": [ 0 ],
			"type": "SCALAR"
		}
	],
	"buffers": [
		{
			"byteLength": 55728,
			"uri": "entity24886n.bin"
		}
	],
	"bufferViews": [
		{
			"buffer": 0,
			"byteLength": 4176,
			"target": 34963,
			"byteOffset": 51552
		},
		{
			"buffer": 0,
			"byteLength": 8592,
			"target": 34962,
			"byteStride": 8,
			"byteOffset": 0
		},
		{
			"buffer": 0,
			"byteLength": 25776,
			"target": 34962,
			"byteStride": 12,
			"byteOffset": 8592
		},
		{
			"buffer": 0,
			"byteLength": 17184,
			"target": 34962,
			"byteStride": 16,
			"byteOffset": 34368
		}
	],
	"images": [
		{
			"uri": "Assets/Visuals/Materials/Path_01_Albedo.jpg"
		}
	],
	"materials": [
		{
			"pbrMetallicRoughness": {
				"baseColorTexture" : {
					"index" : 0,
					"texCoord" : 0
				},
				"baseColorFactor": [1, 1, 1, 1],
				"metallicFactor": 0,
				"roughnessFactor": 1
			},
			"emissiveFactor": [0, 0, 0],
			"doubleSided": false,
			"name": "Path_01_Mat"
		}
	],
	"meshes": [
		{
			"name": "mesh_Str_Fountain_01_5264Str_Fountain_01",
			"primitives": [
				{
					"attributes": {
						"POSITION": 0,
						"NORMAL": 1,
						"TEXCOORD_0": 2,
						"TANGENT": 3
					},
					"indices": 4,
					"material": 0,
					"mode": 4
				}
			]
		}
	],
	"nodes": [
		{
			"name": "UnityGlTF_root",
			"children": [
				1
			]
		},
		{
			"name": "node_Str_Fountain_01",
			"mesh": 0,
			"matrix": [1, 0, 0, 0, 0, 1, 0, 0, 0, 0, 1, 0, 0, 0, 0, 1]
		}
	],
	"samplers": [
		{
			"magFilter": 9729,
			"minFilter": 9985,
			"wrapS": 10497,
			"wrapT": 10497
		}
	],
	"scenes": [
		{
			"name":"defaultScene",
			"nodes": [
				0
			]
		}
	],
	"scene": 0,
	"textures": [
		{
			"sampler": 0,
			"source": 0
		}
	]
}