{
	"asset": {
		"generator": "Unity 2018.3.6f1",
		"extras": {
			"exporterVersion" : "2.2.1"
		},
		"version": "2.0"
	},
	"accessors": [
		{
			"bufferView": 2,
			"byteOffset": 0,
			"componentType": 5126,
			"count": 50,
			"max": [ 2.030029, 0.08867371, 2.030027 ],
			"min": [ -2.030028, -0.08867358, -2.030029 ],
			"type": "VEC3"
		},
		{
			"bufferView": 2,
			"byteOffset": 600,
			"componentType": 5126,
			"count": 50,
			"max": [ 0.9238797, 0.9999709, 0.9238799 ],
			"min": [ -0.9238797, -0.9999709, -0.9238799 ],
			"type": "VEC3"
		},
		{
			"bufferView": 1,
			"byteOffset": 0,
			"componentType": 5126,
			"count": 50,
			"max": [ 0.6899506, 0.5647175 ],
			"min": [ 0.003445698, 0 ],
			"type": "VEC2"
		},
		{
			"bufferView": 3,
			"byteOffset": 0,
			"componentType": 5126,
			"count": 50,
			"max": [ 0.9238799, 0.007045528, 0.9238797, -1 ],
			"min": [ -0.9238799, -0.007045527, -0.9238797, -1 ],
			"type": "VEC4"
		},
		{
			"bufferView": 0,
			"byteOffset": 0,
			"componentType": 5123,
			"count": 96,
			"max": [ 49 ],
			"min": [ 0 ],
			"type": "SCALAR"
		}
	],
	"buffers": [
		{
			"byteLength": 2592,
			"uri": "entity430290.bin"
		}
	],
	"bufferViews": [
		{
			"buffer": 0,
			"byteLength": 192,
			"target": 34963,
			"byteOffset": 2400
		},
		{
			"buffer": 0,
			"byteLength": 400,
			"target": 34962,
			"byteStride": 8,
			"byteOffset": 0
		},
		{
			"buffer": 0,
			"byteLength": 1200,
			"target": 34962,
			"byteStride": 12,
			"byteOffset": 400
		},
		{
			"buffer": 0,
			"byteLength": 800,
			"target": 34962,
			"byteStride": 16,
			"byteOffset": 1600
		}
	],
	"materials": [
		{
			"pbrMetallicRoughness": {
				"baseColorFactor": [1, 0.3066038, 0.3066038, 1],
				"metallicFactor": 1,
				"roughnessFactor": 1
			},
			"emissiveFactor": [0, 0, 0],
			"doubleSided": false,
			"name": "outline"
		}
	],
	"meshes": [
		{
			"name": "mesh_pCylinder28_10580pCylinder281",
			"primitives": [
				{
					"attributes": {
						"POSITION": 0,
						"NORMAL": 1,
						"TEXCOORD_0": 2,
						"TANGENT": 3
					},
					"indices": 4,
					"material": 0,
					"mode": 4
				}
			]
		}
	],
	"nodes": [
		{
			"name": "UnityGlTF_root",
			"children": [
				1
			]
		},
		{
			"name": "node_pCylinder281",
			"mesh": 0,
			"matrix": [1, 0, 0, 0, 0, 1, 0, 0, 0, 0, 1, 0, 0, 0, 0, 1]
		}
	],
	"scenes": [
		{
			"name":"defaultScene",
			"nodes": [
				0
			]
		}
	],
	"scene": 0
}