{
	"asset": {
		"generator": "Unity 2018.3.6f1",
		"extras": {
			"exporterVersion" : "2.2.1"
		},
		"version": "2.0"
	},
	"accessors": [
		{
			"bufferView": 2,
			"byteOffset": 0,
			"componentType": 5126,
			"count": 456,
			"max": [ 10.73185, 2.220871, 10.23904 ],
			"min": [ -10.83122, 0.01145483, 1.445813 ],
			"type": "VEC3"
		},
		{
			"bufferView": 2,
			"byteOffset": 5472,
			"componentType": 5126,
			"count": 456,
			"max": [ 0.7575276, 0.9999994, 0.9957301 ],
			"min": [ -0.7590845, -0.9999968, -0.99489 ],
			"type": "VEC3"
		},
		{
			"bufferView": 1,
			"byteOffset": 0,
			"componentType": 5126,
			"count": 456,
			"max": [ 1, 0.9992557 ],
			"min": [ 0, 0 ],
			"type": "VEC2"
		},
		{
			"bufferView": 3,
			"byteOffset": 0,
			"componentType": 5126,
			"count": 456,
			"max": [ 0.4613781, 0.9998162, 0.9784879, 1 ],
			"min": [ -0.9999964, -0.9999175, -0.7557853, -1 ],
			"type": "VEC4"
		},
		{
			"bufferView": 0,
			"byteOffset": 0,
			"componentType": 5123,
			"count": 504,
			"max": [ 227 ],
			"min": [ 0 ],
			"type": "SCALAR"
		},
		{
			"bufferView": 0,
			"byteOffset": 1008,
			"componentType": 5123,
			"count": 504,
			"max": [ 455 ],
			"min": [ 228 ],
			"type": "SCALAR"
		},
		{
			"bufferView": 2,
			"byteOffset": 10944,
			"componentType": 5126,
			"count": 228,
			"max": [ 10.8976, 2.379007, 10.40549 ],
			"min": [ -10.99759, -0.1087803, 1.292107 ],
			"type": "VEC3"
		},
		{
			"bufferView": 2,
			"byteOffset": 13680,
			"componentType": 5126,
			"count": 228,
			"max": [ 0.7575276, 0.9999967, 0.9748889 ],
			"min": [ -0.6999698, -0.9999968, -0.99489 ],
			"type": "VEC3"
		},
		{
			"bufferView": 1,
			"byteOffset": 3648,
			"componentType": 5126,
			"count": 228,
			"max": [ 1, 0.9992557 ],
			"min": [ 0, 0 ],
			"type": "VEC2"
		},
		{
			"bufferView": 3,
			"byteOffset": 7296,
			"componentType": 5126,
			"count": 228,
			"max": [ 0.4345791, 0.9997011, 0.9851, 1 ],
			"min": [ -0.9999974, -1, -0.7562209, 1 ],
			"type": "VEC4"
		},
		{
			"bufferView": 0,
			"byteOffset": 2016,
			"componentType": 5123,
			"count": 504,
			"max": [ 227 ],
			"min": [ 0 ],
			"type": "SCALAR"
		}
	],
	"buffers": [
		{
			"byteLength": 35856,
			"uri": "entity51852.bin"
		}
	],
	"bufferViews": [
		{
			"buffer": 0,
			"byteLength": 3024,
			"target": 34963,
			"byteOffset": 32832
		},
		{
			"buffer": 0,
			"byteLength": 5472,
			"target": 34962,
			"byteStride": 8,
			"byteOffset": 0
		},
		{
			"buffer": 0,
			"byteLength": 16416,
			"target": 34962,
			"byteStride": 12,
			"byteOffset": 5472
		},
		{
			"buffer": 0,
			"byteLength": 10944,
			"target": 34962,
			"byteStride": 16,
			"byteOffset": 21888
		}
	],
	"images": [
		{
			"uri": "Assets/Visuals/Materials/Rock_03_Albedo.jpg"
		}
	],
	"materials": [
		{
			"pbrMetallicRoughness": {
				"baseColorFactor": [0, 0, 0, 1],
				"metallicFactor": 0,
				"roughnessFactor": 1
			},
			"emissiveFactor": [0, 0, 0],
			"doubleSided": false,
			"name": "Black_Outline_Mat"
		},
		{
			"pbrMetallicRoughness": {
				"baseColorTexture" : {
					"index" : 0,
					"texCoord" : 0
				},
				"baseColorFactor": [1, 1, 1, 1],
				"metallicFactor": 0,
				"roughnessFactor": 1
			},
			"emissiveFactor": [0, 0, 0],
			"doubleSided": false,
			"name": "Rock_03_Mat"
		},
		{
			"pbrMetallicRoughness": {
				"baseColorFactor": [0.9657564, 0, 1, 1],
				"metallicFactor": 0,
				"roughnessFactor": 0.5
			},
			"emissiveFactor": [0, 0, 0],
			"doubleSided": false,
			"name": "_collider_Mat"
		}
	],
	"meshes": [
		{
			"name": "mesh_Str_Amphitheater_01_12108Str_Amphitheater_01",
			"primitives": [
				{
					"attributes": {
						"POSITION": 0,
						"NORMAL": 1,
						"TEXCOORD_0": 2,
						"TANGENT": 3
					},
					"indices": 4,
					"material": 0,
					"mode": 4
				},
				{
					"attributes": {
						"POSITION": 0,
						"NORMAL": 1,
						"TEXCOORD_0": 2,
						"TANGENT": 3
					},
					"indices": 5,
					"material": 1,
					"mode": 4
				}
			]
		},
		{
			"name": "mesh_Str_Amphitheater_01_collider_12110Str_Amphitheater_01_collider",
			"primitives": [
				{
					"attributes": {
						"POSITION": 6,
						"NORMAL": 7,
						"TEXCOORD_0": 8,
						"TANGENT": 9
					},
					"indices": 10,
					"material": 2,
					"mode": 4
				}
			]
		}
	],
	"nodes": [
		{
			"name": "UnityGlTF_root",
			"children": [
				1
			]
		},
		{
			"name": "node_Str_Amphitheater_01",
			"mesh": 0,
			"children": [
				2
			],
			"matrix": [1, 0, 0, 0, 0, 1, 0, 0, 0, 0, 1, 0, 0, 0, 0, 1]
		},
		{
			"name": "node_Str_Amphitheater_01_collider",
			"mesh": 1
		}
	],
	"samplers": [
		{
			"magFilter": 9729,
			"minFilter": 9985,
			"wrapS": 10497,
			"wrapT": 10497
		}
	],
	"scenes": [
		{
			"name":"defaultScene",
			"nodes": [
				0
			]
		}
	],
	"scene": 0,
	"textures": [
		{
			"sampler": 0,
			"source": 0
		}
	]
}