{
	"asset": {
		"generator": "Unity 2018.3.6f1",
		"extras": {
			"exporterVersion" : "2.2.1"
		},
		"version": "2.0"
	},
	"accessors": [
		{
			"bufferView": 2,
			"byteOffset": 0,
			"componentType": 5126,
			"count": 9,
			"max": [ 2, 0.1690745, 2 ],
			"min": [ -2, 0.1690745, -2 ],
			"type": "VEC3"
		},
		{
			"bufferView": 2,
			"byteOffset": 108,
			"componentType": 5126,
			"count": 9,
			"max": [ 0, -1, 0 ],
			"min": [ 0, -1, 0 ],
			"type": "VEC3"
		},
		{
			"bufferView": 1,
			"byteOffset": 0,
			"componentType": 5126,
			"count": 9,
			"max": [ 0.7071791, 0.4201509 ],
			"min": [ 0.5168548, 0.2298266 ],
			"type": "VEC2"
		},
		{
			"bufferView": 3,
			"byteOffset": 0,
			"componentType": 5126,
			"count": 9,
			"max": [ -0.9992005, 0, 0.03997914, -1 ],
			"min": [ -1, 0, -0.03997914, -1 ],
			"type": "VEC4"
		},
		{
			"bufferView": 0,
			"byteOffset": 0,
			"componentType": 5123,
			"count": 24,
			"max": [ 8 ],
			"min": [ 0 ],
			"type": "SCALAR"
		}
	],
	"buffers": [
		{
			"byteLength": 480,
			"uri": "entity430282.bin"
		}
	],
	"bufferViews": [
		{
			"buffer": 0,
			"byteLength": 48,
			"target": 34963,
			"byteOffset": 432
		},
		{
			"buffer": 0,
			"byteLength": 72,
			"target": 34962,
			"byteStride": 8,
			"byteOffset": 0
		},
		{
			"buffer": 0,
			"byteLength": 216,
			"target": 34962,
			"byteStride": 12,
			"byteOffset": 72
		},
		{
			"buffer": 0,
			"byteLength": 144,
			"target": 34962,
			"byteStride": 16,
			"byteOffset": 288
		}
	],
	"materials": [
		{
			"pbrMetallicRoughness": {
				"baseColorFactor": [0.1693, 0.3617, 0.5, 1],
				"metallicFactor": 0,
				"roughnessFactor": 1
			},
			"emissiveFactor": [0, 0, 0],
			"doubleSided": false,
			"name": "phong2"
		}
	],
	"meshes": [
		{
			"name": "mesh_pCylinder35_10596pCylinder351",
			"primitives": [
				{
					"attributes": {
						"POSITION": 0,
						"NORMAL": 1,
						"TEXCOORD_0": 2,
						"TANGENT": 3
					},
					"indices": 4,
					"material": 0,
					"mode": 4
				}
			]
		}
	],
	"nodes": [
		{
			"name": "UnityGlTF_root",
			"children": [
				1
			]
		},
		{
			"name": "node_pCylinder351",
			"mesh": 0,
			"matrix": [1, 0, 0, 0, 0, 1, 0, 0, 0, 0, 1, 0, 0, 0, 0, 1]
		}
	],
	"scenes": [
		{
			"name":"defaultScene",
			"nodes": [
				0
			]
		}
	],
	"scene": 0
}