{
	"asset": {
		"generator": "Unity 2018.3.6f1",
		"extras": {
			"exporterVersion" : "2.2.1"
		},
		"version": "2.0"
	},
	"accessors": [
		{
			"bufferView": 2,
			"byteOffset": 0,
			"componentType": 5126,
			"count": 1322,
			"max": [ -0.08526061, 4.289581, -0.2756702 ],
			"min": [ -15.60847, -3.356934E-06, -16.00441 ],
			"type": "VEC3"
		},
		{
			"bufferView": 2,
			"byteOffset": 15864,
			"componentType": 5126,
			"count": 1322,
			"max": [ 0.99778, 1, 0.9982607 ],
			"min": [ -0.9996293, -0.9949331, -0.9965937 ],
			"type": "VEC3"
		},
		{
			"bufferView": 1,
			"byteOffset": 0,
			"componentType": 5126,
			"count": 1322,
			"max": [ 5.32323, 2.907558 ],
			"min": [ -1.963585, -0.6733153 ],
			"type": "VEC2"
		},
		{
			"bufferView": 3,
			"byteOffset": 0,
			"componentType": 5126,
			"count": 1322,
			"max": [ 0.9651676, 0.9984754, 0.9998593, 1 ],
			"min": [ -0.9981611, -0.9797894, -0.9954308, 1 ],
			"type": "VEC4"
		},
		{
			"bufferView": 0,
			"byteOffset": 0,
			"componentType": 5123,
			"count": 966,
			"max": [ 925 ],
			"min": [ 0 ],
			"type": "SCALAR"
		},
		{
			"bufferView": 0,
			"byteOffset": 1932,
			"componentType": 5123,
			"count": 867,
			"max": [ 1321 ],
			"min": [ 926 ],
			"type": "SCALAR"
		},
		{
			"bufferView": 2,
			"byteOffset": 31728,
			"componentType": 5126,
			"count": 32,
			"max": [ -0.1043746, 4.105851, -0.1670177 ],
			"min": [ -15.50239, 0, -15.75697 ],
			"type": "VEC3"
		},
		{
			"bufferView": 2,
			"byteOffset": 32112,
			"componentType": 5126,
			"count": 32,
			"max": [ 0.9999555, 1, 0.9999555 ],
			"min": [ -0.9999555, -1, -0.9999555 ],
			"type": "VEC3"
		},
		{
			"bufferView": 1,
			"byteOffset": 10576,
			"componentType": 5126,
			"count": 32,
			"max": [ 0.875, 1 ],
			"min": [ 0.125, 0 ],
			"type": "VEC2"
		},
		{
			"bufferView": 3,
			"byteOffset": 21152,
			"componentType": 5126,
			"count": 32,
			"max": [ 0, 0, 1, 1 ],
			"min": [ -1, 0, -1, 1 ],
			"type": "VEC4"
		},
		{
			"bufferView": 0,
			"byteOffset": 3666,
			"componentType": 5123,
			"count": 60,
			"max": [ 31 ],
			"min": [ 0 ],
			"type": "SCALAR"
		}
	],
	"buffers": [
		{
			"byteLength": 68778,
			"uri": "entity112122.bin"
		}
	],
	"bufferViews": [
		{
			"buffer": 0,
			"byteLength": 3786,
			"target": 34963,
			"byteOffset": 64992
		},
		{
			"buffer": 0,
			"byteLength": 10832,
			"target": 34962,
			"byteStride": 8,
			"byteOffset": 0
		},
		{
			"buffer": 0,
			"byteLength": 32496,
			"target": 34962,
			"byteStride": 12,
			"byteOffset": 10832
		},
		{
			"buffer": 0,
			"byteLength": 21664,
			"target": 34962,
			"byteStride": 16,
			"byteOffset": 43328
		}
	],
	"images": [
		{
			"uri": "Assets/Visuals/Materials/Rock_03_Albedo.jpg"
		},
		{
			"uri": "Assets/Visuals/Materials/Rock_01_Albedo.jpg"
		}
	],
	"materials": [
		{
			"pbrMetallicRoughness": {
				"baseColorTexture" : {
					"index" : 0,
					"texCoord" : 0
				},
				"baseColorFactor": [1, 1, 1, 1],
				"metallicFactor": 0,
				"roughnessFactor": 1
			},
			"emissiveFactor": [0, 0, 0],
			"doubleSided": false,
			"name": "Rock_03_Mat"
		},
		{
			"pbrMetallicRoughness": {
				"baseColorTexture" : {
					"index" : 1,
					"texCoord" : 0
				},
				"baseColorFactor": [1, 1, 1, 1],
				"metallicFactor": 0,
				"roughnessFactor": 1
			},
			"emissiveFactor": [0, 0, 0],
			"doubleSided": false,
			"name": "Rock_01_Mat"
		},
		{
			"pbrMetallicRoughness": {
				"baseColorFactor": [0.05724907, 1, 0, 1],
				"metallicFactor": 0,
				"roughnessFactor": 0.5
			},
			"emissiveFactor": [0, 0, 0],
			"doubleSided": false,
			"name": "_collider_Mat"
		}
	],
	"meshes": [
		{
			"name": "mesh_Floating_Island_3_11446Terrain_Island_037",
			"primitives": [
				{
					"attributes": {
						"POSITION": 0,
						"NORMAL": 1,
						"TEXCOORD_0": 2,
						"TANGENT": 3
					},
					"indices": 4,
					"material": 0,
					"mode": 4
				},
				{
					"attributes": {
						"POSITION": 0,
						"NORMAL": 1,
						"TEXCOORD_0": 2,
						"TANGENT": 3
					},
					"indices": 5,
					"material": 1,
					"mode": 4
				}
			]
		},
		{
			"name": "mesh_Floating_Island_3_collider_11448Floating_Island_3_collider",
			"primitives": [
				{
					"attributes": {
						"POSITION": 6,
						"NORMAL": 7,
						"TEXCOORD_0": 8,
						"TANGENT": 9
					},
					"indices": 10,
					"material": 2,
					"mode": 4
				}
			]
		}
	],
	"nodes": [
		{
			"name": "UnityGlTF_root",
			"children": [
				1
			]
		},
		{
			"name": "node_Terrain_Island_037",
			"mesh": 0,
			"children": [
				2
			],
			"matrix": [1, 0, 0, 0, 0, 1, 0, 0, 0, 0, 1, 0, 0, 0, 0, 1]
		},
		{
			"name": "node_Floating_Island_3_collider",
			"mesh": 1
		}
	],
	"samplers": [
		{
			"magFilter": 9729,
			"minFilter": 9985,
			"wrapS": 10497,
			"wrapT": 10497
		}
	],
	"scenes": [
		{
			"name":"defaultScene",
			"nodes": [
				0
			]
		}
	],
	"scene": 0,
	"textures": [
		{
			"sampler": 0,
			"source": 0
		},
		{
			"sampler": 0,
			"source": 1
		}
	]
}