{
	"asset": {
		"generator": "Unity 2018.3.6f1",
		"extras": {
			"exporterVersion" : "2.2.1"
		},
		"version": "2.0"
	},
	"accessors": [
		{
			"bufferView": 2,
			"byteOffset": 0,
			"componentType": 5126,
			"count": 3136,
			"max": [ 1.083205, 1.883308, 0.8353746 ],
			"min": [ -1.083205, -1.883308, -0.8353746 ],
			"type": "VEC3"
		},
		{
			"bufferView": 2,
			"byteOffset": 37632,
			"componentType": 5126,
			"count": 3136,
			"max": [ 0.999964, 1, 0.9999741 ],
			"min": [ -0.999947, -0.9999939, -0.9999552 ],
			"type": "VEC3"
		},
		{
			"bufferView": 1,
			"byteOffset": 0,
			"componentType": 5126,
			"count": 3136,
			"max": [ 0.9181156, 0.9980081 ],
			"min": [ 0.001832566, 0.001992032 ],
			"type": "VEC2"
		},
		{
			"bufferView": 3,
			"byteOffset": 0,
			"componentType": 5126,
			"count": 3136,
			"max": [ 0.974337, 0.9999489, 0.9999993, 1 ],
			"min": [ -1, -0.9998111, -0.9999993, -1 ],
			"type": "VEC4"
		},
		{
			"bufferView": 0,
			"byteOffset": 0,
			"componentType": 5123,
			"count": 1644,
			"max": [ 1557 ],
			"min": [ 0 ],
			"type": "SCALAR"
		},
		{
			"bufferView": 0,
			"byteOffset": 3288,
			"componentType": 5123,
			"count": 1644,
			"max": [ 3135 ],
			"min": [ 1558 ],
			"type": "SCALAR"
		}
	],
	"buffers": [
		{
			"byteLength": 157104,
			"uri": "entity434922.bin"
		}
	],
	"bufferViews": [
		{
			"buffer": 0,
			"byteLength": 6576,
			"target": 34963,
			"byteOffset": 150528
		},
		{
			"buffer": 0,
			"byteLength": 25088,
			"target": 34962,
			"byteStride": 8,
			"byteOffset": 0
		},
		{
			"buffer": 0,
			"byteLength": 75264,
			"target": 34962,
			"byteStride": 12,
			"byteOffset": 25088
		},
		{
			"buffer": 0,
			"byteLength": 50176,
			"target": 34962,
			"byteStride": 16,
			"byteOffset": 100352
		}
	],
	"images": [
		{
			"uri": "Assets/Visuals/Textures/texture_rock_simple_01.jpg"
		}
	],
	"materials": [
		{
			"pbrMetallicRoughness": {
				"baseColorTexture" : {
					"index" : 0,
					"texCoord" : 0
				},
				"baseColorFactor": [1, 0.3066038, 0.3066038, 1],
				"metallicFactor": 0,
				"roughnessFactor": 1
			},
			"emissiveFactor": [0, 0, 0],
			"doubleSided": false,
			"name": "mat09"
		},
		{
			"pbrMetallicRoughness": {
				"baseColorFactor": [1, 0.3066038, 0.3066038, 1],
				"metallicFactor": 1,
				"roughnessFactor": 1
			},
			"emissiveFactor": [0, 0, 0],
			"doubleSided": false,
			"name": "outline"
		}
	],
	"meshes": [
		{
			"name": "mesh_mesh_ruins_01_12430mesh_ruins_01",
			"primitives": [
				{
					"attributes": {
						"POSITION": 0,
						"NORMAL": 1,
						"TEXCOORD_0": 2,
						"TANGENT": 3
					},
					"indices": 4,
					"material": 0,
					"mode": 4
				},
				{
					"attributes": {
						"POSITION": 0,
						"NORMAL": 1,
						"TEXCOORD_0": 2,
						"TANGENT": 3
					},
					"indices": 5,
					"material": 1,
					"mode": 4
				}
			]
		}
	],
	"nodes": [
		{
			"name": "UnityGlTF_root",
			"children": [
				1
			]
		},
		{
			"name": "node_mesh_ruins_01",
			"mesh": 0,
			"matrix": [1, 0, 0, 0, 0, 1, 0, 0, 0, 0, 1, 0, 0, 0, 0, 1]
		}
	],
	"samplers": [
		{
			"magFilter": 9729,
			"minFilter": 9985,
			"wrapS": 10497,
			"wrapT": 10497
		}
	],
	"scenes": [
		{
			"name":"defaultScene",
			"nodes": [
				0
			]
		}
	],
	"scene": 0,
	"textures": [
		{
			"sampler": 0,
			"source": 0
		}
	]
}