{
	"asset": {
		"generator": "Unity 2018.3.6f1",
		"extras": {
			"exporterVersion" : "2.2.1"
		},
		"version": "2.0"
	},
	"accessors": [
		{
			"bufferView": 2,
			"byteOffset": 0,
			"componentType": 5126,
			"count": 731,
			"max": [ 7.393213, 2.799134, 7.290247 ],
			"min": [ -7.393213, -2.799134, -7.202827 ],
			"type": "VEC3"
		},
		{
			"bufferView": 2,
			"byteOffset": 8772,
			"componentType": 5126,
			"count": 731,
			"max": [ 0.9965455, 0.9999919, 0.9916582 ],
			"min": [ -0.9830778, -0.9999989, -0.9864608 ],
			"type": "VEC3"
		},
		{
			"bufferView": 1,
			"byteOffset": 0,
			"componentType": 5126,
			"count": 731,
			"max": [ 3.794759, 2.76823 ],
			"min": [ -1.824418, -1.008755 ],
			"type": "VEC2"
		},
		{
			"bufferView": 3,
			"byteOffset": 0,
			"componentType": 5126,
			"count": 731,
			"max": [ 0.9787171, 0.9996997, 0.9945465, 1 ],
			"min": [ -0.9631394, -0.9934626, -0.9905413, 1 ],
			"type": "VEC4"
		},
		{
			"bufferView": 0,
			"byteOffset": 0,
			"componentType": 5123,
			"count": 867,
			"max": [ 369 ],
			"min": [ 0 ],
			"type": "SCALAR"
		},
		{
			"bufferView": 0,
			"byteOffset": 1734,
			"componentType": 5123,
			"count": 711,
			"max": [ 730 ],
			"min": [ 370 ],
			"type": "SCALAR"
		},
		{
			"bufferView": 2,
			"byteOffset": 17544,
			"componentType": 5126,
			"count": 67,
			"max": [ 7.297036, 2.467451, 7.297036 ],
			"min": [ -7.297036, -3.199529, -7.297036 ],
			"type": "VEC3"
		},
		{
			"bufferView": 2,
			"byteOffset": 18348,
			"componentType": 5126,
			"count": 67,
			"max": [ 1, 1, 1 ],
			"min": [ -1, -1, -1 ],
			"type": "VEC3"
		},
		{
			"bufferView": 1,
			"byteOffset": 5848,
			"componentType": 5126,
			"count": 67,
			"max": [ 0.875, 1 ],
			"min": [ 0.125, 0 ],
			"type": "VEC2"
		},
		{
			"bufferView": 3,
			"byteOffset": 11696,
			"componentType": 5126,
			"count": 67,
			"max": [ 1, 0.1514372, 1, 1 ],
			"min": [ -1, -0.1514372, -1, 1 ],
			"type": "VEC4"
		},
		{
			"bufferView": 0,
			"byteOffset": 3156,
			"componentType": 5123,
			"count": 144,
			"max": [ 66 ],
			"min": [ 0 ],
			"type": "SCALAR"
		}
	],
	"buffers": [
		{
			"byteLength": 41748,
			"uri": "entity116006.bin"
		}
	],
	"bufferViews": [
		{
			"buffer": 0,
			"byteLength": 3444,
			"target": 34963,
			"byteOffset": 38304
		},
		{
			"buffer": 0,
			"byteLength": 6384,
			"target": 34962,
			"byteStride": 8,
			"byteOffset": 0
		},
		{
			"buffer": 0,
			"byteLength": 19152,
			"target": 34962,
			"byteStride": 12,
			"byteOffset": 6384
		},
		{
			"buffer": 0,
			"byteLength": 12768,
			"target": 34962,
			"byteStride": 16,
			"byteOffset": 25536
		}
	],
	"images": [
		{
			"uri": "Assets/Visuals/Materials/Grass_Albedo.jpg"
		},
		{
			"uri": "Assets/Visuals/Materials/Rock_01_Albedo.jpg"
		}
	],
	"materials": [
		{
			"pbrMetallicRoughness": {
				"baseColorTexture" : {
					"index" : 0,
					"texCoord" : 0
				},
				"baseColorFactor": [1, 1, 1, 1],
				"metallicFactor": 0,
				"roughnessFactor": 1
			},
			"emissiveFactor": [0, 0, 0],
			"doubleSided": false,
			"name": "Grass_Mat"
		},
		{
			"pbrMetallicRoughness": {
				"baseColorTexture" : {
					"index" : 1,
					"texCoord" : 0
				},
				"baseColorFactor": [1, 1, 1, 1],
				"metallicFactor": 0,
				"roughnessFactor": 1
			},
			"emissiveFactor": [0, 0, 0],
			"doubleSided": false,
			"name": "Rock_01_Mat"
		},
		{
			"pbrMetallicRoughness": {
				"baseColorFactor": [0.9657564, 0, 1, 1],
				"metallicFactor": 0,
				"roughnessFactor": 0.5
			},
			"emissiveFactor": [0, 0, 0],
			"doubleSided": false,
			"name": "_collider_Mat"
		}
	],
	"meshes": [
		{
			"name": "mesh_Floating_Island_01_10242Terrain_Island_015",
			"primitives": [
				{
					"attributes": {
						"POSITION": 0,
						"NORMAL": 1,
						"TEXCOORD_0": 2,
						"TANGENT": 3
					},
					"indices": 4,
					"material": 0,
					"mode": 4
				},
				{
					"attributes": {
						"POSITION": 0,
						"NORMAL": 1,
						"TEXCOORD_0": 2,
						"TANGENT": 3
					},
					"indices": 5,
					"material": 1,
					"mode": 4
				}
			]
		},
		{
			"name": "mesh_Floating_Island_01_collider_10244Floating_Island_01_collider",
			"primitives": [
				{
					"attributes": {
						"POSITION": 6,
						"NORMAL": 7,
						"TEXCOORD_0": 8,
						"TANGENT": 9
					},
					"indices": 10,
					"material": 2,
					"mode": 4
				}
			]
		}
	],
	"nodes": [
		{
			"name": "UnityGlTF_root",
			"children": [
				1
			]
		},
		{
			"name": "node_Terrain_Island_015",
			"mesh": 0,
			"children": [
				2
			],
			"matrix": [1, 0, 0, 0, 0, 1, 0, 0, 0, 0, 1, 0, 0, 0, 0, 1]
		},
		{
			"name": "node_Floating_Island_01_collider",
			"mesh": 1
		}
	],
	"samplers": [
		{
			"magFilter": 9729,
			"minFilter": 9985,
			"wrapS": 10497,
			"wrapT": 10497
		}
	],
	"scenes": [
		{
			"name":"defaultScene",
			"nodes": [
				0
			]
		}
	],
	"scene": 0,
	"textures": [
		{
			"sampler": 0,
			"source": 0
		},
		{
			"sampler": 0,
			"source": 1
		}
	]
}