{
	"asset": {
		"generator": "Unity 2018.3.6f1",
		"extras": {
			"exporterVersion" : "2.2.1"
		},
		"version": "2.0"
	},
	"accessors": [
		{
			"bufferView": 2,
			"byteOffset": 0,
			"componentType": 5126,
			"count": 1517,
			"max": [ 0.8964578, 2.501709, 0.9301178 ],
			"min": [ -0.8964575, 0.07842374, -0.9301178 ],
			"type": "VEC3"
		},
		{
			"bufferView": 2,
			"byteOffset": 18204,
			"componentType": 5126,
			"count": 1517,
			"max": [ 0.9977859, 1, 0.9972531 ],
			"min": [ -0.9976702, -1, -0.9973956 ],
			"type": "VEC3"
		},
		{
			"bufferView": 1,
			"byteOffset": 0,
			"componentType": 5126,
			"count": 1517,
			"max": [ 1.422944, 1.535516 ],
			"min": [ -0.5355617, -0.5353194 ],
			"type": "VEC2"
		},
		{
			"bufferView": 3,
			"byteOffset": 0,
			"componentType": 5126,
			"count": 1517,
			"max": [ 0.9242429, 0.997786, 0.9913237, 1 ],
			"min": [ -1, -0.997396, -0.9999666, -1 ],
			"type": "VEC4"
		},
		{
			"bufferView": 0,
			"byteOffset": 0,
			"componentType": 5123,
			"count": 891,
			"max": [ 751 ],
			"min": [ 0 ],
			"type": "SCALAR"
		},
		{
			"bufferView": 0,
			"byteOffset": 1782,
			"componentType": 5123,
			"count": 891,
			"max": [ 1516 ],
			"min": [ 752 ],
			"type": "SCALAR"
		}
	],
	"buffers": [
		{
			"byteLength": 76380,
			"uri": "entity833028.bin"
		}
	],
	"bufferViews": [
		{
			"buffer": 0,
			"byteLength": 3564,
			"target": 34963,
			"byteOffset": 72816
		},
		{
			"buffer": 0,
			"byteLength": 12136,
			"target": 34962,
			"byteStride": 8,
			"byteOffset": 0
		},
		{
			"buffer": 0,
			"byteLength": 36408,
			"target": 34962,
			"byteStride": 12,
			"byteOffset": 12136
		},
		{
			"buffer": 0,
			"byteLength": 24272,
			"target": 34962,
			"byteStride": 16,
			"byteOffset": 48544
		}
	],
	"images": [
		{
			"uri": "Assets/Visuals/Textures/texture_rock_mounts_01.jpg"
		}
	],
	"materials": [
		{
			"pbrMetallicRoughness": {
				"baseColorTexture" : {
					"index" : 0,
					"texCoord" : 0
				},
				"baseColorFactor": [1, 0.3066038, 0.3066038, 1],
				"metallicFactor": 0,
				"roughnessFactor": 1
			},
			"emissiveFactor": [0, 0, 0],
			"doubleSided": false,
			"name": "mat08"
		},
		{
			"pbrMetallicRoughness": {
				"baseColorFactor": [1, 0.3066038, 0.3066038, 1],
				"metallicFactor": 1,
				"roughnessFactor": 1
			},
			"emissiveFactor": [0, 0, 0],
			"doubleSided": false,
			"name": "outline"
		}
	],
	"meshes": [
		{
			"name": "mesh_mesh_ruins_03_10750mesh_ruins_03",
			"primitives": [
				{
					"attributes": {
						"POSITION": 0,
						"NORMAL": 1,
						"TEXCOORD_0": 2,
						"TANGENT": 3
					},
					"indices": 4,
					"material": 0,
					"mode": 4
				},
				{
					"attributes": {
						"POSITION": 0,
						"NORMAL": 1,
						"TEXCOORD_0": 2,
						"TANGENT": 3
					},
					"indices": 5,
					"material": 1,
					"mode": 4
				}
			]
		}
	],
	"nodes": [
		{
			"name": "UnityGlTF_root",
			"children": [
				1
			]
		},
		{
			"name": "node_mesh_ruins_03",
			"mesh": 0,
			"matrix": [1, 0, 0, 0, 0, 1, 0, 0, 0, 0, 1, 0, 0, 0, 0, 1]
		}
	],
	"samplers": [
		{
			"magFilter": 9729,
			"minFilter": 9985,
			"wrapS": 10497,
			"wrapT": 10497
		}
	],
	"scenes": [
		{
			"name":"defaultScene",
			"nodes": [
				0
			]
		}
	],
	"scene": 0,
	"textures": [
		{
			"sampler": 0,
			"source": 0
		}
	]
}