{
	"asset": {
		"generator": "Unity 2018.3.6f1",
		"extras": {
			"exporterVersion" : "2.2.1"
		},
		"version": "2.0"
	},
	"accessors": [
		{
			"bufferView": 2,
			"byteOffset": 0,
			"componentType": 5126,
			"count": 118,
			"max": [ 0.2446955, 0.7604893, 0.2322884 ],
			"min": [ -0.1339968, -7.867813E-08, -0.195623 ],
			"type": "VEC3"
		},
		{
			"bufferView": 2,
			"byteOffset": 1416,
			"componentType": 5126,
			"count": 118,
			"max": [ 0.9985465, 0.9903604, 0.9775899 ],
			"min": [ -0.9963763, -0.9892453, -0.9658113 ],
			"type": "VEC3"
		},
		{
			"bufferView": 1,
			"byteOffset": 0,
			"componentType": 5126,
			"count": 118,
			"max": [ 2.549931, 1.622366 ],
			"min": [ -1.575969, -1.336714 ],
			"type": "VEC2"
		},
		{
			"bufferView": 3,
			"byteOffset": 0,
			"componentType": 5126,
			"count": 118,
			"max": [ 0.9247105, 0.9887399, 0.9979215, 1 ],
			"min": [ -0.9718233, -0.9588224, -0.8450655, -1 ],
			"type": "VEC4"
		},
		{
			"bufferView": 0,
			"byteOffset": 0,
			"componentType": 5123,
			"count": 135,
			"max": [ 34 ],
			"min": [ 0 ],
			"type": "SCALAR"
		},
		{
			"bufferView": 0,
			"byteOffset": 270,
			"componentType": 5123,
			"count": 120,
			"max": [ 70 ],
			"min": [ 35 ],
			"type": "SCALAR"
		},
		{
			"bufferView": 0,
			"byteOffset": 510,
			"componentType": 5123,
			"count": 165,
			"max": [ 117 ],
			"min": [ 71 ],
			"type": "SCALAR"
		},
		{
			"bufferView": 2,
			"byteOffset": 2832,
			"componentType": 5126,
			"count": 12,
			"max": [ 0.1021814, 0.504312, 0.1769834 ],
			"min": [ -0.2043628, 0, -0.1769834 ],
			"type": "VEC3"
		},
		{
			"bufferView": 2,
			"byteOffset": 2976,
			"componentType": 5126,
			"count": 12,
			"max": [ 0.9800846, 0.1985804, 0.8487782 ],
			"min": [ -0.4900424, -1, -0.8487782 ],
			"type": "VEC3"
		},
		{
			"bufferView": 1,
			"byteOffset": 944,
			"componentType": 5126,
			"count": 12,
			"max": [ 0.7500001, 1 ],
			"min": [ 0.25, 0.03349362 ],
			"type": "VEC2"
		},
		{
			"bufferView": 3,
			"byteOffset": 1888,
			"componentType": 5126,
			"count": 12,
			"max": [ 0.8660253, 0, 0.5000002, 1 ],
			"min": [ -1, 0, -1, 1 ],
			"type": "VEC4"
		},
		{
			"bufferView": 0,
			"byteOffset": 840,
			"componentType": 5123,
			"count": 12,
			"max": [ 11 ],
			"min": [ 0 ],
			"type": "SCALAR"
		}
	],
	"buffers": [
		{
			"byteLength": 7104,
			"uri": "entity305616.bin"
		}
	],
	"bufferViews": [
		{
			"buffer": 0,
			"byteLength": 864,
			"target": 34963,
			"byteOffset": 6240
		},
		{
			"buffer": 0,
			"byteLength": 1040,
			"target": 34962,
			"byteStride": 8,
			"byteOffset": 0
		},
		{
			"buffer": 0,
			"byteLength": 3120,
			"target": 34962,
			"byteStride": 12,
			"byteOffset": 1040
		},
		{
			"buffer": 0,
			"byteLength": 2080,
			"target": 34962,
			"byteStride": 16,
			"byteOffset": 4160
		}
	],
	"images": [
		{
			"uri": "Assets/Visuals/Materials/Rock_01_Albedo.jpg"
		},
		{
			"uri": "Assets/Visuals/Materials/Mushroom_Clair_Albedo.jpg"
		}
	],
	"materials": [
		{
			"pbrMetallicRoughness": {
				"baseColorTexture" : {
					"index" : 0,
					"texCoord" : 0
				},
				"baseColorFactor": [1, 1, 1, 1],
				"metallicFactor": 0,
				"roughnessFactor": 1
			},
			"emissiveFactor": [0, 0, 0],
			"doubleSided": false,
			"name": "Rock_01_Mat"
		},
		{
			"pbrMetallicRoughness": {
				"baseColorTexture" : {
					"index" : 1,
					"texCoord" : 0
				},
				"baseColorFactor": [1, 1, 1, 1],
				"metallicFactor": 0,
				"roughnessFactor": 1
			},
			"emissiveFactor": [0, 0, 0],
			"doubleSided": false,
			"name": "Mushroom_Clair_Mat"
		},
		{
			"pbrMetallicRoughness": {
				"baseColorFactor": [0, 0, 0, 1],
				"metallicFactor": 0,
				"roughnessFactor": 1
			},
			"emissiveFactor": [0, 0, 0],
			"doubleSided": false,
			"name": "Black_Outline_Mat"
		},
		{
			"pbrMetallicRoughness": {
				"baseColorFactor": [0.9657564, 0, 1, 1],
				"metallicFactor": 0,
				"roughnessFactor": 0.5
			},
			"emissiveFactor": [0, 0, 0],
			"doubleSided": false,
			"name": "_collider_Mat"
		}
	],
	"meshes": [
		{
			"name": "mesh_Mushroom_02_11296Mushroom_026",
			"primitives": [
				{
					"attributes": {
						"POSITION": 0,
						"NORMAL": 1,
						"TEXCOORD_0": 2,
						"TANGENT": 3
					},
					"indices": 4,
					"material": 0,
					"mode": 4
				},
				{
					"attributes": {
						"POSITION": 0,
						"NORMAL": 1,
						"TEXCOORD_0": 2,
						"TANGENT": 3
					},
					"indices": 5,
					"material": 1,
					"mode": 4
				},
				{
					"attributes": {
						"POSITION": 0,
						"NORMAL": 1,
						"TEXCOORD_0": 2,
						"TANGENT": 3
					},
					"indices": 6,
					"material": 2,
					"mode": 4
				}
			]
		},
		{
			"name": "mesh_Mushroom_02_collider_11298Mushroom_02_collider",
			"primitives": [
				{
					"attributes": {
						"POSITION": 7,
						"NORMAL": 8,
						"TEXCOORD_0": 9,
						"TANGENT": 10
					},
					"indices": 11,
					"material": 3,
					"mode": 4
				}
			]
		}
	],
	"nodes": [
		{
			"name": "UnityGlTF_root",
			"children": [
				1
			]
		},
		{
			"name": "node_Mushroom_026",
			"mesh": 0,
			"children": [
				2
			],
			"matrix": [1, 0, 0, 0, 0, 1, 0, 0, 0, 0, 1, 0, 0, 0, 0, 1]
		},
		{
			"name": "node_Mushroom_02_collider",
			"mesh": 1
		}
	],
	"samplers": [
		{
			"magFilter": 9729,
			"minFilter": 9985,
			"wrapS": 10497,
			"wrapT": 10497
		}
	],
	"scenes": [
		{
			"name":"defaultScene",
			"nodes": [
				0
			]
		}
	],
	"scene": 0,
	"textures": [
		{
			"sampler": 0,
			"source": 0
		},
		{
			"sampler": 0,
			"source": 1
		}
	]
}