{
	"asset": {
		"generator": "Unity 2018.3.6f1",
		"extras": {
			"exporterVersion" : "2.2.1"
		},
		"version": "2.0"
	},
	"accessors": [
		{
			"bufferView": 2,
			"byteOffset": 0,
			"componentType": 5126,
			"count": 300,
			"max": [ 291.0244, 55.4585, 64.64865 ],
			"min": [ -291.0244, -55.4585, -64.64865 ],
			"type": "VEC3"
		},
		{
			"bufferView": 2,
			"byteOffset": 3600,
			"componentType": 5126,
			"count": 300,
			"max": [ 0.9864056, 0.9998133, 0.9999501 ],
			"min": [ -0.9854702, -0.9997961, -0.9999541 ],
			"type": "VEC3"
		},
		{
			"bufferView": 1,
			"byteOffset": 0,
			"componentType": 5126,
			"count": 300,
			"max": [ 2.160764, 1.944769 ],
			"min": [ -1.353677, -0.4673077 ],
			"type": "VEC2"
		},
		{
			"bufferView": 3,
			"byteOffset": 0,
			"componentType": 5126,
			"count": 300,
			"max": [ 0.9999847, 0.7676024, 0.9968097, 1 ],
			"min": [ -0.9993605, -0.7853859, -0.9969259, -1 ],
			"type": "VEC4"
		},
		{
			"bufferView": 0,
			"byteOffset": 0,
			"componentType": 5123,
			"count": 198,
			"max": [ 149 ],
			"min": [ 0 ],
			"type": "SCALAR"
		},
		{
			"bufferView": 0,
			"byteOffset": 396,
			"componentType": 5123,
			"count": 198,
			"max": [ 299 ],
			"min": [ 150 ],
			"type": "SCALAR"
		}
	],
	"buffers": [
		{
			"byteLength": 15192,
			"uri": "entity439568.bin"
		}
	],
	"bufferViews": [
		{
			"buffer": 0,
			"byteLength": 792,
			"target": 34963,
			"byteOffset": 14400
		},
		{
			"buffer": 0,
			"byteLength": 2400,
			"target": 34962,
			"byteStride": 8,
			"byteOffset": 0
		},
		{
			"buffer": 0,
			"byteLength": 7200,
			"target": 34962,
			"byteStride": 12,
			"byteOffset": 2400
		},
		{
			"buffer": 0,
			"byteLength": 4800,
			"target": 34962,
			"byteStride": 16,
			"byteOffset": 9600
		}
	],
	"images": [
		{
			"uri": "Assets/Visuals/Textures/texture_rock_mounts_01.jpg"
		}
	],
	"materials": [
		{
			"pbrMetallicRoughness": {
				"baseColorFactor": [1, 0.3066038, 0.3066038, 1],
				"metallicFactor": 1,
				"roughnessFactor": 1
			},
			"emissiveFactor": [0, 0, 0],
			"doubleSided": false,
			"name": "outline"
		},
		{
			"pbrMetallicRoughness": {
				"baseColorTexture" : {
					"index" : 0,
					"texCoord" : 0
				},
				"baseColorFactor": [1, 0.3066038, 0.3066038, 1],
				"metallicFactor": 0,
				"roughnessFactor": 1
			},
			"emissiveFactor": [0, 0, 0],
			"doubleSided": false,
			"name": "mat08"
		}
	],
	"meshes": [
		{
			"name": "mesh_stair8_11620stair8",
			"primitives": [
				{
					"attributes": {
						"POSITION": 0,
						"NORMAL": 1,
						"TEXCOORD_0": 2,
						"TANGENT": 3
					},
					"indices": 4,
					"material": 0,
					"mode": 4
				},
				{
					"attributes": {
						"POSITION": 0,
						"NORMAL": 1,
						"TEXCOORD_0": 2,
						"TANGENT": 3
					},
					"indices": 5,
					"material": 1,
					"mode": 4
				}
			]
		}
	],
	"nodes": [
		{
			"name": "UnityGlTF_root",
			"children": [
				1
			]
		},
		{
			"name": "node_stair8",
			"mesh": 0,
			"matrix": [1, 0, 0, 0, 0, 1, 0, 0, 0, 0, 1, 0, 0, 0, 0, 1]
		}
	],
	"samplers": [
		{
			"magFilter": 9729,
			"minFilter": 9985,
			"wrapS": 10497,
			"wrapT": 10497
		}
	],
	"scenes": [
		{
			"name":"defaultScene",
			"nodes": [
				0
			]
		}
	],
	"scene": 0,
	"textures": [
		{
			"sampler": 0,
			"source": 0
		}
	]
}