{
	"asset": {
		"generator": "Unity 2018.3.6f1",
		"extras": {
			"exporterVersion" : "2.2.1"
		},
		"version": "2.0"
	},
	"accessors": [
		{
			"bufferView": 2,
			"byteOffset": 0,
			"componentType": 5126,
			"count": 3392,
			"max": [ 0.9658754, 2.575071, 0.9710311 ],
			"min": [ -0.9658754, -0.0138512, -0.9710311 ],
			"type": "VEC3"
		},
		{
			"bufferView": 2,
			"byteOffset": 40704,
			"componentType": 5126,
			"count": 3392,
			"max": [ 0.99975, 0.9999906, 0.9998939 ],
			"min": [ -0.99975, -0.9999905, -0.9999061 ],
			"type": "VEC3"
		},
		{
			"bufferView": 1,
			"byteOffset": 0,
			"componentType": 5126,
			"count": 3392,
			"max": [ 0.9912596, 0.9802715 ],
			"min": [ 0.006598651, 0.01596455 ],
			"type": "VEC2"
		},
		{
			"bufferView": 3,
			"byteOffset": 0,
			"componentType": 5126,
			"count": 3392,
			"max": [ 0.9996594, 0.9060256, 0.9999609, 1 ],
			"min": [ -0.9997572, -0.9790921, -0.9948833, -1 ],
			"type": "VEC4"
		},
		{
			"bufferView": 0,
			"byteOffset": 0,
			"componentType": 5123,
			"count": 3498,
			"max": [ 1695 ],
			"min": [ 0 ],
			"type": "SCALAR"
		},
		{
			"bufferView": 0,
			"byteOffset": 6996,
			"componentType": 5123,
			"count": 3498,
			"max": [ 3391 ],
			"min": [ 1696 ],
			"type": "SCALAR"
		}
	],
	"buffers": [
		{
			"byteLength": 176808,
			"uri": "entity442950.bin"
		}
	],
	"bufferViews": [
		{
			"buffer": 0,
			"byteLength": 13992,
			"target": 34963,
			"byteOffset": 162816
		},
		{
			"buffer": 0,
			"byteLength": 27136,
			"target": 34962,
			"byteStride": 8,
			"byteOffset": 0
		},
		{
			"buffer": 0,
			"byteLength": 81408,
			"target": 34962,
			"byteStride": 12,
			"byteOffset": 27136
		},
		{
			"buffer": 0,
			"byteLength": 54272,
			"target": 34962,
			"byteStride": 16,
			"byteOffset": 108544
		}
	],
	"images": [
		{
			"uri": "Assets/Visuals/Textures/texture_statue_lion.jpg"
		}
	],
	"materials": [
		{
			"pbrMetallicRoughness": {
				"baseColorTexture" : {
					"index" : 0,
					"texCoord" : 0
				},
				"baseColorFactor": [1, 0.3066038, 0.3066038, 1],
				"metallicFactor": 0,
				"roughnessFactor": 1
			},
			"emissiveFactor": [0, 0, 0],
			"doubleSided": false,
			"name": "mat14"
		},
		{
			"pbrMetallicRoughness": {
				"baseColorFactor": [1, 0.3066038, 0.3066038, 1],
				"metallicFactor": 1,
				"roughnessFactor": 1
			},
			"emissiveFactor": [0, 0, 0],
			"doubleSided": false,
			"name": "outline"
		}
	],
	"meshes": [
		{
			"name": "mesh_mesh_ruins_02_12800mesh_ruins_02",
			"primitives": [
				{
					"attributes": {
						"POSITION": 0,
						"NORMAL": 1,
						"TEXCOORD_0": 2,
						"TANGENT": 3
					},
					"indices": 4,
					"material": 0,
					"mode": 4
				},
				{
					"attributes": {
						"POSITION": 0,
						"NORMAL": 1,
						"TEXCOORD_0": 2,
						"TANGENT": 3
					},
					"indices": 5,
					"material": 1,
					"mode": 4
				}
			]
		}
	],
	"nodes": [
		{
			"name": "UnityGlTF_root",
			"children": [
				1
			]
		},
		{
			"name": "node_mesh_ruins_02",
			"mesh": 0,
			"matrix": [1, 0, 0, 0, 0, 1, 0, 0, 0, 0, 1, 0, 0, 0, 0, 1]
		}
	],
	"samplers": [
		{
			"magFilter": 9729,
			"minFilter": 9985,
			"wrapS": 10497,
			"wrapT": 10497
		}
	],
	"scenes": [
		{
			"name":"defaultScene",
			"nodes": [
				0
			]
		}
	],
	"scene": 0,
	"textures": [
		{
			"sampler": 0,
			"source": 0
		}
	]
}