{
	"asset": {
		"generator": "Unity 2018.3.6f1",
		"extras": {
			"exporterVersion" : "2.2.1"
		},
		"version": "2.0"
	},
	"accessors": [
		{
			"bufferView": 2,
			"byteOffset": 0,
			"componentType": 5126,
			"count": 1315,
			"max": [ 1930.78, 3042.531, 1103.904 ],
			"min": [ -2181.245, -87.17611, -1413.449 ],
			"type": "VEC3"
		},
		{
			"bufferView": 2,
			"byteOffset": 15780,
			"componentType": 5126,
			"count": 1315,
			"max": [ 0.9976572, 0.9989368, 0.9998325 ],
			"min": [ -0.9982009, -0.9991484, -0.9996114 ],
			"type": "VEC3"
		},
		{
			"bufferView": 1,
			"byteOffset": 0,
			"componentType": 5126,
			"count": 1315,
			"max": [ 2.180785, 2.439061 ],
			"min": [ -1.584399, -1.542012 ],
			"type": "VEC2"
		},
		{
			"bufferView": 3,
			"byteOffset": 0,
			"componentType": 5126,
			"count": 1315,
			"max": [ 0.9930997, 0.997523, 0.998635, 1 ],
			"min": [ -0.9995973, -0.9994796, -0.9996406, -1 ],
			"type": "VEC4"
		},
		{
			"bufferView": 0,
			"byteOffset": 0,
			"componentType": 5123,
			"count": 594,
			"max": [ 187 ],
			"min": [ 0 ],
			"type": "SCALAR"
		},
		{
			"bufferView": 0,
			"byteOffset": 1188,
			"componentType": 5123,
			"count": 600,
			"max": [ 376 ],
			"min": [ 188 ],
			"type": "SCALAR"
		},
		{
			"bufferView": 0,
			"byteOffset": 2388,
			"componentType": 5123,
			"count": 4806,
			"max": [ 1314 ],
			"min": [ 377 ],
			"type": "SCALAR"
		}
	],
	"buffers": [
		{
			"byteLength": 75120,
			"uri": "entity439594.bin"
		}
	],
	"bufferViews": [
		{
			"buffer": 0,
			"byteLength": 12000,
			"target": 34963,
			"byteOffset": 63120
		},
		{
			"buffer": 0,
			"byteLength": 10520,
			"target": 34962,
			"byteStride": 8,
			"byteOffset": 0
		},
		{
			"buffer": 0,
			"byteLength": 31560,
			"target": 34962,
			"byteStride": 12,
			"byteOffset": 10520
		},
		{
			"buffer": 0,
			"byteLength": 21040,
			"target": 34962,
			"byteStride": 16,
			"byteOffset": 42080
		}
	],
	"images": [
		{
			"uri": "Assets/Visuals/Textures/texture_spiral_leaves_01.jpg"
		},
		{
			"uri": "Assets/Visuals/Textures/texture_bark_01.jpg"
		}
	],
	"materials": [
		{
			"pbrMetallicRoughness": {
				"baseColorFactor": [1, 0.3066038, 0.3066038, 1],
				"metallicFactor": 1,
				"roughnessFactor": 1
			},
			"emissiveFactor": [0, 0, 0],
			"doubleSided": false,
			"name": "outline"
		},
		{
			"pbrMetallicRoughness": {
				"baseColorTexture" : {
					"index" : 0,
					"texCoord" : 0
				},
				"baseColorFactor": [1, 0.3066038, 0.3066038, 1],
				"metallicFactor": 0,
				"roughnessFactor": 1
			},
			"emissiveFactor": [0, 0, 0],
			"doubleSided": false,
			"name": "mat11"
		},
		{
			"pbrMetallicRoughness": {
				"baseColorTexture" : {
					"index" : 1,
					"texCoord" : 0
				},
				"baseColorFactor": [1, 0.3066038, 0.3066038, 1],
				"metallicFactor": 0,
				"roughnessFactor": 1
			},
			"emissiveFactor": [0, 0, 0],
			"doubleSided": false,
			"name": "mat01"
		}
	],
	"meshes": [
		{
			"name": "mesh_group3_11594group3",
			"primitives": [
				{
					"attributes": {
						"POSITION": 0,
						"NORMAL": 1,
						"TEXCOORD_0": 2,
						"TANGENT": 3
					},
					"indices": 4,
					"material": 0,
					"mode": 4
				},
				{
					"attributes": {
						"POSITION": 0,
						"NORMAL": 1,
						"TEXCOORD_0": 2,
						"TANGENT": 3
					},
					"indices": 5,
					"material": 1,
					"mode": 4
				},
				{
					"attributes": {
						"POSITION": 0,
						"NORMAL": 1,
						"TEXCOORD_0": 2,
						"TANGENT": 3
					},
					"indices": 6,
					"material": 2,
					"mode": 4
				}
			]
		}
	],
	"nodes": [
		{
			"name": "UnityGlTF_root",
			"children": [
				1
			]
		},
		{
			"name": "node_group3",
			"mesh": 0,
			"matrix": [1, 0, 0, 0, 0, 1, 0, 0, 0, 0, 1, 0, 0, 0, 0, 1]
		}
	],
	"samplers": [
		{
			"magFilter": 9729,
			"minFilter": 9985,
			"wrapS": 10497,
			"wrapT": 10497
		}
	],
	"scenes": [
		{
			"name":"defaultScene",
			"nodes": [
				0
			]
		}
	],
	"scene": 0,
	"textures": [
		{
			"sampler": 0,
			"source": 0
		},
		{
			"sampler": 0,
			"source": 1
		}
	]
}