{
	"asset": {
		"generator": "Unity 2018.3.6f1",
		"extras": {
			"exporterVersion" : "2.2.1"
		},
		"version": "2.0"
	},
	"accessors": [
		{
			"bufferView": 2,
			"byteOffset": 0,
			"componentType": 5126,
			"count": 872,
			"max": [ 123.0663, 4.767311, 3.486213 ],
			"min": [ -121.5704, -65.31807, -3.486213 ],
			"type": "VEC3"
		},
		{
			"bufferView": 2,
			"byteOffset": 10464,
			"componentType": 5126,
			"count": 872,
			"max": [ 0.9622664, 0.9238806, 1 ],
			"min": [ -0.9622664, -0.9238808, -1 ],
			"type": "VEC3"
		},
		{
			"bufferView": 1,
			"byteOffset": 0,
			"componentType": 5126,
			"count": 872,
			"max": [ 2.915675, 3.137311 ],
			"min": [ -1.98632, -2.137311 ],
			"type": "VEC2"
		},
		{
			"bufferView": 3,
			"byteOffset": 0,
			"componentType": 5126,
			"count": 872,
			"max": [ 1, 0.9238814, 1, 1 ],
			"min": [ -1, -0.9238814, -1, -1 ],
			"type": "VEC4"
		},
		{
			"bufferView": 0,
			"byteOffset": 0,
			"componentType": 5123,
			"count": 960,
			"max": [ 499 ],
			"min": [ 0 ],
			"type": "SCALAR"
		},
		{
			"bufferView": 0,
			"byteOffset": 1920,
			"componentType": 5123,
			"count": 600,
			"max": [ 871 ],
			"min": [ 500 ],
			"type": "SCALAR"
		}
	],
	"buffers": [
		{
			"byteLength": 44976,
			"uri": "entity440478.bin"
		}
	],
	"bufferViews": [
		{
			"buffer": 0,
			"byteLength": 3120,
			"target": 34963,
			"byteOffset": 41856
		},
		{
			"buffer": 0,
			"byteLength": 6976,
			"target": 34962,
			"byteStride": 8,
			"byteOffset": 0
		},
		{
			"buffer": 0,
			"byteLength": 20928,
			"target": 34962,
			"byteStride": 12,
			"byteOffset": 6976
		},
		{
			"buffer": 0,
			"byteLength": 13952,
			"target": 34962,
			"byteStride": 16,
			"byteOffset": 27904
		}
	],
	"images": [
		{
			"uri": "Assets/Visuals/Textures/texture_rock_simple_01.jpg"
		}
	],
	"materials": [
		{
			"pbrMetallicRoughness": {
				"baseColorTexture" : {
					"index" : 0,
					"texCoord" : 0
				},
				"baseColorFactor": [1, 0.3066038, 0.3066038, 1],
				"metallicFactor": 0,
				"roughnessFactor": 1
			},
			"emissiveFactor": [0, 0, 0],
			"doubleSided": false,
			"name": "mat09"
		},
		{
			"pbrMetallicRoughness": {
				"baseColorFactor": [1, 0.3066038, 0.3066038, 1],
				"metallicFactor": 0,
				"roughnessFactor": 0.5
			},
			"emissiveFactor": [0, 0, 0],
			"doubleSided": false,
			"name": "mat03"
		}
	],
	"meshes": [
		{
			"name": "mesh_mesh_fence_01_12314mesh_fence_011",
			"primitives": [
				{
					"attributes": {
						"POSITION": 0,
						"NORMAL": 1,
						"TEXCOORD_0": 2,
						"TANGENT": 3
					},
					"indices": 4,
					"material": 0,
					"mode": 4
				},
				{
					"attributes": {
						"POSITION": 0,
						"NORMAL": 1,
						"TEXCOORD_0": 2,
						"TANGENT": 3
					},
					"indices": 5,
					"material": 1,
					"mode": 4
				}
			]
		}
	],
	"nodes": [
		{
			"name": "UnityGlTF_root",
			"children": [
				1
			]
		},
		{
			"name": "node_mesh_fence_011",
			"mesh": 0,
			"matrix": [1, 0, 0, 0, 0, 1, 0, 0, 0, 0, 1, 0, 0, 0, 0, 1]
		}
	],
	"samplers": [
		{
			"magFilter": 9729,
			"minFilter": 9985,
			"wrapS": 10497,
			"wrapT": 10497
		}
	],
	"scenes": [
		{
			"name":"defaultScene",
			"nodes": [
				0
			]
		}
	],
	"scene": 0,
	"textures": [
		{
			"sampler": 0,
			"source": 0
		}
	]
}