{
	"asset": {
		"generator": "Unity 2018.3.6f1",
		"extras": {
			"exporterVersion" : "2.2.1"
		},
		"version": "2.0"
	},
	"accessors": [
		{
			"bufferView": 2,
			"byteOffset": 0,
			"componentType": 5126,
			"count": 348,
			"max": [ 0.2479496, 0.5811313, 0.9404052 ],
			"min": [ 0.04439042, 0.0002253556, 0.6492744 ],
			"type": "VEC3"
		},
		{
			"bufferView": 2,
			"byteOffset": 4176,
			"componentType": 5126,
			"count": 348,
			"max": [ 0.9959371, 0.9849008, 0.9958894 ],
			"min": [ -0.9984037, -0.9985566, -0.9884824 ],
			"type": "VEC3"
		},
		{
			"bufferView": 1,
			"byteOffset": 0,
			"componentType": 5126,
			"count": 348,
			"max": [ 0.9720803, 0.3733743 ],
			"min": [ 0.02398498, 0.03450465 ],
			"type": "VEC2"
		},
		{
			"bufferView": 4,
			"byteOffset": 0,
			"componentType": 5123,
			"count": 348,
			"max": [ 11, 12, 12, 12 ],
			"min": [ 0, 0, 0, 0 ],
			"type": "VEC4"
		},
		{
			"bufferView": 3,
			"byteOffset": 0,
			"componentType": 5126,
			"count": 348,
			"max": [ 0.990888, 0.4971099, 0.2443171, 0.1315216 ],
			"min": [ 0.3952111, 0.007980103, 0, 0 ],
			"type": "VEC4"
		},
		{
			"bufferView": 3,
			"byteOffset": 5568,
			"componentType": 5126,
			"count": 348,
			"max": [ 0.9986619, 0.779361, 0.999887, 1 ],
			"min": [ -0.9977214, -0.9034493, -0.9993712, -1 ],
			"type": "VEC4"
		},
		{
			"bufferView": 0,
			"byteOffset": 0,
			"componentType": 5123,
			"count": 372,
			"max": [ 253 ],
			"min": [ 0 ],
			"type": "SCALAR"
		},
		{
			"bufferView": 0,
			"byteOffset": 744,
			"componentType": 5123,
			"count": 402,
			"max": [ 347 ],
			"min": [ 254 ],
			"type": "SCALAR"
		}
	],
	"buffers": [
		{
			"byteLength": 26604,
			"uri": "entity842190.bin"
		}
	],
	"bufferViews": [
		{
			"buffer": 0,
			"byteLength": 1548,
			"target": 34963,
			"byteOffset": 25056
		},
		{
			"buffer": 0,
			"byteLength": 2784,
			"target": 34962,
			"byteStride": 8,
			"byteOffset": 0
		},
		{
			"buffer": 0,
			"byteLength": 8352,
			"target": 34962,
			"byteStride": 12,
			"byteOffset": 2784
		},
		{
			"buffer": 0,
			"byteLength": 11136,
			"target": 34962,
			"byteStride": 16,
			"byteOffset": 11136
		},
		{
			"buffer": 0,
			"byteLength": 2784,
			"byteStride": 8,
			"byteOffset": 22272
		}
	],
	"images": [
		{
			"uri": "Assets/Visuals/Textures/texture_mountain_cat.jpg"
		}
	],
	"materials": [
		{
			"pbrMetallicRoughness": {
				"baseColorFactor": [1, 0.3066038, 0.3066038, 1],
				"metallicFactor": 1,
				"roughnessFactor": 1
			},
			"emissiveFactor": [0, 0, 0],
			"doubleSided": false,
			"name": "outline"
		},
		{
			"pbrMetallicRoughness": {
				"baseColorTexture" : {
					"index" : 0,
					"texCoord" : 0
				},
				"baseColorFactor": [1, 0.3066038, 0.3066038, 1],
				"metallicFactor": 0,
				"roughnessFactor": 1
			},
			"emissiveFactor": [0, 0, 0],
			"doubleSided": false,
			"name": "mat_cat"
		}
	],
	"meshes": [
		{
			"name": "mesh_mesh_mountain_cat_05_11336mesh_mountain_cat_05",
			"primitives": [
				{
					"attributes": {
						"POSITION": 0,
						"NORMAL": 1,
						"TEXCOORD_0": 2,
						"JOINTS_0": 3,
						"WEIGHTS_0": 4,
						"TANGENT": 5
					},
					"indices": 6,
					"material": 0,
					"mode": 4
				},
				{
					"attributes": {
						"POSITION": 0,
						"NORMAL": 1,
						"TEXCOORD_0": 2,
						"JOINTS_0": 3,
						"WEIGHTS_0": 4,
						"TANGENT": 5
					},
					"indices": 7,
					"material": 1,
					"mode": 4
				}
			]
		}
	],
	"nodes": [
		{
			"name": "UnityGlTF_root",
			"children": [
				1
			]
		},
		{
			"name": "node_mesh_mountain_cat_05",
			"mesh": 0,
			"matrix": [1, 0, 0, 0, 0, 1, 0, 0, 0, 0, 1, 0, 0, 0, 0, 1]
		}
	],
	"samplers": [
		{
			"magFilter": 9729,
			"minFilter": 9985,
			"wrapS": 10497,
			"wrapT": 10497
		}
	],
	"scenes": [
		{
			"name":"defaultScene",
			"nodes": [
				0
			]
		}
	],
	"scene": 0,
	"textures": [
		{
			"sampler": 0,
			"source": 0
		}
	]
}