{
	"asset": {
		"generator": "Unity 2018.3.6f1",
		"extras": {
			"exporterVersion" : "2.2.1"
		},
		"version": "2.0"
	},
	"accessors": [
		{
			"bufferView": 2,
			"byteOffset": 0,
			"componentType": 5126,
			"count": 498,
			"max": [ 133.3824, 160.0809, 133.8668 ],
			"min": [ -133.3824, -2.475334, -133.8668 ],
			"type": "VEC3"
		},
		{
			"bufferView": 2,
			"byteOffset": 5976,
			"componentType": 5126,
			"count": 498,
			"max": [ 0.9960279, 0.9987234, 0.9894373 ],
			"min": [ -0.998884, -0.996439, -0.9905697 ],
			"type": "VEC3"
		},
		{
			"bufferView": 1,
			"byteOffset": 0,
			"componentType": 5126,
			"count": 498,
			"max": [ 1.779081, 2.358949 ],
			"min": [ -1.530372, -0.5625106 ],
			"type": "VEC2"
		},
		{
			"bufferView": 3,
			"byteOffset": 0,
			"componentType": 5126,
			"count": 498,
			"max": [ 0.9986934, 0.9788945, 0.9984797, 1 ],
			"min": [ -0.7593949, -0.9130727, -0.9998237, -1 ],
			"type": "VEC4"
		},
		{
			"bufferView": 0,
			"byteOffset": 0,
			"componentType": 5123,
			"count": 942,
			"max": [ 235 ],
			"min": [ 0 ],
			"type": "SCALAR"
		},
		{
			"bufferView": 0,
			"byteOffset": 1884,
			"componentType": 5123,
			"count": 822,
			"max": [ 391 ],
			"min": [ 236 ],
			"type": "SCALAR"
		},
		{
			"bufferView": 0,
			"byteOffset": 3528,
			"componentType": 5123,
			"count": 549,
			"max": [ 497 ],
			"min": [ 392 ],
			"type": "SCALAR"
		}
	],
	"buffers": [
		{
			"byteLength": 28530,
			"uri": "entity428398.bin"
		}
	],
	"bufferViews": [
		{
			"buffer": 0,
			"byteLength": 4626,
			"target": 34963,
			"byteOffset": 23904
		},
		{
			"buffer": 0,
			"byteLength": 3984,
			"target": 34962,
			"byteStride": 8,
			"byteOffset": 0
		},
		{
			"buffer": 0,
			"byteLength": 11952,
			"target": 34962,
			"byteStride": 12,
			"byteOffset": 3984
		},
		{
			"buffer": 0,
			"byteLength": 7968,
			"target": 34962,
			"byteStride": 16,
			"byteOffset": 15936
		}
	],
	"images": [
		{
			"uri": "Assets/Visuals/Textures/texture_rock_mounts_01.jpg"
		},
		{
			"uri": "Assets/Visuals/Textures/texture_grass_base_01.jpg"
		}
	],
	"materials": [
		{
			"pbrMetallicRoughness": {
				"baseColorFactor": [1, 0.3066038, 0.3066038, 1],
				"metallicFactor": 1,
				"roughnessFactor": 1
			},
			"emissiveFactor": [0, 0, 0],
			"doubleSided": false,
			"name": "outline"
		},
		{
			"pbrMetallicRoughness": {
				"baseColorTexture" : {
					"index" : 0,
					"texCoord" : 0
				},
				"baseColorFactor": [1, 0.3066038, 0.3066038, 1],
				"metallicFactor": 0,
				"roughnessFactor": 1
			},
			"emissiveFactor": [0, 0, 0],
			"doubleSided": false,
			"name": "mat08"
		},
		{
			"pbrMetallicRoughness": {
				"baseColorTexture" : {
					"index" : 1,
					"texCoord" : 0
				},
				"baseColorFactor": [1, 0.3066038, 0.3066038, 1],
				"metallicFactor": 0,
				"roughnessFactor": 1
			},
			"emissiveFactor": [0, 0, 0],
			"doubleSided": false,
			"name": "mat04"
		}
	],
	"meshes": [
		{
			"name": "mesh_mesh_shelter_01_10332mesh_shelter_01",
			"primitives": [
				{
					"attributes": {
						"POSITION": 0,
						"NORMAL": 1,
						"TEXCOORD_0": 2,
						"TANGENT": 3
					},
					"indices": 4,
					"material": 0,
					"mode": 4
				},
				{
					"attributes": {
						"POSITION": 0,
						"NORMAL": 1,
						"TEXCOORD_0": 2,
						"TANGENT": 3
					},
					"indices": 5,
					"material": 1,
					"mode": 4
				},
				{
					"attributes": {
						"POSITION": 0,
						"NORMAL": 1,
						"TEXCOORD_0": 2,
						"TANGENT": 3
					},
					"indices": 6,
					"material": 2,
					"mode": 4
				}
			]
		}
	],
	"nodes": [
		{
			"name": "UnityGlTF_root",
			"children": [
				1
			]
		},
		{
			"name": "node_mesh_shelter_01",
			"mesh": 0,
			"matrix": [1, 0, 0, 0, 0, 1, 0, 0, 0, 0, 1, 0, 0, 0, 0, 1]
		}
	],
	"samplers": [
		{
			"magFilter": 9729,
			"minFilter": 9985,
			"wrapS": 10497,
			"wrapT": 10497
		}
	],
	"scenes": [
		{
			"name":"defaultScene",
			"nodes": [
				0
			]
		}
	],
	"scene": 0,
	"textures": [
		{
			"sampler": 0,
			"source": 0
		},
		{
			"sampler": 0,
			"source": 1
		}
	]
}