{
	"asset": {
		"generator": "Unity 2018.3.6f1",
		"extras": {
			"exporterVersion" : "2.2.1"
		},
		"version": "2.0"
	},
	"accessors": [
		{
			"bufferView": 2,
			"byteOffset": 0,
			"componentType": 5126,
			"count": 455,
			"max": [ 0.5606052, 0.855156, 0.2288496 ],
			"min": [ -0.2324636, 0, -0.3205701 ],
			"type": "VEC3"
		},
		{
			"bufferView": 2,
			"byteOffset": 5460,
			"componentType": 5126,
			"count": 455,
			"max": [ 0.9969802, 1, 0.9972791 ],
			"min": [ -0.9969802, -1, -0.9976398 ],
			"type": "VEC3"
		},
		{
			"bufferView": 1,
			"byteOffset": 0,
			"componentType": 5126,
			"count": 455,
			"max": [ 1, 1 ],
			"min": [ 0, -1.192093E-06 ],
			"type": "VEC2"
		},
		{
			"bufferView": 3,
			"byteOffset": 0,
			"componentType": 5126,
			"count": 455,
			"max": [ 0.9816272, 0.9335988, 1, 1 ],
			"min": [ -0.9960633, -0.9588274, -1, -1 ],
			"type": "VEC4"
		},
		{
			"bufferView": 0,
			"byteOffset": 0,
			"componentType": 5123,
			"count": 1776,
			"max": [ 426 ],
			"min": [ 0 ],
			"type": "SCALAR"
		},
		{
			"bufferView": 0,
			"byteOffset": 3552,
			"componentType": 5123,
			"count": 60,
			"max": [ 454 ],
			"min": [ 427 ],
			"type": "SCALAR"
		},
		{
			"bufferView": 2,
			"byteOffset": 10920,
			"componentType": 5126,
			"count": 24,
			"max": [ 0.2018679, 0.3368543, 0.2018679 ],
			"min": [ -0.2018679, 0, -0.2018679 ],
			"type": "VEC3"
		},
		{
			"bufferView": 2,
			"byteOffset": 11208,
			"componentType": 5126,
			"count": 24,
			"max": [ 0.9622167, 1, 0.9622167 ],
			"min": [ -0.9622167, -1, -0.9622167 ],
			"type": "VEC3"
		},
		{
			"bufferView": 1,
			"byteOffset": 3640,
			"componentType": 5126,
			"count": 24,
			"max": [ 0.875, 1 ],
			"min": [ 0.125, 0 ],
			"type": "VEC2"
		},
		{
			"bufferView": 3,
			"byteOffset": 7280,
			"componentType": 5126,
			"count": 24,
			"max": [ 0, 0, 1, 1 ],
			"min": [ -1, 0, -1, 1 ],
			"type": "VEC4"
		},
		{
			"bufferView": 0,
			"byteOffset": 3672,
			"componentType": 5123,
			"count": 36,
			"max": [ 23 ],
			"min": [ 0 ],
			"type": "SCALAR"
		}
	],
	"buffers": [
		{
			"byteLength": 26736,
			"uri": "entity122990.bin"
		}
	],
	"bufferViews": [
		{
			"buffer": 0,
			"byteLength": 3744,
			"target": 34963,
			"byteOffset": 22992
		},
		{
			"buffer": 0,
			"byteLength": 3832,
			"target": 34962,
			"byteStride": 8,
			"byteOffset": 0
		},
		{
			"buffer": 0,
			"byteLength": 11496,
			"target": 34962,
			"byteStride": 12,
			"byteOffset": 3832
		},
		{
			"buffer": 0,
			"byteLength": 7664,
			"target": 34962,
			"byteStride": 16,
			"byteOffset": 15328
		}
	],
	"materials": [
		{
			"pbrMetallicRoughness": {
				"baseColorFactor": [1, 1, 1, 1],
				"metallicFactor": 0,
				"roughnessFactor": 0.5
			},
			"emissiveFactor": [0, 0, 0],
			"doubleSided": false,
			"name": "DefaultMaterial"
		},
		{
			"pbrMetallicRoughness": {
				"baseColorFactor": [0.9657564, 0, 1, 1],
				"metallicFactor": 0,
				"roughnessFactor": 0.5
			},
			"emissiveFactor": [0, 0, 0],
			"doubleSided": false,
			"name": "_collider_Mat"
		}
	],
	"meshes": [
		{
			"name": "mesh_Flower_02_a_10882Flower_02_a2",
			"primitives": [
				{
					"attributes": {
						"POSITION": 0,
						"NORMAL": 1,
						"TEXCOORD_0": 2,
						"TANGENT": 3
					},
					"indices": 4,
					"material": 0,
					"mode": 4
				},
				{
					"attributes": {
						"POSITION": 0,
						"NORMAL": 1,
						"TEXCOORD_0": 2,
						"TANGENT": 3
					},
					"indices": 5,
					"material": 0,
					"mode": 4
				}
			]
		},
		{
			"name": "mesh_Flower_02_a_collider_10884Flower_02_a_collider",
			"primitives": [
				{
					"attributes": {
						"POSITION": 6,
						"NORMAL": 7,
						"TEXCOORD_0": 8,
						"TANGENT": 9
					},
					"indices": 10,
					"material": 1,
					"mode": 4
				}
			]
		}
	],
	"nodes": [
		{
			"name": "UnityGlTF_root",
			"children": [
				1
			]
		},
		{
			"name": "node_Flower_02_a2",
			"mesh": 0,
			"children": [
				2
			],
			"matrix": [1, 0, 0, 0, 0, 1, 0, 0, 0, 0, 1, 0, 0, 0, 0, 1]
		},
		{
			"name": "node_Flower_02_a_collider",
			"mesh": 1
		}
	],
	"scenes": [
		{
			"name":"defaultScene",
			"nodes": [
				0
			]
		}
	],
	"scene": 0
}