{
	"asset": {
		"generator": "Unity 2018.3.6f1",
		"extras": {
			"exporterVersion" : "2.2.1"
		},
		"version": "2.0"
	},
	"accessors": [
		{
			"bufferView": 2,
			"byteOffset": 0,
			"componentType": 5126,
			"count": 156,
			"max": [ 3.724999, 0.4175721, 3.724998 ],
			"min": [ -3.724999, -0.4175721, -3.724999 ],
			"type": "VEC3"
		},
		{
			"bufferView": 2,
			"byteOffset": 1872,
			"componentType": 5126,
			"count": 156,
			"max": [ 1, 0.5522294, 0.9897078 ],
			"min": [ -1, -0.0196466, -0.9897079 ],
			"type": "VEC3"
		},
		{
			"bufferView": 1,
			"byteOffset": 0,
			"componentType": 5126,
			"count": 156,
			"max": [ 0.9922, 0.9176604 ],
			"min": [ 0, 0 ],
			"type": "VEC2"
		},
		{
			"bufferView": 3,
			"byteOffset": 0,
			"componentType": 5126,
			"count": 156,
			"max": [ 1, 1, 1, 1 ],
			"min": [ -0.9897079, -1, -1, 1 ],
			"type": "VEC4"
		},
		{
			"bufferView": 0,
			"byteOffset": 0,
			"componentType": 5123,
			"count": 384,
			"max": [ 155 ],
			"min": [ 0 ],
			"type": "SCALAR"
		}
	],
	"buffers": [
		{
			"byteLength": 8256,
			"uri": "entity430302.bin"
		}
	],
	"bufferViews": [
		{
			"buffer": 0,
			"byteLength": 768,
			"target": 34963,
			"byteOffset": 7488
		},
		{
			"buffer": 0,
			"byteLength": 1248,
			"target": 34962,
			"byteStride": 8,
			"byteOffset": 0
		},
		{
			"buffer": 0,
			"byteLength": 3744,
			"target": 34962,
			"byteStride": 12,
			"byteOffset": 1248
		},
		{
			"buffer": 0,
			"byteLength": 2496,
			"target": 34962,
			"byteStride": 16,
			"byteOffset": 4992
		}
	],
	"images": [
		{
			"uri": "Assets/Visuals/Textures/texture_rock_mounts_01.jpg"
		}
	],
	"materials": [
		{
			"pbrMetallicRoughness": {
				"baseColorTexture" : {
					"index" : 0,
					"texCoord" : 0
				},
				"baseColorFactor": [1, 0.3066038, 0.3066038, 1],
				"metallicFactor": 0,
				"roughnessFactor": 1
			},
			"emissiveFactor": [0, 0, 0],
			"doubleSided": false,
			"name": "mat08"
		}
	],
	"meshes": [
		{
			"name": "mesh_polySurface61_10598polySurface61",
			"primitives": [
				{
					"attributes": {
						"POSITION": 0,
						"NORMAL": 1,
						"TEXCOORD_0": 2,
						"TANGENT": 3
					},
					"indices": 4,
					"material": 0,
					"mode": 4
				}
			]
		}
	],
	"nodes": [
		{
			"name": "UnityGlTF_root",
			"children": [
				1
			]
		},
		{
			"name": "node_polySurface61",
			"mesh": 0,
			"matrix": [1, 0, 0, 0, 0, 1, 0, 0, 0, 0, 1, 0, 0, 0, 0, 1]
		}
	],
	"samplers": [
		{
			"magFilter": 9729,
			"minFilter": 9985,
			"wrapS": 10497,
			"wrapT": 10497
		}
	],
	"scenes": [
		{
			"name":"defaultScene",
			"nodes": [
				0
			]
		}
	],
	"scene": 0,
	"textures": [
		{
			"sampler": 0,
			"source": 0
		}
	]
}