{
	"asset": {
		"generator": "Unity 2018.3.6f1",
		"extras": {
			"exporterVersion" : "2.2.1"
		},
		"version": "2.0"
	},
	"accessors": [
		{
			"bufferView": 2,
			"byteOffset": 0,
			"componentType": 5126,
			"count": 38,
			"max": [ 0.6836842, 1.213676, 0.5920878 ],
			"min": [ -0.6836842, -1.227828, -0.5920877 ],
			"type": "VEC3"
		},
		{
			"bufferView": 2,
			"byteOffset": 456,
			"componentType": 5126,
			"count": 38,
			"max": [ 0.9828649, 0.9522296, 0.854315 ],
			"min": [ -0.9829211, -0.9987727, -0.8459189 ],
			"type": "VEC3"
		},
		{
			"bufferView": 1,
			"byteOffset": 0,
			"componentType": 5126,
			"count": 38,
			"max": [ 0.9739231, 0.9557491 ],
			"min": [ 0.4354414, 0.4173253 ],
			"type": "VEC2"
		},
		{
			"bufferView": 4,
			"byteOffset": 0,
			"componentType": 5123,
			"count": 38,
			"max": [ 9, 10, 10, 11 ],
			"min": [ 0, 0, 0, 0 ],
			"type": "VEC4"
		},
		{
			"bufferView": 3,
			"byteOffset": 0,
			"componentType": 5126,
			"count": 38,
			"max": [ 1, 0.3906698, 0.1905208, 0.1876935 ],
			"min": [ 0.3527753, 0, 0, 0 ],
			"type": "VEC4"
		},
		{
			"bufferView": 3,
			"byteOffset": 608,
			"componentType": 5126,
			"count": 38,
			"max": [ 0.9034315, 0.9481379, 0.9911341, 1 ],
			"min": [ -0.9998978, -0.9443923, -0.988962, 1 ],
			"type": "VEC4"
		},
		{
			"bufferView": 0,
			"byteOffset": 0,
			"componentType": 5123,
			"count": 144,
			"max": [ 37 ],
			"min": [ 0 ],
			"type": "SCALAR"
		}
	],
	"buffers": [
		{
			"byteLength": 3024,
			"uri": "entity832070.bin"
		}
	],
	"bufferViews": [
		{
			"buffer": 0,
			"byteLength": 288,
			"target": 34963,
			"byteOffset": 2736
		},
		{
			"buffer": 0,
			"byteLength": 304,
			"target": 34962,
			"byteStride": 8,
			"byteOffset": 0
		},
		{
			"buffer": 0,
			"byteLength": 912,
			"target": 34962,
			"byteStride": 12,
			"byteOffset": 304
		},
		{
			"buffer": 0,
			"byteLength": 1216,
			"target": 34962,
			"byteStride": 16,
			"byteOffset": 1216
		},
		{
			"buffer": 0,
			"byteLength": 304,
			"byteStride": 8,
			"byteOffset": 2432
		}
	],
	"images": [
		{
			"uri": "Assets/Visuals/Textures/texture_butterfly.jpg"
		}
	],
	"materials": [
		{
			"pbrMetallicRoughness": {
				"baseColorTexture" : {
					"index" : 0,
					"texCoord" : 0
				},
				"baseColorFactor": [1, 0.3066038, 0.3066038, 1],
				"metallicFactor": 0,
				"roughnessFactor": 1
			},
			"emissiveFactor": [0, 0, 0],
			"doubleSided": false,
			"name": "mat_butterfly"
		}
	],
	"meshes": [
		{
			"name": "mesh_mesh_butterfly_03_12462mesh_butterfly_03",
			"primitives": [
				{
					"attributes": {
						"POSITION": 0,
						"NORMAL": 1,
						"TEXCOORD_0": 2,
						"JOINTS_0": 3,
						"WEIGHTS_0": 4,
						"TANGENT": 5
					},
					"indices": 6,
					"material": 0,
					"mode": 4
				}
			]
		}
	],
	"nodes": [
		{
			"name": "UnityGlTF_root",
			"children": [
				1
			]
		},
		{
			"name": "node_mesh_butterfly_03",
			"mesh": 0,
			"matrix": [1, 0, 0, 0, 0, 1, 0, 0, 0, 0, 1, 0, 0, 0, 0, 1]
		}
	],
	"samplers": [
		{
			"magFilter": 9729,
			"minFilter": 9985,
			"wrapS": 10497,
			"wrapT": 10497
		}
	],
	"scenes": [
		{
			"name":"defaultScene",
			"nodes": [
				0
			]
		}
	],
	"scene": 0,
	"textures": [
		{
			"sampler": 0,
			"source": 0
		}
	]
}