{
	"asset": {
		"generator": "Unity 2018.3.6f1",
		"extras": {
			"exporterVersion" : "2.2.1"
		},
		"version": "2.0"
	},
	"accessors": [
		{
			"bufferView": 2,
			"byteOffset": 0,
			"componentType": 5126,
			"count": 1032,
			"max": [ 0.1874233, 0.991928, 0.1330131 ],
			"min": [ -0.1874233, 0.5365012, -0.2084409 ],
			"type": "VEC3"
		},
		{
			"bufferView": 2,
			"byteOffset": 12384,
			"componentType": 5126,
			"count": 1032,
			"max": [ 0.9916687, 0.9685212, 0.9950863 ],
			"min": [ -0.9916687, -0.9994566, -0.9916441 ],
			"type": "VEC3"
		},
		{
			"bufferView": 1,
			"byteOffset": 0,
			"componentType": 5126,
			"count": 1032,
			"max": [ 0.9656975, 0.9938447 ],
			"min": [ 0.2666953, 0.2277626 ],
			"type": "VEC2"
		},
		{
			"bufferView": 4,
			"byteOffset": 0,
			"componentType": 5123,
			"count": 1032,
			"max": [ 6, 7, 7, 7 ],
			"min": [ 1, 0, 0, 0 ],
			"type": "VEC4"
		},
		{
			"bufferView": 3,
			"byteOffset": 0,
			"componentType": 5126,
			"count": 1032,
			"max": [ 1, 0.4999178, 0.2496709, 0.1453215 ],
			"min": [ 0.3611112, 0, 0, 0 ],
			"type": "VEC4"
		},
		{
			"bufferView": 3,
			"byteOffset": 16512,
			"componentType": 5126,
			"count": 1032,
			"max": [ 0.9356894, 0.7481449, 0.9977233, 1 ],
			"min": [ -0.9997213, -0.9941682, -0.9929487, -1 ],
			"type": "VEC4"
		},
		{
			"bufferView": 0,
			"byteOffset": 0,
			"componentType": 5123,
			"count": 1194,
			"max": [ 273 ],
			"min": [ 0 ],
			"type": "SCALAR"
		},
		{
			"bufferView": 0,
			"byteOffset": 2388,
			"componentType": 5123,
			"count": 1086,
			"max": [ 1031 ],
			"min": [ 274 ],
			"type": "SCALAR"
		}
	],
	"buffers": [
		{
			"byteLength": 78864,
			"uri": "entity842188.bin"
		}
	],
	"bufferViews": [
		{
			"buffer": 0,
			"byteLength": 4560,
			"target": 34963,
			"byteOffset": 74304
		},
		{
			"buffer": 0,
			"byteLength": 8256,
			"target": 34962,
			"byteStride": 8,
			"byteOffset": 0
		},
		{
			"buffer": 0,
			"byteLength": 24768,
			"target": 34962,
			"byteStride": 12,
			"byteOffset": 8256
		},
		{
			"buffer": 0,
			"byteLength": 33024,
			"target": 34962,
			"byteStride": 16,
			"byteOffset": 33024
		},
		{
			"buffer": 0,
			"byteLength": 8256,
			"byteStride": 8,
			"byteOffset": 66048
		}
	],
	"images": [
		{
			"uri": "Assets/Visuals/Textures/texture_mountain_cat.jpg"
		}
	],
	"materials": [
		{
			"pbrMetallicRoughness": {
				"baseColorTexture" : {
					"index" : 0,
					"texCoord" : 0
				},
				"baseColorFactor": [1, 0.3066038, 0.3066038, 1],
				"metallicFactor": 0,
				"roughnessFactor": 1
			},
			"emissiveFactor": [0, 0, 0],
			"doubleSided": false,
			"name": "mat_cat"
		},
		{
			"pbrMetallicRoughness": {
				"baseColorFactor": [1, 0.3066038, 0.3066038, 1],
				"metallicFactor": 1,
				"roughnessFactor": 1
			},
			"emissiveFactor": [0, 0, 0],
			"doubleSided": false,
			"name": "outline"
		}
	],
	"meshes": [
		{
			"name": "mesh_mesh_mountain_cat_02_11330mesh_mountain_cat_02",
			"primitives": [
				{
					"attributes": {
						"POSITION": 0,
						"NORMAL": 1,
						"TEXCOORD_0": 2,
						"JOINTS_0": 3,
						"WEIGHTS_0": 4,
						"TANGENT": 5
					},
					"indices": 6,
					"material": 0,
					"mode": 4
				},
				{
					"attributes": {
						"POSITION": 0,
						"NORMAL": 1,
						"TEXCOORD_0": 2,
						"JOINTS_0": 3,
						"WEIGHTS_0": 4,
						"TANGENT": 5
					},
					"indices": 7,
					"material": 1,
					"mode": 4
				}
			]
		}
	],
	"nodes": [
		{
			"name": "UnityGlTF_root",
			"children": [
				1
			]
		},
		{
			"name": "node_mesh_mountain_cat_02",
			"mesh": 0,
			"matrix": [1, 0, 0, 0, 0, 1, 0, 0, 0, 0, 1, 0, 0, 0, 0, 1]
		}
	],
	"samplers": [
		{
			"magFilter": 9729,
			"minFilter": 9985,
			"wrapS": 10497,
			"wrapT": 10497
		}
	],
	"scenes": [
		{
			"name":"defaultScene",
			"nodes": [
				0
			]
		}
	],
	"scene": 0,
	"textures": [
		{
			"sampler": 0,
			"source": 0
		}
	]
}