{
	"asset": {
		"generator": "Unity 2018.3.6f1",
		"extras": {
			"exporterVersion" : "2.2.1"
		},
		"version": "2.0"
	},
	"accessors": [
		{
			"bufferView": 2,
			"byteOffset": 0,
			"componentType": 5126,
			"count": 1893,
			"max": [ 0.314965, 0.7034027, 0.4453417 ],
			"min": [ -0.314499, -0.02272263, -0.7551891 ],
			"type": "VEC3"
		},
		{
			"bufferView": 2,
			"byteOffset": 22716,
			"componentType": 5126,
			"count": 1893,
			"max": [ 0.9998984, 0.9999781, 0.9939638 ],
			"min": [ -0.9998984, -0.9999313, -0.9901038 ],
			"type": "VEC3"
		},
		{
			"bufferView": 1,
			"byteOffset": 0,
			"componentType": 5126,
			"count": 1893,
			"max": [ 0.9846619, 0.9850619 ],
			"min": [ 0.01516774, 0.04177091 ],
			"type": "VEC2"
		},
		{
			"bufferView": 4,
			"byteOffset": 0,
			"componentType": 5123,
			"count": 1893,
			"max": [ 23, 23, 23, 23 ],
			"min": [ 0, 0, 0, 0 ],
			"type": "VEC4"
		},
		{
			"bufferView": 3,
			"byteOffset": 0,
			"componentType": 5126,
			"count": 1893,
			"max": [ 1, 0.5, 0.2971237, 0.249983 ],
			"min": [ 0.250017, 0, 0, 0 ],
			"type": "VEC4"
		},
		{
			"bufferView": 3,
			"byteOffset": 30288,
			"componentType": 5126,
			"count": 1893,
			"max": [ 0.9821231, 0.9218037, 0.9996611, 1 ],
			"min": [ -0.9999994, -0.9979386, -0.9996299, -1 ],
			"type": "VEC4"
		},
		{
			"bufferView": 0,
			"byteOffset": 0,
			"componentType": 5123,
			"count": 2136,
			"max": [ 1362 ],
			"min": [ 0 ],
			"type": "SCALAR"
		},
		{
			"bufferView": 0,
			"byteOffset": 4272,
			"componentType": 5123,
			"count": 2316,
			"max": [ 1892 ],
			"min": [ 1363 ],
			"type": "SCALAR"
		}
	],
	"buffers": [
		{
			"byteLength": 145200,
			"uri": "entity435938.bin"
		}
	],
	"bufferViews": [
		{
			"buffer": 0,
			"byteLength": 8904,
			"target": 34963,
			"byteOffset": 136296
		},
		{
			"buffer": 0,
			"byteLength": 15144,
			"target": 34962,
			"byteStride": 8,
			"byteOffset": 0
		},
		{
			"buffer": 0,
			"byteLength": 45432,
			"target": 34962,
			"byteStride": 12,
			"byteOffset": 15144
		},
		{
			"buffer": 0,
			"byteLength": 60576,
			"target": 34962,
			"byteStride": 16,
			"byteOffset": 60576
		},
		{
			"buffer": 0,
			"byteLength": 15144,
			"byteStride": 8,
			"byteOffset": 121152
		}
	],
	"images": [
		{
			"uri": "Assets/Visuals/Textures/texture_pig.jpg"
		}
	],
	"materials": [
		{
			"pbrMetallicRoughness": {
				"baseColorFactor": [0.013, 0.004836, 0.004836, 1],
				"metallicFactor": 0,
				"roughnessFactor": 1
			},
			"emissiveFactor": [0, 0, 0],
			"doubleSided": false,
			"name": "Outline"
		},
		{
			"pbrMetallicRoughness": {
				"baseColorTexture" : {
					"index" : 0,
					"texCoord" : 0
				},
				"baseColorFactor": [1, 0.3066038, 0.3066038, 1],
				"metallicFactor": 0,
				"roughnessFactor": 1
			},
			"emissiveFactor": [0, 0, 0],
			"doubleSided": false,
			"name": "mat_pig"
		}
	],
	"meshes": [
		{
			"name": "mesh_mesh_pig_03_10854mesh_pig_03",
			"primitives": [
				{
					"attributes": {
						"POSITION": 0,
						"NORMAL": 1,
						"TEXCOORD_0": 2,
						"JOINTS_0": 3,
						"WEIGHTS_0": 4,
						"TANGENT": 5
					},
					"indices": 6,
					"material": 0,
					"mode": 4
				},
				{
					"attributes": {
						"POSITION": 0,
						"NORMAL": 1,
						"TEXCOORD_0": 2,
						"JOINTS_0": 3,
						"WEIGHTS_0": 4,
						"TANGENT": 5
					},
					"indices": 7,
					"material": 1,
					"mode": 4
				}
			]
		}
	],
	"nodes": [
		{
			"name": "UnityGlTF_root",
			"children": [
				1
			]
		},
		{
			"name": "node_mesh_pig_03",
			"mesh": 0,
			"matrix": [1, 0, 0, 0, 0, 1, 0, 0, 0, 0, 1, 0, 0, 0, 0, 1]
		}
	],
	"samplers": [
		{
			"magFilter": 9729,
			"minFilter": 9985,
			"wrapS": 10497,
			"wrapT": 10497
		}
	],
	"scenes": [
		{
			"name":"defaultScene",
			"nodes": [
				0
			]
		}
	],
	"scene": 0,
	"textures": [
		{
			"sampler": 0,
			"source": 0
		}
	]
}