{
	"asset": {
		"generator": "Unity 2018.3.6f1",
		"extras": {
			"exporterVersion" : "2.2.1"
		},
		"version": "2.0"
	},
	"accessors": [
		{
			"bufferView": 2,
			"byteOffset": 0,
			"componentType": 5126,
			"count": 56,
			"max": [ 4.370018, 1.486836, 2.171368 ],
			"min": [ -4.377722, -0.1088142, -2.363117 ],
			"type": "VEC3"
		},
		{
			"bufferView": 2,
			"byteOffset": 672,
			"componentType": 5126,
			"count": 56,
			"max": [ 0.6799696, 0.9888058, 0.6842394 ],
			"min": [ -0.7839428, 0.218693, -0.9715688 ],
			"type": "VEC3"
		},
		{
			"bufferView": 1,
			"byteOffset": 0,
			"componentType": 5126,
			"count": 56,
			"max": [ 0.9587439, 1.19473 ],
			"min": [ -0.865445, -0.2715263 ],
			"type": "VEC2"
		},
		{
			"bufferView": 3,
			"byteOffset": 0,
			"componentType": 5126,
			"count": 56,
			"max": [ 0.9994649, 0.1507544, 0.9971835, 1 ],
			"min": [ -0.9978712, -0.975185, -0.9863569, -1 ],
			"type": "VEC4"
		},
		{
			"bufferView": 0,
			"byteOffset": 0,
			"componentType": 5123,
			"count": 48,
			"max": [ 23 ],
			"min": [ 0 ],
			"type": "SCALAR"
		},
		{
			"bufferView": 0,
			"byteOffset": 96,
			"componentType": 5123,
			"count": 60,
			"max": [ 41 ],
			"min": [ 24 ],
			"type": "SCALAR"
		},
		{
			"bufferView": 0,
			"byteOffset": 216,
			"componentType": 5123,
			"count": 48,
			"max": [ 55 ],
			"min": [ 42 ],
			"type": "SCALAR"
		},
		{
			"bufferView": 2,
			"byteOffset": 1344,
			"componentType": 5126,
			"count": 26,
			"max": [ 4.391797, 1.5, 2.552219 ],
			"min": [ -4.471613, 0, -2.468438 ],
			"type": "VEC3"
		},
		{
			"bufferView": 2,
			"byteOffset": 1656,
			"componentType": 5126,
			"count": 26,
			"max": [ 0.7223401, 0.9750474, 0.5132341 ],
			"min": [ -0.6942731, 0.5873472, -0.8014616 ],
			"type": "VEC3"
		},
		{
			"bufferView": 1,
			"byteOffset": 448,
			"componentType": 5126,
			"count": 26,
			"max": [ 0.875, 0.75 ],
			"min": [ 0.125, 0 ],
			"type": "VEC2"
		},
		{
			"bufferView": 3,
			"byteOffset": 896,
			"componentType": 5126,
			"count": 26,
			"max": [ 0.04189138, 0.1797695, 0.9981845, 1 ],
			"min": [ -1, -0.1725087, -0.998324, 1 ],
			"type": "VEC4"
		},
		{
			"bufferView": 0,
			"byteOffset": 312,
			"componentType": 5123,
			"count": 48,
			"max": [ 25 ],
			"min": [ 0 ],
			"type": "SCALAR"
		}
	],
	"buffers": [
		{
			"byteLength": 4344,
			"uri": "entity163752.bin"
		}
	],
	"bufferViews": [
		{
			"buffer": 0,
			"byteLength": 408,
			"target": 34963,
			"byteOffset": 3936
		},
		{
			"buffer": 0,
			"byteLength": 656,
			"target": 34962,
			"byteStride": 8,
			"byteOffset": 0
		},
		{
			"buffer": 0,
			"byteLength": 1968,
			"target": 34962,
			"byteStride": 12,
			"byteOffset": 656
		},
		{
			"buffer": 0,
			"byteLength": 1312,
			"target": 34962,
			"byteStride": 16,
			"byteOffset": 2624
		}
	],
	"images": [
		{
			"uri": "Assets/Visuals/Materials/Bush_01_Albedo.png"
		},
		{
			"uri": "Assets/Visuals/Materials/Rock_03_Albedo.jpg"
		},
		{
			"uri": "Assets/Visuals/Materials/Grass_Albedo.jpg"
		}
	],
	"materials": [
		{
			"pbrMetallicRoughness": {
				"baseColorTexture" : {
					"index" : 0,
					"texCoord" : 0
				},
				"baseColorFactor": [1, 1, 1, 1],
				"metallicFactor": 0,
				"roughnessFactor": 1
			},
			"alphaMode": "BLEND",
			"alphaCutoff": 0.5,
			"emissiveFactor": [0, 0, 0],
			"doubleSided": false,
			"name": "Bush_01_Mat"
		},
		{
			"pbrMetallicRoughness": {
				"baseColorTexture" : {
					"index" : 1,
					"texCoord" : 0
				},
				"baseColorFactor": [1, 1, 1, 1],
				"metallicFactor": 0,
				"roughnessFactor": 1
			},
			"emissiveFactor": [0, 0, 0],
			"doubleSided": false,
			"name": "Rock_03_Mat"
		},
		{
			"pbrMetallicRoughness": {
				"baseColorTexture" : {
					"index" : 2,
					"texCoord" : 0
				},
				"baseColorFactor": [1, 1, 1, 1],
				"metallicFactor": 0,
				"roughnessFactor": 1
			},
			"emissiveFactor": [0, 0, 0],
			"doubleSided": false,
			"name": "Grass_Mat"
		},
		{
			"pbrMetallicRoughness": {
				"baseColorFactor": [0.9657564, 0, 1, 1],
				"metallicFactor": 0,
				"roughnessFactor": 0.5
			},
			"emissiveFactor": [0, 0, 0],
			"doubleSided": false,
			"name": "_collider_Mat"
		}
	],
	"meshes": [
		{
			"name": "mesh_Terrain_Amount_01_10560Terrain_Amount_0161",
			"primitives": [
				{
					"attributes": {
						"POSITION": 0,
						"NORMAL": 1,
						"TEXCOORD_0": 2,
						"TANGENT": 3
					},
					"indices": 4,
					"material": 0,
					"mode": 4
				},
				{
					"attributes": {
						"POSITION": 0,
						"NORMAL": 1,
						"TEXCOORD_0": 2,
						"TANGENT": 3
					},
					"indices": 5,
					"material": 1,
					"mode": 4
				},
				{
					"attributes": {
						"POSITION": 0,
						"NORMAL": 1,
						"TEXCOORD_0": 2,
						"TANGENT": 3
					},
					"indices": 6,
					"material": 2,
					"mode": 4
				}
			]
		},
		{
			"name": "mesh_Terrain_Amount_01_collider_10562Terrain_Amount_01_collider",
			"primitives": [
				{
					"attributes": {
						"POSITION": 7,
						"NORMAL": 8,
						"TEXCOORD_0": 9,
						"TANGENT": 10
					},
					"indices": 11,
					"material": 3,
					"mode": 4
				}
			]
		}
	],
	"nodes": [
		{
			"name": "UnityGlTF_root",
			"children": [
				1
			]
		},
		{
			"name": "node_Terrain_Amount_0161",
			"mesh": 0,
			"children": [
				2
			],
			"matrix": [1, 0, 0, 0, 0, 1, 0, 0, 0, 0, 1, 0, 0, 0, 0, 1]
		},
		{
			"name": "node_Terrain_Amount_01_collider",
			"mesh": 1
		}
	],
	"samplers": [
		{
			"magFilter": 9729,
			"minFilter": 9985,
			"wrapS": 10497,
			"wrapT": 10497
		}
	],
	"scenes": [
		{
			"name":"defaultScene",
			"nodes": [
				0
			]
		}
	],
	"scene": 0,
	"textures": [
		{
			"sampler": 0,
			"source": 0
		},
		{
			"sampler": 0,
			"source": 1
		},
		{
			"sampler": 0,
			"source": 2
		}
	]
}