{
	"asset": {
		"generator": "Unity 2018.3.6f1",
		"extras": {
			"exporterVersion" : "2.2.1"
		},
		"version": "2.0"
	},
	"accessors": [
		{
			"bufferView": 2,
			"byteOffset": 0,
			"componentType": 5126,
			"count": 190,
			"max": [ 0.132157, 0.8120337, 0.1042667 ],
			"min": [ -0.2178074, 0, -0.04150124 ],
			"type": "VEC3"
		},
		{
			"bufferView": 2,
			"byteOffset": 2280,
			"componentType": 5126,
			"count": 190,
			"max": [ 0.9995665, 0.9183721, 0.9964078 ],
			"min": [ -0.9950781, -0.9981588, -0.995596 ],
			"type": "VEC3"
		},
		{
			"bufferView": 1,
			"byteOffset": 0,
			"componentType": 5126,
			"count": 190,
			"max": [ 1, 1 ],
			"min": [ 0, -5.551115E-17 ],
			"type": "VEC2"
		},
		{
			"bufferView": 3,
			"byteOffset": 0,
			"componentType": 5126,
			"count": 190,
			"max": [ 0.9870234, 0.9904602, 1, 1 ],
			"min": [ -0.9050276, -0.8721138, -1, -1 ],
			"type": "VEC4"
		},
		{
			"bufferView": 0,
			"byteOffset": 0,
			"componentType": 5123,
			"count": 534,
			"max": [ 189 ],
			"min": [ 0 ],
			"type": "SCALAR"
		}
	],
	"buffers": [
		{
			"byteLength": 10188,
			"uri": "entity298560.bin"
		}
	],
	"bufferViews": [
		{
			"buffer": 0,
			"byteLength": 1068,
			"target": 34963,
			"byteOffset": 9120
		},
		{
			"buffer": 0,
			"byteLength": 1520,
			"target": 34962,
			"byteStride": 8,
			"byteOffset": 0
		},
		{
			"buffer": 0,
			"byteLength": 4560,
			"target": 34962,
			"byteStride": 12,
			"byteOffset": 1520
		},
		{
			"buffer": 0,
			"byteLength": 3040,
			"target": 34962,
			"byteStride": 16,
			"byteOffset": 6080
		}
	],
	"images": [
		{
			"uri": "Assets/Visuals/Materials/Mushroom_01_Albedo.jpg"
		}
	],
	"materials": [
		{
			"pbrMetallicRoughness": {
				"baseColorTexture" : {
					"index" : 0,
					"texCoord" : 0
				},
				"baseColorFactor": [1, 1, 1, 1],
				"metallicFactor": 0,
				"roughnessFactor": 1
			},
			"emissiveFactor": [0, 0, 0],
			"doubleSided": false,
			"name": "Mushroom_01_Mat"
		}
	],
	"meshes": [
		{
			"name": "mesh_Flower_01_a_11930Flower_01_a2",
			"primitives": [
				{
					"attributes": {
						"POSITION": 0,
						"NORMAL": 1,
						"TEXCOORD_0": 2,
						"TANGENT": 3
					},
					"indices": 4,
					"material": 0,
					"mode": 4
				}
			]
		}
	],
	"nodes": [
		{
			"name": "UnityGlTF_root",
			"children": [
				1
			]
		},
		{
			"name": "node_Flower_01_a2",
			"mesh": 0,
			"matrix": [1, 0, 0, 0, 0, 1, 0, 0, 0, 0, 1, 0, 0, 0, 0, 1]
		}
	],
	"samplers": [
		{
			"magFilter": 9729,
			"minFilter": 9985,
			"wrapS": 10497,
			"wrapT": 10497
		}
	],
	"scenes": [
		{
			"name":"defaultScene",
			"nodes": [
				0
			]
		}
	],
	"scene": 0,
	"textures": [
		{
			"sampler": 0,
			"source": 0
		}
	]
}