{
	"asset": {
		"generator": "Unity 2018.3.6f1",
		"extras": {
			"exporterVersion" : "2.2.1"
		},
		"version": "2.0"
	},
	"accessors": [
		{
			"bufferView": 2,
			"byteOffset": 0,
			"componentType": 5126,
			"count": 128,
			"max": [ 1.23, 5.252627, 1.229998 ],
			"min": [ -1.23, -1.000002, -1.23 ],
			"type": "VEC3"
		},
		{
			"bufferView": 2,
			"byteOffset": 1536,
			"componentType": 5126,
			"count": 128,
			"max": [ 1, 1, 1 ],
			"min": [ -1, -0.9970593, -1 ],
			"type": "VEC3"
		},
		{
			"bufferView": 1,
			"byteOffset": 0,
			"componentType": 5126,
			"count": 128,
			"max": [ 0.7786488, 0.8601069 ],
			"min": [ 0, 0 ],
			"type": "VEC2"
		},
		{
			"bufferView": 3,
			"byteOffset": 0,
			"componentType": 5126,
			"count": 128,
			"max": [ 1, 0.8078008, 1, 1 ],
			"min": [ -1, -0.8077787, -1, 1 ],
			"type": "VEC4"
		},
		{
			"bufferView": 0,
			"byteOffset": 0,
			"componentType": 5123,
			"count": 198,
			"max": [ 127 ],
			"min": [ 0 ],
			"type": "SCALAR"
		}
	],
	"buffers": [
		{
			"byteLength": 6540,
			"uri": "entity430314.bin"
		}
	],
	"bufferViews": [
		{
			"buffer": 0,
			"byteLength": 396,
			"target": 34963,
			"byteOffset": 6144
		},
		{
			"buffer": 0,
			"byteLength": 1024,
			"target": 34962,
			"byteStride": 8,
			"byteOffset": 0
		},
		{
			"buffer": 0,
			"byteLength": 3072,
			"target": 34962,
			"byteStride": 12,
			"byteOffset": 1024
		},
		{
			"buffer": 0,
			"byteLength": 2048,
			"target": 34962,
			"byteStride": 16,
			"byteOffset": 4096
		}
	],
	"images": [
		{
			"uri": "Assets/Visuals/Textures/texture_rock_mounts_01.jpg"
		}
	],
	"materials": [
		{
			"pbrMetallicRoughness": {
				"baseColorTexture" : {
					"index" : 0,
					"texCoord" : 0
				},
				"baseColorFactor": [1, 0.3066038, 0.3066038, 1],
				"metallicFactor": 0,
				"roughnessFactor": 1
			},
			"emissiveFactor": [0, 0, 0],
			"doubleSided": false,
			"name": "mat08"
		}
	],
	"meshes": [
		{
			"name": "mesh_pCube83_10574pCube83",
			"primitives": [
				{
					"attributes": {
						"POSITION": 0,
						"NORMAL": 1,
						"TEXCOORD_0": 2,
						"TANGENT": 3
					},
					"indices": 4,
					"material": 0,
					"mode": 4
				}
			]
		}
	],
	"nodes": [
		{
			"name": "UnityGlTF_root",
			"children": [
				1
			]
		},
		{
			"name": "node_pCube83",
			"mesh": 0,
			"matrix": [1, 0, 0, 0, 0, 1, 0, 0, 0, 0, 1, 0, 0, 0, 0, 1]
		}
	],
	"samplers": [
		{
			"magFilter": 9729,
			"minFilter": 9985,
			"wrapS": 10497,
			"wrapT": 10497
		}
	],
	"scenes": [
		{
			"name":"defaultScene",
			"nodes": [
				0
			]
		}
	],
	"scene": 0,
	"textures": [
		{
			"sampler": 0,
			"source": 0
		}
	]
}