{
	"asset": {
		"generator": "Unity 2018.3.6f1",
		"extras": {
			"exporterVersion" : "2.2.1"
		},
		"version": "2.0"
	},
	"accessors": [
		{
			"bufferView": 2,
			"byteOffset": 0,
			"componentType": 5126,
			"count": 146,
			"max": [ 2.16009, 2.440711, 1.313044 ],
			"min": [ -2.082485, -0.03072558, -1.720604 ],
			"type": "VEC3"
		},
		{
			"bufferView": 2,
			"byteOffset": 1752,
			"componentType": 5126,
			"count": 146,
			"max": [ 0.9806367, 0.9941571, 0.9755913 ],
			"min": [ -0.9806369, -0.9941571, -0.9755915 ],
			"type": "VEC3"
		},
		{
			"bufferView": 1,
			"byteOffset": 0,
			"componentType": 5126,
			"count": 146,
			"max": [ 0.984666, 0.9570365 ],
			"min": [ -0.1191978, 0.001976599 ],
			"type": "VEC2"
		},
		{
			"bufferView": 3,
			"byteOffset": 0,
			"componentType": 5126,
			"count": 146,
			"max": [ 0.9931415, 0.9825764, 0.973498, 1 ],
			"min": [ -0.6551974, -0.968163, -0.4005767, -1 ],
			"type": "VEC4"
		},
		{
			"bufferView": 0,
			"byteOffset": 0,
			"componentType": 5123,
			"count": 282,
			"max": [ 72 ],
			"min": [ 0 ],
			"type": "SCALAR"
		},
		{
			"bufferView": 0,
			"byteOffset": 564,
			"componentType": 5123,
			"count": 282,
			"max": [ 145 ],
			"min": [ 73 ],
			"type": "SCALAR"
		},
		{
			"bufferView": 2,
			"byteOffset": 3504,
			"componentType": 5126,
			"count": 110,
			"max": [ 2.182815, 2.419383, 0.8860558 ],
			"min": [ -1.953801, 0, -1.507926 ],
			"type": "VEC3"
		},
		{
			"bufferView": 2,
			"byteOffset": 4824,
			"componentType": 5126,
			"count": 110,
			"max": [ 1, 1, 0.9998916 ],
			"min": [ -1, -1, -0.9998215 ],
			"type": "VEC3"
		},
		{
			"bufferView": 1,
			"byteOffset": 1168,
			"componentType": 5126,
			"count": 110,
			"max": [ 0.875, 1 ],
			"min": [ 0.125, 0 ],
			"type": "VEC2"
		},
		{
			"bufferView": 3,
			"byteOffset": 2336,
			"componentType": 5126,
			"count": 110,
			"max": [ 1, 0.9679979, 1, 1 ],
			"min": [ -1, -0.9575452, -1, -1 ],
			"type": "VEC4"
		},
		{
			"bufferView": 0,
			"byteOffset": 1128,
			"componentType": 5123,
			"count": 246,
			"max": [ 109 ],
			"min": [ 0 ],
			"type": "SCALAR"
		}
	],
	"buffers": [
		{
			"byteLength": 13908,
			"uri": "entity112770.bin"
		}
	],
	"bufferViews": [
		{
			"buffer": 0,
			"byteLength": 1620,
			"target": 34963,
			"byteOffset": 12288
		},
		{
			"buffer": 0,
			"byteLength": 2048,
			"target": 34962,
			"byteStride": 8,
			"byteOffset": 0
		},
		{
			"buffer": 0,
			"byteLength": 6144,
			"target": 34962,
			"byteStride": 12,
			"byteOffset": 2048
		},
		{
			"buffer": 0,
			"byteLength": 4096,
			"target": 34962,
			"byteStride": 16,
			"byteOffset": 8192
		}
	],
	"images": [
		{
			"uri": "Assets/Visuals/Materials/Rock_01_Albedo.jpg"
		}
	],
	"materials": [
		{
			"pbrMetallicRoughness": {
				"baseColorFactor": [0, 0, 0, 1],
				"metallicFactor": 0,
				"roughnessFactor": 1
			},
			"emissiveFactor": [0, 0, 0],
			"doubleSided": false,
			"name": "Black_Outline_Mat"
		},
		{
			"pbrMetallicRoughness": {
				"baseColorTexture" : {
					"index" : 0,
					"texCoord" : 0
				},
				"baseColorFactor": [1, 1, 1, 1],
				"metallicFactor": 0,
				"roughnessFactor": 1
			},
			"emissiveFactor": [0, 0, 0],
			"doubleSided": false,
			"name": "Rock_01_Mat"
		},
		{
			"pbrMetallicRoughness": {
				"baseColorFactor": [0.9657564, 0, 1, 1],
				"metallicFactor": 0,
				"roughnessFactor": 0.5
			},
			"emissiveFactor": [0, 0, 0],
			"doubleSided": false,
			"name": "_collider_Mat"
		}
	],
	"meshes": [
		{
			"name": "mesh_Rock_01_10872Rock_014",
			"primitives": [
				{
					"attributes": {
						"POSITION": 0,
						"NORMAL": 1,
						"TEXCOORD_0": 2,
						"TANGENT": 3
					},
					"indices": 4,
					"material": 0,
					"mode": 4
				},
				{
					"attributes": {
						"POSITION": 0,
						"NORMAL": 1,
						"TEXCOORD_0": 2,
						"TANGENT": 3
					},
					"indices": 5,
					"material": 1,
					"mode": 4
				}
			]
		},
		{
			"name": "mesh_Rock_01_collider_10874Rock_01_collider",
			"primitives": [
				{
					"attributes": {
						"POSITION": 6,
						"NORMAL": 7,
						"TEXCOORD_0": 8,
						"TANGENT": 9
					},
					"indices": 10,
					"material": 2,
					"mode": 4
				}
			]
		}
	],
	"nodes": [
		{
			"name": "UnityGlTF_root",
			"children": [
				1
			]
		},
		{
			"name": "node_Rock_014",
			"mesh": 0,
			"children": [
				2
			],
			"matrix": [1, 0, 0, 0, 0, 1, 0, 0, 0, 0, 1, 0, 0, 0, 0, 1]
		},
		{
			"name": "node_Rock_01_collider",
			"mesh": 1
		}
	],
	"samplers": [
		{
			"magFilter": 9729,
			"minFilter": 9985,
			"wrapS": 10497,
			"wrapT": 10497
		}
	],
	"scenes": [
		{
			"name":"defaultScene",
			"nodes": [
				0
			]
		}
	],
	"scene": 0,
	"textures": [
		{
			"sampler": 0,
			"source": 0
		}
	]
}