{
	"asset": {
		"generator": "Unity 2018.3.6f1",
		"extras": {
			"exporterVersion" : "2.2.1"
		},
		"version": "2.0"
	},
	"accessors": [
		{
			"bufferView": 2,
			"byteOffset": 0,
			"componentType": 5126,
			"count": 146,
			"max": [ 654.9135, 739.9943, 398.0991 ],
			"min": [ -631.3842, -9.315628, -521.6666 ],
			"type": "VEC3"
		},
		{
			"bufferView": 2,
			"byteOffset": 1752,
			"componentType": 5126,
			"count": 146,
			"max": [ 0.9806367, 0.9941571, 0.9755913 ],
			"min": [ -0.9806369, -0.9941571, -0.9755915 ],
			"type": "VEC3"
		},
		{
			"bufferView": 1,
			"byteOffset": 0,
			"componentType": 5126,
			"count": 146,
			"max": [ 0.984666, 0.9570365 ],
			"min": [ -0.1191978, 0.001976599 ],
			"type": "VEC2"
		},
		{
			"bufferView": 3,
			"byteOffset": 0,
			"componentType": 5126,
			"count": 146,
			"max": [ 0.9931415, 0.9825765, 0.9734979, 1 ],
			"min": [ -0.6551974, -0.968163, -0.4005767, -1 ],
			"type": "VEC4"
		},
		{
			"bufferView": 0,
			"byteOffset": 0,
			"componentType": 5123,
			"count": 282,
			"max": [ 72 ],
			"min": [ 0 ],
			"type": "SCALAR"
		},
		{
			"bufferView": 0,
			"byteOffset": 564,
			"componentType": 5123,
			"count": 282,
			"max": [ 145 ],
			"min": [ 73 ],
			"type": "SCALAR"
		}
	],
	"buffers": [
		{
			"byteLength": 8136,
			"uri": "entity427528.bin"
		}
	],
	"bufferViews": [
		{
			"buffer": 0,
			"byteLength": 1128,
			"target": 34963,
			"byteOffset": 7008
		},
		{
			"buffer": 0,
			"byteLength": 1168,
			"target": 34962,
			"byteStride": 8,
			"byteOffset": 0
		},
		{
			"buffer": 0,
			"byteLength": 3504,
			"target": 34962,
			"byteStride": 12,
			"byteOffset": 1168
		},
		{
			"buffer": 0,
			"byteLength": 2336,
			"target": 34962,
			"byteStride": 16,
			"byteOffset": 4672
		}
	],
	"images": [
		{
			"uri": "Assets/Visuals/Textures/texture_rock_simple_01.jpg"
		}
	],
	"materials": [
		{
			"pbrMetallicRoughness": {
				"baseColorFactor": [1, 0.3066038, 0.3066038, 1],
				"metallicFactor": 1,
				"roughnessFactor": 1
			},
			"emissiveFactor": [0, 0, 0],
			"doubleSided": false,
			"name": "outline"
		},
		{
			"pbrMetallicRoughness": {
				"baseColorTexture" : {
					"index" : 0,
					"texCoord" : 0
				},
				"baseColorFactor": [1, 0.3066038, 0.3066038, 1],
				"metallicFactor": 0,
				"roughnessFactor": 1
			},
			"emissiveFactor": [0, 0, 0],
			"doubleSided": false,
			"name": "mat09"
		}
	],
	"meshes": [
		{
			"name": "mesh_mesh_rock_01_11346mesh_rock_01",
			"primitives": [
				{
					"attributes": {
						"POSITION": 0,
						"NORMAL": 1,
						"TEXCOORD_0": 2,
						"TANGENT": 3
					},
					"indices": 4,
					"material": 0,
					"mode": 4
				},
				{
					"attributes": {
						"POSITION": 0,
						"NORMAL": 1,
						"TEXCOORD_0": 2,
						"TANGENT": 3
					},
					"indices": 5,
					"material": 1,
					"mode": 4
				}
			]
		}
	],
	"nodes": [
		{
			"name": "UnityGlTF_root",
			"children": [
				1
			]
		},
		{
			"name": "node_mesh_rock_01",
			"mesh": 0,
			"matrix": [1, 0, 0, 0, 0, 1, 0, 0, 0, 0, 1, 0, 0, 0, 0, 1]
		}
	],
	"samplers": [
		{
			"magFilter": 9729,
			"minFilter": 9985,
			"wrapS": 10497,
			"wrapT": 10497
		}
	],
	"scenes": [
		{
			"name":"defaultScene",
			"nodes": [
				0
			]
		}
	],
	"scene": 0,
	"textures": [
		{
			"sampler": 0,
			"source": 0
		}
	]
}