{
	"asset": {
		"generator": "Unity 2018.3.6f1",
		"extras": {
			"exporterVersion" : "2.2.1"
		},
		"version": "2.0"
	},
	"accessors": [
		{
			"bufferView": 2,
			"byteOffset": 0,
			"componentType": 5126,
			"count": 50,
			"max": [ 2, 0.05000007, 1.999999 ],
			"min": [ -2, -0.05, -2 ],
			"type": "VEC3"
		},
		{
			"bufferView": 2,
			"byteOffset": 600,
			"componentType": 5126,
			"count": 50,
			"max": [ 0.9238797, 1, 0.9238799 ],
			"min": [ -0.9238797, -1, -0.9238798 ],
			"type": "VEC3"
		},
		{
			"bufferView": 1,
			"byteOffset": 0,
			"componentType": 5126,
			"count": 50,
			"max": [ 0.6899506, 0.5647175 ],
			"min": [ 0.003445698, 0 ],
			"type": "VEC2"
		},
		{
			"bufferView": 3,
			"byteOffset": 0,
			"componentType": 5126,
			"count": 50,
			"max": [ 0.9238799, 0, 0.9238797, 1 ],
			"min": [ -0.9238798, 0, -0.9238797, 1 ],
			"type": "VEC4"
		},
		{
			"bufferView": 0,
			"byteOffset": 0,
			"componentType": 5123,
			"count": 96,
			"max": [ 49 ],
			"min": [ 0 ],
			"type": "SCALAR"
		}
	],
	"buffers": [
		{
			"byteLength": 2592,
			"uri": "entity430312.bin"
		}
	],
	"bufferViews": [
		{
			"buffer": 0,
			"byteLength": 192,
			"target": 34963,
			"byteOffset": 2400
		},
		{
			"buffer": 0,
			"byteLength": 400,
			"target": 34962,
			"byteStride": 8,
			"byteOffset": 0
		},
		{
			"buffer": 0,
			"byteLength": 1200,
			"target": 34962,
			"byteStride": 12,
			"byteOffset": 400
		},
		{
			"buffer": 0,
			"byteLength": 800,
			"target": 34962,
			"byteStride": 16,
			"byteOffset": 1600
		}
	],
	"images": [
		{
			"uri": "Assets/Visuals/Textures/texture_rock_mounts_01.jpg"
		}
	],
	"materials": [
		{
			"pbrMetallicRoughness": {
				"baseColorTexture" : {
					"index" : 0,
					"texCoord" : 0
				},
				"baseColorFactor": [1, 0.3066038, 0.3066038, 1],
				"metallicFactor": 0,
				"roughnessFactor": 1
			},
			"emissiveFactor": [0, 0, 0],
			"doubleSided": false,
			"name": "mat08"
		}
	],
	"meshes": [
		{
			"name": "mesh_pCylinder28_10578pCylinder28",
			"primitives": [
				{
					"attributes": {
						"POSITION": 0,
						"NORMAL": 1,
						"TEXCOORD_0": 2,
						"TANGENT": 3
					},
					"indices": 4,
					"material": 0,
					"mode": 4
				}
			]
		}
	],
	"nodes": [
		{
			"name": "UnityGlTF_root",
			"children": [
				1
			]
		},
		{
			"name": "node_pCylinder28",
			"mesh": 0,
			"matrix": [1, 0, 0, 0, 0, 1, 0, 0, 0, 0, 1, 0, 0, 0, 0, 1]
		}
	],
	"samplers": [
		{
			"magFilter": 9729,
			"minFilter": 9985,
			"wrapS": 10497,
			"wrapT": 10497
		}
	],
	"scenes": [
		{
			"name":"defaultScene",
			"nodes": [
				0
			]
		}
	],
	"scene": 0,
	"textures": [
		{
			"sampler": 0,
			"source": 0
		}
	]
}