{
	"asset": {
		"generator": "Unity 2018.3.6f1",
		"extras": {
			"exporterVersion" : "2.2.1"
		},
		"version": "2.0"
	},
	"accessors": [
		{
			"bufferView": 2,
			"byteOffset": 0,
			"componentType": 5126,
			"count": 756,
			"max": [ 402.2029, 203.9063, 169.5587 ],
			"min": [ -355.8817, -8.746199, -163.8687 ],
			"type": "VEC3"
		},
		{
			"bufferView": 2,
			"byteOffset": 9072,
			"componentType": 5126,
			"count": 756,
			"max": [ 0.972214, 1, 1 ],
			"min": [ -0.9724956, -1, -1 ],
			"type": "VEC3"
		},
		{
			"bufferView": 1,
			"byteOffset": 0,
			"componentType": 5126,
			"count": 756,
			"max": [ 2.878021, 2.915113 ],
			"min": [ -1.890911, -1.915113 ],
			"type": "VEC2"
		},
		{
			"bufferView": 3,
			"byteOffset": 0,
			"componentType": 5126,
			"count": 756,
			"max": [ 0.9775372, 1, 0.9989066, 1 ],
			"min": [ -1, -0.9999297, -0.9587736, -1 ],
			"type": "VEC4"
		},
		{
			"bufferView": 0,
			"byteOffset": 0,
			"componentType": 5123,
			"count": 648,
			"max": [ 377 ],
			"min": [ 0 ],
			"type": "SCALAR"
		},
		{
			"bufferView": 0,
			"byteOffset": 1296,
			"componentType": 5123,
			"count": 648,
			"max": [ 755 ],
			"min": [ 378 ],
			"type": "SCALAR"
		}
	],
	"buffers": [
		{
			"byteLength": 38880,
			"uri": "entity439602.bin"
		}
	],
	"bufferViews": [
		{
			"buffer": 0,
			"byteLength": 2592,
			"target": 34963,
			"byteOffset": 36288
		},
		{
			"buffer": 0,
			"byteLength": 6048,
			"target": 34962,
			"byteStride": 8,
			"byteOffset": 0
		},
		{
			"buffer": 0,
			"byteLength": 18144,
			"target": 34962,
			"byteStride": 12,
			"byteOffset": 6048
		},
		{
			"buffer": 0,
			"byteLength": 12096,
			"target": 34962,
			"byteStride": 16,
			"byteOffset": 24192
		}
	],
	"images": [
		{
			"uri": "Assets/Visuals/Textures/texture_rock_mounts_01.jpg"
		}
	],
	"materials": [
		{
			"pbrMetallicRoughness": {
				"baseColorFactor": [1, 0.3066038, 0.3066038, 1],
				"metallicFactor": 1,
				"roughnessFactor": 1
			},
			"emissiveFactor": [0, 0, 0],
			"doubleSided": false,
			"name": "outline"
		},
		{
			"pbrMetallicRoughness": {
				"baseColorTexture" : {
					"index" : 0,
					"texCoord" : 0
				},
				"baseColorFactor": [1, 0.3066038, 0.3066038, 1],
				"metallicFactor": 0,
				"roughnessFactor": 1
			},
			"emissiveFactor": [0, 0, 0],
			"doubleSided": false,
			"name": "mat08"
		}
	],
	"meshes": [
		{
			"name": "mesh_bank1_11586bank1",
			"primitives": [
				{
					"attributes": {
						"POSITION": 0,
						"NORMAL": 1,
						"TEXCOORD_0": 2,
						"TANGENT": 3
					},
					"indices": 4,
					"material": 0,
					"mode": 4
				},
				{
					"attributes": {
						"POSITION": 0,
						"NORMAL": 1,
						"TEXCOORD_0": 2,
						"TANGENT": 3
					},
					"indices": 5,
					"material": 1,
					"mode": 4
				}
			]
		}
	],
	"nodes": [
		{
			"name": "UnityGlTF_root",
			"children": [
				1
			]
		},
		{
			"name": "node_bank1",
			"mesh": 0,
			"matrix": [1, 0, 0, 0, 0, 1, 0, 0, 0, 0, 1, 0, 0, 0, 0, 1]
		}
	],
	"samplers": [
		{
			"magFilter": 9729,
			"minFilter": 9985,
			"wrapS": 10497,
			"wrapT": 10497
		}
	],
	"scenes": [
		{
			"name":"defaultScene",
			"nodes": [
				0
			]
		}
	],
	"scene": 0,
	"textures": [
		{
			"sampler": 0,
			"source": 0
		}
	]
}