{
	"asset": {
		"generator": "Unity 2018.3.6f1",
		"extras": {
			"exporterVersion" : "2.2.1"
		},
		"version": "2.0"
	},
	"accessors": [
		{
			"bufferView": 2,
			"byteOffset": 0,
			"componentType": 5126,
			"count": 659,
			"max": [ 0.8454767, 6.141345, 0.9301178 ],
			"min": [ -0.8454767, 0, -0.9301178 ],
			"type": "VEC3"
		},
		{
			"bufferView": 2,
			"byteOffset": 7908,
			"componentType": 5126,
			"count": 659,
			"max": [ 0.9977859, 1, 0.9972531 ],
			"min": [ -0.9976702, -1, -0.9973956 ],
			"type": "VEC3"
		},
		{
			"bufferView": 1,
			"byteOffset": 0,
			"componentType": 5126,
			"count": 659,
			"max": [ 1.422944, 1.535516 ],
			"min": [ -0.5355617, -1.662147 ],
			"type": "VEC2"
		},
		{
			"bufferView": 3,
			"byteOffset": 0,
			"componentType": 5126,
			"count": 659,
			"max": [ 0.9241989, 0.997786, 0.9724521, 1 ],
			"min": [ -1, -0.997396, -0.9999536, -1 ],
			"type": "VEC4"
		},
		{
			"bufferView": 0,
			"byteOffset": 0,
			"componentType": 5123,
			"count": 306,
			"max": [ 222 ],
			"min": [ 0 ],
			"type": "SCALAR"
		},
		{
			"bufferView": 0,
			"byteOffset": 612,
			"componentType": 5123,
			"count": 306,
			"max": [ 457 ],
			"min": [ 223 ],
			"type": "SCALAR"
		},
		{
			"bufferView": 0,
			"byteOffset": 1224,
			"componentType": 5123,
			"count": 204,
			"max": [ 658 ],
			"min": [ 458 ],
			"type": "SCALAR"
		},
		{
			"bufferView": 2,
			"byteOffset": 15816,
			"componentType": 5126,
			"count": 24,
			"max": [ 0.8564945, 6.141345, 0.8564945 ],
			"min": [ -0.8564945, 0, -0.8564945 ],
			"type": "VEC3"
		},
		{
			"bufferView": 2,
			"byteOffset": 16104,
			"componentType": 5126,
			"count": 24,
			"max": [ 0.9986786, 1, 0.9986786 ],
			"min": [ -0.9986786, -1, -0.9986786 ],
			"type": "VEC3"
		},
		{
			"bufferView": 1,
			"byteOffset": 5272,
			"componentType": 5126,
			"count": 24,
			"max": [ 0.875, 1 ],
			"min": [ 0.125, 0 ],
			"type": "VEC2"
		},
		{
			"bufferView": 3,
			"byteOffset": 10544,
			"componentType": 5126,
			"count": 24,
			"max": [ 0, 0, 1, 1 ],
			"min": [ -1, 0, -1, 1 ],
			"type": "VEC4"
		},
		{
			"bufferView": 0,
			"byteOffset": 1632,
			"componentType": 5123,
			"count": 36,
			"max": [ 23 ],
			"min": [ 0 ],
			"type": "SCALAR"
		}
	],
	"buffers": [
		{
			"byteLength": 34488,
			"uri": "entity112648.bin"
		}
	],
	"bufferViews": [
		{
			"buffer": 0,
			"byteLength": 1704,
			"target": 34963,
			"byteOffset": 32784
		},
		{
			"buffer": 0,
			"byteLength": 5464,
			"target": 34962,
			"byteStride": 8,
			"byteOffset": 0
		},
		{
			"buffer": 0,
			"byteLength": 16392,
			"target": 34962,
			"byteStride": 12,
			"byteOffset": 5464
		},
		{
			"buffer": 0,
			"byteLength": 10928,
			"target": 34962,
			"byteStride": 16,
			"byteOffset": 21856
		}
	],
	"images": [
		{
			"uri": "Assets/Visuals/Materials/Rock_01_Albedo.jpg"
		},
		{
			"uri": "Assets/Visuals/Materials/Rock_03_Albedo.jpg"
		}
	],
	"materials": [
		{
			"pbrMetallicRoughness": {
				"baseColorTexture" : {
					"index" : 0,
					"texCoord" : 0
				},
				"baseColorFactor": [1, 1, 1, 1],
				"metallicFactor": 0,
				"roughnessFactor": 1
			},
			"emissiveFactor": [0, 0, 0],
			"doubleSided": false,
			"name": "Rock_01_Mat"
		},
		{
			"pbrMetallicRoughness": {
				"baseColorFactor": [0, 0, 0, 1],
				"metallicFactor": 0,
				"roughnessFactor": 1
			},
			"emissiveFactor": [0, 0, 0],
			"doubleSided": false,
			"name": "Black_Outline_Mat"
		},
		{
			"pbrMetallicRoughness": {
				"baseColorTexture" : {
					"index" : 1,
					"texCoord" : 0
				},
				"baseColorFactor": [1, 1, 1, 1],
				"metallicFactor": 0,
				"roughnessFactor": 1
			},
			"emissiveFactor": [0, 0, 0],
			"doubleSided": false,
			"name": "Rock_03_Mat"
		},
		{
			"pbrMetallicRoughness": {
				"baseColorFactor": [1, 1, 1, 1],
				"metallicFactor": 0,
				"roughnessFactor": 0.5
			},
			"emissiveFactor": [0, 0, 0],
			"doubleSided": false,
			"name": "DefaultMaterial"
		}
	],
	"meshes": [
		{
			"name": "mesh_Str_Ruins_04_2_11106Str_Ruins_04_2",
			"primitives": [
				{
					"attributes": {
						"POSITION": 0,
						"NORMAL": 1,
						"TEXCOORD_0": 2,
						"TANGENT": 3
					},
					"indices": 4,
					"material": 0,
					"mode": 4
				},
				{
					"attributes": {
						"POSITION": 0,
						"NORMAL": 1,
						"TEXCOORD_0": 2,
						"TANGENT": 3
					},
					"indices": 5,
					"material": 1,
					"mode": 4
				},
				{
					"attributes": {
						"POSITION": 0,
						"NORMAL": 1,
						"TEXCOORD_0": 2,
						"TANGENT": 3
					},
					"indices": 6,
					"material": 2,
					"mode": 4
				}
			]
		},
		{
			"name": "mesh_Str_Ruins_04_2_collider_11108Str_Ruins_04_2_collider",
			"primitives": [
				{
					"attributes": {
						"POSITION": 7,
						"NORMAL": 8,
						"TEXCOORD_0": 9,
						"TANGENT": 10
					},
					"indices": 11,
					"material": 3,
					"mode": 4
				}
			]
		}
	],
	"nodes": [
		{
			"name": "UnityGlTF_root",
			"children": [
				1
			]
		},
		{
			"name": "node_Str_Ruins_04_2",
			"mesh": 0,
			"children": [
				2
			],
			"matrix": [1, 0, 0, 0, 0, 1, 0, 0, 0, 0, 1, 0, 0, 0, 0, 1]
		},
		{
			"name": "node_Str_Ruins_04_2_collider",
			"mesh": 1
		}
	],
	"samplers": [
		{
			"magFilter": 9729,
			"minFilter": 9985,
			"wrapS": 10497,
			"wrapT": 10497
		}
	],
	"scenes": [
		{
			"name":"defaultScene",
			"nodes": [
				0
			]
		}
	],
	"scene": 0,
	"textures": [
		{
			"sampler": 0,
			"source": 0
		},
		{
			"sampler": 0,
			"source": 1
		}
	]
}