{
	"asset": {
		"generator": "Unity 2018.3.6f1",
		"extras": {
			"exporterVersion" : "2.2.1"
		},
		"version": "2.0"
	},
	"accessors": [
		{
			"bufferView": 2,
			"byteOffset": 0,
			"componentType": 5126,
			"count": 546,
			"max": [ 0.3091132, 2.320141, 0.3271781 ],
			"min": [ -0.3091132, 1.914433, -0.3472829 ],
			"type": "VEC3"
		},
		{
			"bufferView": 2,
			"byteOffset": 6552,
			"componentType": 5126,
			"count": 546,
			"max": [ 0.997394, 0.9999915, 0.9990237 ],
			"min": [ -0.997394, -0.9999799, -0.9948328 ],
			"type": "VEC3"
		},
		{
			"bufferView": 1,
			"byteOffset": 0,
			"componentType": 5126,
			"count": 546,
			"max": [ 0.9897716, 0.9758431 ],
			"min": [ 0.6964028, 0.6047951 ],
			"type": "VEC2"
		},
		{
			"bufferView": 4,
			"byteOffset": 0,
			"componentType": 5123,
			"count": 546,
			"max": [ 2, 3, 3, 3 ],
			"min": [ 1, 0, 0, 0 ],
			"type": "VEC4"
		},
		{
			"bufferView": 3,
			"byteOffset": 0,
			"componentType": 5126,
			"count": 546,
			"max": [ 1, 0.4930671, 0.03313744, 0.009109963 ],
			"min": [ 0.5007227, 0, 0, 0 ],
			"type": "VEC4"
		},
		{
			"bufferView": 3,
			"byteOffset": 8736,
			"componentType": 5126,
			"count": 546,
			"max": [ 0.6316092, 0.9560746, 0.9998624, 1 ],
			"min": [ -1, -0.9555312, -0.9998326, -1 ],
			"type": "VEC4"
		},
		{
			"bufferView": 0,
			"byteOffset": 0,
			"componentType": 5123,
			"count": 1344,
			"max": [ 271 ],
			"min": [ 0 ],
			"type": "SCALAR"
		},
		{
			"bufferView": 0,
			"byteOffset": 2688,
			"componentType": 5123,
			"count": 1344,
			"max": [ 545 ],
			"min": [ 272 ],
			"type": "SCALAR"
		}
	],
	"buffers": [
		{
			"byteLength": 44688,
			"uri": "entity434696.bin"
		}
	],
	"bufferViews": [
		{
			"buffer": 0,
			"byteLength": 5376,
			"target": 34963,
			"byteOffset": 39312
		},
		{
			"buffer": 0,
			"byteLength": 4368,
			"target": 34962,
			"byteStride": 8,
			"byteOffset": 0
		},
		{
			"buffer": 0,
			"byteLength": 13104,
			"target": 34962,
			"byteStride": 12,
			"byteOffset": 4368
		},
		{
			"buffer": 0,
			"byteLength": 17472,
			"target": 34962,
			"byteStride": 16,
			"byteOffset": 17472
		},
		{
			"buffer": 0,
			"byteLength": 4368,
			"byteStride": 8,
			"byteOffset": 34944
		}
	],
	"images": [
		{
			"uri": "Assets/Visuals/Textures/texture_deer.jpg"
		}
	],
	"materials": [
		{
			"pbrMetallicRoughness": {
				"baseColorFactor": [0.013, 0.004836, 0.004836, 1],
				"metallicFactor": 0,
				"roughnessFactor": 1
			},
			"emissiveFactor": [0, 0, 0],
			"doubleSided": false,
			"name": "Outline"
		},
		{
			"pbrMetallicRoughness": {
				"baseColorTexture" : {
					"index" : 0,
					"texCoord" : 0
				},
				"baseColorFactor": [1, 0.3066038, 0.3066038, 1],
				"metallicFactor": 0,
				"roughnessFactor": 1
			},
			"emissiveFactor": [0, 0, 0],
			"doubleSided": false,
			"name": "mat_deer"
		}
	],
	"meshes": [
		{
			"name": "mesh_mesh_deer_02_11008mesh_deer_02",
			"primitives": [
				{
					"attributes": {
						"POSITION": 0,
						"NORMAL": 1,
						"TEXCOORD_0": 2,
						"JOINTS_0": 3,
						"WEIGHTS_0": 4,
						"TANGENT": 5
					},
					"indices": 6,
					"material": 0,
					"mode": 4
				},
				{
					"attributes": {
						"POSITION": 0,
						"NORMAL": 1,
						"TEXCOORD_0": 2,
						"JOINTS_0": 3,
						"WEIGHTS_0": 4,
						"TANGENT": 5
					},
					"indices": 7,
					"material": 1,
					"mode": 4
				}
			]
		}
	],
	"nodes": [
		{
			"name": "UnityGlTF_root",
			"children": [
				1
			]
		},
		{
			"name": "node_mesh_deer_02",
			"mesh": 0,
			"matrix": [1, 0, 0, 0, 0, 1, 0, 0, 0, 0, 1, 0, 0, 0, 0, 1]
		}
	],
	"samplers": [
		{
			"magFilter": 9729,
			"minFilter": 9985,
			"wrapS": 10497,
			"wrapT": 10497
		}
	],
	"scenes": [
		{
			"name":"defaultScene",
			"nodes": [
				0
			]
		}
	],
	"scene": 0,
	"textures": [
		{
			"sampler": 0,
			"source": 0
		}
	]
}