{
	"asset": {
		"generator": "Unity 2018.3.6f1",
		"extras": {
			"exporterVersion" : "2.2.1"
		},
		"version": "2.0"
	},
	"accessors": [
		{
			"bufferView": 2,
			"byteOffset": 0,
			"componentType": 5126,
			"count": 224,
			"max": [ 1.310984, 2.31518, 0.8254431 ],
			"min": [ -1.235656, -0.02382477, -0.8252075 ],
			"type": "VEC3"
		},
		{
			"bufferView": 2,
			"byteOffset": 2688,
			"componentType": 5126,
			"count": 224,
			"max": [ 0.9983992, 0.9975298, 0.9547216 ],
			"min": [ -0.9970668, -0.9999354, -0.9818695 ],
			"type": "VEC3"
		},
		{
			"bufferView": 1,
			"byteOffset": 0,
			"componentType": 5126,
			"count": 224,
			"max": [ 0.9502176, 1 ],
			"min": [ 0.006723466, 0 ],
			"type": "VEC2"
		},
		{
			"bufferView": 3,
			"byteOffset": 0,
			"componentType": 5126,
			"count": 224,
			"max": [ 0.9999908, 1, 0.9998195, 1 ],
			"min": [ -0.999999, -0.8711413, -0.9996256, -1 ],
			"type": "VEC4"
		},
		{
			"bufferView": 0,
			"byteOffset": 0,
			"componentType": 5123,
			"count": 984,
			"max": [ 223 ],
			"min": [ 0 ],
			"type": "SCALAR"
		},
		{
			"bufferView": 2,
			"byteOffset": 5376,
			"componentType": 5126,
			"count": 44,
			"max": [ 1.474453, 2.427189, 0.6563674 ],
			"min": [ -1.197781, 0, -0.6563674 ],
			"type": "VEC3"
		},
		{
			"bufferView": 2,
			"byteOffset": 5904,
			"componentType": 5126,
			"count": 44,
			"max": [ 0.9988227, 0.9741303, 0.9957211 ],
			"min": [ -0.999433, -1, -0.9957211 ],
			"type": "VEC3"
		},
		{
			"bufferView": 1,
			"byteOffset": 1792,
			"componentType": 5126,
			"count": 44,
			"max": [ 0.875, 1 ],
			"min": [ 0.125, 0 ],
			"type": "VEC2"
		},
		{
			"bufferView": 3,
			"byteOffset": 3584,
			"componentType": 5126,
			"count": 44,
			"max": [ 0, 0.419627, 1, 1 ],
			"min": [ -1, 0, -1, 1 ],
			"type": "VEC4"
		},
		{
			"bufferView": 0,
			"byteOffset": 1968,
			"componentType": 5123,
			"count": 66,
			"max": [ 43 ],
			"min": [ 0 ],
			"type": "SCALAR"
		}
	],
	"buffers": [
		{
			"byteLength": 14964,
			"uri": "entity378358.bin"
		}
	],
	"bufferViews": [
		{
			"buffer": 0,
			"byteLength": 2100,
			"target": 34963,
			"byteOffset": 12864
		},
		{
			"buffer": 0,
			"byteLength": 2144,
			"target": 34962,
			"byteStride": 8,
			"byteOffset": 0
		},
		{
			"buffer": 0,
			"byteLength": 6432,
			"target": 34962,
			"byteStride": 12,
			"byteOffset": 2144
		},
		{
			"buffer": 0,
			"byteLength": 4288,
			"target": 34962,
			"byteStride": 16,
			"byteOffset": 8576
		}
	],
	"images": [
		{
			"uri": "Assets/Visuals/Materials/Rock_02_Albedo.jpg"
		}
	],
	"materials": [
		{
			"pbrMetallicRoughness": {
				"baseColorTexture" : {
					"index" : 0,
					"texCoord" : 0
				},
				"baseColorFactor": [1, 1, 1, 1],
				"metallicFactor": 0,
				"roughnessFactor": 1
			},
			"emissiveFactor": [0, 0, 0],
			"doubleSided": false,
			"name": "Rock_02_Mat"
		},
		{
			"pbrMetallicRoughness": {
				"baseColorFactor": [0.05724907, 1, 0, 1],
				"metallicFactor": 0,
				"roughnessFactor": 0.5
			},
			"emissiveFactor": [0, 0, 0],
			"doubleSided": false,
			"name": "_collider_Mat"
		}
	],
	"meshes": [
		{
			"name": "mesh_Rock_02_11386Rock_02",
			"primitives": [
				{
					"attributes": {
						"POSITION": 0,
						"NORMAL": 1,
						"TEXCOORD_0": 2,
						"TANGENT": 3
					},
					"indices": 4,
					"material": 0,
					"mode": 4
				}
			]
		},
		{
			"name": "mesh_Rock_02_collider_11388Rock_02_collider",
			"primitives": [
				{
					"attributes": {
						"POSITION": 5,
						"NORMAL": 6,
						"TEXCOORD_0": 7,
						"TANGENT": 8
					},
					"indices": 9,
					"material": 1,
					"mode": 4
				}
			]
		}
	],
	"nodes": [
		{
			"name": "UnityGlTF_root",
			"children": [
				1
			]
		},
		{
			"name": "node_Rock_02",
			"mesh": 0,
			"children": [
				2
			],
			"matrix": [1, 0, 0, 0, 0, 1, 0, 0, 0, 0, 1, 0, 0, 0, 0, 1]
		},
		{
			"name": "node_Rock_02_collider",
			"mesh": 1
		}
	],
	"samplers": [
		{
			"magFilter": 9729,
			"minFilter": 9985,
			"wrapS": 10497,
			"wrapT": 10497
		}
	],
	"scenes": [
		{
			"name":"defaultScene",
			"nodes": [
				0
			]
		}
	],
	"scene": 0,
	"textures": [
		{
			"sampler": 0,
			"source": 0
		}
	]
}