{
	"asset": {
		"generator": "Unity 2018.3.6f1",
		"extras": {
			"exporterVersion" : "2.2.1"
		},
		"version": "2.0"
	},
	"accessors": [
		{
			"bufferView": 2,
			"byteOffset": 0,
			"componentType": 5126,
			"count": 1309,
			"max": [ 1.671394, 1.207946, 0.5410742 ],
			"min": [ -1.650081, -0.02494774, -0.6064937 ],
			"type": "VEC3"
		},
		{
			"bufferView": 2,
			"byteOffset": 15708,
			"componentType": 5126,
			"count": 1309,
			"max": [ 0.9995521, 1, 0.9997742 ],
			"min": [ -0.9995545, -1, -1 ],
			"type": "VEC3"
		},
		{
			"bufferView": 1,
			"byteOffset": 0,
			"componentType": 5126,
			"count": 1309,
			"max": [ 2.147611, 2.445824 ],
			"min": [ -1.438312, -1.429941 ],
			"type": "VEC2"
		},
		{
			"bufferView": 3,
			"byteOffset": 0,
			"componentType": 5126,
			"count": 1309,
			"max": [ 0.7870942, 0.9998634, 1, 1 ],
			"min": [ -1, -0.999938, -0.9961061, -1 ],
			"type": "VEC4"
		},
		{
			"bufferView": 0,
			"byteOffset": 0,
			"componentType": 5123,
			"count": 870,
			"max": [ 651 ],
			"min": [ 0 ],
			"type": "SCALAR"
		},
		{
			"bufferView": 0,
			"byteOffset": 1740,
			"componentType": 5123,
			"count": 870,
			"max": [ 1308 ],
			"min": [ 652 ],
			"type": "SCALAR"
		}
	],
	"buffers": [
		{
			"byteLength": 66312,
			"uri": "entity440710.bin"
		}
	],
	"bufferViews": [
		{
			"buffer": 0,
			"byteLength": 3480,
			"target": 34963,
			"byteOffset": 62832
		},
		{
			"buffer": 0,
			"byteLength": 10472,
			"target": 34962,
			"byteStride": 8,
			"byteOffset": 0
		},
		{
			"buffer": 0,
			"byteLength": 31416,
			"target": 34962,
			"byteStride": 12,
			"byteOffset": 10472
		},
		{
			"buffer": 0,
			"byteLength": 20944,
			"target": 34962,
			"byteStride": 16,
			"byteOffset": 41888
		}
	],
	"images": [
		{
			"uri": "Assets/Visuals/Textures/texture_rock_mounts_01.jpg"
		}
	],
	"materials": [
		{
			"pbrMetallicRoughness": {
				"baseColorTexture" : {
					"index" : 0,
					"texCoord" : 0
				},
				"baseColorFactor": [1, 0.3066038, 0.3066038, 1],
				"metallicFactor": 0,
				"roughnessFactor": 1
			},
			"emissiveFactor": [0, 0, 0],
			"doubleSided": false,
			"name": "mat08"
		},
		{
			"pbrMetallicRoughness": {
				"baseColorFactor": [1, 0.3066038, 0.3066038, 1],
				"metallicFactor": 1,
				"roughnessFactor": 1
			},
			"emissiveFactor": [0, 0, 0],
			"doubleSided": false,
			"name": "outline"
		}
	],
	"meshes": [
		{
			"name": "mesh_mesh_ruins_04_10542mesh_ruins_04",
			"primitives": [
				{
					"attributes": {
						"POSITION": 0,
						"NORMAL": 1,
						"TEXCOORD_0": 2,
						"TANGENT": 3
					},
					"indices": 4,
					"material": 0,
					"mode": 4
				},
				{
					"attributes": {
						"POSITION": 0,
						"NORMAL": 1,
						"TEXCOORD_0": 2,
						"TANGENT": 3
					},
					"indices": 5,
					"material": 1,
					"mode": 4
				}
			]
		}
	],
	"nodes": [
		{
			"name": "UnityGlTF_root",
			"children": [
				1
			]
		},
		{
			"name": "node_mesh_ruins_04",
			"mesh": 0,
			"matrix": [1, 0, 0, 0, 0, 1, 0, 0, 0, 0, 1, 0, 0, 0, 0, 1]
		}
	],
	"samplers": [
		{
			"magFilter": 9729,
			"minFilter": 9985,
			"wrapS": 10497,
			"wrapT": 10497
		}
	],
	"scenes": [
		{
			"name":"defaultScene",
			"nodes": [
				0
			]
		}
	],
	"scene": 0,
	"textures": [
		{
			"sampler": 0,
			"source": 0
		}
	]
}