{
	"asset": {
		"generator": "Unity 2018.3.6f1",
		"extras": {
			"exporterVersion" : "2.2.1"
		},
		"version": "2.0"
	},
	"accessors": [
		{
			"bufferView": 2,
			"byteOffset": 0,
			"componentType": 5126,
			"count": 16,
			"max": [ 0.9999998, 0.395556, 12.4616 ],
			"min": [ -0.9999998, -0.3971545, -12.9201 ],
			"type": "VEC3"
		},
		{
			"bufferView": 2,
			"byteOffset": 192,
			"componentType": 5126,
			"count": 16,
			"max": [ 0, 0.9999489, 0.9605165 ],
			"min": [ 0, -0.9991663, 0.01011502 ],
			"type": "VEC3"
		},
		{
			"bufferView": 1,
			"byteOffset": 0,
			"componentType": 5126,
			"count": 16,
			"max": [ 0.8622555, 1 ],
			"min": [ 0.1964048, 0 ],
			"type": "VEC2"
		},
		{
			"bufferView": 3,
			"byteOffset": 0,
			"componentType": 5126,
			"count": 16,
			"max": [ 1, 0, 0.2782169, -1 ],
			"min": [ -0.01787015, -0.9604947, -0.9991573, -1 ],
			"type": "VEC4"
		},
		{
			"bufferView": 0,
			"byteOffset": 0,
			"componentType": 5123,
			"count": 30,
			"max": [ 15 ],
			"min": [ 0 ],
			"type": "SCALAR"
		}
	],
	"buffers": [
		{
			"byteLength": 828,
			"uri": "entity430274.bin"
		}
	],
	"bufferViews": [
		{
			"buffer": 0,
			"byteLength": 60,
			"target": 34963,
			"byteOffset": 768
		},
		{
			"buffer": 0,
			"byteLength": 128,
			"target": 34962,
			"byteStride": 8,
			"byteOffset": 0
		},
		{
			"buffer": 0,
			"byteLength": 384,
			"target": 34962,
			"byteStride": 12,
			"byteOffset": 128
		},
		{
			"buffer": 0,
			"byteLength": 256,
			"target": 34962,
			"byteStride": 16,
			"byteOffset": 512
		}
	],
	"materials": [
		{
			"pbrMetallicRoughness": {
				"baseColorFactor": [0.5, 0.5, 0.5, 1],
				"metallicFactor": 0,
				"roughnessFactor": 1
			},
			"emissiveFactor": [0, 0, 0],
			"doubleSided": false,
			"name": "phong1"
		}
	],
	"meshes": [
		{
			"name": "mesh_pPlane2_10612pPlane21",
			"primitives": [
				{
					"attributes": {
						"POSITION": 0,
						"NORMAL": 1,
						"TEXCOORD_0": 2,
						"TANGENT": 3
					},
					"indices": 4,
					"material": 0,
					"mode": 4
				}
			]
		}
	],
	"nodes": [
		{
			"name": "UnityGlTF_root",
			"children": [
				1
			]
		},
		{
			"name": "node_pPlane21",
			"mesh": 0,
			"matrix": [1, 0, 0, 0, 0, 1, 0, 0, 0, 0, 1, 0, 0, 0, 0, 1]
		}
	],
	"scenes": [
		{
			"name":"defaultScene",
			"nodes": [
				0
			]
		}
	],
	"scene": 0
}