{
	"asset": {
		"generator": "Unity 2018.3.6f1",
		"extras": {
			"exporterVersion" : "2.2.1"
		},
		"version": "2.0"
	},
	"accessors": [
		{
			"bufferView": 2,
			"byteOffset": 0,
			"componentType": 5126,
			"count": 358,
			"max": [ 0.23145, 0.6337771, 0.3695937 ],
			"min": [ 0.03275525, 0.005263977, 0.1101997 ],
			"type": "VEC3"
		},
		{
			"bufferView": 2,
			"byteOffset": 4296,
			"componentType": 5126,
			"count": 358,
			"max": [ 0.9894183, 0.9442182, 0.9719824 ],
			"min": [ -0.9883744, -0.9981219, -0.9928401 ],
			"type": "VEC3"
		},
		{
			"bufferView": 1,
			"byteOffset": 0,
			"componentType": 5126,
			"count": 358,
			"max": [ 0.8025223, 0.6150775 ],
			"min": [ 0.5689918, 0.03966767 ],
			"type": "VEC2"
		},
		{
			"bufferView": 4,
			"byteOffset": 0,
			"componentType": 5123,
			"count": 358,
			"max": [ 11, 11, 11, 11 ],
			"min": [ 2, 0, 0, 0 ],
			"type": "VEC4"
		},
		{
			"bufferView": 3,
			"byteOffset": 0,
			"componentType": 5126,
			"count": 358,
			"max": [ 1, 0.4990725, 0.231654, 0.09189871 ],
			"min": [ 0.4469104, 0, 0, 0 ],
			"type": "VEC4"
		},
		{
			"bufferView": 3,
			"byteOffset": 5728,
			"componentType": 5126,
			"count": 358,
			"max": [ 0.9902853, 0.9839491, 0.986977, 1 ],
			"min": [ -0.9999611, -0.8551958, -0.996828, -1 ],
			"type": "VEC4"
		},
		{
			"bufferView": 0,
			"byteOffset": 0,
			"componentType": 5123,
			"count": 402,
			"max": [ 253 ],
			"min": [ 0 ],
			"type": "SCALAR"
		},
		{
			"bufferView": 0,
			"byteOffset": 804,
			"componentType": 5123,
			"count": 438,
			"max": [ 357 ],
			"min": [ 254 ],
			"type": "SCALAR"
		}
	],
	"buffers": [
		{
			"byteLength": 27456,
			"uri": "entity842182.bin"
		}
	],
	"bufferViews": [
		{
			"buffer": 0,
			"byteLength": 1680,
			"target": 34963,
			"byteOffset": 25776
		},
		{
			"buffer": 0,
			"byteLength": 2864,
			"target": 34962,
			"byteStride": 8,
			"byteOffset": 0
		},
		{
			"buffer": 0,
			"byteLength": 8592,
			"target": 34962,
			"byteStride": 12,
			"byteOffset": 2864
		},
		{
			"buffer": 0,
			"byteLength": 11456,
			"target": 34962,
			"byteStride": 16,
			"byteOffset": 11456
		},
		{
			"buffer": 0,
			"byteLength": 2864,
			"byteStride": 8,
			"byteOffset": 22912
		}
	],
	"images": [
		{
			"uri": "Assets/Visuals/Textures/texture_mountain_cat.jpg"
		}
	],
	"materials": [
		{
			"pbrMetallicRoughness": {
				"baseColorFactor": [1, 0.3066038, 0.3066038, 1],
				"metallicFactor": 1,
				"roughnessFactor": 1
			},
			"emissiveFactor": [0, 0, 0],
			"doubleSided": false,
			"name": "outline"
		},
		{
			"pbrMetallicRoughness": {
				"baseColorTexture" : {
					"index" : 0,
					"texCoord" : 0
				},
				"baseColorFactor": [1, 0.3066038, 0.3066038, 1],
				"metallicFactor": 0,
				"roughnessFactor": 1
			},
			"emissiveFactor": [0, 0, 0],
			"doubleSided": false,
			"name": "mat_cat"
		}
	],
	"meshes": [
		{
			"name": "mesh_mesh_mountain_cat_01_11328mesh_mountain_cat_01",
			"primitives": [
				{
					"attributes": {
						"POSITION": 0,
						"NORMAL": 1,
						"TEXCOORD_0": 2,
						"JOINTS_0": 3,
						"WEIGHTS_0": 4,
						"TANGENT": 5
					},
					"indices": 6,
					"material": 0,
					"mode": 4
				},
				{
					"attributes": {
						"POSITION": 0,
						"NORMAL": 1,
						"TEXCOORD_0": 2,
						"JOINTS_0": 3,
						"WEIGHTS_0": 4,
						"TANGENT": 5
					},
					"indices": 7,
					"material": 1,
					"mode": 4
				}
			]
		}
	],
	"nodes": [
		{
			"name": "UnityGlTF_root",
			"children": [
				1
			]
		},
		{
			"name": "node_mesh_mountain_cat_01",
			"mesh": 0,
			"matrix": [1, 0, 0, 0, 0, 1, 0, 0, 0, 0, 1, 0, 0, 0, 0, 1]
		}
	],
	"samplers": [
		{
			"magFilter": 9729,
			"minFilter": 9985,
			"wrapS": 10497,
			"wrapT": 10497
		}
	],
	"scenes": [
		{
			"name":"defaultScene",
			"nodes": [
				0
			]
		}
	],
	"scene": 0,
	"textures": [
		{
			"sampler": 0,
			"source": 0
		}
	]
}