{
	"asset": {
		"generator": "Unity 2018.3.6f1",
		"extras": {
			"exporterVersion" : "2.2.1"
		},
		"version": "2.0"
	},
	"accessors": [
		{
			"bufferView": 2,
			"byteOffset": 0,
			"componentType": 5126,
			"count": 52,
			"max": [ 2, 0.5, 2 ],
			"min": [ -2, -0.4999999, -2 ],
			"type": "VEC3"
		},
		{
			"bufferView": 2,
			"byteOffset": 624,
			"componentType": 5126,
			"count": 52,
			"max": [ 1, 0.5657503, 1 ],
			"min": [ -1, 0, -1 ],
			"type": "VEC3"
		},
		{
			"bufferView": 1,
			"byteOffset": 0,
			"componentType": 5126,
			"count": 52,
			"max": [ 0.6031034, 0.8395358 ],
			"min": [ 0, 0.3967636 ],
			"type": "VEC2"
		},
		{
			"bufferView": 3,
			"byteOffset": 0,
			"componentType": 5126,
			"count": 52,
			"max": [ 1, 0.6653194, 1, 1 ],
			"min": [ -1, -0.6653203, -1, -1 ],
			"type": "VEC4"
		},
		{
			"bufferView": 0,
			"byteOffset": 0,
			"componentType": 5123,
			"count": 144,
			"max": [ 51 ],
			"min": [ 0 ],
			"type": "SCALAR"
		}
	],
	"buffers": [
		{
			"byteLength": 2784,
			"uri": "entity430310.bin"
		}
	],
	"bufferViews": [
		{
			"buffer": 0,
			"byteLength": 288,
			"target": 34963,
			"byteOffset": 2496
		},
		{
			"buffer": 0,
			"byteLength": 416,
			"target": 34962,
			"byteStride": 8,
			"byteOffset": 0
		},
		{
			"buffer": 0,
			"byteLength": 1248,
			"target": 34962,
			"byteStride": 12,
			"byteOffset": 416
		},
		{
			"buffer": 0,
			"byteLength": 832,
			"target": 34962,
			"byteStride": 16,
			"byteOffset": 1664
		}
	],
	"images": [
		{
			"uri": "Assets/Visuals/Textures/texture_rock_mounts_01.jpg"
		}
	],
	"materials": [
		{
			"pbrMetallicRoughness": {
				"baseColorTexture" : {
					"index" : 0,
					"texCoord" : 0
				},
				"baseColorFactor": [1, 0.3066038, 0.3066038, 1],
				"metallicFactor": 0,
				"roughnessFactor": 1
			},
			"emissiveFactor": [0, 0, 0],
			"doubleSided": false,
			"name": "mat08"
		}
	],
	"meshes": [
		{
			"name": "mesh_pCylinder29_10582pCylinder29",
			"primitives": [
				{
					"attributes": {
						"POSITION": 0,
						"NORMAL": 1,
						"TEXCOORD_0": 2,
						"TANGENT": 3
					},
					"indices": 4,
					"material": 0,
					"mode": 4
				}
			]
		}
	],
	"nodes": [
		{
			"name": "UnityGlTF_root",
			"children": [
				1
			]
		},
		{
			"name": "node_pCylinder29",
			"mesh": 0,
			"matrix": [1, 0, 0, 0, 0, 1, 0, 0, 0, 0, 1, 0, 0, 0, 0, 1]
		}
	],
	"samplers": [
		{
			"magFilter": 9729,
			"minFilter": 9985,
			"wrapS": 10497,
			"wrapT": 10497
		}
	],
	"scenes": [
		{
			"name":"defaultScene",
			"nodes": [
				0
			]
		}
	],
	"scene": 0,
	"textures": [
		{
			"sampler": 0,
			"source": 0
		}
	]
}