{
	"asset": {
		"generator": "Unity 2018.3.6f1",
		"extras": {
			"exporterVersion" : "2.2.1"
		},
		"version": "2.0"
	},
	"accessors": [
		{
			"bufferView": 2,
			"byteOffset": 0,
			"componentType": 5126,
			"count": 737,
			"max": [ 1.961211, 0.7724841, 0.6423608 ],
			"min": [ -1.73534, -0.03313431, -0.6208044 ],
			"type": "VEC3"
		},
		{
			"bufferView": 2,
			"byteOffset": 8844,
			"componentType": 5126,
			"count": 737,
			"max": [ 0.9551794, 1, 1 ],
			"min": [ -0.9556216, -1, -1 ],
			"type": "VEC3"
		},
		{
			"bufferView": 1,
			"byteOffset": 0,
			"componentType": 5126,
			"count": 737,
			"max": [ 2.878021, 2.915113 ],
			"min": [ -8.338711, -1.915113 ],
			"type": "VEC2"
		},
		{
			"bufferView": 3,
			"byteOffset": 0,
			"componentType": 5126,
			"count": 737,
			"max": [ 0.9839782, 1, 0.9981903, 1 ],
			"min": [ -1, -0.9995397, -0.9347669, -1 ],
			"type": "VEC4"
		},
		{
			"bufferView": 0,
			"byteOffset": 0,
			"componentType": 5123,
			"count": 648,
			"max": [ 377 ],
			"min": [ 0 ],
			"type": "SCALAR"
		},
		{
			"bufferView": 0,
			"byteOffset": 1296,
			"componentType": 5123,
			"count": 648,
			"max": [ 736 ],
			"min": [ 378 ],
			"type": "SCALAR"
		}
	],
	"buffers": [
		{
			"byteLength": 37968,
			"uri": "entity833142.bin"
		}
	],
	"bufferViews": [
		{
			"buffer": 0,
			"byteLength": 2592,
			"target": 34963,
			"byteOffset": 35376
		},
		{
			"buffer": 0,
			"byteLength": 5896,
			"target": 34962,
			"byteStride": 8,
			"byteOffset": 0
		},
		{
			"buffer": 0,
			"byteLength": 17688,
			"target": 34962,
			"byteStride": 12,
			"byteOffset": 5896
		},
		{
			"buffer": 0,
			"byteLength": 11792,
			"target": 34962,
			"byteStride": 16,
			"byteOffset": 23584
		}
	],
	"images": [
		{
			"uri": "Assets/Visuals/Textures/texture_rock_mounts_01.jpg"
		}
	],
	"materials": [
		{
			"pbrMetallicRoughness": {
				"baseColorFactor": [1, 0.3066038, 0.3066038, 1],
				"metallicFactor": 1,
				"roughnessFactor": 1
			},
			"emissiveFactor": [0, 0, 0],
			"doubleSided": false,
			"name": "outline"
		},
		{
			"pbrMetallicRoughness": {
				"baseColorTexture" : {
					"index" : 0,
					"texCoord" : 0
				},
				"baseColorFactor": [1, 0.3066038, 0.3066038, 1],
				"metallicFactor": 0,
				"roughnessFactor": 1
			},
			"emissiveFactor": [0, 0, 0],
			"doubleSided": false,
			"name": "mat08"
		}
	],
	"meshes": [
		{
			"name": "mesh_mesh_bank_01_12506mesh_bank_01",
			"primitives": [
				{
					"attributes": {
						"POSITION": 0,
						"NORMAL": 1,
						"TEXCOORD_0": 2,
						"TANGENT": 3
					},
					"indices": 4,
					"material": 0,
					"mode": 4
				},
				{
					"attributes": {
						"POSITION": 0,
						"NORMAL": 1,
						"TEXCOORD_0": 2,
						"TANGENT": 3
					},
					"indices": 5,
					"material": 1,
					"mode": 4
				}
			]
		}
	],
	"nodes": [
		{
			"name": "UnityGlTF_root",
			"children": [
				1
			]
		},
		{
			"name": "node_mesh_bank_01",
			"mesh": 0,
			"matrix": [1, 0, 0, 0, 0, 1, 0, 0, 0, 0, 1, 0, 0, 0, 0, 1]
		}
	],
	"samplers": [
		{
			"magFilter": 9729,
			"minFilter": 9985,
			"wrapS": 10497,
			"wrapT": 10497
		}
	],
	"scenes": [
		{
			"name":"defaultScene",
			"nodes": [
				0
			]
		}
	],
	"scene": 0,
	"textures": [
		{
			"sampler": 0,
			"source": 0
		}
	]
}