{
	"asset": {
		"generator": "Unity 2018.3.6f1",
		"extras": {
			"exporterVersion" : "2.2.1"
		},
		"version": "2.0"
	},
	"accessors": [
		{
			"bufferView": 2,
			"byteOffset": 0,
			"componentType": 5126,
			"count": 832,
			"max": [ 103.8054, 208.3948, 13.45441 ],
			"min": [ -103.8054, -2.818817, -13.45441 ],
			"type": "VEC3"
		},
		{
			"bufferView": 2,
			"byteOffset": 9984,
			"componentType": 5126,
			"count": 832,
			"max": [ 1, 1, 1 ],
			"min": [ -1, -1, -1 ],
			"type": "VEC3"
		},
		{
			"bufferView": 1,
			"byteOffset": 0,
			"componentType": 5126,
			"count": 832,
			"max": [ 0.9980081, 1.023637 ],
			"min": [ -0.1131, -0.3335328 ],
			"type": "VEC2"
		},
		{
			"bufferView": 3,
			"byteOffset": 0,
			"componentType": 5126,
			"count": 832,
			"max": [ 0.9966274, 0.9998721, 1, 1 ],
			"min": [ -1, -0.9999621, -1, -1 ],
			"type": "VEC4"
		},
		{
			"bufferView": 0,
			"byteOffset": 0,
			"componentType": 5123,
			"count": 600,
			"max": [ 351 ],
			"min": [ 0 ],
			"type": "SCALAR"
		},
		{
			"bufferView": 0,
			"byteOffset": 1200,
			"componentType": 5123,
			"count": 216,
			"max": [ 431 ],
			"min": [ 352 ],
			"type": "SCALAR"
		},
		{
			"bufferView": 0,
			"byteOffset": 1632,
			"componentType": 5123,
			"count": 408,
			"max": [ 687 ],
			"min": [ 432 ],
			"type": "SCALAR"
		},
		{
			"bufferView": 0,
			"byteOffset": 2448,
			"componentType": 5123,
			"count": 216,
			"max": [ 799 ],
			"min": [ 688 ],
			"type": "SCALAR"
		},
		{
			"bufferView": 0,
			"byteOffset": 2880,
			"componentType": 5123,
			"count": 48,
			"max": [ 831 ],
			"min": [ 800 ],
			"type": "SCALAR"
		}
	],
	"buffers": [
		{
			"byteLength": 42912,
			"uri": "entity427648.bin"
		}
	],
	"bufferViews": [
		{
			"buffer": 0,
			"byteLength": 2976,
			"target": 34963,
			"byteOffset": 39936
		},
		{
			"buffer": 0,
			"byteLength": 6656,
			"target": 34962,
			"byteStride": 8,
			"byteOffset": 0
		},
		{
			"buffer": 0,
			"byteLength": 19968,
			"target": 34962,
			"byteStride": 12,
			"byteOffset": 6656
		},
		{
			"buffer": 0,
			"byteLength": 13312,
			"target": 34962,
			"byteStride": 16,
			"byteOffset": 26624
		}
	],
	"images": [
		{
			"uri": "Assets/Visuals/Textures/texture_signal_01.jpg"
		},
		{
			"uri": "Assets/Visuals/Textures/texture_rock_simple_01.jpg"
		},
		{
			"uri": "Assets/Visuals/Textures/texture_bark_01.jpg"
		}
	],
	"materials": [
		{
			"pbrMetallicRoughness": {
				"baseColorFactor": [1, 0.3066038, 0.3066038, 1],
				"metallicFactor": 1,
				"roughnessFactor": 1
			},
			"emissiveFactor": [0, 0, 0],
			"doubleSided": false,
			"name": "outline"
		},
		{
			"pbrMetallicRoughness": {
				"baseColorTexture" : {
					"index" : 0,
					"texCoord" : 0
				},
				"baseColorFactor": [1, 0.3066038, 0.3066038, 1],
				"metallicFactor": 0,
				"roughnessFactor": 1
			},
			"emissiveFactor": [0, 0, 0],
			"doubleSided": false,
			"name": "mat10"
		},
		{
			"pbrMetallicRoughness": {
				"baseColorTexture" : {
					"index" : 1,
					"texCoord" : 0
				},
				"baseColorFactor": [1, 0.3066038, 0.3066038, 1],
				"metallicFactor": 0,
				"roughnessFactor": 1
			},
			"emissiveFactor": [0, 0, 0],
			"doubleSided": false,
			"name": "mat09"
		},
		{
			"pbrMetallicRoughness": {
				"baseColorTexture" : {
					"index" : 2,
					"texCoord" : 0
				},
				"baseColorFactor": [1, 0.3066038, 0.3066038, 1],
				"metallicFactor": 0,
				"roughnessFactor": 1
			},
			"emissiveFactor": [0, 0, 0],
			"doubleSided": false,
			"name": "mat01"
		},
		{
			"pbrMetallicRoughness": {
				"baseColorFactor": [1, 0.3066038, 0.3066038, 1],
				"metallicFactor": 0,
				"roughnessFactor": 0.5
			},
			"emissiveFactor": [0, 0, 0],
			"doubleSided": false,
			"name": "mat03"
		}
	],
	"meshes": [
		{
			"name": "mesh_mesh_signal_01_10764mesh_signal_01",
			"primitives": [
				{
					"attributes": {
						"POSITION": 0,
						"NORMAL": 1,
						"TEXCOORD_0": 2,
						"TANGENT": 3
					},
					"indices": 4,
					"material": 0,
					"mode": 4
				},
				{
					"attributes": {
						"POSITION": 0,
						"NORMAL": 1,
						"TEXCOORD_0": 2,
						"TANGENT": 3
					},
					"indices": 5,
					"material": 1,
					"mode": 4
				},
				{
					"attributes": {
						"POSITION": 0,
						"NORMAL": 1,
						"TEXCOORD_0": 2,
						"TANGENT": 3
					},
					"indices": 6,
					"material": 2,
					"mode": 4
				},
				{
					"attributes": {
						"POSITION": 0,
						"NORMAL": 1,
						"TEXCOORD_0": 2,
						"TANGENT": 3
					},
					"indices": 7,
					"material": 3,
					"mode": 4
				},
				{
					"attributes": {
						"POSITION": 0,
						"NORMAL": 1,
						"TEXCOORD_0": 2,
						"TANGENT": 3
					},
					"indices": 8,
					"material": 4,
					"mode": 4
				}
			]
		}
	],
	"nodes": [
		{
			"name": "UnityGlTF_root",
			"children": [
				1
			]
		},
		{
			"name": "node_mesh_signal_01",
			"mesh": 0,
			"matrix": [1, 0, 0, 0, 0, 1, 0, 0, 0, 0, 1, 0, 0, 0, 0, 1]
		}
	],
	"samplers": [
		{
			"magFilter": 9729,
			"minFilter": 9985,
			"wrapS": 10497,
			"wrapT": 10497
		}
	],
	"scenes": [
		{
			"name":"defaultScene",
			"nodes": [
				0
			]
		}
	],
	"scene": 0,
	"textures": [
		{
			"sampler": 0,
			"source": 0
		},
		{
			"sampler": 0,
			"source": 1
		},
		{
			"sampler": 0,
			"source": 2
		}
	]
}