{
	"asset": {
		"generator": "Unity 2018.3.6f1",
		"extras": {
			"exporterVersion" : "2.2.1"
		},
		"version": "2.0"
	},
	"accessors": [
		{
			"bufferView": 2,
			"byteOffset": 0,
			"componentType": 5126,
			"count": 4611,
			"max": [ 1.636134, 1.389974, 0.663713 ],
			"min": [ -1.636134, -0.06881876, -0.6637132 ],
			"type": "VEC3"
		},
		{
			"bufferView": 2,
			"byteOffset": 55332,
			"componentType": 5126,
			"count": 4611,
			"max": [ 0.9969964, 0.9996481, 0.9994664 ],
			"min": [ -0.9928316, -0.9996363, -0.9995217 ],
			"type": "VEC3"
		},
		{
			"bufferView": 1,
			"byteOffset": 0,
			"componentType": 5126,
			"count": 4611,
			"max": [ 3.544497, 3.254525 ],
			"min": [ -2.99378, -2.486419 ],
			"type": "VEC2"
		},
		{
			"bufferView": 3,
			"byteOffset": 0,
			"componentType": 5126,
			"count": 4611,
			"max": [ 0.9998196, 0.9992875, 0.9996073, 1 ],
			"min": [ -0.9999832, -0.9986405, -0.999531, -1 ],
			"type": "VEC4"
		},
		{
			"bufferView": 0,
			"byteOffset": 0,
			"componentType": 5123,
			"count": 1707,
			"max": [ 1639 ],
			"min": [ 0 ],
			"type": "SCALAR"
		},
		{
			"bufferView": 0,
			"byteOffset": 3414,
			"componentType": 5123,
			"count": 2607,
			"max": [ 4169 ],
			"min": [ 1640 ],
			"type": "SCALAR"
		},
		{
			"bufferView": 0,
			"byteOffset": 8628,
			"componentType": 5123,
			"count": 453,
			"max": [ 4610 ],
			"min": [ 4170 ],
			"type": "SCALAR"
		},
		{
			"bufferView": 2,
			"byteOffset": 110664,
			"componentType": 5126,
			"count": 134,
			"max": [ 1.538311, 1.412029, 0.6433221 ],
			"min": [ -1.687503, -0.06185551, -0.6674013 ],
			"type": "VEC3"
		},
		{
			"bufferView": 2,
			"byteOffset": 112272,
			"componentType": 5126,
			"count": 134,
			"max": [ 0.9996989, 0.9993242, 0.9968156 ],
			"min": [ -0.9998139, -0.9999241, -0.9997657 ],
			"type": "VEC3"
		},
		{
			"bufferView": 1,
			"byteOffset": 36888,
			"componentType": 5126,
			"count": 134,
			"max": [ 0.875, 1 ],
			"min": [ 0.125, 0 ],
			"type": "VEC2"
		},
		{
			"bufferView": 3,
			"byteOffset": 73776,
			"componentType": 5126,
			"count": 134,
			"max": [ 1, 0.939037, 0.9413241, 1 ],
			"min": [ -0.9997838, -0.8760725, -0.9409176, -1 ],
			"type": "VEC4"
		},
		{
			"bufferView": 0,
			"byteOffset": 9534,
			"componentType": 5123,
			"count": 288,
			"max": [ 133 ],
			"min": [ 0 ],
			"type": "SCALAR"
		}
	],
	"buffers": [
		{
			"byteLength": 237870,
			"uri": "entity257206n.bin"
		}
	],
	"bufferViews": [
		{
			"buffer": 0,
			"byteLength": 10110,
			"target": 34963,
			"byteOffset": 227760
		},
		{
			"buffer": 0,
			"byteLength": 37960,
			"target": 34962,
			"byteStride": 8,
			"byteOffset": 0
		},
		{
			"buffer": 0,
			"byteLength": 113880,
			"target": 34962,
			"byteStride": 12,
			"byteOffset": 37960
		},
		{
			"buffer": 0,
			"byteLength": 75920,
			"target": 34962,
			"byteStride": 16,
			"byteOffset": 151840
		}
	],
	"images": [
		{
			"uri": "Assets/Visuals/Materials/Wood_Clean_Albedo.jpg"
		}
	],
	"materials": [
		{
			"pbrMetallicRoughness": {
				"baseColorFactor": [0, 0, 0, 1],
				"metallicFactor": 0,
				"roughnessFactor": 1
			},
			"emissiveFactor": [0, 0, 0],
			"doubleSided": false,
			"name": "Black_Outline_Mat"
		},
		{
			"pbrMetallicRoughness": {
				"baseColorTexture" : {
					"index" : 0,
					"texCoord" : 0
				},
				"baseColorFactor": [1, 1, 1, 1],
				"metallicFactor": 0,
				"roughnessFactor": 1
			},
			"emissiveFactor": [0, 0, 0],
			"doubleSided": false,
			"name": "Wood_Clean_Mat"
		},
		{
			"pbrMetallicRoughness": {
				"baseColorFactor": [0.05724907, 1, 0, 1],
				"metallicFactor": 0,
				"roughnessFactor": 0.5
			},
			"emissiveFactor": [0, 0, 0],
			"doubleSided": false,
			"name": "_collider_Mat"
		}
	],
	"meshes": [
		{
			"name": "mesh_Log_01_16604Log_01",
			"primitives": [
				{
					"attributes": {
						"POSITION": 0,
						"NORMAL": 1,
						"TEXCOORD_0": 2,
						"TANGENT": 3
					},
					"indices": 4,
					"material": 0,
					"mode": 4
				},
				{
					"attributes": {
						"POSITION": 0,
						"NORMAL": 1,
						"TEXCOORD_0": 2,
						"TANGENT": 3
					},
					"indices": 5,
					"material": 1,
					"mode": 4
				},
				{
					"attributes": {
						"POSITION": 0,
						"NORMAL": 1,
						"TEXCOORD_0": 2,
						"TANGENT": 3
					},
					"indices": 6,
					"material": 1,
					"mode": 4
				}
			]
		},
		{
			"name": "mesh_Log_01_collider_16606Log_01_collider",
			"primitives": [
				{
					"attributes": {
						"POSITION": 7,
						"NORMAL": 8,
						"TEXCOORD_0": 9,
						"TANGENT": 10
					},
					"indices": 11,
					"material": 2,
					"mode": 4
				}
			]
		}
	],
	"nodes": [
		{
			"name": "UnityGlTF_root",
			"children": [
				1
			]
		},
		{
			"name": "node_Log_01",
			"mesh": 0,
			"children": [
				2
			],
			"matrix": [1, 0, 0, 0, 0, 1, 0, 0, 0, 0, 1, 0, 0, 0, 0, 1]
		},
		{
			"name": "node_Log_01_collider",
			"mesh": 1
		}
	],
	"samplers": [
		{
			"magFilter": 9729,
			"minFilter": 9985,
			"wrapS": 10497,
			"wrapT": 10497
		}
	],
	"scenes": [
		{
			"name":"defaultScene",
			"nodes": [
				0
			]
		}
	],
	"scene": 0,
	"textures": [
		{
			"sampler": 0,
			"source": 0
		}
	]
}